/* XPM */
static char *bala1[] = {
/* columns rows colors chars-per-pixel */
"25 23 120 2 ",
"   c #AFFFFF",
".  c #000000",
"X  c #020101",
"o  c #090909",
"O  c #0A0A09",
"+  c #0B0B0A",
"@  c #0D0D0C",
"#  c #0F0F0E",
"$  c #808080",
"%  c #131312",
"&  c #141412",
"*  c #171616",
"=  c #171716",
"-  c #1B1A19",
";  c #1C1C1A",
":  c #20201E",
">  c #222220",
",  c #232321",
"<  c #252523",
"1  c #262423",
"2  c #262523",
"3  c #262624",
"4  c #272624",
"5  c #272725",
"6  c #2B2A28",
"7  c #2C2B29",
"8  c #2E2D2B",
"9  c #2E2E2C",
"0  c #2F2E2C",
"q  c #2F2E2D",
"w  c #31302E",
"e  c #32302F",
"r  c #32312F",
"t  c #333230",
"y  c #343230",
"u  c #373533",
"i  c #373534",
"p  c #383634",
"a  c #393735",
"s  c #3C3838",
"d  c #3C3938",
"f  c #3D3B39",
"g  c #3E3A3A",
"h  c #3E3C3A",
"j  c #3F3C3B",
"k  c #3F3D3B",
"l  c #403D3B",
"z  c #413F3D",
"x  c #423F3D",
"c  c #43403E",
"v  c #43403F",
"b  c #444140",
"n  c #454240",
"m  c #454241",
"M  c #4A4645",
"N  c #4A4745",
"B  c #4B4746",
"V  c #4C4846",
"C  c #4C4947",
"Z  c #4E4A48",
"A  c #4E4A49",
"S  c #4F4B4A",
"D  c #504C4A",
"F  c #524E4C",
"G  c #524E4D",
"H  c #565150",
"J  c #575251",
"K  c #575351",
"L  c #595453",
"P  c #5B5655",
"I  c #5B5755",
"U  c #5C5756",
"Y  c #5D5756",
"T  c #5D5857",
"R  c #5E5857",
"E  c #5F5A58",
"W  c #655E5E",
"Q  c #655F5E",
"!  c #676160",
"~  c #696261",
"^  c #696361",
"/  c #696362",
"(  c #6C6564",
")  c #6E6766",
"_  c #6F6867",
"`  c #706968",
"'  c #726A6A",
"]  c #726B6A",
"[  c #746D6C",
"{  c #776F6E",
"}  c #77706F",
"|  c #797170",
" . c #7F7776",
".. c #7F7777",
"X. c #817978",
"o. c #827A79",
"O. c #837A79",
"+. c #857C7B",
"@. c #857C7C",
"#. c #857D7C",
"$. c #887F7E",
"%. c #8F8585",
"&. c #928887",
"*. c #928888",
"=. c #938988",
"-. c #938989",
";. c #948A8A",
":. c #958A8A",
">. c #988D8D",
",. c #988E8D",
"<. c #998E8D",
"1. c #A09595",
"2. c #A19595",
"3. c #A39898",
"4. c #A49898",
"5. c #A79C9C",
"6. c #AA9E9E",
"7. c #AA9F9E",
"8. c #AC9F9F",
"9. c #B8ABAA",
/* pixels */
"                  & + @ % = - d                   ",
"            . ; : , 6 d V P ~ [ ` Q .             ",
"          @ , , , , r b H ! [ +.%.*.%.d           ",
"      . , , , , , < u N Y _ X.*.2.5.2.&. ..       ",
"      : , , , , , 3 a V E ` #.,.6.9.6.,.#.~       ",
"    @ , , , , , , < a N R ` X.;.4.8.3.;.X.` <     ",
"  = , , , , , , , , y b H ~ | $.*.,.*.$.| ~ H 0   ",
"  ; , , , , , , , , 7 d Z R ( }  .X. .} ( R Z r   ",
"  , , , , , , , , , < r x D Y Q ( ( ( Q P Z x r   ",
"+ , , , , , , , , , , 3 t k N G H L H G N l t 3 + ",
"+ , , , , , , , , , , , < 0 i k v b v k a 0 < , + ",
"+ , , , , , , , , , , , , , 3 6 8 0 8 6 3 , , , + ",
"+ , , , , , , , , , , , , , , , , , , , , , , , + ",
"+ , , , , , , , , , , , , , , , , , , , , , , , + ",
"  , , , , , , , , , , , , , , , , , , , , , , ,   ",
"  ; , , , , , , , , , , , , , , , , , , , , , ;   ",
"  = , , , , , , , , , , , , , , , , , , , , , =   ",
"    @ , , , , , , , , , , , , , , , , , , , @     ",
"      : , , , , , , , , , , , , , , , , , :       ",
"      . , , , , , , , , , , , , , , , , , .       ",
"          @ , , , , , , , , , , , , , @           ",
"            . ; : , , , , , , , : ; .             ",
"                  & + + + + + &                   "
};
