/* XPM */
static char *bala2[] = {
/* columns rows colors chars-per-pixel */
"30 30 198 2 ",
"   c #AFFFFF",
".  c #EA1000",
"X  c #E31C01",
"o  c #EA1D00",
"O  c #CF2D00",
"+  c #DC2500",
"@  c #D12D00",
"#  c #CD3500",
"$  c #C73B00",
"%  c #CD3900",
"&  c #D53700",
"*  c #DD3300",
"=  c #D33A00",
"-  c #DC3A00",
";  c #E72300",
":  c #EB2100",
">  c #E62A00",
",  c #EB2B00",
"<  c #F22F00",
"1  c #FC2D00",
"2  c #E23500",
"3  c #EB3501",
"4  c #E53C00",
"5  c #EA3A03",
"6  c #EE3D0B",
"7  c #F13B04",
"8  c #FB3A04",
"9  c #F23F12",
"0  c #FF3E14",
"q  c #B75700",
"w  c #B66300",
"e  c #CC4400",
"r  c #C84C00",
"t  c #D34000",
"y  c #DF4300",
"u  c #D64900",
"i  c #DB4B00",
"p  c #C55500",
"a  c #CB5900",
"s  c #DD5300",
"d  c #D55B00",
"f  c #DE5900",
"g  c #E44103",
"h  c #EC4400",
"j  c #E44C00",
"k  c #ED4C05",
"l  c #EA440A",
"z  c #E4440B",
"x  c #F54406",
"c  c #F94505",
"v  c #F64805",
"b  c #FF430E",
"n  c #F44B0A",
"m  c #E35400",
"M  c #E95500",
"N  c #E15A00",
"B  c #E95E00",
"V  c #EC530E",
"C  c #F7550C",
"Z  c #FA540C",
"A  c #F1590F",
"S  c #FF5D0E",
"D  c #FD5102",
"F  c #FF4E13",
"G  c #F54C18",
"H  c #FF4818",
"J  c #F84615",
"K  c #F75216",
"L  c #FA5313",
"P  c #F65F11",
"I  c #FC5E13",
"U  c #F75918",
"Y  c #FD5D1C",
"T  c #C76000",
"R  c #C66E00",
"E  c #D66300",
"W  c #DC6300",
"Q  c #D26E00",
"!  c #DC6B04",
"~  c #C57400",
"^  c #C97000",
"/  c #DA7102",
"(  c #D87E00",
")  c #E56300",
"_  c #EA6302",
"`  c #E26F00",
"'  c #EC6A00",
"]  c #E36308",
"[  c #EB6D0D",
"{  c #F66702",
"}  c #FE6603",
"|  c #F26D05",
" . c #FE6D05",
".. c #FE650E",
"X. c #F56F0D",
"o. c #FB6F0A",
"O. c #F3640E",
"+. c #E57006",
"@. c #E67D01",
"#. c #EB7A06",
"$. c #E7740B",
"%. c #E6790A",
"&. c #F27200",
"*. c #F27509",
"=. c #F37D0D",
"-. c #F97B0B",
";. c #FD7503",
":. c #FD6216",
">. c #FB6B14",
",. c #FE651C",
"<. c #FF6D1F",
"1. c #EB7414",
"2. c #FF7114",
"3. c #F37913",
"4. c #FC7F14",
"5. c #F67619",
"6. c #FF721B",
"7. c #FF7A1F",
"8. c #F47215",
"9. c #FF5421",
"0. c #FF5923",
"q. c #FF5F2E",
"w. c #FF6524",
"e. c #FF6A25",
"r. c #FF6D2D",
"t. c #FF7424",
"y. c #FF702B",
"u. c #FF7D32",
"i. c #FF7B39",
"p. c #D38400",
"a. c #DE8302",
"s. c #DC8B01",
"d. c #E38304",
"f. c #EB8B00",
"g. c #EE810B",
"h. c #E48C08",
"j. c #EC8303",
"k. c #FE8900",
"l. c #F7820A",
"z. c #FC860B",
"x. c #FD890C",
"c. c #E39200",
"v. c #EA9404",
"b. c #E39C00",
"n. c #E5970B",
"m. c #FD9204",
"M. c #FA950D",
"N. c #FF990E",
"B. c #ED8811",
"V. c #EA8819",
"C. c #F28313",
"Z. c #FF8215",
"A. c #FE821C",
"S. c #FF8C1D",
"D. c #EA9713",
"F. c #FF9211",
"G. c #F19E18",
"H. c #FF9B1B",
"J. c #FB961D",
"K. c #E3A100",
"L. c #FFA90E",
"P. c #EEA913",
"I. c #FFA714",
"U. c #FFA61D",
"Y. c #FDAC1B",
"T. c #F6A91B",
"R. c #FDB41B",
"E. c #FFBA1C",
"W. c #FF8624",
"Q. c #FF8E23",
"!. c #FF9224",
"~. c #FF9A24",
"^. c #FF942D",
"/. c #FF9A2D",
"(. c #FF8434",
"). c #FF8E34",
"_. c #FF9530",
"`. c #FF9D37",
"'. c #FFA425",
"]. c #FFAC27",
"[. c #FFA62A",
"{. c #FFAB2B",
"}. c #FFB320",
"|. c #FFB22D",
" X c #FFAB37",
".X c #FFA53A",
"XX c #FFB432",
"oX c #FFBF30",
"OX c #FFCA1F",
"+X c #FFD11D",
"@X c #FFC325",
"#X c #FFCB22",
"$X c #FFC32C",
"%X c #FFCC2C",
"&X c #FFD82A",
"*X c #FFC336",
"=X c #FFD732",
"-X c #FFCC4F",
/* pixels */
"                                                            ",
"                                                            ",
"                                                            ",
"                                                            ",
"                        [ C.E 4.| ..c                       ",
"                      A. XJ.g.=.' m h 3   :                 ",
"                  / {.|.].{.g.d -.Q.A.t.5 9                 ",
"                s.E.R.~ ^ d.~./.Q.4.A.s 2 9.w.              ",
"                =X#X$XY.Y.j.) N i m i i * J G G             ",
"            /.R &X+Xb.w v.M.d f _ B O.:.g 5 9 q.0.,         ",
"          1.8.E %XOXc.v.$XY.N.'.~.-.N m A Y 2 H 8           ",
"        3._.$ d $XK.R }.@XR.M.x.[.~.) 2.t.V l 7 b           ",
"        =.*.s +.T.E.f.L.#XI.W N !.=.B >.6.i - x 8 o         ",
"        @.` d `.^ *Xm.k.E.m.e % >.7.j >.(.<.,.4 , : .       ",
"        h.'.r [ ! .X .m I.U.B & L K U w.e.y.u.:.x           ",
"        p.( p W.A.X.j M F.H.o.C 3 + 6 9.5 v k I n           ",
"        oXn.D.{.#.' m  .z.&.{ :.> X X 0 1 : 7 v n           ",
"        a.XXp.|.H.x.f ) ' ;.2.S , ; , < 1 o , x C           ",
"          $.B.d.{.Q T S.-.s m 2.D 2 C Z c F F L u.z         ",
"            / '.T.s.G.[.-.{ t 6.W.} A.m y k 5 n y.          ",
"            q -X$X%XP.a.*.M I ..Z.!.S.3.6.k O @ g           ",
"              V.*X$X$X|.A.i j u Z.l.C.Q.).,.i.r.            ",
"                E / H.z.a W S.S.#.%.!.5.P Y y.              ",
"                    o.| S.!.=.4.^.).] u C n l               ",
"                + + 2 = 3.^._ # * 4 I j Z 3                 ",
"                                , ,     >                   ",
"                                X                           ",
"                                                            ",
"                                                            ",
"                                                            "
};
