/* XPM */
static char *cuphead[] = {
/* columns rows colors chars-per-pixel */
"38 48 227 2 ",
"   c #030305",
".  c #040509",
"X  c #090509",
"o  c #08070A",
"O  c #12090A",
"+  c #16120E",
"@  c #090A15",
"#  c #1C1515",
"$  c #190E19",
"%  c #26080B",
"&  c #33080A",
"*  c #231817",
"=  c #391414",
"-  c #2C2118",
";  c #372A1B",
":  c #0A0C22",
">  c #161827",
",  c #171B36",
"<  c #0D112E",
"1  c #361523",
"2  c #19203C",
"3  c #2D2727",
"4  c #312B2D",
"5  c #362928",
"6  c #3C3229",
"7  c #282737",
"8  c #332E37",
"9  c #3A3639",
"0  c #5A0D12",
"q  c #451713",
"w  c #400F11",
"e  c #74090B",
"r  c #79090B",
"t  c #6F0C12",
"y  c #442B1F",
"u  c #531521",
"i  c #453422",
"p  c #4B3A23",
"a  c #4B3C2C",
"s  c #453629",
"d  c #523E2A",
"f  c #533F27",
"g  c #463B35",
"h  c #4E2D23",
"j  c #6D302C",
"k  c #55422B",
"l  c #5B442B",
"z  c #5D492C",
"x  c #5B4426",
"c  c #4D423B",
"v  c #4B4137",
"b  c #5C4D37",
"n  c #644C2C",
"m  c #644827",
"M  c #6D512C",
"N  c #73552D",
"B  c #7A5A2E",
"V  c #79552A",
"C  c #675435",
"Z  c #7D5C30",
"A  c #745834",
"S  c #614F30",
"D  c #7F6032",
"F  c #1B234C",
"G  c #2A2C4C",
"H  c #2A2744",
"J  c #38374B",
"K  c #2A2E54",
"L  c #3D3E53",
"P  c #363D5A",
"I  c #343657",
"U  c #2E3052",
"Y  c #263266",
"T  c #433C47",
"R  c #593D43",
"E  c #45434D",
"W  c #4C484D",
"Q  c #454344",
"!  c #574D47",
"~  c #5C524B",
"^  c #4C4A54",
"/  c #484757",
"(  c #524B5A",
")  c #535359",
"_  c #5B5959",
"`  c #4D5054",
"'  c #6C5B45",
"]  c #645548",
"[  c #625D5A",
"{  c #65595A",
"}  c #686259",
"|  c #79674F",
" . c #4F5265",
".. c #5B5A67",
"X. c #454D68",
"o. c #685A67",
"O. c #7A5F7D",
"+. c #5F6371",
"@. c #686869",
"#. c #746B68",
"$. c #6B6D74",
"%. c #68697A",
"&. c #7C7A7B",
"*. c #777577",
"=. c #766B70",
"-. c #8D090C",
";. c #8E060A",
":. c #97090A",
">. c #910A13",
",. c #8F191D",
"<. c #A4040B",
"1. c #AB070A",
"2. c #B40306",
"3. c #A80F10",
"4. c #8E1825",
"5. c #9D2E33",
"6. c #A32D21",
"7. c #815E30",
"8. c #856231",
"9. c #8A6431",
"0. c #8A642F",
"q. c #97495B",
"w. c #8C5F57",
"e. c #89724D",
"r. c #9C5362",
"t. c #857565",
"y. c #897D71",
"u. c #AC7776",
"i. c #8B8478",
"p. c #988C7B",
"a. c #B5887F",
"s. c #515D80",
"d. c #5F6989",
"f. c #676C85",
"g. c #777885",
"h. c #6A7491",
"j. c #757D97",
"k. c #717084",
"l. c #937480",
"z. c #A26C80",
"x. c #7C8298",
"c. c #7D8085",
"v. c #848383",
"b. c #82838A",
"n. c #8A8989",
"m. c #968988",
"M. c #9A948A",
"N. c #858A95",
"B. c #8F9398",
"V. c #939392",
"C. c #95959A",
"Z. c #9A9A9C",
"A. c #999591",
"S. c #A39988",
"D. c #A19D9A",
"F. c #A39C93",
"G. c #A98893",
"H. c #ACA28E",
"J. c #ABA599",
"K. c #B3AC9C",
"L. c #B8AD96",
"P. c #B8B09C",
"I. c #B7A08A",
"U. c #8B94AC",
"Y. c #8E95A3",
"T. c #989DA1",
"R. c #9198A6",
"E. c #8D96B1",
"W. c #949DB7",
"Q. c #B490AB",
"!. c #9DA4B0",
"~. c #A5A4A2",
"^. c #A2A4AB",
"/. c #AAAAA6",
"(. c #B9AEA2",
"). c #BBB6A9",
"_. c #ABB1B9",
"`. c #B3B4B5",
"'. c #BAB4B4",
"]. c #BBBCBC",
"[. c #B7B6B9",
"{. c #ACAFB1",
"}. c #C2B89F",
"|. c #C4A7A4",
" X c #C6BDAD",
".X c #C4B9A7",
"XX c #C1BEBD",
"oX c #D5BFA3",
"OX c #C8C4B8",
"+X c #D3CCBA",
"@X c #ABB4CB",
"#X c #AEB7C7",
"$X c #BABCC2",
"%X c #B5BAC9",
"&X c #C1BFC4",
"*X c #C5C4CD",
"=X c #C7C9C8",
"-X c #D1CDCD",
";X c #DBD5CA",
":X c #DCD9CB",
">X c #C7CBD5",
",X c #CCD1D6",
"<X c #D3D4D4",
"1X c #DBDBDD",
"2X c #D8D8D7",
"3X c #E1DDD6",
"4X c #E0DAC8",
"5X c #DAE0DF",
"6X c #E5E3D7",
"7X c #DBDDE2",
"8X c #D4DBE5",
"9X c #CFD8EA",
"0X c #DEE0E3",
"qX c #DDE5F2",
"wX c #E2E3E5",
"eX c #ECEBE2",
"rX c #E5E8EB",
"tX c #F9F6EE",
"yX c #E9ECF4",
"uX c #F5F6F6",
"iX c #F9F8F5",
"pX c #F6F6F8",
"aX c #F8F7F9",
"sX c #FAF9FA",
"dX c #F7F7F0",
"fX c #F2EDE6",
"gX c None",
/* pixels */
"gXgXgXgXgXgXgXgXgXgXgXgXgXgXgXgXgXgXgXgXgXgXgXgXgXgXgXgXgXgXgXgXgXgXgXgXgXgX",
"gXgXgXgXgXE T 3 gXgXgXgXgXgXgXgXgXgXgXgXgXgXgXgXgXgXgXgXgXgXgXgXgXgXgXgXgXgX",
"gXgXgXgXG H._.B.( w = 3 J 4 gXgXgXgXgXgXgXgXgXgXgXgXgXgXgXgXgXgXgXgXgXgXgXgX",
"gXgXgXgXU +X*X6XQ.3.-.I.,X+.C gXgXgXgXgXgXgXgXgXgXgXgXgXgXgXgXgXgXgXgXgXgXgX",
"gXgXgXgXG }.=X6XQ.2.3.oX>X_.! gXgXgXgXgXgXgXgXgXgXgXgXgXgXgXgXgXgXgXgXgXgXgX",
"gXgXgXgXgX) F.<Xq.2.6..X<X%XT gXgXgXgXgXgXgXgXgXgXgXgXgXgXgXgXgXgXgXgXgXgXgX",
"gXgXgXgXgXgX9 T u 0 h w.u.5.w gXgXgXgXgXgXgXgXgXgXgXgXgXgXgXgXgXgXgXgXgXgXgX",
"gXgXgXgXgXgXgXgXgXgXH r <.3.j v gXgXgXgXgXgXgXgXgXgXgXgXgXgXgXgXgXgXgXgXgXgX",
"gXgXgXgXgXgXgXgXgXgXgXR a.|.,XX.4 c J Q 9 4 4 3 3 gXgXgXgXgXgXgXgXgXgXgXgXgX",
"gXgXgXgXgXgXgXgXgXgXgXJ L.iXwXo.c &.&.v.c.*.$.@.@.) Q 9 s gXgXgXgXgXgXgXgXgX",
"gXgXgXgXgXgXgXgXgXgX` *.*.n.r.4.q } `.].$X].].`.{.^.n.{.k.g gXgXgXgXgXgXgXgX",
"gXgXgXgXgXgXgXgXJ / F.^.x.l.y.l.m.M.[.[.$XOXXX].$X[.^.[.R.%.gXgXgXgXgXgXgXgX",
"gXgXgXgXgXgXgXW J.N. X7X,X$XT.C.b.v.Z.C.Z.Z.Z.C.C.B.b.J.:XW.] gXgXgXgXgXgXgX",
"gXgXgXgXgXgXJ J.,X%. X7X1X1X1X1X#XJ.wX0X7X7XwXwXU.} J.4XyXP p gXgXgXgXgXgXgX",
"gXgXgXgXgXgX#.<Xj.( }.7X1X1X2X1X#X).iXsXpXpXpXpX+.# M.:X9X, ; gXgXgXgXgXgXgX",
"gXgXgXgXgXK L.%X)  .S.3X1X1X1X1X%XK.iXpXpXuXuXuXh.> i.3XqXP p gXgXgXgXgXgXgX",
"gXgXgXgXgXG L.@XW gX#.2X1X1X1X1X>XZ.tXiXpXuXuXpXd.3 M.eXqXH k gXgXgXgXgXgXgX",
"gXgXgXgXgXK S.*X( gX/ .X7X1X[.'.>XB.4XsXpXpXpXpXh.@.P.iXqXP S gXgXgXgXgXgXgX",
"gXgXgXgXgXgX#.;XU.W T t.1X@X7 $ ~ D.A.6XaXsXsXsX,XB.|.|.]...gXgXgXgXgXgXgXgX",
"gXgXgXgXgXgXI i.<X$X_.%. X@X,     g A.V.).-X-X].T.g.4.,._ c gXgXgXgXgXgXgXgX",
"gXgXgXgXgXgXgXU { A.Z. .t.,XO.t & X 6 m.~.~.^.`.<X%Xr.G.@.gXgXgXgXgXgXgXgXgX",
"gXgXgXgXgXgXgXgXgXgXgXgXE P.*Xq.:.0 % O 6 ~ #.@.K.1X2XN.! gXgXgXgXgXgXgXgXgX",
"gXgXgXgXgXgXgXgXgXgXgX> @ g (.*Xz.5.t         3 H.1XU.8 gXgXgXgXgXgXgXgXgXgX",
"gXgXgXgXgXgXgXgXgXgX< o     - i.'.'.G.+.) _ v.OX*Xg.> X i gXgXgXgXgXgXgXgXgX",
"gXgXgXgXgXgXgXgXgXF @ . X @ . o # g _ =.*.y.&._ 7 o   . + gXgXgXgXgXgXgXgXgX",
"gXgXgXgXgXgXgXgXgX< . . s gX, o                 + > @   X l gXgXgXgXgXgXgXgX",
"gXgXgXgXgXgXgXgXE ` 7 6 gXgXgX:           .   + gXgXF .   i gXgXgXgXgXgXgXgX",
"gXgXgXgXgXgXgX/ i.].&XY.] gXgX:           .   - gXgX^ ` _ g.! gXgXgXgXgXgXgX",
"gXgXgXgXgXgXL ).2X].].<Xx.7 $ . .             * i ) /.].].].N.~ gXgXgXgXgXgX",
"gXgXgXgXgXgXi.tX0X<X=XdX8X_.O.0 & O . .   O % = g M.dX8X].{.-Xf.gXgXgXgXgXgX",
"gXgXgXgXgXU L.iXuXuXuXpXdXsX%X4.1.-.r e r -.-.j 4XuXuXuX0X5XeXE.b gXgXgXgXgX",
"gXgXgXgXgXgXp.fXuXuXuXpXrX[.*.-.2.2.2.2.2.2.:.y K.OXeXaXuXaXsXW.! gXgXgXgXgX",
"gXgXgXgXgXgXL p.iXsXuXpXrXU.u 2.2.2.2.2.2.2.2.r y P.eXpXpXpX8X+.gXgXgXgXgXgX",
"gXgXgXgXgXgXgX^ M.`.v.+X7Xg.j 1.2.2.2.2.2.2.2.:.q }.iXpX1X<X%.g gXgXgXgXgXgX",
"gXgXgXgXgXgXgXgXgXgXgX^ T =.&Xz.>.r >.:.:.3.5.p.T c A.Z.W c 9 gXgXgXgXgXgXgX",
"gXgXgXgXgXgXgXgXgXgXgXgX/ OX7XE.1 - 5 * 1 5. X5Xx.b gXgXgXgXgXgXgXgXgXgXgXgX",
"gXgXgXgXgXgXgXgXgXgXgXgXo.;X7Xh.g gXgXgXgX] ;X1XE.' gXgXgXgXgXgXgXgXgXgXgXgX",
"gXgXgXgXgXgXgXgXgXgXgXgX} :X9X%.gXgXgXgXgX*.:X7XU.' gXgXgXgXgXgXgXgXgXgXgXgX",
"gXgXgXgXgXgXgXgXgXgXgXgXo.:X,Xk.gXgXgXgXgX=.2X1Xx.| gXgXgXgXgXgXgXgXgXgXgXgX",
"gXgXgXgXgXgXgXgXa z l 4 ! :X8Xk.k gXgXgX8 ' +X7Xh.gXgXgXgXgXgXgXgXgXgXgXgXgX",
"gXgXgXgXgXgXgXa 9.9.9.x ' ).D.| l C gXgXd D e.M._ a 9 6 s k gXgXgXgXgXgXgXgX",
"gXgXgXgXgXgXH V 9.9.9.9.n A A A M z gXg M N B Z S x B 9.D z l gXgXgXgXgXgXgX",
"gXgXgXgXgXgXG V 9.8.9.8.N N B 7.9.M W l 9.D B m M 9.9.9.9.D a gXgXgXgXgXgXgX",
"gXgXgXgXgXgXY p V 8.0.9.8.9.9.9.9.n ^ k 9.9.9.8.8.9.9.9.9.M s gXgXgXgXgXgXgX",
"gXgXgXgXgXgXgXJ l m M B Z Z Z B N p [ 9 V 8.9.8.8.B B N M p z gXgXgXgXgXgXgX",
"gXgXgXgXgXgXgXC.*.) v k k d k d s c n.L a l n n m l l f v ~ gXgXgXgXgXgXgXgX",
"gXgXgXgXgXgXgXT.T.R.N.g.$.@.@.@.&.B.Z.N.&.@.} _ } @.@.*.n.Z.gXgXgXgXgXgXgXgX",
"gXgXgXgXgXgXgXgXgXgXgXgXgXgXgXgXgXgXgXgXgXgXgXgXgXgXgXgXgXgXgXgXgXgXgXgXgXgX"
};
