/* XPM */
static char * mouse[] = {
"32 32 4 1",
" 	c None",
".	c #FFFFFF",
"+	c #FFFFFF",
"@	c #808080",
"                                ",
"                .               ",
"               ..               ",
"              ...               ",
"             ....               ",
"            .....               ",
"            ......              ",
"           ........             ",
"           .........            ",
"          ..........            ",
"          ..........            ",
"         ..........             ",
"         ..........             ",
"         ..........             ",
"         ..........             ",
"         ..........             ",
"          ..........            ",
"          .........             ",
"           .......              ",
"            .....               ",
"            .....               ",
"            .....               ",
"            .....               ",
"            .....               ",
"            .....               ",
"             ...                ",
"             ...                ",
"             ...                ",
"              .                 ",
"                                ",
"                                ",
"                                "
};
