/* XPM */
static char *cuphead6_110[] = {
/* columns rows colors chars-per-pixel */
"64 83 216 2 ",
"   c #010101",
".  c #0D0202",
"X  c #0B0B0A",
"o  c #090807",
"O  c #140403",
"+  c #1A0303",
"@  c #120E0C",
"#  c #170B07",
"$  c #1A120B",
"%  c #141414",
"&  c #191614",
"*  c #1C1C1C",
"=  c #1B1915",
"-  c #0F1010",
";  c #270606",
":  c #340201",
">  c #390707",
",  c #22170A",
"<  c #251A0C",
"1  c #2A1D0C",
"2  c #221E1C",
"3  c #2D1B17",
"4  c #35240F",
"5  c #29211A",
"6  c #3D2912",
"7  c #342513",
"8  c #2F200C",
"9  c #1F2020",
"0  c #242424",
"q  c #292625",
"w  c #2C2B2B",
"e  c #262827",
"r  c #312B2B",
"t  c #2F302F",
"y  c #2D3332",
"u  c #343434",
"i  c #3B3B3B",
"p  c #383837",
"a  c #34312D",
"s  c #480505",
"d  c #520303",
"f  c #590606",
"g  c #4A1110",
"h  c #640201",
"j  c #6A0202",
"k  c #760303",
"l  c #7D0101",
"z  c #720B0A",
"x  c #6E1111",
"c  c #442E13",
"v  c #4B3317",
"b  c #543A1A",
"n  c #5B3E1B",
"m  c #523616",
"M  c #633F1C",
"N  c #493C3B",
"B  c #4C352E",
"V  c #752727",
"C  c #3F403F",
"Z  c #5E401D",
"A  c #64431D",
"S  c #69471D",
"D  c #6E491D",
"F  c #744D1E",
"G  c #7D521E",
"H  c #6A4921",
"J  c #744E21",
"K  c #7C5321",
"L  c #775021",
"P  c #534739",
"I  c #423F40",
"U  c #3E4242",
"Y  c #434343",
"T  c #4C4C4C",
"R  c #474848",
"E  c #554B4B",
"W  c #4C5252",
"Q  c #4D5E5E",
"!  c #535353",
"~  c #545B5B",
"^  c #5B5C5C",
"/  c #5C5753",
"(  c #4F4F50",
")  c #66544E",
"_  c #69655F",
"`  c #5F5F60",
"'  c #5D6969",
"]  c #646464",
"[  c #656A6B",
"{  c #6C6C6C",
"}  c #6B6564",
"|  c #756C6C",
" . c #6F6F70",
".. c #667677",
"X. c #747474",
"o. c #7B7B7B",
"O. c #797777",
"+. c #840302",
"@. c #8C0303",
"#. c #9C0202",
"$. c #940302",
"%. c #961313",
"&. c #891B1B",
"*. c #A80606",
"=. c #B40202",
"-. c #BB0202",
";. c #A41212",
":. c #833D3D",
">. c #872727",
",. c #C40000",
"<. c #CB0000",
"1. c #D40000",
"2. c #D90000",
"3. c #81541F",
"4. c #835621",
"5. c #865822",
"6. c #8C5C23",
"7. c #915F23",
"8. c #966224",
"9. c #996324",
"0. c #8D4F4F",
"q. c #886564",
"w. c #966767",
"e. c #817E7E",
"r. c #8A7576",
"t. c #9A7A7A",
"y. c #896F70",
"u. c #7F7F80",
"i. c #807F80",
"p. c #7D8182",
"a. c #758A8A",
"s. c #799494",
"d. c #6C8888",
"f. c #848484",
"g. c #8C8C8C",
"h. c #888989",
"j. c #958989",
"k. c #95918D",
"l. c #8D9191",
"z. c #859999",
"x. c #939393",
"c. c #959899",
"v. c #9C9C9C",
"b. c #9B9696",
"n. c #908F90",
"m. c #A19B9B",
"M. c #A38686",
"N. c #8AA9A9",
"B. c #88B7B7",
"V. c #9DB4B4",
"C. c #93BABA",
"Z. c #9AA3A3",
"A. c #A4A4A4",
"S. c #ABABAB",
"D. c #A9A5A6",
"F. c #ADB3B3",
"G. c #A6B8B8",
"H. c #B3B3B3",
"J. c #B7BBBB",
"K. c #BBBBBB",
"L. c #B7B7B7",
"P. c #B0AFAF",
"I. c #C0BFBF",
"U. c #BFC0BF",
"Y. c #94C4C4",
"T. c #9AC7C7",
"R. c #9CD4D4",
"E. c #8FC1C1",
"W. c #BCC6C6",
"Q. c #A6DADA",
"!. c #B5D5D5",
"~. c #A0CBCB",
"^. c #A9E5E5",
"/. c #ACEAEA",
"(. c #A5E2E2",
"). c #B2ECEC",
"_. c #B9E8E8",
"`. c #ADF4F4",
"'. c #AFFFFF",
"]. c #B4F4F4",
"[. c #B9F5F5",
"{. c #B2FEFE",
"}. c #BCFDFD",
"|. c #C4C4C4",
" X c #C8C7C7",
".X c #C4C9C9",
"XX c #CBCCCC",
"oX c #D0CFCF",
"OX c #CCD3D3",
"+X c #C2DEDE",
"@X c #D4D4D4",
"#X c #D6DADA",
"$X c #DBDBDB",
"%X c #E0DFDF",
"&X c #C8E8E8",
"*X c #DEE2E2",
"=X c #D3EAEA",
"-X c #C3F6F6",
";X c #C3FDFD",
":X c #CBFCFC",
">X c #D5F5F5",
",X c #DBF5F5",
"<X c #D3FBFB",
"1X c #DBFAFA",
"2X c #E4E4E4",
"3X c #E8E7E7",
"4X c #E6EBEB",
"5X c #EBEBEB",
"6X c #F0EFEF",
"7X c #E5F4F4",
"8X c #ECF3F3",
"9X c #E4F9F9",
"0X c #EAF8F8",
"qX c #F5F5F5",
"wX c #F9F9F9",
"eX c #F7F8F8",
/* pixels */
"'.'.'.'.'.'.'.'.'.'.'.'.'.'.'.'.{.'.'.'.'.{.'.}.<X:X{.'.'.'.'.'.'.'.'.'.'.'.'.'.'.'.'.'.'.'.'.'.'.'.'.'.'.{.'.'.'.'.'.'.'.'.'.'.",
"'.'.'.'.'.'.'.'.'.'.'.'.'.'.'.{.{.{.].).).Q.Y.B.B.Q.{.'.'.'.'.'.'.'.'.'.'.'.'.'.'.'.'.'.'.'.'.'.'.'.'.'.'.'.'.'.'.'.'.'.'.'.'.'.",
"'.'.'.'.'.'.'.'.'.'.'.{.{.].^.R.B.s.' R i p i i u u d.^.'.'.'.'.'.'.'.'.'.'.'.'.'.'.'.'.'.'.{.'.'.'.'.'.'.'.'.'.'.'.'.'.'.'.'.'.",
"'.'.'.'.'.'.'.'.'.'.'.`.N.~ T W i > j l f e.XX@X.XT % [ /.'.'.'.'.'.{.'.'.'.'.'.'.'.'.'.'.'.'.'.'.'.'.'.'.'.'.'.'.'.'.'.'.'.'.'.",
"'.'.'.'.'.'.'.'.'.'.{.B.u T S.#XoX:.1.2.,.i.eXwX5Xh.o.* ..].{.{.'.'.'.'.'.'.'.'.'.'.'.'.'.'.'.'.'.'.'.'.'.'.'.'.'.'.'.'.'.'.'.'.",
"'.'.'.'.'.'.'.'.'.'.}. .X.g.U.wXwXi.=.2.<.0.5XwX2Xg.$X{ * z.{.{.'.'.'.'.'.'.'.'.'.'.'.'.'.'.'.'.'.'.'.'.'.'.'.'.'.'.'.'.'.'.'.'.",
"'.'.'.'.'.'.'.'.'.{.=X~ h.K.g.qXwXS.%.1.<.0.3XwX@Xc.qX$X! q N.{.'.'.'.'.'.'.'.'.'.'.'.'.'.'.'.'.'.'.'.'.'.'.'.'.'.'.'.'.'.'.'.'.",
"{.'.'.'.'.'.'.'.'.}.2X! o.@Xh.2XwXK.&.2.,.0.4XwXK.A.eXeXD.; i ~.{.'.'.'.'.'.'.'.'.'.'.'.'.'.'.'.'.'.'.'.'.'.'.'.'.{.'.'.'.'.'.'.",
"'.'.'.'.'.'.'.'.'.}.*X! ^ @Xg.@XwXH.%.2.=.t.eXqXv.XXwX3Xw.@.; W (.'.'.'.'.'.'.'.'.'.'.'.'.'.'.'.'.'.'.'.'.'.'.'.'.'.'.'.'.'.'.'.",
"'.'.'.'.'.'.'.'.'.}.4X{ 0 L.n.XX2X| h +.g f.@X|.A.qX3Xj.*.1.@.; ..`.'.'.'.'.'.'.'.'.'.'.'.'.'.'.'.'.'.'.'.'.'.'.'.'.'.'.'.'.'.'.",
"'.'.'.'.'.'.'.'.'.}.8XA.* ] {  .i & & @ @ = e i c.D.0.;.<.1.<.f * a.].'.'.'.{.{.'.'.'.'.'.'.'.'.{.'.'.'.{.{.'.'.'.'.'.'.'.'.'.'.",
"'.'.'.'.'.'.'.'.'.{.9X@X^ % % 0 ! f.b.c.n.o.( * 3 %.,.1.2.1.=.q.^ * N.'.'.'.{.{.{.{.'.`.}.&X^.Q.Y.Y.Y.B.B.E.Y.Q.Q.-X{.'.'.'.'.'.",
"'.'.'.'.'.'.'.'.'.'.:X3XI.f.o.D.XX$X2X2X$X@XXXg.3 l <.1.1.=.0.oX%X! w T.[.^.T.C.Z.s.' Q ! R i w 0 0 e q 0 e e t u T d./.{.{.'.'.",
"'.'.'.'.'.'.'.'.'.'.{.9X2X$X$X3X7X1X;X,X0X7X3X@X{ + f &.>.w.@XeXwXL.2 t T p e 0 q w i T ( ] X.o.o.p.O.X.X.X.O.u.O.^ u ~ R.{.'.'.",
"'.'.'.'.'.'.'.'.'.'.'.}.1X8X1X;X{.{.'.'.{.{.<X5XW.T o } XX6XeXeX8Xt.k O 2 ! } f.g.g.h.X.} { ] ! R Y i i N C Y h.$X$Xv.* W `.'.'.",
"'.'.'.'.'.'.'.'.'.'.'.'.'.{.{.'.'.'.'.{.'.'.{.7X$X{ o = x.qXqX$XM.%.<.h & w p i i i u p R ^  .X.o.h.h.h.h.{ ] D.XXA. .{ e C.{.'.",
"{.'.'.'.'.'.'.'.'.'.'.'.'.'.'.'.'.'.'.'.'.'.'.-Xb.0 * t 0 e.M.0.;.1.2.<.s ( D.S.I.|. X|.K.D.v.l.h.o.f.i.i.n.g.u.] / L.$XC s.'.'.",
"'.'.'.'.'.'.'.'.'.'.{.'.'.'.'.'.'.'.'.'.'.'.`.z.r ] L.|.^ ; +.*.=.;.;.%.V  .Z.x.h.e.O. .{ { O.f.h.o.X.{ { { i.A.K.k.3XeX} ' '.'.",
"'.'.'.'.'.'.'.'.'.'.'.'.'.'.'.'.'.'.'.'.'.{.z.= R I.$X%X|.O.q.y.r.j.j.o.O.] / ! ! ( ( ^ ] [ X.O.f.n.A.|.#X3XqXL.O.{ XXwXg.i /.'.",
"'.'.'.'.'.'.'.'.'.'.'.'.'.'.'.'.'.'.'.'.{._.R % ! `  .i.g.g.X.[ [ ] ] {  .O.i.h.b.n.o. X#X%X3X6XqXwXwXwXeXwX$Xi   2 K.wXX.0 R.{.",
"'.'.'.'.'.'.'.'.'.'.'.'.'.'.'.'.'.'.'.'.{.W.0 p I.H.b.f.f.i.g.b.D.K. XoX@X$X$X%X%XoXn.3XwXeXqXqXqXqXqXqXqXwXL.&   - P.wX{ & Y.{.",
"'.'.'.'.'.'.'.'.'.'.'.'.'.'.'.'.'.'.'.`.s.i 0 i I.%X%X$X%X$X%X%X$X$X$X$X$X$X$X#X$X#Xg.XXeXqXeXqXqXqXqXqXqXwXS.%   - P.wXo.X N.{.",
"'.'.'.'.'.'.'.'.'.'.'.'.'.'.'.'.'.'.`...0 ] H.A.|.$X$X$X$X$X$X$X$X$X$X$X$X#X$X$X$X$Xv.P.wXqXqXqXqXqXqXqXqXeXL.%   @ P.wXf.X z.}.",
"'.'.'.'.'.'.'.'.'.'.'.'.'.'.'.'.'.`.a.* O.@X$X$X%X$X#X$X#X$X$X@X#X$X#X$X$X$X$X$X$X$XH.b.qXqXqXqXwXqXqXqXqXqX%X/ o & K.wXh.@ N.{.",
"'.'.{.'.'.'.'.'.'.'.'.'.'.'.'.'.'.Y.0 ^ @X$X$X@XL.#X$X$X$X$X$X$X$X$X$X$X$X@X$X$X$X$XXXg.2XeXqXqXqXqXqXqXqXeX3XX.X 9  XwXS.2 B.{.",
"'.'.'.'.'.'.'.'.'.'.{.'.'.'.'.'.].[ * S.%X$X X .( XX$X$X$X%X$X$X$X#X$X@X$X$X$X$X$X$X#Xb.|.eXeXqXqXqXqXqXqXeX@Xq   y @XwX@XR T.{.",
"'.'.'.'.'.'.'.'.'.'.'.'.'.'.'.{.+Xp Y XX$X#X{ e r L.$X#X#X@X$X$X$X$X$X$X$X$X$X@X#X$X$XH.b.qXqXqXqXqXqXqXqXeX3X!   W 3X X[ 5 l.].",
"'.'.'.'.'.'.'.'.'.'.'.'.'.'.'.}..X0 ^ $X$X|.u { N f.%X$X$X$X$X$X$X$X$X$X$X$X$X%X$X$X$X@Xg.@XeXqXeXqXqXqXqXqXwXP.0 o.I.N f j q C.",
"'.'.'.'.'.'.'.'.'.'.'.'.'.'.'.{.J.* ` $X$XH.q l. .R oX$X$X$X#X$X$X$X$X$X$X@X$X$X$X$X$X%XP.l.3XwXqXqXqXqXqXqXwX%X} O.N @.1.,.g N.",
"'.'.'.'.'.'.'.'.'.'.'.'.'.'.'.}..Xw R @X$XK.0 f.S.e b.$X$X$X$X$X$X#X$X$X$X$X$X$X@X@X$X$X#Xb.A.5XeXqXqXqXqXqXqXS.f.oXE #.<.+.E Q.",
"'.'.'.'.'.'.'.'.'.'.'.'.'.'.'.}.*X~ * S.%XoXY p D.^ i |.$X$X$X#X$X$X$X$X$X$X@Xv.! ] A.oX$X@Xv.x.XX6XwXwXwX5XP.o.|.%XP.E g ) |.1X",
"'.'.'.'.'.'.'.'.'.'.'.'.'.'.'.{.4XZ.* ^ @X$Xv.q u W @  .#X$X$X#X$X$X$X#X$X$Xh.&     = ] K.%X$XH.x.A.K.|.S.h.f. X$X$X$X[ w |.8X{.",
"'.'.'.{.'.'.'.'.'.'.'.'.'.'.'.{.9X@X{ * e.#X$XD.! p p { |.$X$X$X@X$X$X$X$X|.r           i v.XX*X$XK.A.n.v.H.#X$X%X@Xh.9 O.,X;X{.",
"'.'.'.'.'.'.'.'.'.'.'.'.'.'.'.'.:X5X|./ & ` H.$X$XXXXXoX@X$X$X$X$X$X$X$X$XH.2             * T h.S.|.@X@X#X$X%X$XI.{ 0 { #X}.'.'.",
"'.'.'.'.'.'.'.'.'.'.{.'.'.'.'.'.'.<X2XK.` % 9 ^ x.K.oX#XS.U.$X$X$X$X@X$X$XoX{ % . + # O       o * w R ! ^ ` g.XX/ w h.$X>X'.'.'.",
"'.'.'.'.'.'.'.'.'.'.'.'.'.'.'.'.'.}.0X2X.Xf.Y e * e i ! t ] @X$X$X$X$X$X$X$XoXg.a k *.$.> . .               ^ o.* n.3X9X{.'.'.'.",
"'.'.'.'.'.'.'.'.'.'.'.'.'.'.'.'.'.'.}.<X2X#XD.` t     o o % { |.$X$X$X$X$X$X$X#XL.q.>.*.$.+.@.:         X ! h.e ] *X1X{.{.'.'.'.",
"'.'.'.'.'.'.'.'.'.'.'.'.'.'.'.'.'.'.'.'.,XXXT u ] Y %       o i n.oX$X$X$X$X$X$X$X#XH.j.q.:.&.z # o & u f.S.C I oX:X'.'.'.'.'.'.",
"'.'.'.'.'.'.'.'.'.'.'.'.'.'.'.'.{.{.`.N.' p 0 D.6X3XS.! o       @ T v.@X%X$X#X$X#X$X%X$X@X XP.m.f.g.D. XK.T t L.1X{.'.'.'.{.'.'.",
"'.'.'.'.'.'.'.'.'.'.'.'.'.'.'.'.'.`.d.2 C o.f.b.Z.@XeX*X(           % R g.|.$X%X$X$X$X$X$X%X%X%X%X$X.Xx.u p S.8X;X'.'.'.'.'.'.'.",
"'.'.'.'.'.'.'.'.'.'.'.{.'.'.'.'.{.a.* { $XeXqX3X|.m.m.S.p               o u ] c.S.|.@X$X#X@XXXI.m.` p u ] L.8X:X'.'.'.'.'.'.'.'.",
"'.'.'.'.'.'.'.'.'.'.'.'.'.'.'.'.~.e T U.2XqXqXeXeX8XK.w                       X * w T ^ ^ ! R p u T o.F.$X8X:X'.'.'.'.'.'.'.'.'.",
"'.'.'.'.'.'.'.'.'.'.'.'.'.'.'.Q.' % ] g.g.L.eXqXeXqXg.o                           u i * 9 ( O.x.L.XX%X3X8X:X'.'.'.'.'.'.'.'.'.'.",
"'.'.'.'.'.'.'.'.'.'.'.'.'.'./.~ * x.2XqX$Xh.@XeX2Xh.*                           o ( T * 0 e w ^ K.8X1X:X{.'.'.'.'.'.'.'.'.'.'.'.",
"'.'.'.'.'.'.'.'.'.'.'.'.'.{.z.* b.eXwXwX3XX.X.x./ o         . f +.s .           o p [ x.S.v.{ e u V.{.'.'.'.'.'.'.'.'.'.'.'.'.'.",
"'.'.'.'.'.'.'.'.'.'.'.'.'.&XT ! 3XeXwX3Xx.v.A.0 s ;         . #.2.,.k +         t A.v.g.A.XX%XS.T w T.'.'.'.'.'.'.'.'.'.'.'.'.{.",
"'.'.'.'.'.'.{.'.'.'.'.'.{.!.w x.wXwX6Xv.S.5XX.; #.:         . @.1.1.1.+.+       * i u i I ^ f.] ^ e T ^.{.'.'.'.'.'.'.'.'.'.'.'.",
"'.'.'.'.'.'.'.'.'.'.'.{.:XL.w H.wXqXS.A.qX3XI f -.;           d <.1.1.1.$.;     X ] |.%X$X .0 [ o.t o ' /.{.`.'.{.{.'.'.'.'.'.'.",
"'.'.'.'.'.'.'.'.'.'.'.'.:XOXi f.3X.XA.3XwXXXr @.,.:           . l 1.2.1.2.@.O   { 3XwXwX6Xh.} #XqXc.@ X p.B.....s.V._.'.'.'.'.'.",
"'.'.'.'.'.'.'.'.{.`.(.&XOXL.! * ( X.$XeXwXH.3 *.1.d             + l <.2.2.=.: p @XwXqXeXqX%XoX2XwXL.5 6 r 6 c 6 7 q W V.[.'.'.'.",
"'.'.'.'.'.'.'.`.T.u.i u w * % o - ( 4XeXwXv.> -.1.+..             . d #.+.g 5 D.wXqXqXqXqXwXwXqXqXA.[ B F 8.8.8.6.F 6 5 z.[.{.'.",
"'.'.'.'.'.'.R.' w 8 % @ 6 c 6 < o w |.wXwXh.s ,.1.,.d                 . N l.O.5XeXeXqXqXqXqXqXqXqX3X5X .b 8.8.8.8.9.6.m q p.^.'.",
"'.'.'.'.{.C.y < v b n G 8.8.8.5.6 o R J.5Xf.d <.1.1.=.:                 { $Xp.5X$XoX6XqXqXqXqXqXqXqXwXn.8 8.8.9.9.9.9.7.m @ [ ).",
"'.'.'.{.Y.y 1 H Z H 7.9.8.8.9.9.3.$ X 5 W w j 1.1.1.1.=.d +             { $Xi.5X@Xn.A.%XwXqXqXqXqXqX5XW 7 8.8.9.9.9.9.9.8.v = N.",
"'.'.'.T.t 1 J A H 8.8.8.9.9.9.9.K 3 C % . h ,.1.1.1.1.1.<.#.d ; .       X.oXo.5X@XH.K.3XqXqXqXqXqXeXA.< D 8.8.8.9.9.9.9.9.K $ T ",
"'.{.^.R $ K S D 9.9.9.8.8.9.4.A b , - O d =.1.1.1.1.1.1.1.1.<.=.$.l d + f.XXe.6X$XS.H.5XeXqXqXqXqXoXi 6 6.8.8.8.8.9.9.9.9.8.1 % ",
"'.{.z.@ n F Z 8.9.8.9.8.9.K v J 7.b   s x z <.1.1.1.1.1.1.1.1.1.1.1.1.@.N X.v.wXoXv.H.5XeXqXqXqXeX.X] 7 Z A H K 8.9.9.9.9.7.8   ",
"'._.Y < K n 5.9.9.9.9.9.5.b K 9.K P ( } m.} *.1.1.1.1.1.1.1.1.2.1.1.1.<.d @ X.5XqX2X2XqXqXqXqXqXeXwXl.$ D 5.F Z G 9.9.9.9.6.1 % ",
"{.G.= n J S 9.8.8.9.9.8.H J 8.J } K.@X#X%XH.>.<.1.1.1.,.<.1.1.1.1.,.#.h ; C u O.2XwXeXqXqXeXeXwXeX2XY o @ 7 5.5.n 7.8.9.9.K $ i ",
"-Xo.X J S K 9.8.9.9.8.5.n 8.5./ |.%X$X$X%X@X) *.2.<.@.: d l l l h : + * ' K.g.q ! S.*XqXqX6X5X%XH./ & ! ] u c 8.S 5.9.9.7.6 & x.",
"&X! , K Z 8.8.8.9.9.9.F H 9.L f.%X#X$X%X#XD.B +.=.h $ N t & % % e R  .D.$X2X@Xm.i * I } X. .! u & * X.XX@Xv.q c c n F n 7 = o.3X",
"%Xi 1 J S 9.8.8.9.9.9.D H 8.J k.*X%X@XS.` 3 s s : 9 { U.L.A.v.v.F.XX$X2X9X9X5X$XK.f.T u e w u Y [ A.2X8X6X@Xh.5 @ @ 2 u ~ v.2X9X",
"$Xi 8 D S 9.9.8.9.9.9.F S 9.5._ x.i.W w N ! t w ^ A.$X4X*X*X*X2X2X,X>X}.{.{.;X7X2X#X.XK.H.H.K.XX$X3X1X}.:X5XXXA.o.X.v.J.@X3X1X{.",
"$XT 1 S S 9.9.8.9.9.8.6.n F 3.1 9 e i o.K.XXH.L.@X4X:X{.}.}.{.}.}.{.'.'.'.'.{.{.<X>X3X2X3X3X5X>X>X}.{.'.{.9X5X$X$X$X2X5X,X;X{.'.",
"2X^ < D A 8.8.9.8.9.9.9.6.m < q g.D..X%X4X4X4X4X>X}.{.'.'.'.'.'.'.'.'.'.'.'.'.'.'.'.}.;X}.}.}.{.'.'.'.'.'.{.;X>X,X,X;X}.{.'.'.'.",
"6Xu.1 K n 6.8.8.8.8.9.9.8.G = h.%X5X7X<X}.;X;X;X'.{.'.'.'.'.'.'.'.'.'.'.'.'.'.'.'.'.'.'.'.'.{.'.'.'.'.'.'.'.'.{.'.{.'.'.'.'.'.'.",
"8Xx.= F A G 9.8.9.8.9.9.8.7.6 { =X<X}.'.'.'.'.'.'.'.'.'.'.'.'.'.'.'.'.'.'.'.'.'.'.'.'.'.'.'.'.'.'.'.'.'.'.'.'.'.'.'.'.'.'.'.'.'.",
"1XU.e v J A 8.8.9.8.9.9.8.8.G 7 [ ^.'.'.'.'.'.'.'.'.'.'.'.'.'.'.'.'.'.'.'.'.'.'.'.'.'.'.'.'.'.'.'.'.'.'.'.'.'.'.'.'.'.'.'.'.'.'.",
":X%X` $ K Z G 8.8.9.9.9.9.9.9.G 7 X.-X{.'.'.'.'.'.'.'.'.'.'.'.'.'.'.'.'.'.'.'.'.'.'.'.'.'.'.'.'.'.'.'.'.'.'.'.'.'.'.'.'.'.'.'.'.",
"}.4XD.9 c 5.Z 5.9.8.8.8.9.9.9.9.A q V.{.'.'.'.'.'.'.'.'.'.'.'.'.'.'.{.'.'.'.'.'.'.'.'.'.'.'.'.'.'.'.'.'.'.'.'.'.'.'.'.'.'.'.'.'.",
"{.,X@X` # D G Z 8.8.8.8.9.9.9.9.S = z.'.'.'.'.'.'.'.'.'.'.'.'.'.'.'.'.'.'.'.'.'.'.'.'.'.'.'.'.'.'.'.'.'.'.'.'.'.'.'.'.'.'.'.'.'.",
"'.:X4XL.p < F S S 7.9.9.9.9.9.9.m 5 G.'.'.'.'.'.'.'.'.'.'.'.'.'.'.'.'.'.'.'.'.'.'.'.'.'.'.'.'.'.'.'.'.'.'.'.'.'.'.'.'.'.'.'.'.'.",
"'.{.,X%Xv.e < S A n 4.8.8.9.9.F , ~ =X'.'.'.'.'.'.'.'.'.'.'.'.'.'.'.'.'.'.'.'.'.'.'.'.'.'.'.'.'.'.'.'.'.'.'.'.'.'.'.'.'.'.'.'.'.",
"'.'.}.4X@Xv.i @ c n n A F G v # q H.;X'.'.'.'.'.'.'.'.'.'.'.'.{.'.'.'.'.'.'.'.'.'.'.'.'.'.'.'.'.'.'.'.'.'.'.'.'.'.'.'.'.'.'.'.'.",
"'.'.'.;X6X$XH.] 0 $ c b 8 & & T S.,X{.'.'.'.'.'.'.'.'.'.'.'.'.'.'.'.'.{.'.{.'.{.'.'.'.'.'.'.'.'.'.'.'.'.'.'.'.'.'.'.'.'.'.'.'.'.",
"'.{.'.{.<X4X2X@XD.] u a ! h.v.XX4X;X'.'.'.'.'.'.'.'.].}.}.}.'.{.}.;X}.[.].[.].].].).]./.).].].].].].[.{.'.'.'.'.'.'.'.'.'.'.'.'.",
"'.'.'.'.'.}.,X3X$XXXJ.L.XX$X2X,X;X].{.[.}.{.}.[.]._.K.K.XXOX!.!.@XXX.XW.J.K.H.H.S.D.D.S.S.F.F.S.G.F.J.W.).'.'.'.'.'.'.'.'.'.'.'.",
"'.'.'.'.{._.OX|.H.S.S.H.K.|.|.K.J.J.W.W.|.XXXX.XJ.A.b.c.b.c.m.v.c.b.c.b.x.x.x.c.c.c.c.x.x.x.x.x.x.c.c.m.W.{.'.'.'.'.'.'.'.'.'.'.",
"'.'.'.'.[..XS.c.x.x.x.x.c.c.x.x.x.c.b.c.c.x.c.c.c.g.n.n.n.n.n.x.x.n.x.x.l.g.g.x.g.x.g.v.S.H.P.H.H.K. X$X>X{.'.'.'.'.'.'.'.'.'.'.",
"'.'.'.'.<XqX$X@XU.H.S.S.S.S.D.S.A.A.S.D.D.S.S.S.S.P.D.v.c.x.n.n.n.h.g.g.g.g.g.g.g.l.A.@X5X5X3X5X5X6X6XqX:X'.'.'.'.'.'.'.'.'.'.'.",
"'.'.'.'.<X8XqX8X5X5X3X3X3X3X3X3X2X2X2X2X3X3X3X3X3X3X3X$X@XoXXXXX X|.|.I.K.H.L.H.H.XX2X8X9X9X9X9X9X9X:X}.'.'.'.'.'.'.'.'.'.'.'.'.",
"'.'.'.'.'.}.:X<X0X0X0X0X0X0X8X0X8X9X9X8X8X8X0X0X0X0XqXwXqX5X6XqX6X5X5X5X5X5X3X3X5XqX0X;X'.'.{.{.{.{.'.'.'.'.'.'.'.'.'.'.'.'.'.'.",
"'.'.'.'.'.'.'.'.{.}.{.}.{.{.{.{.{.}.{.{.{.{.{.{.{.{.;X<X<X<X<X<X<X<X1XwXwXwXwXwX1X<X{.{.'.'.'.{.'.'.'.'.'.'.'.'.'.'.'.'.'.'.'.'."
};
