/* XPM */
static char *cupheadstand_110[] = {
/* columns rows colors chars-per-pixel */
"83 83 251 2 ",
"   c #030304",
".  c #0A0204",
"X  c #04030A",
"o  c #0A080B",
"O  c #140708",
"+  c #070618",
"@  c #191519",
"#  c #131111",
"$  c #260909",
"%  c #281A16",
"&  c #341615",
"*  c #310C0C",
"=  c #37271A",
"-  c #34291C",
";  c #1A1B29",
":  c #100F2E",
">  c #291C23",
",  c #211C31",
"<  c #1E2234",
"1  c #2B292A",
"2  c #382926",
"3  c #3A3529",
"4  c #282836",
"5  c #2B3137",
"6  c #383639",
"7  c #2E3332",
"8  c #470A0B",
"9  c #4F0E12",
"0  c #6F0D11",
"q  c #4D321C",
"w  c #490F27",
"e  c #473728",
"r  c #553D29",
"t  c #483A35",
"y  c #48292B",
"u  c #742C30",
"i  c #5B471F",
"p  c #5B4528",
"a  c #46433B",
"s  c #574635",
"d  c #534A33",
"f  c #644B24",
"g  c #674A28",
"h  c #6B522B",
"j  c #77592B",
"k  c #654D34",
"l  c #6B5332",
"z  c #775936",
"x  c #764A32",
"c  c #7B6433",
"v  c #1A2743",
"b  c #2A3647",
"n  c #3A3A44",
"m  c #323957",
"M  c #2B304A",
"N  c #333B70",
"B  c #443845",
"V  c #4D2B4C",
"C  c #752F48",
"Z  c #3C4345",
"A  c #3C4857",
"S  c #384866",
"D  c #3A4E71",
"F  c #484A48",
"G  c #4C524D",
"H  c #545248",
"J  c #454B59",
"K  c #485656",
"L  c #565957",
"P  c #514B40",
"I  c #675848",
"U  c #6D524A",
"Y  c #586356",
"T  c #69655C",
"R  c #7A6956",
"E  c #444665",
"W  c #4B576B",
"Q  c #5B5A69",
"!  c #4A5775",
"~  c #5F4660",
"^  c #695C6D",
"/  c #4C6567",
"(  c #586667",
")  c #536777",
"_  c #536E74",
"`  c #666566",
"'  c #766B68",
"]  c #78746B",
"[  c #726D75",
"{  c #677876",
"}  c #767778",
"|  c #696F71",
" . c #98080B",
".. c #960B14",
"X. c #8B1112",
"o. c #AD0405",
"O. c #A5060A",
"+. c #B20405",
"@. c #B40409",
"#. c #B20613",
"$. c #8E1628",
"%. c #8B2D30",
"&. c #845D2C",
"*. c #875E33",
"=. c #8C493D",
"-. c #86632C",
";. c #89612D",
":. c #836327",
">. c #856332",
",. c #8A6232",
"<. c #87633C",
"1. c #906237",
"2. c #85304C",
"3. c #975355",
"4. c #86755C",
"5. c #876A51",
"6. c #927B65",
"7. c #87736E",
"8. c #A26B68",
"9. c #956068",
"0. c #77877A",
"q. c #708470",
"w. c #93846A",
"e. c #968877",
"r. c #928C73",
"t. c #A7907A",
"y. c #A7946B",
"u. c #C39D7D",
"i. c #4F5785",
"p. c #556F8C",
"a. c #6B7686",
"s. c #797B86",
"d. c #6A7491",
"f. c #6B79A4",
"g. c #946E88",
"h. c #5C858B",
"j. c #57849A",
"k. c #668689",
"l. c #798586",
"z. c #698D96",
"x. c #769997",
"c. c #778F90",
"v. c #78A29E",
"b. c #5B87A1",
"n. c #6F92AC",
"m. c #79A6A7",
"M. c #78ABB4",
"N. c #77B1C4",
"B. c #868889",
"V. c #96888A",
"C. c #889789",
"Z. c #9C9587",
"A. c #868B96",
"S. c #9A9896",
"D. c #8D8F98",
"F. c #AE9993",
"G. c #8BA693",
"H. c #ABA599",
"J. c #B1A88F",
"K. c #8995A7",
"L. c #959AA5",
"P. c #8A94B2",
"I. c #A399A9",
"U. c #8BA4B6",
"Y. c #99A6B7",
"T. c #87BBB7",
"R. c #92AFAB",
"E. c #A8A6A7",
"W. c #B8B6A9",
"Q. c #ACB4B9",
"!. c #B7B6B7",
"~. c #B2ACAB",
"^. c #C6BBB0",
"/. c #C5B696",
"(. c #95C5BC",
"). c #ABC6B3",
"_. c #CCC19C",
"`. c #CBC5B5",
"'. c #D4CCB7",
"]. c #D7D2BD",
"[. c #CBC3AA",
"{. c #E2D9BF",
"}. c #EBE6BC",
"|. c #86BCC4",
" X c #91B3CA",
".X c #A9B8C8",
"XX c #B7BAC5",
"oX c #A7B6D3",
"OX c #A7ACCA",
"+X c #C2BEC4",
"@X c #8AC5CA",
"#X c #8DCCD7",
"$X c #97D8D9",
"%X c #95CBCA",
"&X c #B9C5D6",
"*X c #A1DBD6",
"=X c #AFD2C8",
"-X c #ABE3DA",
";X c #9ADEE4",
":X c #9ADBE5",
">X c #BCD4E8",
",X c #9DE6E7",
"<X c #A5E8E7",
"1X c #A5EEF2",
"2X c #AAF4F5",
"3X c #AFFFFF",
"4X c #AAF6F7",
"5X c #B1FFFF",
"6X c #B4FAF7",
"7X c #B3F2E9",
"8X c #C9C8C8",
"9X c #D6CCC5",
"0X c #D8D8CA",
"qX c #C5C9D8",
"wX c #CAD6D9",
"eX c #D4D5D4",
"rX c #DBD5D5",
"tX c #D4D9D4",
"yX c #D5D6DB",
"uX c #D9D6DB",
"iX c #D5DADA",
"pX c #DADBDA",
"aX c #DBDAD4",
"sX c #D1D0CD",
"dX c #E2DBCA",
"fX c #E2DBD6",
"gX c #EAE7D9",
"hX c #F8F4DA",
"jX c #ECE8D1",
"kX c #CAD7E5",
"lX c #D6DAE3",
"zX c #D8D8E4",
"xX c #C3C8E2",
"cX c #D9E3EA",
"vX c #DDE8F5",
"bX c #E7E8E9",
"nX c #ECF4EB",
"mX c #F4F4EC",
"MX c #F7F3E8",
"NX c #E8ECF6",
"BX c #F4EFF5",
"VX c #F6EFF6",
"CX c #EDF4F3",
"ZX c #ECF5F7",
"AX c #F3F3F4",
"SX c #F9F3F4",
"DX c #F3F8F4",
"FX c #F2F4F9",
"GX c #F7F6F8",
"HX c #F4EDEB",
"JX c #C7E0CA",
/* pixels */
"3X3X3X3X3X3X3X3X3X5X3X3X3X3X3X3X3X3X3X3X3X3X3X3X3X3X3X3X3X3X3X3X3X3X3X3X3X3X3X3X3X3X3X3X3X3X3X3X3X3X3X3X3X3X3X3X3X3X3X3X3X3X3X3X3X3X3X3X3X3X3X3X3X3X3X3X3X3X3X3X3X3X3X",
"3X3X3X3X3X3X3X3X3X3X3X3X3X3X3X3X3X3X3X3X3X3X3X3X3X3X3X3X3X3X3X3X3X3X3X3X3X3X3X3X3X3X3X3X3X3X3X3X3X3X3X3X3X3X3X3X3X3X3X3X3X3X3X3X3X3X3X3X3X3X3X3X3X3X3X3X3X3X3X3X3X3X3X",
"3X3X3X3X3X3X3X3X3X3X3X3X3X3X3X3X3X3X3X3X3X3X3X5X5X3X3X3X3X3X3X5X3X3X3X3X3X3X3X3X3X3X3X3X3X3X3X3X3X3X3X3X3X3X3X3X3X3X3X3X3X3X3X3X3X3X3X3X3X3X3X3X3X3X3X3X3X3X3X3X3X3X3X",
"3X3X3X3X3X3X3X3X3X3X3X3X3X3X3X3X3X3X3X3X3X3X$XM.$X5X5X5X5X3X3X5X3X3X3X3X3X3X3X3X3X3X3X3X3X3X3X3X3X3X3X3X3X3X3X3X3X3X3X3X3X3X3X3X3X3X3X3X3X3X3X3X3X3X3X3X3X3X3X3X3X3X3X",
"3X3X3X3X3X3X3X3X3X3X3X3X3X3X3X3X3X3X3X3X5XN.n 4 5 { T.,X<X6X5X5X3X3X3X3X5X5X3X3X3X3X3X3X3X3X3X3X3X3X3X3X3X3X3X3X3X3X3X3X3X3X3X3X3X3X3X3X3X3X3X3X3X3X3X3X3X3X3X3X3X3X3X",
"3X3X3X3X3X3X3X3X3X3X3X3X3X3X3X3X3X3X3X3X1XA Z.=XK a < 4 3 _ h.k.z.x.m.x.$X5X3X3X3X3X3X3X3X3X3X3X3X3X3X3X3X3X3X3X3X3X3X3X3X3X3X3X3X3X3X3X3X3X3X3X3X3X3X3X3X3X3X3X3X3X3X",
"3X3X3X3X3X3X3X3X3X3X3X3X3X3X3X3X3X3X3X3Xn.t dXcXS.aX.XV 9 8 * % 6 7 5 @ T 7X3X3X3X3X3X3X3X3X3X3X3X3X3X3X3X3X3X3X3X3X3X3X3X3X3X3X3X3X3X3X3X3X3X3X3X5X3X3X3X3X3X3X3X3X3X",
"3X3X3X3X3X3X3X3X3X3X3X3X3X3X3X3X3X3X3X3Xp.U hXvXZ.gXZX7.o.o. .*.aXwX.Xm d 7X5X3X3X3X3X3X3X3X3X3X3X3X3X3X3X3X3X3X3X3X3X3X3X3X3X3X3X3X3X3X3X3X3X3X3X3X3X3X3X3X3X3X3X3X3X",
"3X3X3X3X3X3X3X3X3X3X3X3X3X3X3X3X3X3X5X4Xi.U hXcXV.gXzXg.o.+.o.8.hXnXQ.d.a -X5X3X3X3X3X3X3X3X3X3X3X3X3X3X3X3X3X3X3X3X3X3X3X3X3X3X3X3X3X3X3X3X3X3X3X3X3X3X3X3X3X3X3X3X3X",
"3X3X3X3X3X3X3X3X3X3X3X3X3X3X3X3X3X3X3X5Xj.6 jXwX~.HXvX9.o.o. .y.DXXX`.OXM %X5X3X3X3X3X3X3X3X3X3X3X3X3X3X3X3X3X3X3X5X3X3X3X3X3X3X3X3X3X3X3X3X3X3X3X3X3X3X3X3X3X3X3X3X3X",
"3X3X3X3X3X3X3X3X3X3X3X3X3X3X3X3X3X3X3X5X#X5 e.H.9XSX+X2.+.+.O.u.rXE.nX>XM C.5X3X3X3X3X3X3X3X3X3X3X3X3X3X3X3X3X3X3X3X3X3X3X3X3X3X3X3X3X3X3X3X3X3X3X3X3X3X3X3X3X3X3X3X3X",
"3X3X3X3X3X3X3X3X3X3X3X3X3X3X3X3X3X3X3X3X3XM.5 a F.8Xg.$.+.O.%./.~.gXbXI.> Y 6X3X3X3X3X3X3X3X3X3X3X3X3X3X3X3X3X3X3X3X3X3X3X3X3X3X3X3X3X3X3X3X3X3X3X3X3X3X3X3X3X3X3X3X3X",
"3X3X3X3X3X3X3X3X3X5X3X3X3X3X3X3X3X3X3X3X3X3X$Xp.n 1 % 8 9 8 e U 8.F.3...8 = *X5X3X3X3X3X3X3X3X3X3X3X3X3X3X3X3X3X3X3X3X3X3X3X3X3X3X3X3X5X3X3X3X3X3X3X3X3X3X3X3X3X3X3X3X",
"3X3X3X3X3X3X3X3X3X3X3X3X3X3X3X3X3X3X3X3X3X3X5X5X<XT.M.n./ A 4 9 .. .O.+.0 $ C.3X5X3X5X5X5X3X3X3X3X3X3X3X3X3X3X3X3X3X3X3X3X3X3X3X3X3X3X3X3X3X3X3X3X3X3X3X3X3X3X3X3X3X3X",
"3X3X3X3X3X3X3X3X3X3X3X3X3X3X3X3X3X3X3X3X3X3X3X3X5X5X5X5X4X3Xj.9  .O.O...u 6 J <X<X<X;X<X<X<X<X<X5X6X5X5X3X3X5X5X3X3X3X3X3X3X3X3X3X3X3X3X3X3X3X3X3X3X3X3X3X3X3X3X3X3X3X",
"3X3X3X3X3X3X3X3X3X3X3X3X3X3X3X3X3X3X3X3X3X3X3X3X3X5X5X5X3X3X@X< =.3.8.F.aX.Xv 2 6 7 7 1 7 6 6 F _ p.k.x.K.%X<X1X5X5X5X3X3X3X3X3X3X3X3X3X3X3X3X3X3X3X3X3X3X3X3X3X3X3X3X",
"3X3X3X3X3X3X3X3X3X3X3X3X3X3X3X3X3X3X3X3X3X3X3X3X3X3X3X3X3X3X4X! R jXnXSXGXNX! ; 7.B.C.B.} [ | ( F 6 6 2 1 , 4 F a.m.*X5X5X5X3X3X3X3X3X3X3X3X3X3X3X3X3X3X3X3X3X3X3X3X3X",
"3X3X3X3X3X3X3X3X3X3X3X3X3X3X3X3X3X3X3X3X3X3X3X3X3X3X3X3X3X5X;X_ 1 J.MXSXVXrX~ % R ] [ } B.B.B.B.l.C.A.A.A.l.{ L 3 > 1 { <X5X3X3X3X3X3X3X3X3X3X3X3X3X3X3X3X3X3X3X3X3X3X",
"3X3X3X3X3X3X3X3X3X3X3X3X3X3X3X3X3X3X3X3X3X3X3X3X3X3X5X5X5XM.6 ' s.B Z.!.V.2.$.8 O Y B.l.D.V.B.A.0.} } [ | ' | } S.Y.d.7 G ,X5X3X3X3X3X3X3X3X3X3X3X3X3X3X3X3X3X3X3X3X3X",
"3X3X3X3X3X3X3X3X3X3X3X3X3X3X3X3X3X3X3X3X3X3X3X3X3X5X5X6X;XS 7.T V.D.B.^ C $.$.X.* k '.bXbXbXnXZXAXCXFXZXHXnXtXOX] `.cXQ.4 Q 2X3X3X3X3X3X3X3X3X3X3X3X3X3X3X3X3X3X3X3X3X",
"3X3X3X3X3X3X3X3X3X3X3X3X3X3X3X3X3X3X3X3X3X5X3X3X5X5X@Xz._ 6 [..Xs.Q ' S.E.H.~.I.D.} V.L.L.S.S.H.E.E.E.L.E.~.E.L.~.sXXX0.} N (.5X3X3X3X3X3X3X3X3X3X3X3X3X3X3X3X3X3X3X3X",
"3X3X3X3X3X3X3X3X3X3X3X3X3X3X3X3X3X3X3X3X3X3X3X3X4Xx.n ] D.T 0XpXzXqXK.{ ( Q ' V.E.!.^.8XqX8X8X8X+XXXXX!.~.~.E.E.S.7.[ E.bXp.] 6X3X3X3X3X3X3X3X3X3X3X3X3X3X3X3X3X3X3X3X",
"3X3X5X3X3X3X3X3X3X3X3X3X3X3X3X3X3X3X3X3X3X3X5X2Xp.6 H.cXL.R 0XiXzXaXpXyXsXQ.I.A.( G ] } [ [ ] ] } [ } 7.s.s.s.l.H ^.bXGXcX! k 7X3X3X3X3X3X3X3X3X3X3X3X3X3X3X3X3X3X3X3X",
"3X3X3X3X3X3X3X3X3X3X3X3X3X3X3X3X3X3X3X3X3X5X5XN.5 Z.uXzXc.R eXyXyXuXtXyXiXiXuXcXU.r.nXNXbXcXiXpXbXzXbXbXcXl.R 0Xe.9XDXCXd.+ d <X3X3X3X3X3X3X3X3X3X3X3X3X3X5X3X3X3X3X3X",
"3X3X3X3X3X3X3X3X3X3X3X3X3X3X3X3X3X3X3X3X3X3X:Xb 4.{.kX Xn I 0X0XyXyXyXyXyXrXrXzXU.t.DXFXGXGXFXDXFXGXDXZXoX< O Z.V.8XDXNXD . = -X5X3X3X3X3X3X3X3X3X3X3X3X3X3X3X3X3X3X3X",
"3X3X3X3X3X3X3X3X3X3X3X3X3X3X3X3X3X3X3X3X3X3Xb.6 [.iXOXW ` I ].rXzXuXtXyXuXuXuXyXL.t.DXZXGXFXCXAXGXSXmXZXY.+   w.r.`.SXvXN X = =X3X3X3X3X3X3X3X3X3X3X3X3X3X3X3X3X3X3X3X",
"3X3X3X3X3X3X3X3X3X3X3X3X3X3X3X3X3X3X3X3X3X4XS T {.zX) Q G.B '.rXuXyXtXuXrXyXyXzXP.y.MXFXAXGXAXAXFXFXHXDXU.:   4.r.'.SXvXD + e *X5X3X3X3X3X3X3X3X3X3X3X3X3X3X3X3X3X3X3X",
"3X3X3X3X3X3X3X3X3X3X3X3X3X3X3X3X3X3X3X3X3X1Xm 6.{.kXJ 4.`.m J.rXuXtXyXrXrXwXzXzXY.e.MXAXZXVXSXBXZXBXHXBX:XA   ' w.jXSXCXn.+ r <X5X3X3X3X3X3X3X3X3X3X3X3X3X3X3X3X3X3X3X",
"3X3X3X3X3X3X3X3X3X3X3X3X3X3X3X3X3X3X3X3X3X2XM 4.dX>XE 4.nX! R dXrXpXyXtXuXiXzXuXXX[ bXSXAXBXAXAXFXFXAXDXOX: # 0.r.jXZXNXi.+ s 7X3X3X3X3X3X3X3X3X3X3X3X3X3X3X3X3X3X3X3X",
"3X3X3X3X3X3X3X3X3X3X3X3X3X3X3X3X3X3X3X3X3X4XS 5.0X>XQ U hXP.B _.0XuXuXyXiXiXpXuXyXp.`.MXmXAXAXCXCXFXSXGXU.+ e S.S.hXFXvXN X | 5X3X3X3X3X3X3X3X3X3X3X3X3X3X3X3X3X3X3X3X",
"3X3X3X3X3X3X3X3X3X3X3X3X3X3X3X3X3X3X3X3X3X3Xp.I ].kXn.4 _.zXm 6.rXuXpXlXXXS.H.`.fXP.7.hXCXFXSXGXFXAXmXFX&XA V.6.].DXmXZXf.# G.5X3X3X3X3X3X3X3X3X3X3X3X3X3X3X3X3X3X3X3X",
"3X3X3X3X3X3X3X3X3X3X3X3X3X3X3X5X3X3X3X3X3X5XN.n /.dXxXW s W.p.3 `.aXpXOXv o # 6 e.8Xa.J.HXDXMXmXAXFXFXFXNXcXK.H.gXfXfXAXK.t -X3X3X3X3X3X3X3X3X3X3X3X3X3X3X3X3X3X5X3X3X",
"3X3X3X3X3X3X3X3X3X3X3X3X3X3X3X3X3X3X3X3X3X3X4Xp.U '.zX&X) G ` 6 t.aXlXP.:   X   # w.XXQ F.jXFXZXZXGXDXSXbXA.H F.3.u x s.M 0.6X5X3X3X3X3X3X3X3X3X3X3X3X3X3X3X3X3X3X3X3X",
"3X3X3X3X3X3X3X3X3X3X3X3X3X3X3X3X3X3X3X3X3X3X3X:XM ' ].uXyXsXyXd.k '.iXoXv X X X . @ w.^.s.| H.8XtXsX9XQ.{ g.D.u O...%.` 6 =X3X5X3X3X3X3X3X3X3X3X3X3X3X3X3X3X3X3X3X3X3X",
"5X3X3X3X3X3X3X3X3X3X3X3X3X3X3X3X3X3X3X3X3X3X3X5X|.b I H.9XrXuXoXM w.dXkX^ w 8 $ X   O R 8XQ.B.g.{ } } B.^.zXoXC $.%.H.K c.5X3X3X3X3X3X3X3X3X3X3X3X3X3X3X3X3X3X3X3X3X3X",
"3X3X3X3X3X3X3X3X3X3X3X3X3X3X3X3X3X3X3X3X3X3X3X3X3X%XJ 4 s G G J m e [.pXOXC ..X.8 o X o y e.^.8XeXyXiXuXfXuXkX~.F.+XD.n *X5X3X3X3X3X3X3X3X3X3X3X3X3X3X3X3X3X3X3X3X3X3X",
"3X3X3X3X3X3X3X3X3X3X3X3X3X3X3X3X3X3X3X3X3X3X3X3X3X3X1X|.z.h.h.T.1X! 7.dXkXI.$.#. .9 8 O . o % a L ' ] 7.Z.0XuXuXzXXXn G.6X3X3X3X3X3X3X3X3X3X3X3X3X3X3X3X3X3X3X3X3X3X3X",
"3X3X3X3X3X3X3X3X3X3X3X3X3X3X3X3X3X3X3X3X3X3X3X3X3X3X3X5X5X5X5X5X@XS & Z.dXyXOX2.......*           . . . e `.uXzXXXJ T 7X3X3X3X3X3X3X3X3X3X3X3X3X3X3X3X3X3X3X3X3X3X3X3X",
"3X3X3X3X3X3X3X3X3X3X3X3X3X3X3X3X3X3X3X3X3X3X3X3X3X3X3X3X3X3X,Xd.@ X o & 6.'.zXoXg.%.X.0 O           o a H.0XyXqX! + I 7X3X3X3X3X3X3X3X3X3X3X3X3X3X3X3X3X3X5X3X3X3X3X3X",
"3X3X3X3X3X3X3X3X3X3X3X3X3X3X3X3X3X3X3X3X3X3X3X3X3X3X3X3X3X#Xv X   o X . O z ~.uXzX+XI.' 6 1 ; % 1 G V.8XfXaXQ.m + X O q.6X3X3X3X3X3X3X3X3X3X3X3X3X3X3X3X3X3X3X3X3X3X3X",
"3X3X3X3X3X3X3X3X3X3X3X3X3X3X3X3X3X3X3X3X3X3X3X3X3X3X3X3X1XS   . X       X X > I e.~.8XsX8X&X!.W.`.eXyXqX~.| < X X X o % (.3X3X3X3X3X3X3X3X3X3X3X3X3X3X3X3X3X3X3X3X3X3X",
"3X3X3X3X3X3X3X3X3X3X3X3X5X3X3X3X3X3X3X3X3X3X3X3X3X3X3X5XM.+   X X   # o X X .   . @ 2 B ~ T T ] ' ` L 6 ; X +       X O 0.5X3X3X3X3X3X3X3X3X3X3X5X3X3X3X3X3X3X3X3X3X3X",
"3X3X3X3X3X3X3X3X3X3X3X3X3X3X3X3X3X3X3X3X3X3X3X3X3X3X3X5XD X     X 1 (.n.Z X .     . .                     . # X     + X 3 -X3X3X3X3X3X3X3X3X3X3X3X3X3X3X3X3X3X3X3X3X3X",
"3X3X3X3X3X3X3X3X3X3X3X3X3X3X3X3X3X3X3X3X3X3X3X3X3X5X<X|.M X     # v.3X3X$Xv   X .     X X     X X X     7 T.|.! +       % Q.5X3X3X3X3X3X3X3X3X3X3X3X3X3X3X3X3X3X3X3X3X",
"3X3X3X3X3X3X3X3X3X3X3X3X3X3X3X3X3X3X3X3X3X3X3X3X5X2XW F b @ o # a <X5X5X4Xp.+   X .   X X X         X O C.5X5X:X<       o 0.-X3X3X3X3X3X3X3X3X3X3X3X3X3X3X3X3X3X3X3X3X",
"3X3X3X3X3X3X3X3X3X3X3X3X3X3X3X3X3X3X3X3X3X3X3X3X5X#X< r.JX!.Y.E.| G.5X5X4XM.+ X X     . o .         X & ).5X5XM.b o     3 ( a <X5X3X3X3X3X3X3X3X3X3X3X3X3X3X3X3X3X3X3X",
"3X3X3X3X3X3X3X3X3X3X3X3X3X3X3X3X3X3X3X3X3X5X3X3Xm.A ] S.E.Q.XXQ.p.L 4X5X|.K + X X .   . X   X         y =X5X,XA q.l.} V.`.d.7 *X5X3X3X3X3X3X3X3X3X3X3X3X3X3X3X3X3X3X3X",
"3X3X3X3X3X3X3X3X3X3X3X3X3X3X3X3X3X3X3X3X3X5X5XM.6 J.CXwX!.sX!.8XqXQ z.z.; . X X               X       = ).3X@XL H.L.Y.E.Q.R.` / *X5X3X3X3X3X3X3X3X3X3X3X3X3X3X3X3X3X3X",
"3X3X3X3X3X3X3X3X3X3X3X3X3X3X3X3X3X3X3X3X3X3X,XA r.MXZXQ.^.!.E.gXFX&XZ 2 > & O       X         X     . O 2 K ( `.DXvXqX9X9X&XgXa.H <X5X3X3X3X3X3X3X3X3X3X3X3X3X3X3X3X3X",
"3X3X3X3X3X3X3X3X3X3X3X3X3X3X3X3X3X3X3X3X3X5Xn.p 0XCXnXiXpX8XXXmXSXZXwXwXP.t 0 8 $ O . O         O O * 8 = a Z.mXSXNXQ.W.H.D.`.xXM C.5X5X5X3X3X3X3X3X3X3X3X3X3X3X3X3X3X",
"3X3X3X3X3X3X3X3X3X3X3X3X3X3X3X3X3X3X3X3X3X3XD R MXBXDXCXnXCXnXAXFXFXFXAXNX^  .O. .9 8 & * * & 9 0 ..0 e W.jXAXFXBXAXwXsX^.&X0XZX! L 6X3X3X3X3X3X3X3X3X3X3X3X3X3X3X3X3X",
"3X3X3X3X3X3X3X3X3X3X3X3X3X3X3X3X3X3X3X3X3X4XS R hXGXAXDXCXFXmXFXFXVXBXNXNXQ  .+.o.#.o.O.O.o.O.O.o.+.9 r }.mXnXNXBXVXCXnXCXZXAXnXf.F 2X3X3X3X3X3X3X3X3X3X3X3X3X3X3X3X3X",
"3X3X3X3X3X3X3X3X3X3X3X3X3X3X3X3X3X3X3X3X3X3Xb.s jXVXFXFXFXCXVXBXAXAX&XW.XX6  .@.+.@.+.+.o.+.+.+.+.+.0 $ t.MXXX0XHXCXmXAXCXSXSXAXn.H 6X3X3X3X3X3X3X3X3X3X3X3X3X3X3X3X3X",
"3X3X3X3X3X3X3X3X3X3X3X3X3X3X3X3X3X3X3X3X3X3X,XJ 7./.hXGXGXCXAXHXCXcXD.{ 4 0 #.#.+.@.+.o.+.+.o.o.@.@. .* % 4.e.).mXAXAXCXAXmXDXCXi.( 6X3X3X3X3X3X3X3X3X3X3X3X3X3X3X3X3X",
"3X3X3X3X5X3X3X3X3X3X3X3X3X3X3X3X3X3X3X3X3X3X3X;XS U hXFXSXAXHXSXVXNXbXU.w O.@.@.@.o.+.@.+.+.+.+.o.o.o.X.$ p dXpXnXAXSXFXVXGXcXK.4 R.5X3X3X3X3X3X3X3X3X3X3X3X3X3X3X3X3X",
"3X3X3X3X3X3X3X3X3X3X3X3X3X3X3X3X3X3X3X3X3X3X3X5X|.n e.dXbXXXB.jXVXFXNXd.w o.+.+.+.o.+.+.@.o.+.+.@.+.+.+.8 r jXSXVXSXAXCXSXVXd.; q.2X3X3X3X3X3X3X3X3X3X3X3X3X3X3X3X3X3X",
"3X3X3X3X3X3X3X3X3X3X3X3X3X3X3X3X3X3X3X3X3X3X3X3X3X|.F P ` z.W T H.!.| 1 ' U $.@.o.O.o.@.@.+.+.+.+.o. ...w # e.gXSXGXcXf.W.B.4 k.5X3X3X3X3X3X3X3X3X3X3X3X3X3X3X3X3X3X5X",
"3X3X3X3X3X3X3X3X3X3X3X3X3X3X3X3X3X3X3X3X3X3X3X3X3X3X1X,X;X4X1Xz.J , 3 r.eXqXg.$. .0 0 X...X. .#.O.X.3.F.s.# - ' S.H.^ ; t Z k.7X5X3X3X3X3X3X3X3X3X3X3X3X3X3X3X3X3X3X3X",
"3X3X3X3X3X3X3X3X3X3X3X3X3X5X3X3X3X3X3X3X3X3X3X3X3X3X3X5X3X3X3X5X<XS 7.jXzXzXoXV 8 % L t & % 9 0 %.u.JXpXoX4 C.%X_ / / v.,X<X5X5X3X3X3X3X3X3X3X3X3X3X3X3X3X3X3X3X3X3X3X",
"3X3X3X3X3X3X3X3X3X3X3X3X3X3X3X3X3X3X3X3X3X3X3X3X3X3X3X3X3X3X3X5X1XJ H.fXzXzXP.: - x.4X;X%X%X_ * 5.JXeXzXxXM C.5X5X3X3X3X5X5X3X3X3X3X3X3X3X3X3X3X3X3X3X3X3X3X3X3X3X3X3X",
"3X3X3X3X3X3X3X3X3X3X3X3X3X3X3X3X3X3X3X3X3X3X3X3X3X3X3X3X3X3X3X5X@Xt [.iXuXxXi.F %X6X5X5X3X3X#X4 4.dXfXiXwXE B.6X3X3X3X3X3X3X3X3X3X3X3X3X3X3X3X3X3X3X3X3X3X3X3X3X3X3X3X",
"3X3X3X3X3X3X3X3X3X3X3X3X3X3X3X3X3X3X3X3X3X3X3X3X3X3X3X3X3X3X3X5XN.t `.tXeXxXS C.5X3X5X5X3X3X3Xa.r.fXzXwXeX! l.5X3X5X3X3X3X3X3X3X3X3X3X3X3X3X3X3X3X3X3X3X3X3X3X3X3X3X3X",
"3X3X3X3X3X3X3X3X3X3X3X3X3X3X3X3X3X3X3X3X3X3X3X3X3X3X3X3X3X3X3X3XN.t '.rXaXxXS T.5X3X3X3X3X3X3Xk.t.iXzXlXqXE G.5X3X3X3X3X3X3X3X3X3X3X3X3X3X3X3X3X3X3X3X3X3X3X3X3X3X3X3X",
"3X3X3X3X3X3X3X3X3X3X3X3X3X3X3X3X3X3X3X3X3X3X3X3X3X3X3X3X5X5X5X3XN.t `.iXpXwXE R.5X3X3X3X3X3X4X/ e.tXyXyX&XB ~.5X3X3X3X3X3X3X3X3X3X3X3X3X3X3X3X3X3X3X3X3X3X3X3X3X3X3X3X",
"3X3X3X3X3X3X3X5X3X3X3X3X3X3X3X3X3X3X3X3X3X3X3X3X3X3X<X@XT.l.x.@XM.3 `.aXtX>XE R.5X5X5X3X3X5X2XA 6.uXtXyXoXn ).5X3X3X3X3X3X3X3X3X3X3X3X3X3X3X3X3X3X3X3X3X3X3X3X3X3X3X3X",
"3X3X3X3X3X3X3X3X3X3X3X3X3X3X3X3X3X3X3X5X3X3X3X3X4Xv.a e p p r - 6 - W.0XtXkXp.F R.5X3X3X5X#X) 3 4.fXaXiX Xt *X5X3X3X3X3X3X3X3X3X3X3X3X3X3X3X3X3X3X3X3X3X3X3X3X3X3X3X3X",
"3X3X3X3X3X3X3X3X3X3X3X3X3X3X3X3X3X3X3X3X3X3X3X3Xb.2 g ,.>.,.;.h @ - [.aXtX).[ k e R.5X3X5X) e c h 6.J.sXP.3 (.-Xk._ / { (.2X3X3X3X3X3X3X3X3X3X3X3X3X3X3X3X3X3X3X3X3X3X",
"3X3X3X3X3X3X3X3X3X3X3X3X3X3X3X3X3X3X3X3X3X3X3X#X4 g ,.;.-.;.;.>.z p t.V.] I *.U - q.5X5X#X5 i c >.j j 5.` 3 6 t q r p i 3 { 1X3X3X3X3X3X3X3X3X3X3X3X3X3X3X3X3X3X3X3X3X",
"3X3X3X3X3X3X3X3X3X3X3X3X3X3X3X3X3X3X3X3X3X3X3Xb.& &.;.-.,.,.;.*.>.f k z z ,.h f h d R.2XD p f f h *.>.c z p = l >.;.,.,.j - q.6X3X3X3X3X3X3X3X3X3X3X3X3X3X3X3X3X3X3X3X",
"3X3X3X3X3X3X3X3X3X3X3X3X3X3X3X3X3X3X3X3X3X3X3Xp.2 *.,.,.,.,.;.>.-.f p h h g g >.-.s k U.1 j :.j f f h f g g >.>.-.>.:.-.c h % G.3X3X3X3X3X3X3X3X3X3X3X3X3X3X3X3X3X3X3X",
"3X3X3X3X3X3X3X3X3X3X3X3X3X3X3X3X3X3X3X3X3X3X5Xn.> z ;.&.;.,.:.-.-.j z z z j -.,.>.z q Q = ,.1.,.>.z z d f ,.>.:.-.;.,.:.-.c % q.5X3X3X3X3X3X3X3X3X3X3X3X3X3X3X3X3X3X5X",
"3X3X3X3X3X3X3X3X3X3X3X3X3X3X3X3X3X3X3X3X3X3X5X;XM q g &.,.,.-.;.-.-.c ,.,.-.:.;.<.c 3 W = :.,.,.,.:.>.j &.:.-.>.;.;.-.:.<.I % G.5X3X3X3X3X3X3X3X3X3X3X3X3X3X3X3X3X3X3X",
"3X3X3X3X3X3X3X3X3X3X3X3X3X3X3X3X3X3X3X3X3X3X3X3XD 2 l p h j -.,.;.,.,.*.;.,.:.;.*.h e A.2 j -.;.>.-.;.,.-.-.-.*.*.;.-.j h - 3 <X3X3X3X3X3X3X3X3X3X3X3X3X3X3X3X3X3X3X3X",
"3X3X3X3X3X3X3X3X3X3X3X3X3X3X3X3X3X3X3X3X3X3X3X5X|.W e p f f f j j c z &.x j h f g 3 d iXE - j &.,.;.-.>.>.;.>.&.x f f f g = G.5X3X3X3X3X3X3X3X3X3X3X3X3X3X3X3X3X3X3X3X",
"3X3X3X3X3X3X3X3X5X3X3X3X3X3X3X3X3X3X3X3X3X3X3X3X5X<XM.( ( H r p p f f h h h l l p 1 q.6Xp.y i f k l l l l g p g g f g d L ( -X3X3X3X3X3X3X3X3X3X3X3X3X3X3X3X3X3X3X3X3X",
"3X3X3X3X3X3X3X3X3X3X3X3X3X3X3X3X3X3X3X3X3X3X3X3X5X5X5X5X3X#Xm.K G L Y Y P L Y Z G M.$X3X$XK Y H r s p s r r d e G L T.(.<X5X5X3X3X3X3X3X3X3X3X3X3X3X3X3X3X3X3X3X3X3X3X",
"3X3X3X3X3X3X3X3X3X3X3X3X3X3X3X3X3X3X3X3X3X3X3X3X3X3X3X3X3X5X5X4X4X4X4X4X$X<X4X4X3X5X3X3X3X4X4X$Xm.K.m.G.m.m.m.m.$X4X3X5X3X3X3X3X3X3X3X3X3X3X3X3X3X3X3X3X3X3X3X3X3X3X3X",
"3X3X3X3X3X3X3X3X3X3X3X3X3X3X3X3X3X3X3X3X3X3X3X3X3X3X3X3X3X3X3X3X3X3X3X3X3X3X3X3X3X3X3X3X3X3X3X5X5X3X5X5X3X3X5X5X3X3X3X3X3X3X3X3X3X3X3X3X3X3X3X3X3X3X3X3X3X3X3X3X3X3X3X",
"3X3X3X3X3X3X3X3X3X3X3X3X3X3X3X3X3X3X3X3X3X3X3X3X3X3X3X3X3X3X3X3X3X3X3X3X3X3X3X3X3X3X3X3X3X3X3X3X3X3X3X3X3X3X3X3X3X3X3X3X3X3X3X3X3X3X3X3X3X3X3X3X3X3X3X5X3X3X3X3X3X3X3X",
"3X3X3X3X3X3X3X3X3X3X3X3X3X3X3X3X3X3X3X3X3X3X3X3X3X3X3X3X3X3X3X3X3X3X3X3X3X3X3X3X3X3X3X3X3X3X3X3X3X3X3X3X3X3X3X3X3X3X3X3X3X3X3X3X3X3X3X3X3X3X3X3X3X3X3X3X3X3X3X3X3X3X3X",
"3X3X3X3X3X3X3X3X3X3X3X3X3X3X3X3X3X3X3X3X3X3X3X3X3X3X3X3X3X3X3X3X3X3X3X3X3X3X3X3X3X3X3X3X3X3X3X3X3X3X3X3X3X3X3X3X3X3X3X3X3X3X3X3X3X3X3X3X3X3X3X3X3X3X3X3X3X3X3X3X3X3X3X",
"3X3X3X3X3X3X3X3X3X3X3X3X3X3X3X3X3X3X3X3X3X3X3X3X3X3X3X3X3X3X3X3X3X3X3X3X3X3X3X3X3X3X3X3X3X3X3X3X3X3X3X3X5X3X3X3X3X3X3X3X3X3X3X3X3X3X3X3X3X3X3X3X3X3X3X3X3X3X3X3X3X3X3X",
"3X3X3X3X3X3X3X3X3X3X3X3X3X3X3X3X3X3X3X5X3X3X3X3X3X3X3X3X3X3X3X3X3X3X3X3X3X3X3X3X3X3X3X3X3X3X3X3X3X3X3X3X3X3X3X3X3X3X3X3X3X3X3X3X3X3X3X3X3X3X3X3X3X3X3X3X3X3X3X3X3X3X3X"
};
