/* XPM */
static char *cuphead2_110[] = {
/* columns rows colors chars-per-pixel */
"69 83 225 2 ",
"   c #010101",
".  c #0A0202",
"X  c #0C0B0B",
"o  c #0C0906",
"O  c #130605",
"+  c #140C0B",
"@  c #1B0908",
"#  c #17110B",
"$  c #1A1209",
"%  c #141313",
"&  c #1C1C1C",
"*  c #1A1715",
"=  c #2A0404",
"-  c #230808",
";  c #380605",
":  c #21160A",
">  c #24190C",
",  c #2B1A0D",
"<  c #251C13",
"1  c #271A16",
"2  c #381716",
"3  c #38250F",
"4  c #2A231A",
"5  c #332512",
"6  c #3D2910",
"7  c #392812",
"8  c #242424",
"9  c #2B2723",
"0  c #2B2B2B",
"q  c #2B2927",
"w  c #322D2D",
"e  c #3D2423",
"r  c #2F3232",
"t  c #333434",
"y  c #393634",
"u  c #3B3B3C",
"i  c #373838",
"p  c #34312D",
"a  c #460202",
"s  c #4A0403",
"d  c #550303",
"f  c #521616",
"g  c #630302",
"h  c #6C0303",
"j  c #770201",
"k  c #62100A",
"l  c #422C13",
"z  c #493218",
"x  c #553917",
"c  c #563A19",
"v  c #5B3D19",
"b  c #553916",
"n  c #433939",
"m  c #572B2A",
"M  c #5F401B",
"N  c #63431C",
"B  c #69471E",
"V  c #6D491E",
"C  c #734D1D",
"Z  c #7C521F",
"A  c #5B4630",
"S  c #644521",
"D  c #684720",
"F  c #6B4A22",
"G  c #674B2A",
"H  c #734E22",
"J  c #7D5421",
"K  c #745127",
"L  c #614F39",
"P  c #6E512E",
"I  c #3C4141",
"U  c #434343",
"Y  c #454A4A",
"T  c #4B4B4B",
"R  c #484646",
"E  c #514B4A",
"W  c #4C5353",
"Q  c #4B5858",
"!  c #545353",
"~  c #5B5B5B",
"^  c #575858",
"/  c #5C554E",
"(  c #675857",
")  c #725554",
"_  c #60605F",
"`  c #5D5F60",
"'  c #5C6666",
"]  c #5E7575",
"[  c #646464",
"{  c #656A6B",
"}  c #6B6B6B",
"|  c #686767",
" . c #776564",
".. c #70706F",
"X. c #687676",
"o. c #737474",
"O. c #7C7C7C",
"+. c #767878",
"@. c #8C0202",
"#. c #850505",
"$. c #930202",
"%. c #9A0808",
"&. c #861918",
"*. c #941714",
"=. c #A20404",
"-. c #AB0100",
";. c #A40B0B",
":. c #B30101",
">. c #BC0000",
",. c #A51110",
"<. c #902323",
"1. c #872928",
"2. c #C30101",
"3. c #CC0101",
"4. c #D30000",
"5. c #DA0000",
"6. c #825621",
"7. c #855923",
"8. c #8B5C23",
"9. c #905F23",
"0. c #80423F",
"q. c #966223",
"w. c #986424",
"e. c #874645",
"r. c #955757",
"t. c #845757",
"y. c #857B7A",
"u. c #8B6B6A",
"i. c #8B857E",
"p. c #6B8483",
"a. c #6D8A8B",
"s. c #778787",
"d. c #7A9494",
"f. c #779A9A",
"g. c #848484",
"h. c #868B8B",
"j. c #8C8C8C",
"k. c #888685",
"l. c #928F8D",
"z. c #9B8786",
"x. c #869797",
"c. c #949493",
"v. c #989595",
"b. c #9C9B9B",
"n. c #989898",
"m. c #A19E9E",
"M. c #A99999",
"N. c #A08E8E",
"B. c #A1A09E",
"V. c #9D9FA0",
"C. c #8CA4A4",
"Z. c #86A7A7",
"A. c #9FA1A1",
"S. c #96A6A7",
"D. c #8BBBBB",
"F. c #94BDBD",
"G. c #96B7B8",
"H. c #8DB0AF",
"J. c #A3A3A3",
"K. c #A6A9A9",
"L. c #ACACAC",
"P. c #AAA8A7",
"I. c #B2AEAE",
"U. c #AAB4B4",
"Y. c #B3B4B4",
"T. c #B5BABA",
"R. c #BBBBBB",
"E. c #BBB4B3",
"W. c #AFAFB0",
"Q. c #8DC8C9",
"!. c #97C9C9",
"~. c #9DDCDC",
"^. c #97D5D5",
"/. c #A7C8C8",
"(. c #B6CCCC",
"). c #B7C2C2",
"_. c #A8D9D9",
"`. c #B8D8D8",
"'. c #A5E4E4",
"]. c #ABE4E4",
"[. c #ABEBEB",
"{. c #A7E9E9",
"}. c #B8E8E8",
"|. c #ACF4F4",
" X c #AFFFFF",
".X c #B4F3F3",
"XX c #B1FFFF",
"oX c #BBFDFD",
"OX c #BEF4F4",
"+X c #C4C4C4",
"@X c #C6C8C8",
"#X c #CBCBCB",
"$X c #C8C7C7",
"%X c #CECFD0",
"&X c #CDD1D1",
"*X c #C4DADA",
"=X c #D3D4D4",
"-X c #D5D8D8",
";X c #DBDBDB",
":X c #E0DFDF",
">X c #DFDFE0",
",X c #CBE7E7",
"<X c #DEE1E1",
"1X c #DBEDED",
"2X c #D3EAEA",
"3X c #C3FDFD",
"4X c #CBFCFC",
"5X c #C8F4F4",
"6X c #D4F4F4",
"7X c #DCF5F5",
"8X c #D3FBFB",
"9X c #DCF9F9",
"0X c #D4F7F8",
"qX c #E3E3E3",
"wX c #E5ECEC",
"eX c #EBECEC",
"rX c #E7E7E8",
"tX c #E4F5F5",
"yX c #ECF2F2",
"uX c #E4F9F9",
"iX c #ECF9F9",
"pX c #F5F5F5",
"aX c #F7F8F8",
"sX c #F9F9F9",
"dX c #F8F7F7",
/* pixels */
" X X X X X X X X X X X XXX X X XXXU.U t X.!.|.XXXXXXXX X X X X X X X X X X X X{.F.F.}.oXXX X X X X X X X X X X X X X X X X X X X X X X X X",
" X X X X X X X X X X X X X X X X].T 8 % & 8 W f._..XXX X X X X X X X X X X X Xd.E g.O.`.oX X X X X X X X X X X X X X X X X X X X X X X X X",
" X X X X X X X X X X X X X X XoXx.E R.k.O.g.u % r O./.XX X X X X X X XoXXXXX4Xh...pXP.h.OX X X X X X X X X X X X X X X X X X X X X X X X X",
" X X X X X X X X X X X X X X X,XR l.:X).v.pX;X( a - t a._.XX X X X X[.f.Z..XiX+X~ ).rXo./. X X X X X X X X X X X X X X XXX X X X X X X X X",
" X X X X X X X X X X X X X XoXR.y K.:X+Xl.yXsXN.%.-.s + u Z.|.XXXXXX}.| ~ x.).L.+.! %Xy.x.XX X X X X X X X X X X X X X X X X X X X XXX X X",
" X X X X X X X X X X X X X X4XW.t I.:X+Xj.yXsXM.%.5.%. .^ & Q ^.XXXX1X$Xj.i.l.T +.o.+.l.d. X X X X X X X X X X X X X X X X X X X X X X X X",
" X X X X X X X X X X X X X XoXL.8 J.:XT.n.pXsXl.=.5.;.M.eXg.% i H.oXtXrX+XO.J.Y.o.Y.[ W d. X X X X X X X X X X X X X X X X X X X X X X X X",
" X X XXX X X X X X X X X X XoXR.8 O.:XK.Y.sXeXt.2.5.*.E.sX#X} T 0 C.oXuXqXY.O.O.~ $XP.u C. X X X X X X X X X X X X X X X X X X X X X X X X",
" X X X X XXX X X X X X X X XoX-XR I Y.o.W.-XK.&.5.2.0.>XsXT.W.;X~ & f.3XyXqX#XY.n.<X;XR.2X X X X X X X X X X X X X X X X X X XXX X X X X X",
" X X X X X X X X X X X X X XoXwXO.% 8 % 8 8 1 a @.&.M.sXqXl.-XsXR.2 0 ^.oX9XwXqXeX9XtXyX4X X X X XXX X X X X X X X X X X X X X X X X X X X",
" X X X X X X X X X X X X X XoXtX+X} U ^ T I i 8 + * o.%Xm.W.pXpXz.%.a I _. XoX9XiXoX3X4X X X X X X X X X X X X X X X X X X X X X X X X X X",
" X X X X X X X X X X X X X X X4XqX=X#X#X#X@X+XY.l.T & 0 g.pXpXE.<.3.:.= ' |. X XoX X X X X X X X X X X X X X X X X X X X X X X X X X X X X",
" X X X X X X X X X X X X X X X X4XyXeXpXeXeXrXqX;X#Xg.& t b.y.<.2.5.5.h & H.oX X X X X X XXXXXXXXXXXXXXXXXXXXXXXXXXX X XXX X X X X X X X X",
" X X X X X X X X X X X X X X X XXXoX3X4X4X3X4X9XtXqX-Xb.r - -.5.4.5.2.e.^ u /.{.'.~.^.Q.Q.f.p.p.p.p.X.] ] ] ] ] p.a.Z.~.~.[. X X X X X X X",
" X X X X X X X X X X X X X X X X X X X X X X XXXXX3XwX;XJ.w d 2.2.;.e.+X#Xt u Y t r 8 0 i i u U U U Y ! T R T U U u t r t W !. X X X X X X",
" X X X X X X X X X X X X X X X X X X X X X X X XXXXX3XwX;Xg.# k r.N.:XpXaXc.X u +.c.J.W.T.Y.R.R.R.R.Y.R.R.E.Y.R.R.Y.L.J.j.U W ].XX X X X X",
" X X XXX X X X X X X X X X X X X X X X X X X X X X X X}.g.0 & 8 K.dXsXsXrXz.; n O.} ` ` ^ T T R T T T W ^ ^ ! ^ U n J.;XqXn.& f.XXXX X X X",
" X X X X X X X X XXX X X X X X X X X X X X X X X X X|.' % ( I.} T ;XqXE.r.,.=., [ g.c.n.n.v.n.m.P.Y.Y.L.J.c.O.o.[ +.R.;XR.^ i T '.XX X X X",
" X X X X X X X X X X X X X X X X X X X XXX X X X XoX).& 0 ).qXb.q R ) &.%.:.-.f V.%X#X@X$XR.L.J.b.l.j.j.l.b.P.Y.R.T.m.+.| | O.y H.XX X X X",
" X X X X X X X X X X X X X X X X X X X X X X X X X4X+.0 { o.J.T.v.| o.t.)  .u.o.h.j.l.c.j.c.c.c.n.j.g.g.O.O.o.} } ..g.L.qX#XO.R p. X X X X",
" X X X X X X X X X X X X X X X X X X X X X X XXX{.S.u R #Xm...[ _ ` } { | o.+.+.o...o.} | | } } } ! O.c.A.L.).%X;XrXpXdX+X} | [ W {.XX X X",
" X X X X X X X X X X X X X X X X X X X X X X.XF.W 8 R | v.%X;X#X+XR.E.T.P.J.A.J.J.J.I.Y.E.R.$X#X&Xv.>XsXaXsXsXsXsXdXdXpX|   t O.Y {. X X X",
" X X X X X X X X X X X X X X X X X X X X X.Xs.q U b.%X=Xc.Y.;X;X;X;X>X>X;XqX;XqX;X;X;XqX:X;X:X;X;Xc.>XaXpXpXaXpXpXaXdXeXT   0 j.I ~. X X X",
" X X X X X X X X X X X X X X X X X X X X XG.q ~ $X:X;X;X-X=X;X;X;X;X;X;X;X;X;X;X;X;X;X;X;X:X=X:X=Xv.>XaXpXpXpXpXdXdXdXrXT   0 n.I ^.XX X X",
" X X X X X XXX X X X X X X X X X X X X X}.T u @X>X;X;X;X;X;X;X;X;X;X;X;X;X;X;X;X=X;X;X;X;X;X;X=X-Xb.;XsXpXpXpXdXdXpXdXrXT   0 V.I ~. X X X",
" X X XXX X X X X X X X X X X X X X X XoXU.& O.<X;X;X-XK.K.=X;X;X-X;X;X;X-X;X=X;X;X;X;X;X;X;X;X;X;Xn.#XdXpXpXdXpXpXdXpXyXm.& 0 b.Y ~. X X X",
" X X X X X X X X X X X X X XXX X X X X4XO.8 Y.:X;X;XL.| J.#X;X;X;X;X;X-X;X;X;X;X;X;X;X;X=X;X=X;X;XJ.T.dXpXpXpXpXdXdXpXpXO.X w v.U ~.XX X X",
" X X X X X X X X X X X X X X X X X X X6X_ 0 $X:X;X>Xk.T %X;X;X;X;X;X;X-X;X;X;X;X:X=X;X;X:X;X;X;X;XI.J.dXdXpXpXpXpXpXdXpXo.  U n.Y '. X X X",
" X X X X X X X X X X X X X X X X X XXX2X! u %X;X;X;Xh.8 Y.>X;X;X;X;X=X;X=X;X;X;X;X;X;X;X;X-X;X;X;X+Xl.eXdXpXpXdXdXpXpXsXc.. { s.+..XXX X X",
" X X X X X X X X X X X X X X X X X XXX1X^ u #X;X;X;XW.8 o.;X;X;X;X;X;X;X;X;X;X=X;X-X;X-X;X;X;X;X;X-Xj.#XsXpXpXpXpXpXpXdX=XY ..n ! /.XXXX X",
" X X X X X X X X X X X X X X X X X XoXyXO.8 Y.;X;X;X-X( t +X>X;X;X;X;X;X=X;X;X;X;X;X;X-X;X;X;X;X;X;XY.c.yXdXpXpXpXpXpXsX;X^ 2 h a R _.XX X",
" X X X X X X X X X X X X X X X X X XXX7XR.i O.qX>X;X:XT.R +.K.&X;X;X;X;X;X;X;X;X;X;X;X;X;X;X;X;X;X;X-Xv.Y.dXdXdXdXdXpX#Xh.' d 4.:.2 C.XX X",
" X X X X X X X X X X X X X X X X X X X9XqXO.U Y.R.L.Y.$XR.n.P.-X=X:X;X;X;X;X;X;X;X-X;X;X=XB.} | L.;X;X#Xj.Y.;X>X-XR.c.O.Y.Y.e g g n /.XXXX",
" X X X X X X X X X X X X X X X X X X X4X=Xg.& 8 8 & & t ^ J.-X>X:X=X;X;X;X-X-X;X;X-X;X;Xk.&     8 c.;X;X#XK.l.j.j.c.K.%XqXY.8 T O.T.3XXX X",
" X X X X X X X X X X X X X X X X X X.Xh.y X               & ~ Y.$XI.;X;X;X;X;X=X;X;X;XR.0         & +.#X>X;X-X%X-X;X;X;X;X+.& b.qXyXoX X X",
" X X X X X X X X X X X X X X X XXX.Xh.%                       i } J.;X;X;X;X;X:X;X;X;XY.8           X R v.+X;XqX;X;X:X;XK.0 * ^ -X4XXX X X",
" X X X X X X X X X X X X X X X XoXF.8                           8 L.>X;X=X;X=X:X;X;X;X-X} + = @         % t } n.I.T.m.| 8 ^ J.U s.XX X X X",
" X X X X X X X X X X X X X X X X}.^             * & X             R ).>X:X;X;X;X-X;X;X;X+X) #.-.h O +         % & r u T k.>XsXc.T [. X X X",
" X X X X X X X X X X XXXXXoX XoXU.&         o ! J.I.v.' 1           R Y.;X;X;X;X;X;X;X-X;X#Xy.<.=.@.%.s         X +.=XrXpXdXsXb.0 C.XX X X",
" X X X X X X X X X X'.D.d.f.C.C.Y     . o   r +XqXqX;X%XV.u           w l.%X:X;X;X;X;X;X;X;X-XW.u.1.,.%.=       ! g.m.rXsXsX;Xh.U 0 D.XX X",
" X X X X X X XXX'.a.r * > > $ . * W +.k.k.} U } W.1XuXwX;XJ.&           % ^ L.-X;X;X;X;X;X;X;X>X-X).v.t.R &   U %XeXm.n.rX%Xc.%XqX| Y [.XX",
" X X X X X XXX!.W $ 7 V 8.C $ 8 J.wXpXrX-X+XO.* & +.`.,XeX+X0               8 [ K.%X;X;X;X>X;X;X:X>XqX-Xm.y u #XpXsXpXK.g.n.%XsXsX$XU ^.XX",
" X X X X X XG.t $ N 9.J B z o ~ +XL.J.v.c.V.J.J.o.u ! T j.O.X                   & U | k.J.L.Y.Y.I.L.c.| 0 u Y.sXsXpXpX>X+.=XsXpXsX-XE !.XX",
" X X X XXX{.Y + V 8.N B 7.b X ^ b.R.-XqXeXeXrX>XpX=XE.| * X                         & 0 8 & & & & & & & % n.sXrX$XpXsXpXn.=XsXpXpXm.q { }.",
" X X X XXXx.% x 7.M J q.8.: ^ ;XpXsXpX;X>XY.=XJ.eXsXdXqXU . O                     % j.L.n.O.+.O.+.O.c.b.i [ eXeXn.J.eX;Xj.:XdXyXJ.b.j.8 b.",
" X X X X}.R > C M 7.q.q.b 8 +XsXpXpXpXL.+XJ.#X).:XpXR.L.T a $.; .                 & P.;X<X;X;X;X;X>XqX%X! U R.sXeXm.g.o.T.yX%Xv.J.eX=X0 o.",
" X X X X(.w l N J w.w.9.6 U qXsXpXpXdX=XI.$X=XeXpXpX:XL.w @.5.>.$.; .             . 0 { b.&X5X6X5X0X0XT.U m.l.%XsXpX#Xj.l.g.l.+XpXsX$X0 O.",
" X X XoX@X0 3 C w.q.w.9.6 ! eXsXdXpXdXqX$XpXpXpXdXpXpXpX[ j 4.4.5.>.j = .               X r Q { X.X.{ U & J.+Xj.qXpXsXeXc.J.eXpXaXaXc.u #X",
" X X XoX&Xu > 8.w.w.w.q.6 ! eXeXeXdXdXpXyXdXpXpXdXpXpXdXg.a 3.4.4.4.4.:.g O                               ! <XL.c.qXpXsXK.R.aXaXrXL.U n.yX",
" X X XoXrX| : C 7.8.8.q.c r Y.c.+XdXpXpXpXdXdXpXpXpXdXdXg.= 2.5.4.4.4.4.3.%.;                             X g.pXJ.c.rXsX;Xv.J.J.[ t k.wX4X",
" X X XXX7XI.t $ < , , , 6 $ 8 [ +XpXpXdXdXdXpXpXdX;X+X+Xu a 3.4.4.4.4.4.4.4.:.s . 8 & .                   X 8 j.#X..| #XpX;XL.! & h.qX8XXX",
" X X X X0X;Xb.+.O.+.[ T 4   & ).pXpXpXdXpXpXpXpXsXR.U 9 ; -.4.4.4.4.4.4.4.4.5.>.g y g.+.T 0 * X X * 8 U ` O.y.U i 0 X i } [ U r g.qX8X XXX",
" X X X XoXwX:X;X-X-X=X@Xb.I & R.sXaXpXaXpXyXdXdXdXv.+ g >.4.4.4.4.4.4.4.4.4.4.4.2.s { =X$XY.m.n.b.J.I.$X=X;X-XT.j.v.g.! u R ..K.qX8X X X X",
" X X X XXX4X9X7X7X6X1XwX;XJ.8 +.eXsXaXsX$XB.qX:Xb.0 d 2.4.4.4.3.3.4.4.3.4.4.4.4.2.; +.wXrXqXqX;XqXqXrXwX7X7XeXqX:X;X-X#X$X#X;XeX8XXX X X X",
" X X XXX X X X XXX X X3X7X=X! % o.#X<X=X[ 4 E y % d >.5.4.4.4.4.3.4.4.4.4.4.4.5.-., K.3XoX3X3XoXoX3X3XoX X XoX4X9X0XtX1XwX7X9X3XXX X X X X",
" X X X X X X X X XXX X XoXwXc.X o 8 y 0 # M V 5 O @.4.3.4.4.4.4.4.4.4.4.4.4.4.3.j q *XoX X X X X X X X X X X X XXXXXXXXXoXXXXXXX X X X X X",
" X X X X X X X X X X X X X7X#XT o 6 b b V 8.M C b = @.3.4.5.5.4.4.4.4.4.4.4.4.-.= [ 5XXX X X X X X X X X X X X X X X X X X X X X X X X X X",
" X X X X XXX X X X X X X X3XqXY.i $ v 6.9.N V 8.L ! , h %.2.3.4.4.4.4.3.2.4.5.h & R.8X X X X X X X X X X X X X X X X X X X X X X X X X X X",
" X X X X X X X X X X X X X X7XqXm.U & # 5 V 8.P c.%XO.w - @.5.3.4.4.4.2.@.2.#.@ | 1XoX X X X X X X X X X X X X X X X X X X X X X X X X X X",
" X X X X X X X X X X X X X X3XtX;X+Xn.^ + 6 z l.;X;X;XR.n $.5.4.4.4.4.3.@.h @ ^ &X3X X X X X X X X X X X X X X X X X X X X X X X XXX X X X",
" X X X X X X X X X X X X X X XoXwXrX>XR.! 0 % [ $X;X:X+Xm -.4.5.4.4.5.5.@.+ ^ =X9XXXXX X X X X X X X X X X X X X X X X X X X X X X X X X X",
" X X X X X X X X X X X X X XXX XXX3X0X:X#XT.o.1 i O.T.J.f 2.:.*.*.*.,.>.$.1 L.0XoX X X X X X X XXX X X X X X X XXX X X X X X X X X X X X X",
" X X X X X X X X X X X X X X X X X XoXuXwXqX#Xc.R q 0 8 = j m v.P.L.l.m k + s.3X X X X X X X X X X X X X X X X X X X X X X X X X X X X X X",
" X X X X X X X X X X X X X X X X X X XXXoX4XwX-X$XL.g.u O j 0.&X<X;X%X) ; % x.oX X X X X X X X X X X X X X X X X X X X X X X X X X X X X X",
" X XXX X X X X X X X X X X X X X X X X X X X4X7XwX:X=XE.[ - ( =X;X;X-X! o +.,XXX X X X X X X X X X X X X X X X X X X X X X X X X X X X X X",
" X X X X X X X X X X X X X X X X X X X X X X X XoX9XtXqXJ.& +.;X;X;X=XE * T.8X X X X X X X X X X XXX X X X X X X X X X X X X X X X X X X X",
" X X X X X X X X X X X X X X X X X X X X X X X X XXX}.T...* b.:X;X;X-X^ i *XoX X X X X XXX XXXXX X X X X X X X X X X X X X X X X X X X X X",
" X X X X X X X X X X X X X X X X X X X X X X X X X].` 4 4 8 E.;X;X;XT.0 y /. X X X XXXXX|.XXXXXX X X X X X X X X X X X X X X X X X X XXX X",
" X X X X X X X X X X X X X X X X X X X X X XXXXXXXs.% N C / #XqX<X>Xk.4 : r D.|.XX[.!.a.{ f.D.Q.{.XX X X X X X X X X X X X X X X X X X X X",
" X X X X X X X X X X X X X X X X X X X X XXX`.p.Q q > 7.6.L i.B.L.A.L J N o & ' S.~ 9 < > * < * ' `.oX X X X X X X X X X X X X X X X X X X",
" X X X X X X X X X X X X X X X X X X X X XD.U < z C B N 7.8.J K P P H 7.v b 3 + < z H 7.8.6.C z + ^ ]. X X X X X X X X X X X X X X X X X X",
" X X X X X X X X X X X X X X X X X X XXXF.r : C w.w.q.J S D 6.8.7.7.H v J w.q.M 6 9.w.w.w.w.w.q.v + o.oX X X X X X X X X X X X X X X X X X",
" X XXX X X X X X X X X X X X X X XXXXX_.i : C w.w.w.q.w.8.C B v N D H 8.q.q.w.q.M 7.w.9.q.q.w.w.q.l y _. X X X X X X X X X X X X X X X X X",
" X X X X X X X X X X X X X X XXX XXXoXC.X v w.w.q.q.w.q.q.w.q.q.q.q.w.q.q.q.q.q.6.7.w.w.w.q.9.9.q.C 1 Q.XX X X X X X X X X X X X X X X X X",
"XXXXXX XXXXXXXXX X X XoXOX}.*X}.}.].,Xm.* x w.w.q.q.q.q.q.q.q.q.q.q.q.q.q.q.q.q.9.9.9.w.q.9.q.w.w.N p ^. X X X X X X X X X X X X X X X X X",
"XX.X`.(.(.(.(.(.(.)./.U.I.J.b.b.J.B.b.j.u $ v 7.q.w.w.q.q.q.q.q.q.q.q.q.q.q.q.q.w.w.w.w.w.w.w.9.J 7 R }. X X X X X X X X X X X X X X X X X",
"5X).b.v.v.v.n.n.v.c.c.c.c.j.v.c.l.l.l.h.o.t o z G H 7.8.9.q.q.q.q.w.q.w.q.w.q.q.w.9.9.9.9.7.C N C l I _.oXoXXXXX X X X X X X X X X X X X X",
"uX<X$XR.L.m.n.v.c.l.c.j.j.j.j.k.j.j.j.h.g.| 8 l B B G D N B F H K K C H H H H H C V V F D B H H x < { L.T.T./.`.`.XX X X X X X X X X X X X",
"aXpXyXeXqX;X-X#X@X+XY.I.L.P.L.I.I.L.Y.L.L.b.o.R p z c B V B D F F F D D F F H F V F D N v z 7 1 q ^ j.v.c.c.n.b.K.(.oX X X X X X X XXX X X",
"oX4X9X9XyXaXpXpXyXyXeXeXrXeXeXrXrXrXeXrXrXqX#XR.K.j.( y 9 4 4 4 4 7 5 5 5 5 5 , , 1 9 9 y T ^ [ +.j.c.v.v.J.$X%X;X5X X X X X X X X X X X X",
" X X X XoX3X3X3XoX9XuXuXuXuXuXuXuXuXuXuXtXuXyXrXqX;X#XR.b.v.c.o.o.o.~ ~ ~ } [ E | +.l.L.+X$X$X$X$X+X@X#X%XqXpXpXuX3X X X X X X X X X X X X",
" X X X X X X X X XXXXXXXXXXXXX XXXXX XoX X X3X4X8XtX1XrXqX:X;X-X=X=X-X%X=X=X%X%X=X;XqXeXwXyXpXyXpXyXyXpXpXtX4X3XoX X X X X X X X X X X X X",
" X X X X X X X X X X X XXX X X X X X X X X X X XXXXXoX4X8X0XuXpXpXyXpXeXyXeXeXpXyXiX0X8XoX4X8X9X0X0X8X8X0XoX X X X X X X X X X X X X X X X"
};
