/* XPM */
static char *cuphead4_110[] = {
/* columns rows colors chars-per-pixel */
"56 83 219 2 ",
"   c #010101",
".  c #0B0B0B",
"X  c #0A0504",
"o  c #150604",
"O  c #18130D",
"+  c #131313",
"@  c #1B1B1B",
"#  c #1C1813",
"$  c #0F1010",
"%  c #370606",
"&  c #281A0C",
"*  c #231C14",
"=  c #271815",
"-  c #381212",
";  c #2C0A06",
":  c #34220E",
">  c #25211D",
",  c #2C251F",
"<  c #342413",
"1  c #3E2A12",
"2  c #372817",
"3  c #1F2020",
"4  c #252423",
"5  c #2C2B2B",
"6  c #2B2624",
"7  c #312E2E",
"8  c #362822",
"9  c #34312E",
"0  c #2E3131",
"q  c #343434",
"w  c #383737",
"e  c #353838",
"r  c #3C3B3B",
"t  c #363837",
"y  c #312F30",
"u  c #490605",
"i  c #560404",
"p  c #431717",
"a  c #541A1A",
"s  c #630202",
"d  c #6B0101",
"f  c #7C0100",
"g  c #760001",
"h  c #432D13",
"j  c #402E19",
"k  c #4B3215",
"l  c #483216",
"z  c #563A18",
"x  c #443A3A",
"c  c #552B2B",
"v  c #6C3C3B",
"b  c #753232",
"n  c #5F411D",
"m  c #64441D",
"M  c #69471D",
"N  c #6C491E",
"B  c #734D1E",
"V  c #7C521F",
"C  c #44423D",
"Z  c #6B4A21",
"A  c #684720",
"S  c #734E20",
"D  c #7A5221",
"F  c #765023",
"G  c #6F5639",
"H  c #413F40",
"J  c #3B4241",
"K  c #444444",
"L  c #454B4B",
"P  c #4B4B4B",
"I  c #484646",
"U  c #514D4D",
"Y  c #4B5555",
"T  c #545454",
"R  c #565B5C",
"E  c #5C5C5C",
"W  c #595755",
"Q  c #52504E",
"!  c #794D4D",
"~  c #655958",
"^  c #745F49",
"/  c #766858",
"(  c #5B6666",
")  c #597271",
"_  c #636363",
"`  c #636B6B",
"'  c #6C6C6C",
"]  c #686666",
"[  c #716F6F",
"{  c #667574",
"}  c #6D7172",
"|  c #647F7F",
" . c #6C7979",
".. c #737373",
"X. c #7C7C7C",
"o. c #787A79",
"O. c #830302",
"+. c #8C0302",
"@. c #9A0202",
"#. c #9A0808",
"$. c #991616",
"%. c #8A1C1C",
"&. c #A20000",
"*. c #AB0101",
"=. c #A60A0A",
"-. c #BB0101",
";. c #B10303",
":. c #AE1111",
">. c #8F201F",
",. c #8A2525",
"<. c #8E3B39",
"1. c #963331",
"2. c #992626",
"3. c #C40101",
"4. c #CD0000",
"5. c #D50000",
"6. c #D80000",
"7. c #80531E",
"8. c #8B5C24",
"9. c #845823",
"0. c #905F23",
"q. c #956225",
"w. c #996425",
"e. c #924C4B",
"r. c #905555",
"t. c #8B5E5D",
"y. c #926A6A",
"u. c #817F7B",
"i. c #917575",
"p. c #9F807F",
"a. c #7F7F80",
"s. c #758788",
"d. c #779696",
"f. c #658484",
"g. c #7DA4A4",
"h. c #838484",
"j. c #8B8B8C",
"k. c #868888",
"l. c #978A8A",
"z. c #8F9090",
"x. c #8A9C9D",
"c. c #939393",
"v. c #989696",
"b. c #979898",
"n. c #9B9B9B",
"m. c #989798",
"M. c #8F8F8F",
"N. c #A18A8A",
"B. c #A09E9E",
"V. c #A89291",
"C. c #A1A09F",
"Z. c #86A7A7",
"A. c #96A6A6",
"S. c #86BBBB",
"D. c #97BAB9",
"F. c #A3A3A3",
"G. c #A6AAAA",
"H. c #ABABAB",
"J. c #A8A6A6",
"K. c #AAB7B7",
"L. c #B3B3B3",
"P. c #B5BBBB",
"I. c #BBBBBB",
"U. c #B9B8B7",
"Y. c #B5ABAB",
"T. c #C1B8B8",
"R. c #BFBFC0",
"E. c #8DC3C3",
"W. c #9CC4C5",
"Q. c #92C5C5",
"!. c #9DDBDB",
"~. c #ABC8C8",
"^. c #BCC1C1",
"/. c #A4DDDD",
"(. c #A8DBDB",
"). c #B6D8D8",
"_. c #A4E4E4",
"`. c #AAE5E5",
"'. c #AAEBEB",
"]. c #B5EAEA",
"[. c #ACF3F3",
"{. c #AFFFFF",
"}. c #B1FEFE",
"|. c #BCFDFD",
" X c #B3F3F3",
".X c #C4C4C4",
"XX c #C6C9C9",
"oX c #CBCCCC",
"OX c #C8C6C6",
"+X c #CED1D1",
"@X c #C4DBDB",
"#X c #CBDDDD",
"$X c #D3D4D4",
"%X c #D6D9D9",
"&X c #DBDBDB",
"*X c #D0CFCF",
"=X c #DFE0DF",
"-X c #C7E6E6",
";X c #DFE1E1",
":X c #DBECEC",
">X c #D2E8E8",
",X c #C2F2F2",
"<X c #C4FDFD",
"1X c #CAFDFD",
"2X c #D6F4F4",
"3X c #DCF3F3",
"4X c #D4FBFB",
"5X c #DCFAFA",
"6X c #E4E4E4",
"7X c #E5ECEC",
"8X c #EBECEC",
"9X c #E7E7E7",
"0X c #F0EFEF",
"qX c #E3F3F3",
"wX c #EEF1F1",
"eX c #E7F9F9",
"rX c #F5F5F5",
"tX c #F9F9F9",
"yX c #F7F8F8",
/* pixels */
"{.{.{.{.{.{.{.}.{.{.{.{.{.{.{.{.{.{.{.{.}.{.{.{.{.{.{.{.}.~.W.D.[ b.{.{.{.{.{.{.{.{.{.{.{.{.{.{.{.{.{.{.{.{.{.{.",
"{.{.{.{.{.{.{.{.{.{.{.{.{.{.{.{.{.{.{.{.{.{.{.{.{.}.{.}.].u.k...[ A.}.{.{.{.{.{.{.{.{.}.{.{.{.{.{.{.{.{.{.{.{.{.",
"{.{.{.{.{.{.{.{.{.{.{.{.{.{.{.{.{.{.{.{.{.{.{.{.{.W.K.1XqXF.c.X.n.3X}.{.{.{.{.{.{.{.{.{.{.{.{.{.{.{.{.{.{.{.{.{.",
"{.{.{.{.{.{.{.{.{.{.{.{.{.{.{.{.{.{.{.{.{.{.{.{.].[ ' -X3X%XF.E n.1X{.{.{.{.{.{.{.{.{.{.{.{.{.{.{.{.{.{.{.{.{.{.",
"{.{.{.{.{.{.{.{.{.{.{.{.{.{.{.{.{.{.{.{.{.{.{.}.).B.^.|.}.3X&XB.~.}.{.{.{.{.{.{.{.{.{.{.{.{.{.{.{.{.{.{.{.{.{.{.",
"{.}.{.{.{.{.{.{.{.{.{.{.{.{.{.{.{.{.{.{.}.[. X~...l.:X|.{.|.3X9X3X{.{.{.{.{.{.{.{.{.{.{.{.{.{.{.{.{.{.{.{.{.{.{.",
"{.{.{.{.{.{.{.{.{.{.{.{.{.{.{.{.{.{.{.`.Z.R { I.a.A.|.{.{.{.}.5X|.}.{.{.{.{.{.{.{.{.{.{.{.{.}.{.{.{.{.}.{.{.{.{.",
"{.{.{.{.{.{.{.{.{.{.{.{.}.}.}.}.[.E.{ J 7 5 @ X.oX8X|.}.{.{.{.{.{.{.{.{.{.{.{.}.{.{.{.{.{.{.{.{.{.{.{.{.{.{.{.{.",
"{.{.{.{.{.{.{.{.{.}.}.`.(.~.Z.| J 0 Y k..XF.] 5 H.5X}.{.{.{.{.{.{.{.{.{.{.{.{.{.{.}.{.{.{.{.{.{.{.{.{.{.{.{.{.{.",
"{.{.{.{.{.{.{.{.}.(...L e 5 = u s v %XyXyXG.U.T Y '.{.{.{.{.{.{.{.{.{.{.{.{.{.{.{.{.{.{.{.{.{.{.{.{.{.{.{.{.{.{.",
"{.{.{.{.{.{.{.{.|.o.4 q k.c.v *.5.:.Y.yX8Xb.&X.X0 g.}.}.{.{.{.{.{.{.{.{.{.{.{.{.{.{.{.{.{.{.{.{.{.{.{.{.{.{.{.{.",
"{.{.{.{.{.{.{.{.@XP n.F.J.rXU.>.5.3.e.8X=Xn.8X8XU J /.}.{.{.{.{.{.{.{.{.{.{.{.{.{.{.{.{.{.{.{.{.{.{.{.}.{.{.{.{.",
"{.{.{.{.{.{.{.}.~.w U.%Xj.oX8Xt.3.5.,.*X.XL.tXY.%.% s. X{.{.{.{.{.{.{.{.{.{.{.{.{.}.}.}.}.}.}.}.{.{.{.{.{.{.{.{.",
"{.{.{.{.{.{.{.|.R.5 F.6XL.B.rXN.;.6.%.U.J.$XT.1.4.+.- D.}.{.{.{.{.}.{.{.{.{.}. X'.!.!.!.!._.`.'.}.}.{.{.{.{.{.{.",
"{.{.{.{.{.{.{.<XoX5 ' &XXXj.rXN.;.6.>.} ' i.2.4.6.4.u J !.{.{.}.[.'._.E.d.f.) Y K t q e r J K P f.Q.[.{.{.{.{.{.",
"{.{.{.}.{.{.{.<X;X_ 5 U.XXz.8Xy.@.+.; @ - =.5.5.5.-.! K ( ).W.x.] L e 5 q I E o.a.j.k.k.X.X.s...U q | [.}.{.{.{.",
"{.{.{.{.{.{.{.}.3XH.5 P ' o.k.8 ; 6 E z.x O.5.5.3.<.*XU.5 q y 7 I _ u.c.n.c.h.o.} ] [ o.h.k.o.OX$Xn.4 ` `.}.}.}.",
"{.{.{.{.{.{.{.{.4X&Xc.J 4 6 q U a.L.&X=Xk.% *.:.e.OXtXrXh.+ ..v.j.[ ] ] ] o.k.B.U.OX$X+XR.n.m.$X&Xb.P t f.{.}.}.",
"{.{.{.{.{.{.{.{.}.3X&XXXH.J.U.*X;X3X1X3XXXK - V.6XtXyX8Xl.u q I _ k.I.%X6XrX8X$XI.H.B.n.J.I.OXJ.o.E b.c.e (.}.{.",
"{.{.{.{.{.{.{.{.{.|.2X8X9X7XqX1X<X{.{.<X+X_ + ' 8XtX8XV.$.3.i x XX0X&XXXU.G.F.n.J.L.T.U.H.k.[ h.U.$Xv.XXr s.{.}.",
"{.{.}.{.{.{.{.{.{.{.{.|.4X|.}.{.{.{.{.(.R E z.w ..^.y.$.-.-.=.p [ c.b.C.L.I.^.U.J.h.o.X.m.U.$X0XtXrXc.XX' ` |.}.",
"{.{.{.{.{.{.{.{.{.{.{.{.{.{.{.{.{.{.[.( 4 k.XXB.P T ! r.y.i.i.l.F.F.C.c.h...' X.b.U.&X8XrXtXtXyXrXU.r H.n.U `.{.",
"{.{.{.{.{.{.{.{.{.{.{.{.{.{.{.{.{.}.Z.5 a.o._ ' ' ] ............o.k.j.C.L.J.n.9XyXtXyXrXrXrXrXrXrX]   j.I.r Q.{.",
"{.{.{.{.{.{.{.{.{.{.{.{.{.{.{.{.}.].` 4 U.%XOXI.L.H.H.G.L.U.T.oX$X%X%X=X=X*XB.0XrXrXrXrXrXyXrXrX8XP   o.&XI Q.}.",
"{.{.{.{.{.{.{.{.{.{.{.{.{.{.{.{.E.( r P j..X&X&X&X=X&X=X&X&X&X&X&X&X&X&X&X*XB.6XyXrXrXrXrXrXrXyX8XP   ] 6XW S.}.",
"{.{.{.{.{.{.{.{.{.{.{.{.{.{.{.E.0 ' I.oXoX$X&X&X&X&X%X&X&X&X&X&X&X&X&X&X%X%Xv.&XyXrXrXrXrXrXrXyXrX[ . R 9X' S.}.",
"{.{.{.{.{.{.{.{.{.{.{.{.{.{.`.L U oX&X&X&X&X&X&X&X$X&X&X&X$X&X&X%X&X%X&X&X&XB..XyXrXrXrXrXrXrXrXrXF.@ P 9X[ S.{.",
"{.{.{.{.{.{.{.{.}.{.{.{.{.{.A.4 F.6X&X&XoXI.%X&X&X&X&X&X&X&X&X&X&X&X&X&X&X&XG.Y.yXrXrXrXrXyXrXrXrX..  P 9X[ E.}.",
"{.{.{.{.{.{.{.{.{.{.{.{.{.,X..q XX&X&XOX] v.&X&X&X&X&X&X$X&X&X$X&X&X&X&X&X&X.Xz.8XrXrXyXrXrXrXrXrXU.r ] U.x ( ).",
"{.{.{.{.{.}.{.{.{.{.{.{.{.2XE K oX&X&Xc.@ k.=X&X&X&X&X&X&X&X&X&X&X&X%X&X&X&X&Xv.XXyXrXrXrXrXrXrXrXrXI.U c s u I ",
"{.{.{.{.{.{.{.{.{.{.{.{.}.:XT I $X&X=Xh.7 U oX&X&X&X$X&X&X&X&X&X%X&X&X&X&X&X&XR.j.6XyXrXrXrXrXrXrXrXJ.c &.5.@.- ",
"{.{.{.{.{.{.{.{.{.{.{.{.{.2X] r XX&X=Xc.P K n.&X&X&X&X&X&X&X$X&X$X&X&X&X&X&X&X&XH.m.6XtXrXyXrXyXrX.Xc.n.b d a u.",
"{.{.{.{.{.{.{.{.{.{.{.{.}.3Xk.4 L.&X&XXXE r P .X&X&X$X&X&X%X&X&X&X&X&X*Xz.' m.$X&XJ.c.XX9X0X9X$XJ.j.OX&XW r F.:X",
"{.{.{.{.{.}.{.{.}.{.{.{.{.5XL.4 X.&X&X&XL.T @ E OX&X&X&X&X&X&X%X&X&X*XE . X $ _ .X&XI.n.v.n.c.c.H.oX&XL.5 c.wX1X",
"{.{.{.{.{.{.{.{.{.{.{.{.{.<X%XT 5 U.&X&X&X+XJ.b.OX&X&X&X$X&X%X&X&X&XT.4       X r c.XX&X$X$X*X&X=X=XXXP I #X<X{.",
"{.{.{.{.{.{.{.{.{.{.{.{.{.|.8XH.0 P .X&X&X&X;X&X=X&X&X&X&X&X&X&X&X&X$X]           $ x ] k.n.H.L.G.c.L q L.4X{.{.",
"{.{.{.{.{.{.{.{.{.{.{.{.{.{.4X6XJ.r I H.oX$X$X&XI.m.OX&X&X&X&X&X%X&X&XI.r u u % X o X X . $ + @ 3 q P H.qX|.{.{.",
"{.{.{.{.{.{.{.{.{.{.{.{.{.{.|.:XU.E . 3 K P T E 7 6 n.&X&X&X&X&X&X&X&X&XH.b =.*.O.+.f o       . ] U.$XqX|.{.{.{.",
"{.{.{.{.{.{.{.{.{.{.{.{.{.}._. .0 X               X 4 h.*X&X&X&X&X%X&X&X&XR.l.t.e.<.<.v L _ e J +X3X3X|.{.{.{.{.",
"{.{.{.{.{.{.{.{.{.{.{.{.{.[.` .                       . P n.oX&X=X&X&X&X&X&X&X%XoXXX.XoX$Xn.r F.1X}.{.{.{.{.{.{.",
"{.{.{.{.{.{.{.{.{.{.{.{.}.g.+                             $ I j.L..X*X&X&X=X=X=X=X=X&X%Xb.r h.:X}.{.{.{.{.{.{.{.",
"{.{.{.{.{.{.{.{.{.}.{.{. XI             X                     . @ 7 P ..c.F.G.H.L.G.m._ q k.;X|.}.{.{.{.{.{.{.{.",
"}.{.{.{.{.{.{.{.{.{.}.}.@Xq         @ ~ X.' 0                         X + 4 5 q q q w E J.6X4X{.{.}.{.{.{.{.{.{.",
"{.{.{.{.{.{.{.{.{.{.{.<XoX5         ( L.z.o.P .                         . 4 _ F.J.B.H.$X3X|.{.{.{.{.{.{.{.{.{.{.",
"{.{.{.{.{.{.{.{.{.{.{.1X&XI       @ 0 H W ] K E ..0 X X               . ( X.P ] ] E [ k.~.{.{.{.{.{.{.{.{.{.{.{.",
"{.{.{.{.{.{.{.{.{.{.{.<X8Xj.. @ [ F._ n.9XyX=X=XyXb.- O.s ; o X       + L.tXU.P j..X*Xn.T W.}.{.{.{.{.{.{.{.{.{.",
"{.{.{.{.{.{.{.{.{.{.{.}.eX.XJ k.9XB.I.rX*X6XyXyX=X[ = O.4.3.#.u o     + R.tX9Xv.9XtXyXyXo.{  X{.{.{.{.{.{.{.{.{.",
"{.{.}.{.{.{.{.{.{.{.{.{.1XI.[ 9XU.F.rXrX.XH.0XyXrX$XU.~ O.4.6.3.#.i o 4 *XyXrXB.$XyXyXyXX.` }.{.{.{.{.{.{.{.{.{.",
"{.{.{.{.{.{.{.{.{.{.{.{.<XG.n.%Xb.6X6XG.*X6XrXrXrXyXtX$Xx &.6.5.5.4.@.p n.rX9Xc..X0X9XOXL  .}.{.{.{.{.{.{.{.{.{.",
"{.{.{.{.{.{.{.{.{.{.{.{.1XH.' ..OXrX8X%X*XrXyXrXrXrXyX9XP g 6.5.5.5.5.&.a ' E t K T o.L.v.K D.{.{.{.{.{.{.{.{.{.",
"{.{.{.{.{.{.{.{.{.{.{.}.5X$XP ' 0X.XC.$XrXrXrXrXrXrX8XI.5 O.5.5.5.5.5.5.i P C.n.j.E I b.6XK s.{.{.{.{.{.{.{.{.{.",
"{.{.{.{.{.{.{.{.{.{.{.{.<X;XU j.yX9X*XOX0XyXrXrXrXyX%XE % ;.5.5.5.5.5.5.i [ =X&X=X&XH.W U.r Z.}.{.{.{.{.{.{.{.{.",
"{.{.{.{.{.{.{.{.{.{.{.{.}.:X_ ( 0XyXyXrXrXrXrXyXrXrXyXk.i 4.4.5.5.5.5.-.- m.=X&X&X&X$XU r P ].{.{.{.{.{.{.{.{.{.",
"{.{.}.{.{.{.{.{.{.{.{.{.}.3Xc.7 L.9X0XyXrXrXrXyXyXyX=XP s 5.5.5.5.5.5.f x .X&X&X&X&X.Xq @ F.4X}.{.{.{.{.{.{.{.{.",
"{.{.{.{.{.{.{.{.{.{.{.{.}.3X.X7 , T L.0XyXrX0XOX6X%X_ % ;.5.5.5.5.6.&.- z.&X&X&X&X=Xn.0 Q K.}.{.{.}.{.{.{.{.{.{.",
"{.{.{.{.{.{.{.{.{.{.{.{.{.1X*X9 : 9 U.rXyXrXyXv.Q w % &.5.5.5.5.6.-.% E $X&X&X&X&XoXI 4 w W.}.{.{.{.{.{.{.{.{.{.",
"{.{.{.{.{.{.{.{.{.{.{.{.{.|.&XK & < T ^.8X8XOXP u O.-.6.5.5.6.6.-.u q I.&X&X&X&X%X..X . ..,X{.{.{.{.{.{.{.{.{.{.",
"{.{.{.{.}.{.{.{.{.{.{.{.{.|.9Xj.+ h l 8 W T 6 u ;.5.5.6.4.-.&.f % x L.&X&X&X&X$Xh.4 r X.%X<X{.{.{.{.{.{.{.{.{.{.",
"{.{.{.{.{.{.{.{.{.{.{.{.{.}.2X+X_ O z B 1 ; O.3.5.5.5.6.@.% & : k o.&X&X$XXXn.P @ ] .X6X1X{.{.{.{.{.{.{.{.{.{.{.",
"{.{.{.{.{.{.{.{.{.{.{.{.{.}.|.7X.X( # : & i +.,.2.=.4.6.g : S m q.G u...U q 5 P j.&XqX1X|.{.{.{.{.{.{.{.{.{.{.{.",
"{.{.{.{.{.{.{.{.{.{.{.{.}.<X}.4X8X+Xc.T 6 % b L.T.l.,.3.d : B 1 m N & 5 ' h.H.$X7X<X}.{.{.{.{.{.}.{.{.{.{.{.{.{.",
"{.{.{.{.{.{.{.{.{.{.{.{.W.D.`. X%X6X;XL.H w L.&X;X%X~ O.u + > 8 6 * 5 F.&X6X7X2X|.{.}.}.{.{.{.{.{.{.{.{.{.{.{.{.",
"{.{.{.{.{.{.{.{.{.{._.| 6 4 P E t X.XXU q L.&X&X=XR.b i * X.F.L.J.c.U.:X4X1X}.}.{.{.{.{.{.{.{.{.{.{.{.{.{.{.{.{.",
"{.{.{.{.{.{.{.{.}./.R $ h m k & h 1 5 r H.&X&X&X=Xk.= = ' %X6X9X6X6X3X}.{.{.{.{.{.{.{.{.{.{.{.{.{.{.{.{.{.}.{.{.",
"{.{.{.{.{.{.{.{.Z.C * z q.w.q.n 8.F _ U.&X&X&X&XR.w E L.=X1X|.<X1X1X}.{.{.{.{.{.{.{.{.{.{.{.{.{.{.{.{.{.{.{.{.{.",
"{.{.{.{.{.{.}.`.H z n 8.w.w.0.m 9.^ XX=X&X%X&X%X] r XXqX5X{.{.{.{.{.{.{.{.{.{.{.{.{.{.{.{.{.{.{.{.{.{.{.{.{.{.{.",
"{.{.}.{.{.{.}.K., N m 0.w.w.q.m D G L.=X%X&X%Xj.> c.5X}.{.{.{.{.{.{.{.{.{.{.{.{.{.{.{.{.{.{.{.{.{.{.{.}.{.{.{.{.",
"{.{.{.{.{.{.|.K.> N m q.w.w.w.V N 9./ U.+X+XM.3 W >X}.}.{.{.{.{.{.{.{.{.{.{.{.{.{.{.{.{.{.{.{.{.{.{.{.{.{.{.{.{.",
"{.{.{.{.{.{.<XH.* Z Z w.w.w.w.0.B D 9.G / t.1 q XX1X{.{.{.{.{.{.{.{.{.{.{.{.{.{.{.{.}.{.{.{.{.{.{.{.{.{.{.{.{.{.",
"{.{.{.{.{.{.1XJ.* M N w.w.w.w.w.0.m B 8.0.0.h ` 3X}.{.{.{.{.{.{.{.{.{.{.{.{.{.{.{.{.{.{.{.{.{.{.{.{.}.{.{.{.{.{.",
"{.{.{.{.{.{.1XL., z A w.w.w.w.w.q.q.D M M k # x.|.{.}.{.{.{.{.{.{.{.{.{.{.{.{.{.{.{.{.{.{.{.{.{.{.{.{.{.{.{.{.{.",
"{.{.{.{.{.{.1XU.6 z A q.w.w.w.w.q.w.q.D &   O L f.Z.'.{.{.{.{.{.{.{.{.}.{.{.{.{.{.{.{.{.{.{.{.{.{.{.{.{.{.{.{.{.",
"{.{.{.{.}.{.1XoX5 l m 0.w.w.w.0.w.q.V h : z N m k 2 {  X}.{.{.{.{.{.{.{.{.{.{.{.{.{.{.{.{.{.{.{.{.{.{.{.{.{.{.{.",
"{.{.{.{.}.}.1X%Xq h m 0.w.w.w.w.q.B M V q.w.w.w.w.9.< s.}.{.{.{.{.{.{.{.{.{.{.{.{.{.{.{.{.{.{.{.{.{.{.{.{.{.{.{.",
"{.{.{.|.|. X X+XK 1 z 9.w.w.w.q.q.0.q.w.q.q.w.w.w.q.1 R  X}.}.{.}.{.}.}.}.{.}.}.}.{.{.{.{.{.{.{.{.{.{.{.{.{.{.{.",
"{. X~.P.U.U.Y.F.T O m m q.w.w.w.q.w.w.w.q.w.q.q.w.8.& ( -X>X-X@X@X@X#X@X@X@X-X>X,X{.{.{.{.{.{.{.{.{.{.{.{.{.{.{.",
"{.P.n.c.v.c.c.j.' @ l m D w.w.w.w.q.w.w.q.q.q.8.V z # [ J.B.F.n.n.C.B.B.C.n.C.J.P.}.{.{.{.{.{.{.{.{.{.{.{.{.{.{.",
"4X%XU.J.n.c.c.c.h.Q O k M S 8.0.q.q.q.q.8.D Z M M < q j.l.c.M.c.c.j.c.M.c.M.v.XX7X|.{.{.{.{.{.{.{.{.{.{.{.{.{.{.",
"eXrX8X6X&X$XoXXXI.J.T O l M A Z M Z M Z Z Z M z & 6 ..m.v.v.c.c.c.c.c.c.c.b.U.7X5X}.{.{.{.{.{.{.{.{.{.{.}.{.{.{.",
"}.1XeXeXyXrXrXwXrX6XXXo.7 , 1 h l j h 1 < * * 5 T F.%X&X&X%X$X$X*X*X*X$X%X&X:X|.{.{.{.{.{.{.{.{.{.{.{.{.{.{.{.{.",
"{.{.{.|.<X|.<X<X3XeX9X$XU.F.[ P r e K I T o.c.U.&X0XrXrXrXyXrXrXrXrXrXrXrXeX1X{.{.{.{.{.{.{.{.{.{.{.{.{.{.{.{.{.",
"{.{.{.{.{.{.{.{.}.}.1X3X3X;X%X*XOX.XoXoX%X6X:X3X1X1X1X<X1X1X1X1X<X<X1X1X1X}.{.{.{.{.{.{.{.{.{.{.{.{.{.{.{.{.{.{.",
"{.{.{.{.{.{.{.{.{.{.{.}.}.1XqX0X8X8XrXwX4X4X|.}.{.{.{.{.{.{.{.{.{.{.{.{.}.{.{.{.{.{.{.{.{.{.{.{.{.{.{.{.{.{.{.{."
};
