/* XPM */
static char *cuphead1_110[] = {
/* columns rows colors chars-per-pixel */
"72 83 225 2 ",
"   c #010101",
".  c #0B0B0B",
"X  c #0D0806",
"o  c #150807",
"O  c #0F100F",
"+  c #17120D",
"@  c #141413",
"#  c #1B1511",
"$  c #1C1C1C",
"%  c #1C1917",
"&  c #2D0303",
"*  c #280A09",
"=  c #3C0504",
"-  c #360A09",
";  c #271B0C",
":  c #231C14",
">  c #221C1B",
",  c #291612",
"<  c #34220E",
"1  c #28221A",
"2  c #332412",
"3  c #3D2A13",
"4  c #372A1B",
"5  c #2F200E",
"6  c #242423",
"7  c #2A2423",
"8  c #2B2927",
"9  c #2C2C2B",
"0  c #272928",
"q  c #312E2D",
"w  c #3A2A2A",
"e  c #35312A",
"r  c #343333",
"t  c #393634",
"y  c #363939",
"u  c #3B3B3B",
"i  c #373837",
"p  c #2F3030",
"a  c #480504",
"s  c #580404",
"d  c #431B1B",
"f  c #670403",
"g  c #720101",
"h  c #780B0B",
"j  c #651917",
"k  c #7E1B1B",
"l  c #442D13",
"z  c #493216",
"x  c #5B3D19",
"c  c #553917",
"v  c #473532",
"b  c #6C2B2A",
"n  c #3F403F",
"m  c #5E401C",
"M  c #64441C",
"N  c #6E4A1E",
"B  c #6A461C",
"V  c #734C1E",
"C  c #784F1E",
"Z  c #7E531F",
"A  c #47413F",
"S  c #6D4B22",
"D  c #734E22",
"F  c #775022",
"G  c #7B5322",
"H  c #6D553A",
"J  c #725A3D",
"K  c #3F4242",
"L  c #3D4849",
"P  c #434343",
"I  c #4B4C4C",
"U  c #474A48",
"Y  c #4B5353",
"T  c #545454",
"R  c #5B5B5B",
"E  c #565959",
"W  c #504F4F",
"Q  c #6F5555",
"!  c #5F605F",
"~  c #7A6D5E",
"^  c #5D6262",
"/  c #5D6A6A",
"(  c #556262",
")  c #566B6B",
"_  c #646464",
"`  c #6C6C6C",
"'  c #656767",
"]  c #77736D",
"[  c #697474",
"{  c #737373",
"}  c #7B7B7B",
"|  c #717D7D",
" . c #766C68",
".. c #930302",
"X. c #9C0101",
"o. c #891918",
"O. c #9A1A1A",
"+. c #8A0505",
"@. c #A80808",
"#. c #B30202",
"$. c #BB0101",
"%. c #B60808",
"&. c #A61312",
"*. c #8D2424",
"=. c #893736",
"-. c #95302F",
";. c #C40101",
":. c #CC0000",
">. c #D30000",
",. c #D80000",
"<. c #81541F",
"1. c #825621",
"2. c #855822",
"3. c #8B5C23",
"4. c #905F23",
"5. c #976223",
"6. c #986324",
"7. c #964948",
"8. c #935858",
"9. c #875555",
"0. c #867A77",
"q. c #9A7474",
"w. c #856E6D",
"e. c #878178",
"r. c #6B8383",
"t. c #7D8181",
"y. c #758686",
"u. c #779999",
"i. c #6F9696",
"p. c #7BA3A3",
"a. c #76A1A1",
"s. c #838483",
"d. c #8C8D8D",
"f. c #888887",
"g. c #948C8C",
"h. c #93918E",
"j. c #889898",
"k. c #939494",
"l. c #979898",
"z. c #9B9B9B",
"x. c #989797",
"c. c #8E8F90",
"v. c #A29D9D",
"b. c #AF9999",
"n. c #A08584",
"m. c #9EA09F",
"M. c #A0A09F",
"N. c #9F9FA0",
"B. c #84ACAB",
"V. c #8BA8A9",
"C. c #98A7A8",
"Z. c #89B5B5",
"A. c #98BCBC",
"S. c #A3A3A3",
"D. c #A9A4A4",
"F. c #A5A8A8",
"G. c #ACACAC",
"H. c #A7A7A8",
"J. c #B0AEAD",
"K. c #A9B6B6",
"L. c #B4B4B4",
"P. c #B9B6B6",
"I. c #BBBBBB",
"U. c #B3B9B9",
"Y. c #B4B0AF",
"T. c #C0BFBF",
"R. c #C0C0BF",
"E. c #8FBFC0",
"W. c #98C7C7",
"Q. c #9AD6D6",
"!. c #A6CACA",
"~. c #BEC1C1",
"^. c #B7C5C5",
"/. c #A4D4D4",
"(. c #A4DEDE",
"). c #AADBDB",
"_. c #B6D8D8",
"`. c #A5EBEB",
"'. c #ABEBEB",
"]. c #A8E3E3",
"[. c #BBEDED",
"{. c #B6EAEA",
"}. c #ADF4F4",
"|. c #AFFFFF",
" X c #B5F5F5",
".X c #BCF4F4",
"XX c #B2FFFF",
"oX c #BAFEFE",
"OX c #B3F0F0",
"+X c #C4C3C4",
"@X c #C5CBCB",
"#X c #CBCCCC",
"$X c #D0CECE",
"%X c #CED1D1",
"&X c #C5D6D6",
"*X c #D3D3D4",
"=X c #D8D7D7",
"-X c #D7D9D9",
";X c #DBDBDB",
":X c #D8D7D8",
">X c #D0CFD0",
",X c #C5E6E6",
"<X c #DEE1E1",
"1X c #D9E7E7",
"2X c #C3F4F4",
"3X c #C3FDFD",
"4X c #CCFBFB",
"5X c #CDF6F6",
"6X c #DBF4F4",
"7X c #D3FBFB",
"8X c #DCFAFA",
"9X c #D3F4F4",
"0X c #E3E4E4",
"qX c #E4EBEB",
"wX c #EBECEC",
"eX c #E8E7E7",
"rX c #F0EFEF",
"tX c #E3F2F2",
"yX c #EBF1F1",
"uX c #E5FAFA",
"iX c #EDF8F8",
"pX c #F5F5F5",
"aX c #F6F8F8",
"sX c #F9F9F9",
"dX c #EFEFF0",
/* pixels */
"|.|.|.|.|.|.|.|.|.|.|.|.|.|.|.|.|.|.|.|.|.|.'.| p K V.}.XX|.|.|.|.|.|.|.|.|.|.|.|.|.|.|.|.|.|.|.|.|.|.|.|.|.|.|.|.|.|.|.|.|.|.|.|.|.|.|.|.|.|.|.",
"|.|.|.|.|.|.|.|.|.|.|.|.|.XX|.|.|.|.|.|.|.|.r.9 U 6 $ U B.`.XX|.|.|.|.|.|.|.|.|.|.|.|.|.|.|.|.|.|.|.|.|.|.|.|.|.|.|.|.XX|.|.|.|.|.|.|.|.|.|.|.|.",
"|.|.|.|.|.|.|.|.|.|.|.|.|.|.|.|.|.|.|.|.|.W.0 f.:XS.U K $ Y C.OXXX|.|.|.|.|.|.|.|.XX|.|.|.|.|.|.|.|.|.|.|.|.|.|.|.|.|.|.|.|.|.|.|.|.|.|.|.|.|.|.",
"|.|.|.|.|.|.|.|.|.|.|.|.|.|.|.|.|.|.|.|. X/ 9 +X;X*Xf.#Xl.6 @ ' _.|.|.|.|.|.|.|.|.|.|.|.|.|.|.|.|.|.|.|.|.|.|.|.|.|.|.|.|.|.|.|.|.|.|.|.|.|.|.|.",
"|.|.|.|.|.|.|.|.|.|.|.|.|.|.|.|.|.|.|.|.,Xn W =X;X:Xf.=XpX .a o u V.|.|.|.|.|.|.|.|.|.|.|.|.|.|.|.|.|.|.|.|.|.|.|.|.|.|.|.|.|.|.|.|.|.|.|.|.|.|.",
"|.|.|.|.|.|.|.|.|.|.|.|.|.|.|.|.|.|.|.oX,Xt R :X;X*Xf.;XpXq.#...& $ i.}.|.|.|.|.|.|.|.|.|.}.XXXX|.|.|.|.|.|.|.|.|.|.|.|.|.|.|.|.|.|.|.|.|.|.|.|.",
"|.|.|.|.|.|.|.|.|.|.|.|.|.|.|.|.|.|.|.oX-Xr U *X;X+Xc.pXwX9.;.,.o.y $ [ ].XX|.|.XX|.|.XXZ.f.E.oX|.|.|.|.|.|.|.|.|.|.|.|.|.|.|.|.|.|.|.|.|.|.|.|.",
"XX|.|.|.|.|.|.|.|.|.|.|.|.|.|.|.|.|.|.oX0XE $ H.*Xl.R.sXR.*.>.:.-.+X} $ / (.|.|.(.}.XX3Xl.G.f.Q.XX|.|.|.|.|.|.|.|.|.|.|.|.|.|.|.|.|.|.|.|.XX|.|.",
"|.|.|.|.|.|.|.|.|.|.|.XX|.|.|.|.|.|.|.oX6XS.r r n _ >X:X8.$.,.$.8.pXwX_ O R (._.T y.V.~.z.R.R.B.|.|.|.|.|.|.|.|.|.|.|.|.|.|.|.|.|.|.|.|.|.|.|.|.",
"|.|.|.|.|.|.|.|.|.|.|.|.|.|.|.|.|.|.|.|.5X;XL.s.E y u v ..>.:.*.R.sX0Xh.t.> E ^.{ E } } R N.wXl.`.|.|.|.|.|.|.|.|.|.|.|.|.|.|.|.|.|.|.|.|.|.|.|.",
"|.|.|.|.|.|.|.|.|.|.|.|.|.|.|.|.|.|.|.|.oX9X0X;X>XP.} q & g =.P.aX0Xz.I.dX{ o ` #Xx.C.;X` H.aXl.Q.XX|.|.|.|.|.|.|.|.|.|.|.|.|.|.|.|.|.|.|.|.|.|.",
"|.|.|.|.|.|.|.|.|.|.|.|.|.|.|.|.|.|.|.|.|.XX3X9XqX0X:XL.` 8 P ~.#Xx.L.pXdXq.s + k.+X{ #XeXG.+XS.Q.XX|.|.|.|.|.|.|.|.XX|.|.|.|.|.|.|.|.|.|.|.|.|.",
"|.|.|.|.|.XX|.|.|.|.|.|.|.|.|.|.|.|.|.|.|.|.|.|.oX4XtXeX*XF.P 0 ` *XsXpXD.O.:.s q I.S.` R.' ! { Q.|.|.|.|.|.|.|.|.|.|.|.|.|.|.|.|.|.|.|.|.|.|.|.",
"|.|.|.|.|.|.|.|.|.|.|.|.|.|.|.|.|.|.|.|.|.|.|.|.|.|.oX7XqX<XI.R 9 G.$Xq.O.:.,.@.o _ *XC.` { k.r j.|.|.|.|.|.|.|.|.|.|.|.|.|.|.|.|.|.|.|.|.|.|.|.",
"|.|.|.|.|.|.|.|.|.|.|.|.|.|.|.|.|.|.|.|.|.|.|.|.|.|.|.|.oX6X<X+XR > k %.,.,.>.O.T 7 v.<XJ.L.:Xf.C.XX|.XXXXXX|.XXoX|.|.|.|.|.|.|.|.|.|.XX|.|.|.|.",
"|.|.|.|.|.|.|.|.|.|.|.|.|.|.|.|.|.|.|.|.|.|.|.|.|.|.|.|.|.XX3X0XI.U = ;.,.;.O.g.=XW v J.S.z.c.s.d.u.u.u.p.p.p.B.C.p.W._..XXX|.|.|.|.|.|.|.|.|.|.",
"|.|.|.|.|.|.|.|.|.|.|.|.|.|.|.|.|.|.|.|.|.|.|.|.|.|.|.|.|.|.|.3X>X' X f &.7.Y.rXsXL.$ > 9 6 6 6 0 q r q 9 8 8 7 6 $ 7 t ^ V.'.XXXX|.|.|.|.|.|.|.",
"|.|.|.|.|.|.|.|.|.|.|.|.|.|.|.|.|.|.|.|.|.|.|.|.|.|.|.|.|.|.|.B.n > 9 , g.eXsXaX;Xq.s > k.G.G.S.C.S.S.z.k.l.z.N.z.c.} E 9 $ K j.'.|.|.|.|.|.|.|.",
"|.|.XX|.|.|.|.|.|.|.|.|.|.|.|.|.|.|.|.|.|.|.|.|.|.|.|.|.|. XB.$ r z.T.U ! ;X>Xb.7.%.#.- P T U I I U W W T T W E ! ' ` x.I.k.I $ ' '.|.|.|.|.|.|.",
"|.|.|.|.|.|.|.|.|.|.|.|.|.|.|.XX|.|.|.|.|.|.|.|.|.|.|.|.|.{.U . d.0X;X` , =.-.@.;.>.,.g 6 } z.L.T.+X$X=X;X*X$X+XI.H.t.T R.<X*Xk.p B.|.|.|.|.|.|.",
"|.|.|.|.|.|.|.|.|.|.|.|.|.|.|.|.|.|.|.|.|.|.|.|.|.|.|.|.XXC.9 ` ' N.#X+X0.Q =.-.*.o.O.h w z.I.I.T.I.I.I.+XP.G.H.z.x.d.l.%X;X-XI.t E }.|.|.|.|.|.",
"|.|.|.|.|.|.|.|.|.|.|.|.|.|.|.|.|.|.XX|.|.|.|.|.|.|.|.|. X` 9 N.l.' R s.G.R.+X+XI.P.J.D.N.N.N.z.N.S.N.v.C.G.J.L.I.+X>X+XP.k.} { } y W.|.|.|.|.|.",
"|.|.|.|.|.|.|.|.|.|.|.|.|.|.|.|.|.|.|.|.|.|.|.|.|.|.|.(.) u } k.f.P.L.s._ R { s.z.D.L.I.I.+X#X>X$X>X$X#X+X+XT.J.l.d.t.} } N.+X0X0XK i.XX|.|.|.|.",
"|.|.|.|.|.|.|.|.|.|.|.|.|.|.|.|.|.|.|.|.|.|.|.|.|.|.`.Y I I.:X;XI.J.<X-X*XI.z.k.} ` ' _ _ _ _ ` ` ' ' ` ] ! R } c.N.R.;XwXpXsXpXL.0 '  X|.|.|.|.",
"|.|.XX|.|.|.|.|.|.|.|.|.|.|.|.|.|.|.|.|.|.|.|.|.|.`.( y I.<X;X;X;X:X;X;X;X<X;X<X;X:X*X#X#X+XT.P.I.I.I.+X#XN.v.rXaXsXsXsXpXpXsX<XP   Y }.|.|.|.|.",
"|.|.|.|.|.|.|.|.XX|.|.|.|.|.|.XX|.|.|.|.|.|.|.|.XXj.$ l.;X;X;X;X>X%X;X;X:X;X;X;X;X;X;X;X;X<X;X;X;X;X;X;X<XG.S.aXaXaXpXpXpXpXsX*X6   y `.|.|.|.|.",
"|.|.|.|.|.|.|.|.|.|.|.|.|.|.|.|.|.|.|.|.|.|.|.|.2XE u #X;X;X;X>Xs.H.<X;X:X;X;X;X-X;X;X;X;X;X;X;X;X;X;X;X;XG.H.aXpXpXpXpXpXpXsX+X$   r `.|.|.|.|.",
"|.|.|.|.|.|.|.|.|.|.|.|.|.|.|.|.|.|.|.|.|.|.|.|.,Xu R -X;X;X*Xk.S.%X;X:X;X;X;X:X;X;X;X:X:X;X;X;X;X;X;X;X;XP.z.pXpXpXaXpXsXpXsXT.$   L }.|.|.|.|.",
"|.|.|.|.|.|.|.|.|.|.|.|.|.|.|.|.|.|.|.|.|.|.|.XX_.q ' ;X;X;XR.d.:X;X;X;X;X;X;X;X;X;X;X:X;X;X:X;X-X;X;X;X;X+Xc.rXpXpXpXpXpXpXsX*XP   K }.XX|.|.|.",
"|.|.|.|.|.|.|.|.|.|.|.|.|.|.|.|.|.|.|.|.|.|.XXoX&Xq R :X;X<XJ.v.;X;X;X;X;X;X:X;X:X;X;X;X;X;X;X-X;X;X;X;X-X=Xd.%XsXsXpXpXpXpXpXv.$   Y }.|.|.|.|.",
"|.|.|.|.|.|.|.|.|.|.|.|.|.|.|.|.|.|.|.|.|.|.|.oX<XI A >X;X<XP.h.;X:X;X;X;X;X;X;X;X;X;X;X:X;X;X;X;X:X:X;X;X;Xz.J.sXpXpXpXaXpXpX`     } XX|.|.|.|.",
"|.|.|.|.|.|.|.|.|.|.|.|.|.|.|.|.|.|.|.|.|.|.|.XX9X` 6 I.<X;X#X} +X<X;X;X;X;X;X:X:X;X-X:X;X;X;X;X;X;X;X;X;X;XT.g.rXpXpXpXpXpXpXs.  @ C.oX|.|.|.|.",
"|.|.|.|.|.|.|.|.|.|.|.|.|.|.|.|.|.|.|.|.|.|.XX.X^.' . { L.+X-Xl.h.+XG.*X-X;X;X:X:X;X;X;X:X;X;X;X;X;X;X-X;X;X*Xg.R.aXaXpXpXpXpX=XR = v Q.XX|.|.|.",
"|.|.|.|.|.|.|.|.|.|.|.|.|.|.|.|.|.|.|.|.|.oX!.{ 9 O   . $ p _ d.k.s.z.:X;X;X;X;X;X;X;X;X;X;X:X;X;X=X;X;X;X;X;X+Xs.+XaXsXaXpXsX;X7.#.- | XX|.|.|.",
"|.|.|.|.|.|.|.|.|.|.|.|.|.|.|.|.|.|.|.|.XXW.y                 @ _ +X;X;X*X>X;X:X;X;X;X;X;X;X;X;XG.R 0.+X;X;X;X;XI.f.S.#X*X#XI.Q @.X.o 9 A.XX|.|.",
"|.|.|.|.|.|.|.|.|.|.|.|.|.|.|.|.|.|.|.}.).E                     X ' %X;Xv.G.<X;X;X;X;X-X-X;X;XG.9   X n S.=X<X;X;X*XG.z.k.l.f.v a d _ q r.XX|.|.",
"|.|.|.|.|.|.|.|.|.|.|.|.|.|.|.|.|.XXW.R I 9 @                     O } S.s.$X;X;X;X;X;X;X;X;X;X{         $ ` I.-X<X;X;X;X;X;X} u l.I.=XP u.XX|.|.",
"|.|.|.|.|.|.|.|.|.|.|.|.|.|.|.|.|.W.y y C.+XD.{ p   r R I 6         O 6 s.:X;X;X;X;X;X-X;X;X;Xl.@         X 9 ` S.+X*X-X=XJ.y ' <XsXJ.r ' /.|.|.",
"|.|.|.|.|.|.|.|.|.|.|.|.|.|.|.|.B.r 9 ` l.l.F.P.G.r f.=X#XG.R .         6 N.;X;X;X;X;X;X;X;X;X>X' - g f & X     @ p U R W r ` #XN.L.l.+X` ( `.|.",
"|.|.|.|.|.|.|.|.|.|.|.|.|.|.|.a.9 { *X0X0X;X+XH.k.P } tXqX0X+XR           9 v.;X;X-X;X;X-X;X;X;X>X0.o.;.#.s         I k.g.J.<XsXD.{ <XsX+Xt W.XX",
"|.|.|.|.|.|.|.|.|.|.|.|.|.|.a.$ } wXpXpXI.-X+X-X*Xl.y A.oX7XqXS.@           6 s.#X;X-X;X;X;X;X;X;X*Xz.9.O.+.o     9 #XsX+X:XaXsX=Xk.rXsX$Xr Z.XX",
"|.|.|.|.|.|.|.|.|.|.XXoXoXW.6 I 0XaXpXpXI.*XL.T.$XwXR W {.XXtX~.6             . T G.=X;X;X;X;X;X;X-X;X>XJ.g.! $ @ I eXsX*Xg.-XaXT.k.pXsXv.r /.XX",
"|.|.|.|.|.XXXX.X).W.V.l.F.` . f.aXaXpXpXwXeX0X;XwXsXL.6 V.oX8XL.@                 $ R z.+X-X;X;X<X;X;X<X*XN.I u U U #XsXrXf.d.N.c.*XpX+X{ n Z.XX",
"|.|.|.|.XX].p.R t 6 > : 1 + . k.sXaXpXpXpXaXaXsXpXaX0XK U j.C.E                       O p E } z.S.S.l.s.T u { s.E S.z.pXdXl.H.+X;X=XC.k.:XG.I !.",
"|.|.XX|.p.r # 2 c B F 2.2.m . ` $XrXpXpXaXpXpXpXpXpXpX' . * a *                             . @ @ $ 0 E } x.f.u r #Xd.@XsX-Xz.k.d.c.I.rXsX*Xr f.",
"|.|.|.i.$ 2 N 3.5.5.5.5.6.B A { { wXsXpXpXpXpXpXpXpXpX0.o X.>.#.f *                           X . # 9 n u 0 .   X k.>Xd.*XaXpX$Xk.qXsXsXaXf.p I.",
"|.|.p.$ z 3.6.6.5.5.5.5.6.c v.eX+XrXpXpXpXpXpXpXpXaXrX` a >.>.,.,.@.s o                                           i ;X>Xd.+XpXpXJ.I.wX<Xk.0 s.6X",
"|.'.L 2 3.6.6.6.5.5.5.5.5.z z.sXpXaXpXsXpXpXpXpXpXpXP.w X.,.,.>.>.,.:.X.a X           X                           X ` eX;Xc.f.P.I.` T U u 0.1XoX",
"XXC.1 S 6.5.6.5.6.5.5.5.5.c I =XsXsXpX;XpXpXaXsX#Xs.r & $.,.>.>.>.>.>.>.;...a X     . T U @ .                   @ r r T f._ p r i y ` x.I.0X3X|.",
"[._ 5 4.6.5.5.5.6.5.6.5.5.<.; P C.~.d.f.pXpXsXsXf.+ X = ;.>.>.>.>.,.:.,.,.,.;.+.= X   } +Xz.} T n r 9 9 r P R } z.R.G._ W { G.J.z.L.-XeXtX3X|.|.",
"<XP + 2.6.6.5.5.5.5.5.5.5.5.C < # 1 2 t H.<X;Xl.p M B a ;.,.>.>.,.>.>.:.>.>.>.>.;.h & ` 0X0X=X*X+XI.I.I.I.#X=X0XqX6X<X*X=X;X6X1X0XtX8X3XoX|.|.|.",
"eX!   m 6.5.6.5.5.5.5.5.5.5.5.C N B G N 4 t t : c 2.m & #.>.>.,.,.:.>.>.>.>.>.,.>.>.X.v /.4X6XtXqXqXqXqXqX6X5X4X3XoX5X9XtX4XoXoX3XXXXX|.|.|.|.|.",
"dXS.% ; 2.6.5.5.5.5.5.5.5.4.x 3 Z 5.6.6.Z 3 z Z F ~ s.> ..,.>.>.>.>.:.>.>.>.>.>.>.,.:.a u.oXXXoXoXoXoXoXXXXX|.|.|.|.|.|.oX|.|.|.|.|.|.|.|.|.|.|.",
"tX*X` O < C 4.6.6.6.5.2.M < # 1 % 3 V 6.<.B 5.<.~ @X-XR a $.>.>.>.,.>.,.>.:.:.>.>.>.;.a j.XX|.|.|.|.|.|.|.|.|.|.|.|.|.|.|.|.|.|.|.|.|.|.|.|.|.|.",
"4XwX#X} p # ; l c x l ; 1 ! c.J.d.U # M B 1.5.H U.;X;XG.1 g :.>.>.>.>.>.>.>.:.>.>.,...> K.|.|.|.|.|.|.|.|.|.|.|.|.|.|.|.|.|.|.|.|.|.|.|.|.|.|.|.",
"XX7XqX:XP.s.I q $ 1 K ` G.:XqX0X<X+X_ @ 3 5.4.0.-X;X;X;X} , ..>.>.>.>.:.>.>.>.>.>.;.a I {.|.|.|.|.|.|.|.|.|.|.|.|.|.|.|.|.|.|.|.|.|.|.|.|.|.|.|.",
"|.|.4XyX0X-X#XI.G.G.+X;XwX9X4X3X9XqX#X' 3 4.2.] *X;X:X;X%X` * ..>.>.>.>.>.>.>.>.:.g > G.3X|.|.|.|.|.|.|.|.|.|.|.|.|.|.|.|.|.|.|.|.|.|.|.|.|.|.|.",
"|.|.XXoX9X6XwXqXeXqX6X7X3X|.|.|.XX8XeXJ.8 l c > f.;X;X;X;X*X` * h ;.>.>.>.:.>.>...* s.6XXX|.|.|.|.|.|.|.|.|.|.|.|.|.|.|.|.|.|.|.|.|.|.|.XX|.|.|.",
"|.|.|.|.XXoXoXoX7X4XXX|.|.|.|.|.|.XX8X;Xe.0 0 r 6 t.+X<X<X+XR X & #.,.>.:.>.>.#.& T 1X3X|.|.|.|.|.|.|.|.|.|.|.|.|.|.|.|.|.|.|.|.|.|.|.|.|.|.|.|.",
"|.|.|.|.|.|.|.|.|.|.|.|.|.|.|.|.|.|.oXqX*XL.J.L.I # y } { i 6 u * #.>.>.,.>.,...7 I.7X|.|.|.|.XX|.|.oXXXoXXX|.|.|.|.|.|.|.|.|.|.|.|.|.|.|.|.|.|.",
"|.|.|.|.|.|.|.|.|.|.|.|.|.|.|.|.|.|.|.oXyXwXwX0X+Xs.y > 6 W C.s.- $.:.@.&.&.#...v ,XoX|.XXXX XW.y.r./ [ ^ r./.XX|.|.|.|.|.|.|.|.|.|.|.|.|.|.|.|.",
"|.|.|.|.|.|.|.|.|.|.|.|.|.|.|.|.|.|.|.|.3X4X4XtX0X:XR.H.P.*XeXd.- X.j w.v.g.b f r _.XX|.|.}.r.$ : 3 3 z 5 2 P /.|.|.|.|.|.|.|.|.|.|.|.|.|.|.|.|.",
"|.|.|.|.|.|.|.|.|.|.|.|.|.|.|.|.|.|.|.|.|.|.|.XX4X6XeXeXqX6XuXz.+ f k U.<X-X9.s q _.|.|.XXu.@ 3 G 5.5.6.D M 2 [ }.XX|.|.|.|.|.|.|.|.|.|.|.|.|.|.",
"|.|.|.|.|.|.|.|.|.|.|.|.|.|.|.|.|.|.|.|.|.|.|.|.|.XX4X4XoXoX7XR.u & j L.;X<Xf., } 2X|.|.W.6 3 4.6.5.6.5.3.M c u /.|.|.|.|.|.|.|.|.|.|.|.|.|.|.|.",
"|.|.|.|.|.|.|.|.|.|.|.|.|.|.|.|.|.|.|.|.|.|.|.|.|.|.|.|.|.|.9XqXS.% 6 I.;X<XS.9 ^.oX|..X/ o C 6.5.5.5.6.6.V m 4 B.|.|.|.|.|.|.|.|.|.|.|.|.|.|.XX",
"|.|.|.|.|.|.|.|.|.|.|.|.|.|.|.|.|.|.|.|.|.|.|.|.|.|.|.|.|.|.3XtXL.$ u #X;X;XG.t !.oXoX&X8 < 5.5.5.5.5.6.6.2.M 4 B.|.|.|.|.|.|.|.|.|.|.|.|.|.|.|.",
"|.|.|.|.|.|.|.|.|.|.|.|.|.|.|.|.|.|.|.|.|.|.|.|.|.|.|.|.|.|.|.7XI.$ ` -X;X<XJ.p Z.`.4X#X0 c 5.5.5.5.6.5.5.1.m 3 p.XX|.|.|.|.|.|.|.|.|.|.|.|.|.|.",
"|.|.|.|.|.|.XX|.|.|.|.|.|.|.|.|.|.|.|.|.|.|.|.|.|.|.|.|.|.|.|.[.k.$ d.<X;X;XI.q e A F.0XT l 6.5.6.5.5.5.6.Z m 4 B.|.|.|.|.|.|.|.|.|.|.|.|.|.|.|.",
"|.|.|.|.|.|.|.|.|.|.|.|.|.|.|.|.|.|.|.|.|.|.|.|.|.|.|.|.|.XX].E > 2 h.;X;X;XS.H 3.c q k.E ; 1.5.5.5.5.5.5.N m 4 A.|.|.|.|.|.|.|.|.|.|.|.|.|.|.|.",
"|.|.|.|.|.|.|.|.|.|.|.|.|.|.|.|.|.|.|.|.|.|.|.|.|.|.|.|.|.oXK.$ x 3.J e.h.e.J 3.<.M c l : l Z 6.6.5.6.5.5.B m t W.|.|.|.|.|.|.|.|.|.|.|.|.|.|.|.",
"|.|.|.|.|.|.|.|.|.|.|.|.|.|.|.|.|.|.|.|.|.|.|.|.|.|.|.|.|.8Xl.O x 5.6.2.2.2.3.G x 3.6.5.C Z 5.5.5.5.6.6.C M c T ,X|.|.|.|.|.|.|.|.|.|.|.|.|.|.|.",
"|.|.|.|.|.|.|.|.|.|.|.|.|.|.|.|.|.|.|.|.|.|.|.|.|.|.|.|.|.8XR.q # S G G G G M S 2.5.5.5.5.5.5.5.5.5.6.G M <.3 d.3X|.|.|.|.|.|.|.|.|.|.|.|.|.|.|.",
"|.|.|.|.|.|.|.|.|.|.|.|.|.|.|.|.|.|.|.XX|.|.|.|.|.|.|.|.|.8X;XI z G S S D D 1.5.6.5.5.5.6.5.5.5.5.5.1.M 3.B 8 &XoX|.|.|.|.|.|.|.|.|.|.|.|.|.|.|.",
"|.|.|.|.|.|.|.|.|.|.|.|.|.|.|.|.|.XXXX2X[.2X2X4XoX|.oX4X2X4X#X8 N 6.6.6.5.5.6.5.5.5.5.5.5.5.5.5.5.C M 3.1.; ` 6X|.|.|.|.|.|.|.|.|.|.|.|.|.|.|.|.",
"|.|.|.|.|.|.XX.X[..X.X.X[.{.OX{.OX[._.D.G.G.J.L.K.K.U.L.L.U.l.$ x 6.5.5.5.5.5.5.5.5.5.5.5.6.6.3.N M 3.2.2 A #X3X|.|.|.|.|.|.|.|.|.|.|.|.|.|.|.|.",
"|.|.|.|.XXXX{.J.H.G.G.L.H.S.S.S.H.H.l.k.k.k.k.x.k.k.l.k.l.k.s.9 ; 3.6.5.5.5.6.5.5.6.6.5.5.4.G M F 4.N 5 $ s.~._.'. X|.|.|.|.|.|.|.|.|.|.|.|.|.|.",
"|.|.|.|.|.3XwX#XL.G.S.l.x.c.k.k.g.c.c.d.d.d.k.d.d.k.g.d.d.c.f.E O c 5.5.5.6.6.6.6.5.5.2.D S S 2.F 3 # 8 ` h.k.l.z.~.oX|.|.|.|.|.|.|.|.|.|.|.|.|.",
"|.|.|.|.|.3XiXpXwX0X<X*X+XT.I.P.L.G.G.S.S.v.z.v.z.l.l.l.l.k.g.t.t + x D S S S S V S S S F G N 3 # $ I } d.c.k.l.H.&XXX|.|.|.|.|.|.XX|.|.|.|.|.|.",
"|.XX|.|.|.|.3X9XiXiXpXyXpXrXwXwXwXeX0X0X0X0X<X<X<X;X;X;X-X*X%X+Xx.6 z G 3.3.1.G G F B x l 2 % 9 { x.G.L.P.I.#X*XeX6X|.|.|.|.|.|.|.|.|.|.|.|.|.|.",
"|.|.|.|.|.|.|.|.oXoXoX4XuX8XuX8X8XpXaXaXpXpXpXpXaXpXpXpXpXpXpXyX=X{ t e 4 l l 3 5 : 1 t T ` k.I.;XeXwXrXdXrXpXyX8XoX|.|.|.|.|.|.|.|.|.|.|.|.|.|.",
"|.|.|.|.|.|.|.|.|.|.|.|.|.|.|.|.XXoX3X3X3X3X3X3XoX3X3X3X3XoX3X7XwX*XI.S.` u r y T t.S.T.>X;XeXtXuXuXuXuXuXuX4XoX|.|.|.|.|.|.|.|.|.|.|.XX|.|.|.|.",
"|.|.|.|.|.|.|.|.|.|.|.|.|.|.|.|.|.|.|.XX|.|.|.|.|.|.|.|.|.|.|.|.4XtX1X0X=X+X+X+X*X0X1XqX5X3X3XoXXX|.XXXXXXXXXX|.|.|.|.|.|.|.|.|.|.|.|.|.|.|.|.|.",
"|.|.|.|.|.|.|.|.|.|.|.|.|.|.|.|.|.|.|.|.|.|.|.|.|.|.|.|.|.|.|.|.|.XXoX7XwXwXwXpXuX4XoXoX|.|.|.|.|.|.|.|.|.|.|.|.|.|.|.|.|.|.|.|.|.|.|.|.|.|.|.|."
};
