/* XPM */
static char *cuphead3_110[] = {
/* columns rows colors chars-per-pixel */
"60 83 222 2 ",
"   c #010101",
".  c #0E0303",
"X  c #0C0C0C",
"o  c #070807",
"O  c #160807",
"+  c #1C140C",
"@  c #14110E",
"#  c #141313",
"$  c #1B1B1B",
"%  c #1C1612",
"&  c #2B0303",
"*  c #280807",
"=  c #330202",
"-  c #360A0A",
";  c #281B0C",
":  c #241E1B",
">  c #271C16",
",  c #391717",
"<  c #32210E",
"1  c #3B260F",
"2  c #2B2218",
"3  c #362614",
"4  c #242323",
"5  c #2C2B2B",
"6  c #2B2723",
"7  c #342B2B",
"8  c #39342F",
"9  c #2F3232",
"0  c #333333",
"q  c #393735",
"w  c #353B3B",
"e  c #3C3C3C",
"r  c #302F30",
"t  c #4A0202",
"y  c #480707",
"u  c #590505",
"i  c #4B1D1D",
"p  c #680303",
"a  c #730303",
"s  c #7D0101",
"d  c #711717",
"f  c #442D13",
"g  c #4C3314",
"h  c #553918",
"j  c #462B2A",
"k  c #403F3E",
"l  c #4A3434",
"z  c #4E3A30",
"x  c #6D2A2A",
"c  c #36403E",
"v  c #5F401A",
"b  c #64441D",
"n  c #6F4A1E",
"m  c #69461D",
"M  c #744D1E",
"N  c #79501F",
"B  c #42413E",
"V  c #6C4B23",
"C  c #634623",
"Z  c #724E23",
"A  c #765024",
"S  c #7B5323",
"D  c #795428",
"F  c #735837",
"G  c #3D4646",
"H  c #444444",
"J  c #4C4C4B",
"K  c #464949",
"L  c #544A4A",
"P  c #4B5656",
"I  c #545454",
"U  c #555C5B",
"Y  c #5B5C5C",
"T  c #585756",
"R  c #52504E",
"E  c #635E5E",
"W  c #796245",
"Q  c #5F5F60",
"!  c #605F60",
"~  c #536868",
"^  c #576463",
"/  c #636363",
"(  c #646B6B",
")  c #6C6C6C",
"_  c #696767",
"`  c #716F6E",
"'  c #716666",
"]  c #6E6F70",
"[  c #6D7171",
"{  c #647777",
"}  c #747474",
"|  c #787675",
" . c #757878",
".. c #7B7C7B",
"X. c #767778",
"o. c #830201",
"O. c #8B0403",
"+. c #920101",
"@. c #9A0807",
"#. c #9A1616",
"$. c #881E1E",
"%. c #A40101",
"&. c #AC0000",
"*. c #AB0C0C",
"=. c #B40202",
"-. c #BC0202",
";. c #A41616",
":. c #9B3939",
">. c #8D2F2F",
",. c #A82020",
"<. c #C40101",
"1. c #CC0000",
"2. c #D30000",
"3. c #855924",
"4. c #8B5D24",
"5. c #845722",
"6. c #966326",
"7. c #996526",
"8. c #9B6727",
"9. c #954C4C",
"0. c #965454",
"q. c #885151",
"w. c #896565",
"e. c #9C7B7A",
"r. c #947878",
"t. c #A25656",
"y. c #7F807F",
"u. c #8D8478",
"i. c #6D8787",
"p. c #798989",
"a. c #7D9494",
"s. c #7E908F",
"d. c #7EA2A2",
"f. c #838383",
"g. c #888685",
"h. c #8C8C8C",
"j. c #838E8E",
"k. c #8E9191",
"l. c #859B9B",
"z. c #949494",
"x. c #9A9797",
"c. c #9C9C9C",
"v. c #989A9A",
"b. c #958582",
"n. c #A39C9C",
"m. c #85A8A8",
"M. c #9FA0A0",
"N. c #93A9A9",
"B. c #8BB2B2",
"V. c #99BBBA",
"C. c #A4A4A4",
"Z. c #A9A5A5",
"A. c #ACACAC",
"S. c #A7A8A8",
"D. c #B3ABAB",
"F. c #AFB0B0",
"G. c #A7BCBC",
"H. c #B4B4B3",
"J. c #B5BABA",
"K. c #BCBCBC",
"L. c #B8B6B6",
"P. c #AFAFB0",
"I. c #C2BEBE",
"U. c #BEBFC0",
"Y. c #94C2C2",
"T. c #99CCCC",
"R. c #9BD6D6",
"E. c #9EDCDD",
"W. c #A6C7C7",
"Q. c #BEC1C1",
"!. c #B5C4C4",
"~. c #AAD3D3",
"^. c #A2DCDC",
"/. c #A8D7D7",
"(. c #B9D7D7",
"). c #B6D0CF",
"_. c #AAE6E6",
"`. c #ABECEC",
"'. c #A4E4E4",
"]. c #B6E8E8",
"[. c #ACF5F5",
"{. c #AFFFFF",
"}. c #A7F2F2",
"|. c #B2F4F4",
" X c #BCF5F5",
".X c #B1FEFE",
"XX c #BBFEFE",
"oX c #B0F7F8",
"OX c #C3C4C3",
"+X c #C8C7C7",
"@X c #CCCCCC",
"#X c #C6CACA",
"$X c #CED1D1",
"%X c #C6D7D7",
"&X c #D3D3D3",
"*X c #D8D7D7",
"=X c #D5DADA",
"-X c #DBDBDB",
";X c #D0CFCF",
":X c #E0DFDF",
">X c #C7EDED",
",X c #DFE2E2",
"<X c #DDECEC",
"1X c #D4EEEE",
"2X c #CFF6F6",
"3X c #C3FDFD",
"4X c #CBFCFC",
"5X c #C1F5F5",
"6X c #D3F3F3",
"7X c #DCF5F5",
"8X c #D3FAFA",
"9X c #DDF9F9",
"0X c #E4E4E4",
"qX c #E5ECEC",
"wX c #EBECEC",
"eX c #E5F2F2",
"rX c #ECF3F3",
"tX c #E2FAFA",
"yX c #F5F5F5",
"uX c #F8F7F7",
"iX c #F9F9F9",
"pX c #F0EFEF",
/* pixels */
"{.{.{.{.{.{.{.{.{.{.{.{.{.{.{.{.{.{.{.{.{.{.{.{.{.{.{.{.{.{.{..X.XG.) T.{.{.{.{.{.{.{.{.{.{.{.{.{.{.{.{.{.{.{.{.{.{.{.{.",
"{.{.{.{.{.{.{.{.{.{.{.{.{.{.{.{.{.{.{.{.{.{.{.{.{.{.{.{.{.{.{.[.Y...J [ `.{.{.{.{.{.{.{.{.{.{.{.{.{.{.{.{.{.{.{.{.{.{.{.",
"{.{.{.{.{.{.{.{.{.{.{..X{.{.{.{.{.{.{.{.{.{.{.{.{.{.{.{..XXX3X).[ g.H K ~.{.{.{.{..X{.{.{.{.{.{.{.{.{.{.{.{.{.{.{.{.{.{.",
"{.{.{.{.{.{.{.{.{.{.{.{.{.{.{.{.{.{.{.{.{.{.{..X{.{.{.{./.j.x.K...@Xh.h.[.{.{.{.{.{.{.{.{.{.{.{.{.{.{.{.{.{.{.{.{.{.{.{.",
"{.{.{.{.{.{.{.{.{.{.{.{.{.{.{.{.{.{.{.{.{.{.oX`.[..X.XXXJ.[ h.k.c.z.C.( `.{.{.{.{.{.{.{.{.{.{.{.{.{.{.{.{.{.{.{.{.{.{.{.",
"{.{.{.{.{.{.{.{.{.{.{.{.[.}.[.[.{.[.}.}.R.B.{ K ( _..XY.r.^ ^  .@Xf.) ) (.{.{.{.{.{.{.{.{.{.{.{.{.{.{..X{.{.{.{.{.{.{.{.",
"{.{.{.{.{.{.{.{.{.{.{.B.G w K P U P P G 9 0 I ) $ i.5Xh.k.v...#XqX&X;X*X X{.{.{.{.{.{.{.{.{.{.{.{.{.{.{.{.{.{.{.{.{..X{.",
".X{.{.{.{.{.{.{.{..X/.e K Y ( k.Q y s o.x Q.wX&XJ 5 Q.OXk.p.r.>X3X7XrXtXXX{.{.{.{.{.{.{.{.{.{.{.{.{.{.{.{.{.{.{.{.{.{.{.",
"{.{.{.{.{.{.{.{.{.XXv.0 K.&Xv.&X,Xq.1.2.>.;XiXU.Z.H / &X&X+X(.XX.X.XXXXX{.{.{.{.{.{.{.{.{.{.{.{.{.{.{.{.{.{.{.{.{.{.{.{.",
"{.{.{.{.{.{.{.{.{.3XX.R &X0XH.Z.uXr.=.2.;.I.yXM.-XH.5 h.qXqX6X{.{.{.{..X{.{.{.{.{.{.{.{.{.{.{.{.{.{.{.{.{.{.{.{.{.{.{.{.",
"{.{.{.{.{.{.{.{.{.6X/ } -X-XK.M.uXb.&.2.#.H.:Xc.pXyX..r ).XX.X{.{.{.{.{.{.{.{.{.{.{.{.{.{.{..X{.{.{.{.{.{.{.{.{.{.{.{.{.",
"{.{.{.{.{.{.{.{.{.2X} ) -X:XH.S.iXe.=.2.#.I.L.L.iXqXw.* ( |.{.{.{.{.{.{.{.{.{..X{.{.{.{.{.{.{..X{.{.{.{.{.{.{.{.{.{.{.{.",
"{.{.{.{.{.{.{.{.{.6XH.J c.*XS.+XrX0.1.2.>.D.z.:X0Xe.*.+.> v..X.X{.{.{.{.{.{..X.X.X.X{.{.{.`._.[..X{.{.{.{.{.{.{.{.{.{.{.",
"{.{.{.{.{.{.{.{.{.4X-Xx.J ( / K.P.d +.a , r E D.9.*.2.2.u w ~..X{..X{.XX`.'.'.^.m.i.{ ~ P H G P ~ { i.d.`..X{.{.{.{.{.{.",
"{.{.{.{.{.{.{.{.{.XXeX-XS.J 4 0 5 > 6 0 L J , #.<.2.2.<.>.w Y ].oX'.B.p.^ e e 0 9 c T / [ X.} / T J 0 4 U R.{.{.{.{.{.{.",
"{.{.{.{.{.{.{.{.{.{.3XrX-XOXS.k.x.n.P.K.@XK.7 +.2.1.=.9.@XF.r ^ _ w 5 r L ) p.z.C.C.x.g.X.| } h.K.&X+XS.0 G R..X{.{.{.{.",
"{.{.{.{.{.{.{.{.{.{.{.3X7XqX0X0X0X0XqXwXyX-XT y ;.:.e.*XiXyX}   q h.M.M.z.h...] / Y / } g.z.g.T h.:X-XK.Y e ^ }..X{.{.{.",
"{.{.{.{.{.{.{.{.{.{.{.{.XXXX8XtXtX3XXXXX3XeXh.X ' *XpXiXuX:X9.t q ] I H I } z.L.*X*X@XK.Z.v.M.H.OXP.h.Y f.S.5 V..X{.{.{.",
"{.{.{.{.{.{.{.{.{.{.{.{.{.{.{.{.{.{.{.{..X!.J $ 0 U.uXwXI.0.<.-.t @ X.+X-X0X-X+XP.c.z.C.L.OXH.h.] } C.OXk.OXJ { XX{.{.{.",
"{.{.{.{.{.{.{.{.{.{.{.{.{.{.{.{.{.{.{.{.R.w H C.I w r.t.;.1.2.2.=.y J M.c.z.z.M.H.+X@XU.x.X...c.@XwXyX0Xz.Z.h.K _.{.{.{.",
"{.{.{.{.{.{.{.{.{.{.{.{.{.{.{.{.{.{..XoX{ # f.*XOXI , @.;.;.>.:.9.w.k.F.OX#X@XU.P.x. .) g.K.qXuXiXiX-XJ $ ) H.0 ~..X{.{.",
"{.{.{.{.{.{.{.{.{.{.{.{.{.{.{.{.{.{..X].0 I } f.U.Q.x.n.Z.H.I.OXOXQ.F.c.g.} ) ) ] / H.0XyXiXyXyXyXiXOX$   K +Xe l.{.{.{.",
"{.{.{.{.{..X{.{.{.{.{.{.{.{.{.{.{.{.[.f.# / S.g._ ) ......} [ ( ) ) | g.c.H.U.@X@Xz.0XiXyXyXuXyXyXiX+X$   0 @X/ ^ .X{.{.",
"{.{.{.{.{.{.{.{.{.{.{.{.{.{.{.{.{.^.^ 5 ) v.c.+X@XP.C.x.C.Z.A.L.Q.@X&X*X-X:X-X-X&Xh.-XiXyXyXyXyXyXiX-X0   5 &X..L `.{.{.",
"{.{.{.{.{.{.{.{.{.{.{.{.{.{.{.{._.P r S.-X:X*X*X-X:X:X-X-X-X:X:X-X-X-X-X*X-X-X-X*Xh.&XiXyXyXyXyXyXyXyXz.$ 4 $Xh.H _.{.{.",
"{.{.{.{.{.{.{.{.{.{.{.{.{.{.{.{.i.4 c.-X-X-X-X-X-X-X-X-X-X-X*X-X-X*X-X-X-X-X-X-X-Xz.U.iXyXyXyXyXyXyXuXA.$ 4 @Xh.e '..X{.",
"{.{.{.{.{.{.{.{.{.{.{.{.{.{..X(.r / *X-X-X-X&X&X-X-X=X-X-X-X*X-X-X*X-X*X*X-X-X*X:XZ.A.yXyXyXyXyXyXyXuXz.  0 *Xf.J `..X{.",
"{.{.{.{.{.{.{.{.{.{.{.{.{.{.3Xk.4 A.:X-X*XZ.) S.*X-X-X*X-X-X-X-X-X-X-X-X-X-X-X-X-XL.v.yXyXyXyXyXyXyXyX+X4 e *X} T |..X{.",
"{.{.{.{.{.{.{.{.{.{.{.{.{.{.2X_ 0 +X-X-X+XH ..&X-X-X*X-X-X-X-X-X-X-X-X*X-X-X-X*X-X&Xz.0XyXyXyXyXyXyXyXyXA.U ' j j a.[.{.",
"{.{.{.{.{..X{.{.{.{.{.{.{.XXqXU k @X-X:XA.$ ) =X-X-X-X-X*X-X*X-X-X*X-X-X-X-X-X-X-X-Xc.H.uXuXyXyXyXyXyXuXL._ d =.%., N..X",
"{.{.{.{.{.{.{.{.{..X{.{.{.XXqXT H @X-X-XH.$ $ A.-X-X*X-X-X=X-X-X-X*X-X-X-X-X-X-X-X-X+Xg.@XuXyXyXyXyXyXwXh.g.d =.%.- d..X",
"{.{.{.{.{.{.{.{.{.{.{.{.{.XXwX} 5 K.-X-X&XT   R @X-X-X-X-X-X*X-X-X-X*X-X-X-X*X&X*X-X-XL.f.&XuXuXuXuXrXS.h.;XE , L ..].{.",
"{..X{.{.{.{.{.{.{.{.{.{.{.XXrXA.4 k.:X-X-XH.0 X J c.*X-X-X-X*X-X-X-X-X-X-X+XX.J ` K.-X-XK.k.H.-X0X&XM.v.&X$XH J +X,XXX.X",
"{.{.{.{.{.{.{.{.{.{.{.{.{..X9X*XI J $X-X-X-XH.} } H.-X-X*X-X-X-X-X*X*X-X&X) o     0 v.&X:X@XC.c.M.c.H.*X0XC.: j.7X8X{.{.",
"{.{.{.{.{.{.{.{.{.{.{.{.{.{.3XqXc.4 ..*X-X-X-X*X*X-X-X*X-X-X-X-X-X-X*X-X+Xq         # J z.@X-X*X&X-X:X&XS.e I (.{.{.{.{.",
"{.{.{.{.{.{.{.{.{.{.{.{.{.{..X8X&XT 4 ..h.} / Y Y k.+XC.@X-X-X*X-X-X-X-X&XE   . O .     @ 0 } n.A.A.h.I e / @X3X{.{.{.{.",
"{.{.{.{.{.{.{.{.{.{.{.{.{.{.{.G...0   o o         X 0 e A.*X-X-X-X-X-X-X-XH.l O.-.O.= - .     X # # $ ] H.-X8X.X{.{.{.{.",
"{.{.{.{.{.{.{.{.{.{.{.{.{.}.i.:                       o 0 k.&X-X-X-X-X-X-X-XZ.q.;.-.%.&.o..       X ) *X7X8XXX{.{.{.{.{.",
"{.{.{.{.{.{.{.{.{.{.{.{.{.i.X                             X J C.&X-X-X-X*X-X-X@Xx.q.>.$.$.j 9 5 o J F.W.R.oX.X{.{.{.{.{.",
"{.{.{.{.{.{.{.{.{.{.{..XY.$         o e ..} J X               # J g.P.&X-X-X:X-X-X=X%XU.L.L.c.0 o 0 I Y T ^ Y.{.XXXXXXXX",
"{.{.{.{.{.{.{.{.{.{.{. X[         o / OX:X*X+XX.#                 o $ H [ x.L.+X&X;X&X&X@Xk.0 # 5 z.*XwX:X` K `.{.{.4X4X",
"{.{.{.{.{.{.{.{.{.{..X>XJ         H ;X0X0X<X*XK.J o                     o 6 0 G J J R J k K g.h.k.yXuXuXiXF.9 W.{.{.{..X",
"{.{.{.{.{.{.{.{.{.{.XX%Xr     o 5 J ) U J T I e i p *                   $ z.c.g.} I # _ A.*XyXwXS.:XuXuXpXy.6 ^ /.{.{.{.",
"{.{.{.{..X{.{.{..X`.a.J +   # } K...I z.A.h.c.c.z %.&.u .               4 +X0X:X-Xc.w $XiXuXyXuX+XK.yX0Xk.X.K.) P _.{.{.",
"{.{.{.{.{.{.{.{._.( 2 b b O p.&Xc.+X0XwXiXuXyX@XH p 2.1.o.*             0 /.3XtXrXc.J 0X0X*XuXuX0Xh.C.x.A.qXiXA.5 ~.{.{.",
"{.{.{.{.{.{.{.XXp.+ M 8.M 8 H.C.+XiX0XA.#XyXyXOX} j s 2.2.@.*           H _.{.{.].! H :X&Xh.&XiXyXh.C.0XuXuXyXh.e ^.{.{.",
"{.{.{.{.{..X{.].H < 6.7.n 8 z.*XuXrX+X;XI.rXyXuXyXOXl &.2.2.@.&         /  XXXXXj.H k.+XuX&Xc.U.@Xh.-XuXyX0XM.0 f. X{..X",
"{.{.{.{.{.{.XX=X0 1 6.7.M 2 S.iX,XI.+X&XyXyXyXyXyXyX/ o.2.2.2.%.&       J d.a. .r R OXS.yXuX$X..c.OXyXuX-Xv.X.0 K.3X{.3X",
"{.{.{.{.{.{.4X0XI + 5.8.v k *XiXpX+X-XyXyXyXyXiXyX*XH s 2.2.2.2.%.&       o o     0 ;Xc.:XuXqXC.H.+X0XyX0X0X0XT N.XX{.{.",
"{.{.{.{.{.{.3XrXc.$ f 5.g ! yXuXyXyXyXyXyXyXyXiXU.R * &.2.2.2.2.2.%.& o           # F.OXK.yXuX0Xz.X.*XuXiXiXK.I (..X{.{.",
"{.{.{.{.{.{.{.7X*X..2 ; + ) yXyXyXyXyXyXyXyXyXyX+X7 o.2.2.2.2.2.2.2.O..           o / *Xn.0XuXyXS.$XiXuXiX&XU h.4X{.{.{.",
"{.{.{.{.{.{.{.3XwX&XM.^ % J 0X-XwXuXyXyXyXyXyXiX&Xj %.2.2.2.2.2.2.2.=.& r I I Y _ p.J ..) f.:XyXA.U.:X,XH.J I -XXX{.{.{.",
"{.{.{.{.{.{.{..X8XqX,X&X..4 h.y.z.yXyXyXuXuXiXyXf.- =.2.2.2.2.2.2.2.o.% k.&X$X&X-X-XS.I e H I k.h.H q k 0 Q @X4X{.{.{.{.",
"{.{.{.{.{..X{.{..XXX4X<XU.0 4 S.K.pXyXyX:X*XpXZ.: a 2.2.2.2.2.2.2.-.= H =X7X7X7X6X7X:X+XOXQ.f.J H J T y.A.-XtX.X{.{.{.{.",
"{.{.{.{.{.{.{.{.{.{.{.3X0X..# C.yXiXuXuXc.k I : u <.2.2.1.2.2.2.2.p $ S.3X{.{.{.{.XX7X7X6X0X*X+X+X@X&X0XqX9XXX{.{.{.{.{.",
"{.{.{.{.{.{.{.{.{.{.{.XX7XOXI 5 ..K.=XF.0 X . p <.2.2.2.2.2.2.2.+.O } 1X{.{.{.{.{.{.{..X{.XXeXeXqXeX9X3X3X.X{.{.{.{.{.{.",
"{.{.{.{.{.{.{.{.{.{.{.{.3X0XOX..$ $ w 5 T v.q = %.2.2.2.2.2.2.%.& J =X3X{.{.{.{.{.{.{.{..X{..X.X.X.X.X{.{.{.{.{.{.{.{.{.",
"{.{.{.{.{.{.{.{.{.{.{.{.XX8XqX@XY 4 y.S.;X$XJ O %.2.2.2.2.2.%.= k OX4X{.{.{.{.{.{.{.{.{.{.{.{.{.{.{.{.{.{.{.{.{.{.{.{.{.",
"{.{.{.{.{.{.{.{.{.{.{.{.{.{.8XqXP.5 J C.U.] X p 2.2.1.2.2.1.t q K.7XXX{.{.{.{.{.{.{.{.{.{.{.{.{.{.{.{.{.{.{.{.{.{.{.{.{.",
"{.{.{.{.{.{.{..X{.{.{.{.{.{.{.9X:Xf.4 $ 4 X . a @.#.*.=.<.1.t ^ 6XXX{.{.{.{.{.{.{.{.{.{.{.{.{.{.{.{.{.{.{.{.{.{.{.{.{.{.",
"{.{.{.{.{.{.{.{.{.{.{.{.{.{.{.XXqX*XP.y.} 9 & @.F Z.n.w.p *.u I  X{.{.{.{.{.{.{.{.{.{.{.{.{.{.{.{.{.{.{.{.{.{.{.{.{..X{.",
"{.{.{.{.{.{.{.{.{.{.{.{.{.{.{.{.4X<X0X-X*Xf.* a e.-X:XZ.#.s & ^ XX{.{.{.{.{.{.{.{.{.{.{.{.{.{.{.{.{.{.{.{.{.{.{.{.{.{.{.",
"{.{.{.{.{.{.{.{.{.{.{.{.{.{.{.{.{..X4X8XqX@XJ > P.-X-Xn.u - 5 N.{.{.{.{.{.{.{.{.{.{.{.{.{.{.{.{.{.{.{.{.{.{.{.{.{.{.{.{.",
"{.{.{.{.{.{.{.{.{.{.{.{.{.{.{.{.{.{.{.{.4XU.0 } *X-X:X| # } K.6X{.{.{.{.{.{.{.{.{.{.{.{.{.{.{.{.{..X{.{.{.{.{.{.{.{.{.{.",
"{.{.{.{.{.{.{.{.{.{.{.{.{.{..X.X.X{.^.R.T.P J @X-X-X&XJ K *XeXXX{.{.{.{.{.{.{.{.{.{.{.{.{.{.{.{.{.{.{.{.{.{.{.{.{.{.{.{.",
"{.{.{.{.{.{.{.{.{.{.{.{.{..X.X'.(.s.8 z z c L.-X-X-Xz.$ z.8XXX.X{.{.{.{.{.{.{.{.{.{.{.{.{.{.{.{.{.{.{.{.{.{.{.{.{.{.{.{.",
"{.{.{.{.{.{.{.{.{.{.{.{.`.B.( e q > f 5.C z.-X-X-XQ.0 r %X.X{.{.{.{.{.{.{.{.{.{.{.{.{.{.{.{.{.{.{.{.{.{.{.{.{.{.{.{.{.{.",
".X{.{.{.{.{.{.{.{.{.[.m.K : < h N M b 4.A u.OX:X-Xg.+ 2 V.{.{..X{.{.{.{.{.{.{.{.{.{.{.{.{.{.{.{.{.{.{.{.{.{.{.{.{.{.{.{.",
"{.{.{.{.{.{.{.{.{.{.s.% ; m 4.7.7.7.S b 4.3.W u.b.F S ; R oX`.T.`.[.{.{.{.{.{.{.{.{.{.{.{.{.{.{.{.{.{.{.{.{.{.{.{.{.{.{.",
"{.{.{.{.{.{.{.{..XW.4 < 5.8.7.7.7.7.7.N m S 4.3.S 4.8.g e k.K 6 c P m.{.{.{.{.{.{.{.{.{.{.{.{.{.{.{.{.{.{.{.{.{.{.{.{.{.",
"{.{.{.{.{.{.{.{.XXl.@ n 7.7.7.6.7.6.7.6.4.Z C A S S A 1 # 2 h n b < 4 m..X{.{.{.{.{.{.{.{.{.{.{.{.{.{.{.{.{.{.{.{.{.{.{.",
"{.{.{.{.{.{.{.{.8Xz.+ N 7.7.7.7.7.6.7.7.8.6.4.D A A S h + h 7.7.8.4.; 0 /.{.{.{.{.{.{.{.{.{.{.{.{.{.{..X{.{.{.{.{.{.{.{.",
"{.{.{.{.{.{.{.{.9Xz.@ b 8.8.7.7.6.7.6.7.7.6.7.7.6.6.6.S V S 7.7.7.7.n % m.{.{.{.{.{.{.{.{.{.{.{.{.{.{.{.{.{.{.{.{.{.{.{.",
"{.{..X.X.X{.{.XXeXg.2 h Z 6.7.7.7.7.6.7.6.7.7.7.8.6.8.6.4.4.7.7.6.7.5.; m..X{.{.{.{.{.{.{.{.{.{.{.{.{.{.{.{.{.{.{.{.{.{.",
"{.XX>X%X#X!.!.J.L...3 Z C b 3.7.7.7.7.7.7.7.6.7.6.6.8.6.7.7.7.6.6.6.b % A. X X3X5X X X XXX{.{.{.{.{.{.{.{.{.{.{.{.{.{.{.",
"{.).S.c.c.z.z.z.k.y.J 2 h n C Z 3.6.7.7.7.7.7.7.8.6.6.7.7.7.7.7.4.V h @  .F.A.H.H.H.S.D.].{.{.{.{.{.{.{.{.{.{.{.{.{.{.{.",
"9XQ.x.h.h.h.h.k.h.g...U 7 2 h Z C Z D 4.6.6.7.7.7.7.7.6.7.6.6.A b A f : | z.h.z.z.z.z.z.G.>XoX{.{.{.{.{.{.{.{.{.{.{.{.{.",
"yXwX$XK.H.H.H.H.F.S.S.S.c.} c 3 g C V V V A A 3.3.3.3.3.S A V Z S f $ ! c.M.M.M.C.S.H.OX*X>X{.{.{.{.{.{.{.{.{.{.{.{.{.{.",
"3XrXyXyXwXwXwXwXqXqXwX0X:X*XK.y.G 2 2 f b V V V V Z V Z Z A Z h ; 4 f.@X-X0X:X:X0XqXwXyXyX8X{.{.{.{.{.{.{.{.{.{.{.{.{..X",
".XXX8XtXtXtXtX9X7XtXeXtXtX7X0X*XOXC.X.K 6 > ; 2 3 1 1 < 3 2 2 5 T Z.0XyXyXyXyXuXyXtX9X9XXXXX{.{.{.{.{.{..X{.{.{.{.{.{.{.",
"{.{.{.{.{.{.{.{.{.{.{.{.{..X3X7X,X0X*X+XP.z...) T R I Y ) g.x.L.-XeX4X3X3X3XXX3X3X.X{.{.{.{.{.{.{.{.{.{.{.{.{.{.{.{.{.{.",
"{.{.{.{.{.{.{.{.{.{.{.{.{.{.{.{.XX3X9X<X,X0X-X*X$X$X&X&X-X,X<XeX2XXX{.{.{.{.{.{.{.{.{.{.{.{.{.{.{.{.{.{.{.{.{.{.{.{.{.{.",
"{.{.{.{.{.{.{.{.{.{.{.{.{.{..X{.{.{..X.X3X8X4XeXrXpXeX8X2X8X3X.X{.{.{.{.{.{.{.{.{.{.{.{.{.{.{.{.{.{.{.{.{.{.{.{.{.{.{.{."
};
