/* XPM */
static char *cuphead7_110[] = {
/* columns rows colors chars-per-pixel */
"70 83 225 2 ",
"   c #010101",
".  c #0A0403",
"X  c #0B0B0B",
"o  c #140302",
"O  c #180707",
"+  c #16110D",
"@  c #1C150D",
"#  c #151414",
"$  c #1A1513",
"%  c #1C1C1C",
"&  c #1C1917",
"*  c #0F1011",
"=  c #2C0201",
"-  c #240606",
";  c #330303",
":  c #390606",
">  c #221709",
",  c #24190C",
"<  c #2C1D0D",
"1  c #311F0D",
"2  c #241111",
"3  c #251B18",
"4  c #301212",
"5  c #35230E",
"6  c #292219",
"7  c #3D2911",
"8  c #352717",
"9  c #252424",
"0  c #2B2B2B",
"q  c #2A2726",
"w  c #342C2A",
"e  c #32302D",
"r  c #2E3030",
"t  c #333434",
"y  c #363838",
"u  c #3C3C3C",
"i  c #3A3734",
"p  c #470504",
"a  c #5C0202",
"s  c #530201",
"d  c #4E1313",
"f  c #640202",
"g  c #6C0101",
"h  c #620F0E",
"j  c #790101",
"k  c #67100F",
"l  c #432D13",
"z  c #482F12",
"x  c #4A3114",
"c  c #493318",
"v  c #5A3D1A",
"b  c #563A18",
"n  c #40290F",
"m  c #403E3E",
"M  c #4A3A39",
"N  c #4D3027",
"B  c #612B2A",
"V  c #742E2E",
"C  c #5E411D",
"Z  c #64431C",
"A  c #69471D",
"S  c #6E4A1E",
"D  c #724C1E",
"F  c #784F1F",
"G  c #7A501F",
"H  c #504231",
"J  c #684823",
"K  c #734D21",
"L  c #7B5221",
"P  c #745128",
"I  c #6C5539",
"U  c #3F3F40",
"Y  c #3E4848",
"T  c #444444",
"R  c #454B4B",
"E  c #4B4C4C",
"W  c #494746",
"Q  c #534B4A",
"!  c #4C5252",
"~  c #4E5C5C",
"^  c #545454",
"/  c #5B5B5B",
"(  c #575858",
")  c #4F504F",
"_  c #605F5F",
"`  c #715449",
"'  c #66645E",
"]  c #5C6666",
"[  c #5D7070",
"{  c #646464",
"}  c #656C6C",
"|  c #6B6B6B",
" . c #6A6565",
".. c #706E6E",
"X. c #687777",
"o. c #747474",
"O. c #767A7A",
"+. c #7B7C7C",
"@. c #797776",
"#. c #73706E",
"$. c #8D0202",
"%. c #840505",
"&. c #930101",
"*. c #9B0101",
"=. c #990B0B",
"-. c #971A19",
";. c #851E1C",
":. c #AB0101",
">. c #A40909",
",. c #A90707",
"<. c #B30202",
"1. c #BB0202",
"2. c #A61615",
"3. c #873737",
"4. c #942828",
"5. c #C30000",
"6. c #CC0000",
"7. c #D30000",
"8. c #D80000",
"9. c #81551F",
"0. c #835622",
"q. c #865922",
"w. c #8C5C23",
"e. c #915F22",
"r. c #966224",
"t. c #996324",
"y. c #865D5C",
"u. c #934949",
"i. c #896968",
"p. c #827E7D",
"a. c #997474",
"s. c #7C8585",
"d. c #728D8D",
"f. c #7A8C8C",
"g. c #7B9393",
"h. c #838383",
"j. c #848A8A",
"k. c #8C8C8C",
"l. c #888887",
"z. c #908F8E",
"x. c #9B8989",
"c. c #8F908F",
"v. c #92908E",
"b. c #98948D",
"n. c #8E9090",
"m. c #839899",
"M. c #939393",
"N. c #969898",
"B. c #9C9B9C",
"V. c #999695",
"C. c #8F8F90",
"Z. c #A58887",
"A. c #A19E9E",
"S. c #A2A09D",
"D. c #9F9FA0",
"F. c #A09FA0",
"G. c #8CA5A5",
"H. c #9EA0A0",
"J. c #95A8A8",
"K. c #89B7B7",
"L. c #93B4B4",
"P. c #91AFB0",
"I. c #A3A4A4",
"U. c #AAA6A4",
"Y. c #A7A9AA",
"T. c #ABACAC",
"R. c #B4ABAB",
"E. c #AEB0B0",
"W. c #B2B3B3",
"Q. c #B9B6B6",
"!. c #BCBCBC",
"~. c #B6B9B9",
"^. c #AFB0AF",
"/. c #BFBFC0",
"(. c #98C7C7",
"). c #9DD6D6",
"_. c #A7CCCC",
"`. c #B9C7C8",
"'. c #A7D6D6",
"]. c #BDDBDB",
"[. c #B6D5D5",
"{. c #AEECEC",
"}. c #A5E4E4",
"|. c #B1EEEE",
" X c #B9E9E9",
".X c #ACF4F4",
"XX c #AFFFFF",
"oX c #B4F3F3",
"OX c #B2FEFE",
"+X c #BBFEFE",
"@X c #BAF5F5",
"#X c #C4C4C4",
"$X c #CCCCCC",
"%X c #C7C8C8",
"&X c #D0CFCF",
"*X c #C9D5D5",
"=X c #D4D4D4",
"-X c #D7D9D9",
";X c #DBDBDB",
":X c #D8D7D8",
">X c #CECFD0",
",X c #E0DFDF",
"<X c #CAE6E6",
"1X c #DFE0E0",
"2X c #D5E8E9",
"3X c #C2FDFD",
"4X c #CBFCFC",
"5X c #C6F3F3",
"6X c #D5F5F5",
"7X c #DCF5F5",
"8X c #D4FCFC",
"9X c #DBFAFA",
"0X c #E3E4E4",
"qX c #E4EAEA",
"wX c #EBECEC",
"eX c #E6E7E7",
"rX c #EFEFF0",
"tX c #E4F4F4",
"yX c #EBF4F4",
"uX c #E6F9F9",
"iX c #EBF9FA",
"pX c #F5F5F5",
"aX c #F7F7F8",
"sX c #F6F9F9",
"dX c #F9F9F9",
/* pixels */
"XXXXXXXXXXXXXXXXXXXXXXXXXXXXXXXXXXXXXXXXL.y # # t _ f.(..XOXOXXXXXXXXXXXXXXXXXXXXXXXXXXXXXXXXXXXXXXXXXXXXXXXXXXXXXXXXXXXXXXXXXXXXXXXXXXXXXXX",
"XXXXXXXXXXXXXXXXXXXXXXXXXXXXXXXXXXXXXX(.Y ( { { R + O 0 ! s._.oXXXXXXXXXXXXXXXXXXXXXXXXXXXXXXXXXXXXXXXXXXXXXXXXXXXXXXXXXXXOXXXXXXXXXXXXXXXXX",
"XXXXXXXXXXXXXXXXXXXXXXXXXXXXXXXXXXXX.X[ / wXpXpX/.V *.j p X q | (.@XXXXXXXXXXXXXXXXXXXXXXXXXXXXXXXXXXXXXXXXXXXXXXXXXXXXXXXXXXXXXXXXXXXXXXXXX",
"XXXXXXXXXXXXXXXXXXXXXXXXXXXXOXXXXXXX[.y M.pXpXdXZ.>.8.8.=.p.o.9 q s.{.XXXXXXXXXXXXXXXXXXXXXXXXXXXXOXXXXXXXXXXXXXXXXXXXXXXXXXXXXXXXXXXXXXXXXX",
"XXXXXXXXXXXXXXXXXXXXXXXXXXXXXXXXXX+XY.9 ~.dXdXwXy.1.7.7.4.=XpX/.u # ] ).OXXXXXXXXXXXXXXXXXXXXXXXXXXXXXXXXXXXXXXXXXXXXXXXXXXXXXXXXXXXXXXXXXXX",
"XXXXXXXXXXXXXXXXXXXXXXXXXXXXXXXXXX4XD.% !.dXdX;X3.6.8.5.y.wXaXwXs.| 9 E _.OXXXXXXXXXXXXXXXXXXXXXXXXXXXXXXXXXXXXXXXXXXXXXXXXXXXXXXXXXXXXXXXXX",
"XXXXXXXXXXXXXXXXXXXXXXXXXXXXXXXXXX4XY.3 o.#X0X#X4.8.8.<.Z.pXaX&Xk.0XI.% E _.OXXXXXXXXXXXXXXXXXXXXXXXXXXXXXXXXXXXXXXXXXXXXXXXXXXXXXXXXXXXXXXX",
"OXXXXXXXXXXXXXXXXXXXXXXXXXXXXXXXXX4X$XE 0 0 T Q %.5.8.-.Q.aXpXU.^.dX$XB - W '.OXXXXXXXXXXXXXXXXXXXXXXXXXXXXXXXXXXXXXXXXXXXXXXXXXXXXXXXXXXXXX",
"XXXXXXXXXXXXXXXXXXXXXXXXXXXXXXXXXX4X0X`.^.z.{ t 2 : j 3.,XdX0XN.0XeXi.1.&.- ~ |.XXXXXXXXXXXXXXXXXXXXXXXXXXXXXXXXXXXXXXXXXXXXXXXXXXXXXXXXXXXX",
"XXXXOXXXXXXXXXXXXXXXXXXXXXXXXXXXXX+X7X1X0X;X=X~.c./ 3 q I.rXW.T.wXa.>.8.7.f & P.OXXXXXXXXXXXXXXXXXXXXXXXXXXXXXXXXXXXXXXXXXXXXXXXXXXXXXXXXXXX",
"XXXXXXXXXXXXXXXXXXXXXXXXXXXXXXXXXXXXOX+X6X7XwX0X:X$XI.^ 0 | k.$XZ.-.7.7.5.3.T E {.XXXXXXXXXXXXXXXXXXXXXXXXXXXXXXXXXXXXXXXXXXOXXXXXXXXXXXXXXX",
"XXXXXXXXXXXXXXXXXXXXXXXXXXXXXXXXXXXXXXXXXXOX+X8X7XeX;X#X..# T u.,.7.8.5.-.R.W.q G.OXXXXXXXXXXXXXXXXXXXXXXXXXXXXXXXXXXXXXXXXXXXXXXXXXXXXXXXXX",
"XXXXXXXXXXXXXXXXXXXXXXXXXXXXXXXXXXXXXXXXXXXXXXXXOX3X7XeX$XO.& g 7.7.<.3.R.dXrX^ E oXXXXXXXXXXXXXXXOXXXXXXXXXXXXXXXXXXXXXXXXXXXXXXXXXXXXXXXXX",
"XXXXXXXXXXXXXXXXXXXXXXXXOXXXXXXXXXXXXXXXXXXXXXXXXXXXOX8XeX$X+.2 h u.Z.=XaXaXdXv.& J.OX+XoX{.|.oX{.{.{.oX|.{.}.}.}.}.}.}.}.}.oXoXOXXXXXXXXXXX",
"XXXXXXXXXXXXXXXXXXXXXXXXXXXXXXXXXXXXXXXXXXXXXXXXXXXXXXXX8XeX$X^ & Y.dXaXpXdXwXi.; R g.} ! E E E R R E E R W t y t y t r t y R ! X.P.oXXXXXXX",
"XXXXXXXXXXXXXXXXXXXXXXXXXXXXXXXXXXXXXXXXXXXXXXXXXXXXXXXXOX8X0XY.q / wXdXpX&Xa.2.$.O 9 t E ( ) E ^ ( ( ^ ^ ^ / / / / ^ / _ / ) u q % X.{.XXXX",
"XXXXXXXXXXXXXXXXXXXXXXXXXXXXXXOXXXXXXXXXXXXXXXXXXXXXXXXXXXOX7XW.T & A.$XZ.3.<.8.<.: ( o.o.|  .{ { { | | | | | o.@.h.@.O.+.| N.$X!.+.% X.oXXX",
"XXXXXXXXXXXXXXXXXXXXXXXXXXXXXXXXXXXXXXXXXXXXXXXXXXXXXXXXXXOXG.u u e d 2.5.6.8.8.6.d R ] | ..o.h.h.z.B.I.I.E.W.^.Y.I.B.n.h.E @.-X:XU.t 9 ).XX",
"XXXXXXXXXXXXXXXXXXXXXXXXXXXXXXXXXXXXXXXXXXXXXXXXXXXXXXXXXX(.e +.$XH.B =.2.>.,.,.>.d k.T.W.^.T.Y.I.H.B.B.B.B.B.M.N.B.I.I.F.B.I.k.| o.F.t d.OX",
"XXXXXXXXXXXXXXXXXXXXXXXXXXXXXXXXXXXXXXXXXXXXXXXXXXXXXXXX@X..e ..Y.%XW.V.V.Z.x.x.x.M.V.V.N.N.B.B.B.V.B.B.v.k.k.l.h.p.@...| | { { ~.0XpX/ ~ .X",
"XXXXXXXXXXXXXXXXXXXXXXXXXXXXXXXXXXXXXXXXXXXXXXXXXXXXXXOX<Xu +.D.| { | O.h.h.h.h.+.o.+.+.| { o.| ) ' } o.O.p.k.v.M.B.W.#X&Xn.E @.pXpX^.t y {.",
"XXXXXXXXXXXXXXXXXXXXXXXXXXXXXXXXXXXXXXXXXXXXXXXXXXOX+X[.O.# l.0X=X/.I.N.M.l.v.N.N.N.B.F.I.T.W.W.o.$X0XwXrXpXpXaXdXdXdXdX=X0   R 0XrX)   q [.",
"XXXXXXXXXXOXXXXXXXXXXXXXXXXXXXXXXXXXXXXXXXXXXXXXOX.XP.m u 0 o.;X;X;X,X;X;X;X,X;X;X,X;X;X,X;X,X=Xh.=XdXaXpXpXpXpXaXpXpXsXI.*   t :XwXT   q [.",
"XXXXXXXXXXXXXXXXXXXXXXXXXXXXXXXXXXXXXXXXXXXXXXXXOXP.u o.#X| ) =X;X;X;X;X;X;X;X;X;X;X;X;X;X-X;X;Xn.#XdXaXpXpXpXaXpXpXpXsXM..   0 =X0Xu   y |.",
"XXXXXXXXXXXXXXXXXXXXXXXXXXXXXXXXXXXXXXOXXXXXXXOX[.W O.-X,Xh.t #X;X;X;X;X;X;X;X;X;X;X;X;X;X:X:X;XV.R.dXpXpXpXaXpXaXpXpXaXB.X   0 =XrX/   Y .X",
"XXXXXXXXXXXXXXXXXXXXXXXXOXXXXXXXXXXXXXXXXXXXXX+Xj.T %X;X;XY.q B.,X;X;X-X;X-X;X:X:X;X:X;X;X;X;X,XI.V.pXpXpXpXpXpXpXpXpXaX:X_ . t :XdXo.  [ XX",
"XXXXXXXXXXXXXXXXXXXXXXXXXXXXXXXXXXXXXXXXXXXXOX2X)  .-X;X:Xp.# O.1X;X;X;X;X:X;X;X-X;X;X;X;X;X:X;X#Xl.eXaXpXpXaXpXaXpXaXaX1X^   T 1XsX... f.+X",
"XXXXXXXXXXXXOXXXXXXXXXXXXXXXXXXXXXXXXXXXOXOX+X*X0 O.;X;XT.T u ^ =X;X;X;X;X;X;X:X;X;X:X;X;X;X;X;X:Xh.$XdXpXpXpXpXpXpXpXdX`.&   / rXsX+.o E _.",
"XXXXXXXXXXXXXXXXXXXXXXXXXXXXXXXXXXXXXXXXXXXX8X#X& ..;X;X+.T +.0 W.;X;X;X;X;X;X;X;X:X;X:X;X-X;X-X;XF.B.aXpXpXpXpXpXaXpXdX=Xt   p.sX~.B $.; / ",
"XXXXXXXXXXXXXXXXXXXXXXXXXXXXXXXXXXXXXXXXXXXX4X$Xq { ;X;X+.q N.t @.;X:X;X;X-X;X:X;X-X;X;X-X;X;X;X;X$Xh.:XdXpXpXpXpXpXpXpXpXW.u o.~.V ,.7.p } ",
"XXXXXXXXXXXXXXXXXXXXXXXXXXXXXXXXXXXXXXXXXXXX4X-XU u >X;XY.% { / m %X;X;X;X;X;X;X;X;X;X;X;X;X=X:X,X;XY.M.eXpXpXpXpXpXpXpXaX=Xp.I. .%.6.%.M $X",
"XXXXXXXXXXXXXXXXXXXXXXXXXXXXXXXXXXXXXXXXXXXX4XwX{ # I.1X=X| % r # M.;X;X;X;X;X:X;X;X-X-X;XY._ ' I.:X-XB.k.&XpXdXaXpXaXaX,Xh.I.0XQ.V g N T.uX",
"XXXXXXXXXXXXXXXXXXXXXXXXXXXXXXXXXXXXXXOXXX}.P.+.W X / >X1X&Xh.W q E &X;X;X;X;X-X:X;X;X;XQ.t     % +.$X-XT.k.T.;XrXwX0X!.h.B.;X;X;X@.& B.yX4X",
"XXXXXXXXXXXXOXXXXXXXXXXXXXXXXXXXXXXX.X).K.R 0 ^ { t X _ /.,X;X=XB.q M.;X;X;X;X;X;X;X;X;Xk.X       X W I.=X=XY.N.A.B.h.z.Q.-X;X;X=X( W 1X4XOX",
"XXXXXXXXXXXXXXXXXXXXXXXXXXXXXXXXOX).[ r Y u o.1XpX%Xu X t k.#X=X=X| r A.-X;X;X;X;X;X;X;XV.X           # W O.^.#X%X$X$X;X-X:X;X;XV.q B.8XXXXX",
"XXXXXXXXXXXXXXXXXXXXXXXXXXXXXXXX_.u q l.$X:Xk.=XdXpX!.^ U 9 r E ( T . q U.;X;X;X;X:X;X;X#XT   ; p ;       X 3 T  .o.O.o.( k.:XN.q ( 2XOXXXXX",
"XXXXXXXXXXXXXXXXXXXXXXXXXXXXXX{.! 9 Y.pXdXdXT.!.dXpXpX!.C.I.9         . y ~.;X;X-X;X;X;X-XW.Q &.6.<.a o o                 / o.9 ^ $X4XXXXXXX",
"XXXXXXXXXXXXXXXXXXXXXXXXXXXXOXJ.& k.pXpXrX>X+.U.pXpXpXpXB.!.o.  * X     . y U.;X,X;X;X;X;X;X#Xy.-.1.<.*.&.;           X T | 9 | =XuX+XXXXXXX",
"XXXXXXXXXXXXXXXXXXXXXXXXXXXX3X .0 :XpX#XM.N.D.l.>XdXpXdX-Xk.h.U n.k.{ q .   9 o.T.-X;X;X;X;X;X=XU.y.4.>.1.%..   . % W j.B.t / ;XtX+XXXXXXXXX",
"XXXXXXXXXXXXXXXXXXXXXXXXXXXX2X/ R >XM.N.$XpXdX!...Y.#XwXdXW.y O.1X;X*Xo.X     . % ..#X;X;X;X;X;X,X=XQ.x.i.y.^ { +.T.>X!.W u $XiX+XXXXXXXXXXX",
"XXXXXXXXXXXXXXXXXXXXXXXXXX+XtXB.t _ W.rXpXpXpXN.l./.B.A.rX,Xu n.4X<XM.%           . r o.Y.>X-X-X1X;X1X;X;X:X;X;X1X=XB.t r ^.iX+XXXXXXXXXXXXX",
"XXXXXXXXXXXXXXXXXXXXXXXXXX+XtX%XT h.pXpXpXdX0Xh.0XdXrXU.=XpX .X.OX(.9                   # W | k.Y.!.$X>X$X^.B.I.h.R 9 E Y.pX4XXXXXXXXXXXXXXX",
"XXXXXXXXXXOXXXXXXXXXXXXXXXXX4XW.u $XdXpXwX$XN.| 0XaXaX0X0XpX_ ] .XX.                        X & % 0 y U t y E 9     # W O.%XOXXXXXXXXXXXXXXX",
"XXXXXXXXXXXXXXXXXXXXXXXXXXXX+XH.q #XdX%XN.b./.k.&XaXpXaXdX;Xy s.'.0                         u V.h.{ u . r ^.&X^ / p.h.{ q 0 g.XXXXXXXXXXXXXX",
"XXXXXXXXXXXXXXXXXXXXXXXXXXXX8X!.0 _ D.k.$XrXdXQ.I.pXaXpXsXM.X u R .                         ^ -X;X$X^ u /.dX,X#XwXdXdXpX/.T r ).XXXXXXXXXXXX",
"XXXXXXXXXXXXXXXXXXXXXXXXXXXX9X$X{ # W :XdXdXdXeXk.W.pXpXW.q = f f o                         o.yXyXH.0 ~.dXpXpXdXpXpXpXdXdXT.0 (.OXXXXXXXXXXX",
"XXXXXXXXXXXXXXXXXXXXOXOX).K.d.W W q ^ ;XdXpXpXdXT.y l.h.q p <.7.1.;                       # D.OX X( / rXdXpXpXpXpXpXpXpXeXh.# d.XXXXXXXXXXXX",
"XXXXXXXXXXXXXXXXOXXXL.[ u c b l $ X & W B.wXdX:X) t u . : 1.8.7.5.p                       u <XOX[.u I.dXpXpXpXdXpXpXpXpX$XB.R 0 G.XXXXXXXXXX",
"XXXXXXXXXXXXXXXX(.] w z Z Z Z J A S C 5 & o.I.H y I.] O :.8.6.7.7.f                     . k.4X+XD.t $XsXpXeXwXdXpXpXpXpXpXaX%Xe ! .XXXXXXXXX",
"XXXXXXXXXXXX.Xg.e 7 Z J Z K 0.w.t.t.t.r.A @ 6 ^ ~.`.0 s 6.7.7.7.7.&.o                 . ^ <X+X).( ^ Q.`.I.F.&XdXpXpXpXpXpXaXpX..9 L.XXXXXXXX",
"XXXXXXXXXX.Xd.6 v J J K e.t.t.t.t.t.t.t.t.z u &XpXY.@ &.8.7.7.7.7.6.a                 # B.2X XO.@.T.I.,X$X#X;XpXpXpXpXaXpXdXpXo.@ H L.OXXXXX",
"XXXXXXOX.XX.8 Z Z K w.t.t.t.r.t.r.L K K 9.C E 2XsXs.- <.8.7.6.7.7.8.<.;               . 9 t t % B.=XM.eX~.I.=XpXpXpXpXpXpXdXwX) x D W _.OXXX",
"XXXXXX.XX.6 Z C D r.r.t.t.r.r.q.C J K G K l T  X*XE = 1.7.7.6.8.7.7.7.&.;                       o.eXM.=XwX%XQ.=XpXpXpXpXpXeXv.N w.w.< m.OXXX",
"XXXXXXP.6 Z J K r.r.t.t.t.r.w.C K r.t.w.w.S i j.i O ; <.7.7.7.7.7.7.7.8.<.f o                   u ;X~.Y.pX%X/.0XpXpXpXpXdX,X/ C t.e.< f.OXXX",
"XXOX|.E l K C r.t.t.t.t.r.r.S Z t.q.I ` N > q w ; *.:.6.7.7.7.7.7.7.7.7.7.6.*.f : o             X k.,Xp.$XdXdXpXpXpXpXpXpXdXO.l t.9., g.OXXX",
"XXOXG.< K v q.t.t.t.r.r.r.r.C q.q.` E.$XB.W % : j &.8.8.6.7.7.7.8.8.7.6.7.7.8.7.5.:.g o : 2 / k.( % { t o.pXpXpXpXpXdXdXdX#Xe x t.G + m.OXXX",
"XX5X/ 7 D S t.t.t.t.r.r.t.9.C r.P D.1X;X;X>XY.#.` B <.8.7.6.7.7.7.7.7.7.7.7.7.7.8.5.s p *.` >X1X#XY . 0 y B.eXpXdXpX#XB.N.u > L t.v 9 `.OXOX",
"OX`.w Z Z 9.t.t.t.r.t.t.r.e.v w.P I.1X;X;X;X1X:X&XA.-.7.7.7.7.6.7.7.7.7.7.7.7.7.6.g - $.k A.;X;X;Xn.q h.W $ ) j.k.{ q + + > S t.w.1 ) <XXXXX",
"+XJ.6 S Z r.r.t.t.r.r.t.t.r.x x z u T.:X1X;X1X;X,XW.;.6.7.7.7.7.7.7.7.6.7.7.7.6.j O $ = $ / >X;X;X$XW $ @ v z < + > z D L q.r.L z $ M.3XXXXX",
"8Xh.< Z S t.t.t.t.t.t.r.t.r.7 + t 0 q / D././.^.A. .=.8.8.6.:.:.6.7.8.8.8.7.<.g 3 o.c.O.+.q h.;X;X;X#.x x w.t.q.9.w.r.t.t.L v J l ) <XOXXXXX",
"5X{ 1 v 9.t.t.t.t.r.r.t.t.r.7 t E.^.{ r % r r % s a <.5.:.a 4 4 a *.:.:.&.g = & h.-X,X;X>X] r ~.1XE.I q.Z w.t.t.t.t.t.w.A v G L < o.8XXXXXXX",
"2XQ 5 Z 9.t.t.t.t.t.t.t.t.r.7 T :X0X=X~.k.| { / 4 : s : 2 t +.M.E w 4 2 3 t / D.0XyXyXyX-X/ X ..Y.` 0.q.C r.t.t.t.t.0.C J q.A , y `.+XXXXXXX",
"0X( < v e.r.r.t.r.r.t.t.t.t.5 R @XtXqX0X;X=X=X$XN.../ ..M.#X;X;X#XT.N.N.I.!.=XwX8XOXOX+XJ.8 b b I q.r.C F t.r.r.t.G b P L 7 @ ^ !.6XXXXXXXXX",
"wXk.# c t.t.t.r.t.t.t.t.t.9., ] .XOX+X8X7X6X6XqX;X=X=X-X0X7X9XtXwX0X1X1X0XwX9X8XOXXXOX5X| x t.r.9.w.Z A r.t.r.t.L v q.Z , e h.>XyX+XXXXXXXXX",
"tX&X_ 8 w.t.t.t.t.e.t.t.t.D @ N.OXXXXXXXXXXXXX4X7X7X7X5X3XOXXX+X3X+X+X+X+X3XOXXXXXXXOX2X^ < S S A C K r.r.r.t.0.b L x 3 { ~.0XuX3XXXXXXXXXXX",
"4XeXD.6 D t.t.t.t.t.t.t.e.l r *XOXXXXXXXXXXXXXXXXXXXXXXXXXXXXXXXXXXXXXXXXXXXXXXXXXXX+X=Xi v D K L e.t.t.t.r.0.b K 7 q h.=XtX8XOXXXXXXXXXXXXX",
"OX6X%Xu 5 w.t.t.t.t.t.e.v , z.4XXXXXXXXXXXXXXXXXXXXXXXXXXXXXXXXXXXXXXXXXXXXXXXXXXXXX+X~.6 G t.t.t.t.t.r.t.w.b Z 5 0 A.0XtX+XXXXXXXXXXXXXXXXX",
"XX4XeXM.& < D w.e.w.A 5 3 h.0X3XXXXXXXXXXXXXXXXXXXXXXXXXXXXXXXXXXXXXXXXXXXXXXXXXXXXX8X!.3 v t.r.t.t.r.t.w.v Z 5 y ~.qX8XOXXXXXXXXXXXXXXXXXXX",
"XXOXtX=Xl.r + > < < & T C.0X8XXXXXXXXXXXXXXXXXXXXXXXXXXXXXXXXXXXXXXXXXXXXXXXXXXXXXXX8X=Xy , 9.t.t.t.t.0.b Z 7 t E.yX3XXXXXXXXXXXXXXXXXXXXXXX",
"XXXX3XeX=XW.O.( E _ B.$XwX9XOXXXXXXXXXXXXXXXXXXXXXXXXXXXXXXXXXXXXXXXXXXXXXXXXXXXXXXX8X0Xl.# > v S K Z C D z 0 U.yX4XOXXXXXXXXXXXXXXXXXXXXXXX",
"XXXXXX3XqX,X:X&X&X:X0XtX4XOXXXXXXXXXXXXXXXXXXXXXXXXXXXXXXXXXXXXXXXXXXXXXXXXXXXXXXXXXOXtX$X..# X 8 b A D z 9 N.wX4XXXXXXXXXXXXXXXXXXXXXXXXXXX",
"XXXXXXXX3X9XtXqXtXtX4XOXXXOXXXXXXXXXXXXXXXXXXXXXXXXXXXXXXXXXXXXXXXXXXXXXXXXXXXXXXXXXOX9X0X$Xv.y & & @ 3 U I.eX4XXXXXXXXXXXXXXXXXXXXXXXXXXXXX",
"XXXXXXXXXXOXOXOXOXOXXXXXXXXXXXXXXXXXXXXXXXXXXXXXXXXXXXXXXXXXXXXXXXXXXXXXXXXXXXXXXXXXXXOX9XeX=X!.N.h.p.M.#XqX4XXXXXXXXXXXXXXXXXXXXXXXXXXXOXXX",
"XXXXXXXXXXXXXXXXOXOXXXXXXXXXXXXXXXXXXXXXXXXXXXXXXXXXXXXXXXXXXXXXXXXXXXXXXXXXXXXXXXXXXXXXOX8XtX0X,X;X,X0XyX4XXXXXXXXXXXXXXXXXXXXXXXXXXXXXXXXX",
"XXXXXXXXXXXXXXXXXXXXXXXXXXXXXXXXXXXXXXXXXXXXXXXXXXXXXXOXXXXXXXXXXXXXXXXXXXXXXXOXXXXXXXXXXXXX3X9X7X7X9X8X+XXXXXOXXXXXXXXXXXXXOXXXXXXXXXXXXXXX",
"XXXXXXXXXXXXXXXXXXXXXXXXXXXXXXXXXXXXXXXXXXOX+XOXXXXXOXoXoXoXoXoXoX|.|.{.|.{.{.{.|.|.|.oX|.|.{.|.|.|.|.|.{.|.|.oXoXXXXXXXXXXXXXXXXXXXXXXXXXXX",
"XXXXXXXXXXXXXXXXXXXX5X6X@X5X2X<X].[.*X X[.].*X[.5X*X`.^.T.Y.Y.Y.I.I.I.I.I.I.I.B.I.I.I.I.I.I.I.I.I.I.I.H.H.I.I.Y.T.[.OXXXXXXXXXXXXXXXXXXXXXXX",
"XXXXXXXXXXXXXXXX@X].~.W.E.W.T.I.B.I.A.A.A.B.B.I.Y.I.B.N.M.M.M.M.v.M.M.M.z.v.n.M.M.M.n.M.C.z.C.M.M.M.M.v.n.n.v.M.V.T. XXXXXXXXXXXXXXXXXXXXXXX",
"XXXXXXXXXXXXXXOX XU.M.M.N.M.M.k.z.z.C.M.M.M.M.M.M.z.k.k.k.k.z.k.k.k.k.k.k.k.k.k.k.k.k.M.k.k.k.z.n.k.n.B.I.T.W.Q./.;X+XXXXXXXXXXXXXXXXXXXXXXX",
"XXXXXXXXXXXXXXOXqX=X#XW.U.B.D.I.A.B.B.M.M.k.z.M.k.z.z.z.M.A.W.W.^.Y.I.B.N.N.M.n.M.n.k.k.k.k.k.k.k.k.E.;XeXeXwXrXrXsXOXOXXXXXXXXXXXXXXXXXXXXX",
"XXXXXXXXXXXXOX8XpXpXwXwX0X0X0X0X0X;X;X=X$X$X$X$X$X$X%X$X&X0XwXrXwXwX0X,X;X-X=X$X$X%X#X!.~.^.^.W.W.#XwXtXuXuXuXuX4X+XOXXXXXXXXXXXXXXXXXXXXXXX",
"XXXXXXXXXXXXOXOX4X8XiXiXyXyXyXyXyXpXpXpXpXpXpXpXrXpXrXrXpXyXiXiXuXyXyXpXpXaXpXpXpXwXrXwXwXwXwXwXwXyX4XOXXXOXXXOXXXXXXXXXXXXXXXXXXXXXXXXXXXXX",
"XXXXXXXXXXXXXXXXXXXXOXOX3X4X+XOX4X8X8X8X8X8X8X8X8X8X8X8X8X+XOXOXOXOX3X8X8X8X9X8X8X8XuXdXdXaXdXdXdX4XXXXXXXXXXXXXXXXXXXXXXXXXXXXXXXXXXXXXXXXX"
};
