/* XPM */
static char *cuphead10_110[] = {
/* columns rows colors chars-per-pixel */
"64 83 221 2 ",
"   c #010101",
".  c #0C0504",
"X  c #0B0B0B",
"o  c #0A0807",
"O  c #170907",
"+  c #1B140B",
"@  c #1A1208",
"#  c #141414",
"$  c #1A1513",
"%  c #1D1814",
"&  c #1C1C1C",
"*  c #181718",
"=  c #230303",
"-  c #290606",
";  c #3B0303",
":  c #340403",
">  c #22160B",
",  c #24190D",
"<  c #2A1D0D",
"1  c #221E1C",
"2  c #281A13",
"3  c #301F0C",
"4  c #35230E",
"5  c #322413",
"6  c #3B2913",
"7  c #2C241B",
"8  c #1F1F20",
"9  c #1F2021",
"0  c #242424",
"q  c #272828",
"w  c #2B2B2B",
"e  c #2A2726",
"r  c #322927",
"t  c #33312E",
"y  c #2F2F30",
"u  c #2F3131",
"i  c #343434",
"p  c #3A3636",
"a  c #3B3B3B",
"s  c #363838",
"d  c #302F30",
"f  c #4C0101",
"g  c #450403",
"h  c #540302",
"j  c #5D0706",
"k  c #591615",
"l  c #6B0505",
"z  c #790303",
"x  c #6C1717",
"c  c #432D14",
"v  c #4B3214",
"b  c #443018",
"n  c #593C19",
"m  c #413A3A",
"M  c #513527",
"N  c #6E302F",
"B  c #5E401D",
"V  c #64431C",
"C  c #68461C",
"Z  c #6C491E",
"A  c #734D1F",
"S  c #78501F",
"D  c #5E4120",
"F  c #554738",
"G  c #684720",
"H  c #6C4A21",
"J  c #634521",
"K  c #734E21",
"L  c #775022",
"P  c #7B5322",
"I  c #6A5439",
"U  c #3D3F40",
"Y  c #413F40",
"T  c #3D4444",
"R  c #444444",
"E  c #444B4B",
"W  c #4B4B4B",
"Q  c #4D5151",
"!  c #485858",
"~  c #535354",
"^  c #5C5C5C",
"/  c #545C5C",
"(  c #4F4F50",
")  c #73514C",
"_  c #5B6566",
"`  c #5C7777",
"'  c #646363",
"]  c #666969",
"[  c #6B6C6C",
"{  c #686767",
"}  c #7A6868",
"|  c #7C756C",
" . c #617575",
".. c #6D7373",
"X. c #6A7C7C",
"o. c #737474",
"O. c #757A7B",
"+. c #7C7C7C",
"@. c #787575",
"#. c #706F70",
"$. c #840403",
"%. c #8C0302",
"&. c #850A09",
"*. c #9B0202",
"=. c #950908",
"-. c #8B1A1A",
";. c #991414",
":. c #A80404",
">. c #B40201",
",. c #BB0202",
"<. c #852525",
"1. c #833231",
"2. c #922626",
"3. c #C40000",
"4. c #CD0000",
"5. c #D50000",
"6. c #D80000",
"7. c #80541E",
"8. c #815622",
"9. c #855923",
"0. c #8B5C23",
"q. c #915F24",
"w. c #966224",
"e. c #986324",
"r. c #976528",
"t. c #895454",
"y. c #874949",
"u. c #856666",
"i. c #887977",
"p. c #947878",
"a. c #86807A",
"s. c #768686",
"d. c #799899",
"f. c #6C8484",
"g. c #7EA6A6",
"h. c #7DB0B0",
"j. c #838484",
"k. c #868989",
"l. c #8B8C8C",
"z. c #8B8885",
"x. c #958989",
"c. c #8E9191",
"v. c #839797",
"b. c #939393",
"n. c #969999",
"m. c #9B9C9C",
"M. c #9B9493",
"N. c #8D908F",
"B. c #A19D9E",
"V. c #A39595",
"C. c #9FA09F",
"Z. c #A0A09F",
"A. c #88AAAA",
"S. c #9FA1A1",
"D. c #99A7A7",
"F. c #8AB8B8",
"G. c #95B6B6",
"H. c #A3A4A4",
"J. c #ABABAC",
"K. c #A8A7A7",
"L. c #AEB3B3",
"P. c #A5B8B8",
"I. c #B3B3B3",
"U. c #BBBBBB",
"Y. c #B7B8B8",
"T. c #AFACAC",
"R. c #C0BDBD",
"E. c #99C8C8",
"W. c #99D6D6",
"Q. c #8EC7C7",
"!. c #A4C8C9",
"~. c #BDC0C0",
"^. c #B8CBCB",
"/. c #A4DBDB",
"(. c #A7D3D3",
"). c #B7D6D6",
"_. c #A3E3E3",
"`. c #ACE4E5",
"'. c #ADECEC",
"]. c #A6ECEC",
"[. c #B6E8E8",
"{. c #ACF4F4",
"}. c #AFFFFF",
"|. c #B5F4F4",
" X c #BAF4F4",
".X c #B2FFFF",
"XX c #BBFEFE",
"oX c #C3C3C3",
"OX c #C7C8C8",
"+X c #CBCBCB",
"@X c #D0CFD0",
"#X c #C8D6D6",
"$X c #D4D4D4",
"%X c #D8D7D7",
"&X c #D7D9D9",
"*X c #DCDCDC",
"=X c #D7D7D8",
"-X c #D1CFCF",
";X c #E0DFDF",
":X c #E0DFE0",
">X c #C5E7E7",
",X c #DDE8E8",
"<X c #C3FDFD",
"1X c #CAFCFC",
"2X c #C8F6F6",
"3X c #DBF6F6",
"4X c #D2FBFB",
"5X c #DBFAFA",
"6X c #D3F4F4",
"7X c #E3E3E3",
"8X c #E4EBEB",
"9X c #ECECEC",
"0X c #E8E7E7",
"qX c #E3F4F4",
"wX c #EBF3F3",
"eX c #E5FAFA",
"rX c #E7F8F8",
"tX c #F5F5F5",
"yX c #F9F9F9",
"uX c #F8F7F7",
"iX c #F0EFEF",
/* pixels */
"}.}.}.}.}.}.}.}.}.}.}.}.}.XX(. .~ s.E.'..X.X}.}.}.}.}.}.}.}.}.}.}.}.}.}.}.}.}.}.}.}.}.}.}.}.}.}.}.}.}.}.}.}.}.}.}.}.}.}.}.}.}.}.",
"}.}.}.}.}.}.}..X}.}.}.}.}.E.R R W 0 0 R f.E.'..X.X}.}.}.}.}.}.}.}.}.}.}.}.}.}.}.}.}.}.}.}.}.}.}.}.}.}.}.}.}.}.}..X}.}.}.}.}.}.}.",
"}.}.}.}.}.}.}.}.}.}.}.}. X..w +X9XOXl.Y O 1 E v./..X}.}.}.}.}.}.}.}.}.}.}.}.}.}.}.}.}.}.}.}.}.}.}.}.}.}.}.}.}.}.}.}.}.}.}.}.}.}.",
"}.}.}.}.}.}.}.}.}.}.}..X).i [ tXtXyX9Xu.%.z ; $ s d._.{.}.}.}.}.}.}.}.}.}.}.}.}.}.}.}.}.}.}.}.}.}.}.}.}.}.}.}.}.}.}.}.}.}.}.}.}.",
"}..X}.}.}.}.}.}.}.}.}.XXD.0 J.yXuXtXV.;.5.5.3.l i 0 i f._.}.}.}.}.}.}.}.}.}.}.}.}.}.}.}.}.}.}.}.}.}.}.}.}.}.}.}.}.}.}.}.}.}.}.}.",
"}.}.}.}.}.}.}.}.}.}.}.1Xz.0 OXyXyX+X1.4.5.6.,.t.$XJ.~ * a (.}.}.}.}.}.}.}.}.}.}.}..X.X.X}.}.}.}.}.}.}.}.}.}.}.}.}.}.}.}.}.}.}.}.",
"}.}.}.}.}.}.}.}.}.}.}.2XI.y R k.@Xx.:.6.6.5.2.oXyXyX,X' # ..|.}.}.}.}.}.}.}.}.}.{.A.D.'.}.}.}.}.}.}.}.}.}.}.}.}.}.}.}.}.}.}.}.}.",
"}.}.}.}.}.}.}.}.}.}.}.1X*XZ.~ 0 w r &.3.6.:.p.tXtXyXoXm.@.w ^.}.}.}.}.}.}.}.}..X/.+.b.O.'.}.}.}.}..X}.}.}.}.}.}.}.}..X}.}.}.}.}.",
"}.}.}.}.}.}.}.}.}.}.}.XX8X*X+XK.[ p + ; %.-.R.yXtX%Xl.*X=Xi [  X}.}.}.}.}.}.}.XX@X+.$X[ G..X.X}.}.}.}.}.}.}.}.}.}.}.}.}.}.}.}.}.",
"}.}.}.}.}.}.}.}.}.}.}.}.<XqX0X,X$X~.j.s X 2 K.yX*Xx.+XuXtX@.8 G..X}.}.}.}.}.`.P.T...H.n.f..X}.}.}.}.}.}.}.}.}.}.}.}.}.}.}.}.}.}.",
"}.}.}.}.}.}.}.}.}.}.}.}.}..X1XqX9X7X%XY.o.0 w j.b.+XuXuX$Xt.- ! ].}.}.}.}.}.k.b.b.' ^ b...'.}.}.}.}.}.}.}.}.}.}.}.}.}.}..X}.}.}.",
"}.}.}.}.}.}.}.}.}.}.}.}..X}.}..XXX4X9X7X$XH.Y # k.tX;XT.y.>.$.% d..X}.}.}.6XO.Y.uXb.^ ^ ~ /..X}.}.}.}.}.}.}.}.}.}.}.}.}.}.}.}.}.",
"}.}.}.}.}.}.}.}.}.}.}.}.}.}.}.}.}.}.XX4X9X*XU.R i i.y.;.3.6.3.; E /.}.}.XXwXm.@.7X$Xo.+.R /..X.X.X}.}.}..X.X.X}.}.}..X}.}.}.}.}.",
"}.}.}.}.}.}.}..X}.}.}.}.}.}.}.}.}.}.}..X<XwX7XJ.e g ,.5.5.5.,.N 0 O.|.}..XqX%Xk.+.-X+.I.T.).W.W.Q.W.W.A.v.d.Q.W.W._.{..X}.}.}.}.",
"}.}.}.}.}.}.}.}.}.}.}.}.}.}.}.}.}.}.}.}.}.<XrX*Xo.O *.4.3.;.t.OXo.0 G.XX|.[.@XS.( ~ a ~ T i i y u i i u w u i i i s  .].}.}.}.}.",
"}.}..X}.}.}.}.}.}.}.}.}.}.}.}.}.}.}.}.}.}.}.<X9XoXR - 1.t.V.7XyX%Xp E n.] T s q 9 e a W ^ +.l.b.S.n.l.O.+.l.l.b.b.[ i  .{.}.}.}.",
"}.}.}.}.}.}.}.}.}.}.}.}.}.}.}.}.}.}.}.}.}.}.}.4X0Xb.8 l.9XtXyXyXtX@.. # a ~ ' j.l.b.b.z.+.@.[ ' ^ ' ' [ +.z.O.o.oX:Xm.i Q.}.}.}.",
"}.}.}.}.}.}.}.}.}.}.}.}.}.}.}.}.}.}.}.}.}.}..XXXwX~.p T $XtXtX7XM.-.h 1 o.o.' ( W ~ ( d W m.Y.OXOXoXU.Y.J.m.j.+.~.:XU.w _ {.}.}.",
"}.}.}.}.}.}.}.}.}.}.}.}.}.}.}.}.}.}.}.}.}.}.}..X#X~ & # p p.p.y.:.4.>.= 8 ..b.J.OX$Xl.b.j.l.I.Z.b.z.k.m.K.T.~.OXI.j.[ #.s v..X}.",
"}.}.}.}.}.}.}.}.}.}.}.}.}.}.}.}.}.}.}.}.}..X.X).W 0 k.+.O %.:.>.3.,.>.j 8 H.OXU.I.n.o.b.l.j.K.I.U.OX~.Y.K.N.+.@.o.^ oX9X{ ! }.}.",
"}.}.}.}.}.}.}.}.}.}.}.}.}.}.}.}.}.}.}.}.}..X<Xo.X ^ %X@X~ N 1.N ) y.u.} o.l.c.n.m.m.B.Z.H.m.N.j.@.o.{ o.z.n.~.7X0Xm.7XyXH.i /..X",
"}.}.}.}.}.}.}.}.}.}.}.}.}.}.}.}.}.}.}.}.}.'.P.i W ' +.H.H.n.m.m.B.m.n.N.l.j.@.[ o.^ ~ o.j.l.m.I.~.$X*X9XtXtXtX@XoXb.;XuXZ.& A..X",
"}.}.}.}.}.}.}..X}.}.}.}.}.}.}.}.}.}..X{.A.E e X i.OXN.[ [ [ [ [ #.o.+.+.j.m.K.L.~.B.b.9XtXuXyXyXyXtXyXtXtXtXI.y e ' ,X9X~    ..X",
"}.}.}.}.}.}.}.}.}.}.}.}.}.}.}.}.}.}.}.d.0 i z.a o.*X;X$X$X$X$X$X$X%X*X*X*X:X:X:X:XI.m.tXtXtXtXtXtXtXtXtXtXtX[     R 9X:Xp   _ {.",
"}.}.}.}.}..X}.}.}.}.}.}.}.}.}.}.}..X!.e R I.&X' ' %X&X*X*X*X*X*X*X*X*X*X*X*X*X%X*XU.n.iXtXtXtXuXtXtXtXtXtXiX^     W iX:Xa   a `.",
"}.}.}.}.}.}.}.}.}.}.}.}.}.}.}.}.}.|./ e Y.:X*X@.~ $X*X*X*X*X*X*X*X*X*X*X%X*X*X*X*XOXl.0XtXtXtXtXtXtXtXtXtXiX..X   ' tXiX@.o u ).",
"}.}.}.}.}.}.}.}.}.}.}.}.}.}.}.}..X#Xw ' &X*X:Xz.p OX*X*X*X*X*X*X*X*X*X*X*X*X*X*X*X$Xj.%XuXtXtXtXtXtXtXtXtXtX=X^ o ..tXtX+.  q (.",
"}.}.}.}.}.}.}.}.}.}.}.}.}.}.}.}.1X~.0 l.:X*XoXR & T.;X&X*X&X*X*X%X*X*X&X*X*X*X&X*X&Xz.~.yXtXuXtXtXtXtXtXtXyXI.q o b.tXtX[   0 (.",
"}.}.}.}.}.}.}.}.}.}.}.}.}.}.}.}.4X$Xi j.*X;Xb.# # +.*X&X*X*X&X*X*X*X*X*X%X*X*X&X*X*XH.Z.tXuXtXtXuXtXtXtXtXyXS.o * R.yXyXb.X q (.",
"}.}.}.}.}.}.}.}.}.}.}.}.}.}.}.}.4X*XE ' *X;Xj.e R R OX*X&X*X*X*X*X%X*X*X*X*X*X*X*X*XOXz.7XuXtXtXtXtXtXtXtXyXI.# U 7XuXiX*XW W >X",
"}.}.}.}.}.}.}.}.}..X.X}.}..X.X}.<X8X[ W $X;XJ.y ' q b.*X*X&X*X*X*X%X&X*X*X%X*X*X*X*X*Xn.Y.uXtXtXuXtXtXtXtXtX=Xs ^ OXx.) ) 0 O.<X",
"}..X}.}.}.}.}.}.}.W.A.g.g.g.g.g.(.,Xm.i Y.;X$X^ a q ~ $X*X*X*X*X*X*X*X*X*X*X*X%X$X*X*XoXl.0XuXtXtXtXtXtXtXtX9X+.[ N =.,.*.O v..X",
"}.}.}.}.}.}.}.].f.i a ( d 0 F R Y #.~ X ] %X*XY.R o * J.*X&X*X*X*X*X%X*X*X*XY.{ ~ b.$X*XH.m.9XtXtXtXtXtXtXtXJ.b.J.x 3.,.l 0 !.XX",
"}.}.}.}.}.}.{...0 j.$X0XU.+.^.*XT.( & ' W b.*X*XR.+.i ~ $X*X*X*X*X&X*X*X*X$X^     # [ OX%Xm.m.0XyXyXyXyXtXY.z.+X$Xi.Y M   ^  X}.",
"}.}.}.}.}..XG.t H.tXuXuXyXY.Y.yXyX:XN.M.J.W N.$X:X:XK.y @.&X*X*X*X*X%X*X&XOXi       o R b.+XJ.m.Y.+X+XU.S.b.+X*X*X&X@X+.8 K.XX}.",
"}.}.}..X}.<Xl.' tXtXtXuX:Xo.H.9XuXuXtXm.I.L.a R +.J.OXO.8 z.$X*X*X*X*X*X*X%X[           # R l.U.I.H.H.K.Y.%X*X*X*X*X@XE E >X|.}.",
"}.}.}.}..XeXm.^ I.$XtXtX@Xj.l.l.%XtXuX$Xz.:X^   X & u s X # ^ oX*X*X*X*X*X*XI.r ; : .       X i [ b.K.H.m.b.H.$X*X*Xb.& b.<X}.}.",
"}.}.}.}..XwXj.w z.=XtXtXtXtXtXH.N.iXuXiXb.I.E w 8 X         X E I.*X*X*X*X&X%Xz.=.3.z O - .       X # # X X 0 I.7X+XR R #X.X}.}.",
"}.}.}.}..XG.w +.iXuXtXtXtXyX+X+.o.N.$XtXn.U W J.J.@.R *       o e l.$X;X*X*X*X-Xp.;.>.=.,.&.=         o & * # n.@Xo.1 H.<X}.}.}.",
"}.}.}.}.1Xo.d $XyXtXyXyXtX*Xz.oXiX~.z.*X$Xs j.0X:X$XOXm.^ # o     # ' I.%X*X*X*X$XK.t.2.:.,.z .   o p l.OXI.w 0 W # p ^..X}.}.}.",
"}.}.}.}.6X' i $XuX7XoXH.@.R t [ H.=X=X:XtX#.Q >XeXwX7X*XOXW           w @.U.&X*X*X*X@XJ.x.u.t.m o ( $XyXyX$X[ #.b.j.R ~ !..X.X.X",
"}.}..X}.6Xm.& ' @.R e 2 < < < > $ i j.7XtX#.U _..XXX1X3X+Xw             o i o.J.+X*X;X,X:X&X$Xo.s OXyXtXtX*X%XtXyXtX+XR / '.}..X",
"}.}.}..X>Xa.# o > c C S 9.0.0.9.C 6 @ ~ Y.Y ` }.}.}.}.<XY.&                 o & a +.B.U.$X*XoXR m.tXtXtXtXtXuXtXtXtX*XW # A.{..X",
"}.}..XW./ # , n 9.q.e.e.r.r.e.e.w.q.V > 1 & A.}.}.}.}.1XH.X                       o & a W ^ W p %XuXtXtXtXtXtXtXtXtX+Xj.[ p X.{.",
"}.}./.E o v 9.w.w.w.e.e.w.w.e.e.w.w.e.A @ y (..X}.}.}.2Xb.o                         i l.j.] $ { tXtXtXtXtXtXtXtXtXtXtXtXtXl.1 c.",
"}.|. .o n w.e.w.w.e.e.q.w.w.e.e.w.w.e.w.V 2 d.|.}..X(. .m .                         a +X*XY.y n.tXtXtXtXtXtXuXtXtXtXtXtXyXU.& E ",
".XE.& c w.e.w.w.w.e.w.w.w.e.w.w.w.w.w.w.w.v u W..XE.m h :.g                         W >XwXm.1 n.yXtXiX=X0XtXtXtXuXtXtXtXyXY.& ~ ",
"<X+.@ P e.w.w.w.w.w.w.w.e.q.w.w.w.w.w.w.w.S 2 d.[.Q g 3.5.$.                        [ .X X' { k.iX+Xb.Z.0XtXtXtXuXtXuXuXuXj.0 L.",
">X^ < w.e.w.w.w.w.e.w.w.w.w.w.w.w.e.w.w.e.w.c ] N.> *.5.6.,.:                     # c.(.s.W @Xk.%XI.~.0X9XtXtXtXtXtXuX9XK.w ^ 9X",
",X^ 4 r.e.w.w.w.w.w.w.e.w.w.w.w.w.w.w.w.w.w.V t s f 4.5.5.5.%.O                   X y 0 X w *Xm.U.tXU.n.U.tXtXtXtXtXuX:X+.# b.5X",
"9Xz.2 C 9.w.e.e.e.w.w.e.w.e.w.e.w.w.w.w.w.e.9.+ . z 5.5.5.5.4.l .                         & oXOXm.iXoXoXI.Y.iXtXtXtXtXyX-Xi A..X",
"wX+X] 1 < v A 7.7.9.0.e.e.e.e.e.w.w.w.w.e.0.A , . :.6.5.5.5.5.3.l O                         l.0Xb.7X0Xm.H.%XtXtXtXuXtXyXY.e F..X",
"1X8X+Xm.' i 1 % $ > < v 7.w.e.e.w.w.w.q.K B G n > %.5.5.5.6.5.5.4.%.: .                     W 0XJ.I.9X;XtXuXtXtXuX9X9X;X' i /..X",
"}.<X0X*X$XU.m.z.j.@.E * > C e.e.w.w.9.B G 9.w.w.Z z 5.6.4.,.,.5.5.5.,.$.h O .           o 8 0 l.oX#.%XyXuXtXuXyX9Xj.~ R i m.2X}.",
"}.}.XX6X8X0X:X*X*X&XOXm.F < 9.e.w.0.B 8.r.P I B < l 4.,.$.&.:.5.5.5.5.5.4.>.=.z ; X W o.z.K.j.p a * [ 7XiX9X7X-Xj.p ] s.Y.,X.X.X",
"}.}.}.}.<X<X4XwXrXwX8X&XJ.7 C e.w.C P r.P | U.k.# = :.%.%.,.5.5.5.5.5.5.5.6.5.4.g a ~.*X;X7X$XJ.+.^ a E ~ ( a i R B.%X7X8X1X}.}.",
"}.}.}.}.}.}.}..X.XXX1XqX%XW v e.w.B w.9.) +X:X&Xl.i j l j k &.5.5.5.5.5.5.5.5.*.O j.9XrX4X4X8X:X%X-XI.j.' ' [ N.OX9XwX4XXX}.}.}.",
"}.}.}.}.}.}.}.}.}.}.}.XX8X+., L P B r.P a.*X*X*X&X~.b.' ' M.} :.5.5.5.5.5.5.3.f e ^.XXXX.X.X1X3XwX8X;X*X%X$X*X7XwX4X.X}.}.}.}.}.",
"}.}.}.}.}.}.}.}.}.}.}..XwXY.i @ , c w.8.a.*X*X&X*X*X;X%X%X*Xm.;.5.5.5.>.,.4.l . [ 2X}.}.}.}.}.}.XXXX4X3XtXwX3X3X<X}.}.}.}.}.}.}.",
"}.}.}.}.}.}.}.}.}.}.}.}.2X,XK.^ u @ V L F Y.*X:X*X*X%X*X*X,Xm.=.5.5.3.%.:.h = = _ |.}.}.}.}.}.}.}..X}..X<X<X}.}..X.X}.}.}.}.}.}.",
"}.}.}.}.}.}.}.}.}.}.}.}..XwX*X-XI.W % , & i +.U.*X:X*X*X;X%Xi.:.6.5.z ; : ; *.l T ].}.}.}.}.}.}.}.}.}.}.}.}.}.}.}.}.}.}.}.}.}.}.",
"}.}.}.}.}.}.}.}.}.}.}.}..X<XqX8X*XoXb.j.m.^ 0 y #.J.OXoXB.u.x 3.4.l - h z ,.6.:.2 F..X}.}.}.}.}.}.}.}.}.}.}.}.}.}.}.}.}.}.}.}.}.",
"}.}.}.}.}.}.}.}.}.}.}.}.}.}..XXX3X0X*X;X*X+XH.{ i w i w x $.$.:.f O $.4.5.5.4.*.O F..X}.}.}.}.}.}.}.}.}.}.}.}.}.}.}.}.}.}.}.}.}.",
"}.}.}.}.}.}.}.}.}.}.}.}.}.}.}.}..X<X3X3X3X9X;X$XU.b.{ w = = - r R e g -.-.;.N - 1 E..X}.}.}.}.}.}.}..X}.}.}.}.}.}.}.}.}.}.}.}.}.",
"}.}.}.}.}.}.}.}.}.}.}.}.}.}.}.}.}.}.}.}..XXX3X8X0X*X-XT.' R o.I.m.w ] Y.K.T.K.q #.2X}.}.}.}.}.}.}.}.}.}.}.}.}.}.}.}.}.}.}.}.}.}.",
"}.}.}.}.}.}.}.}.}.}.}.}.}.}.}.}.}.}.}.}.}.}..X<X1XqX8X,XI.l.S.U.( i ~.;X*X:XY.e b.<X}.}.}.}.}.}.}.}.}.}.}.}.}.}.}.}.}.}.}.}.}.}.",
"}.}.}.}.}.}.}.}.}.}.}.}.}.}..X}.}.}.}.}.}.}.}.}..X.X<XU.a $ 7 w & b.*X*X*X&X+.8 P..X}.}.}.}.}.}.}.}.}.}.}.}.}.}.}.}.}.}.}.}.}.}.",
"}.}.}.}.}.}.}.}.}.}.}.}.}.}.}.}.}.}.}.}.}.}.}.}.}.E.g.T @ V B b ] $X*X*X:XK.0 Q ,X.X{.{.{.].{.}.}.}.}.}.}.}.}.}.}..X}.}.}.}.}.}.",
"}.}.}.}.}.}.}.}.}.}.}.}.}.}.}.}.}.}.}.}.}.}.}.`. .0 5 c v r.L F J.&X*X*XJ.) < W G.F._ E T T E d.E.{.}.}.}.}.}.}.}.}.}.}.}.}.}.}.",
"}.}.}.}.}.}.}.}.}.}.}.}..X}.}.}.}.}.}.}.}.}.{._ + n 9.0.J 0.e.P I | z.| I 9.B X 0 * @ 6 v n v b r  .`.}.}.}.}.}.}.}.}.}.}.}.}.}.",
"}.}.}.}.}..X}.}.}.}.}.}.}.}.}.}.}.}.}.}.}.}.F.* v r.w.w.K J 9.w.q.P P P 9.A <   @ n 7.w.r.r.r.q.V , / `.}.}.}.}.}.}.}.}.}.}.}.}.",
"}.}.}.}.}.}.}.}.}.}.}.}.}.}.}.}.}.}.}.}.}.<Xo.O S e.w.w.w.L G D V H G J B Z c < S r.e.e.w.w.w.w.e.C % F.}.}.}.}.}.}.}.}.}.}.}.}.",
"}.}.}.}.}.}.}.}.}.}.}.}.}.}.}.}.}.}.}.}..X[.( @ 0.w.w.w.w.r.w.9.S K A P 0.w.A S e.w.w.w.w.w.w.w.e.0.< X..X.X}.}.}.}.}.}.}.}.}.}.",
"}.}.}.}.}.}.}.}.}.}.}.}.}.}.}.}.}.}.}.}.XX[.F 4 w.e.w.r.w.w.e.e.e.e.w.w.w.w.q.w.w.w.w.w.w.w.w.w.e.9.< E '..X}.}.}.}.}.}.}.}.}.}.",
"}.}.}.}.}.}.}.}.}.}.}.}..X}..X.X}..X}.}.XX&XR < 8.r.w.w.w.w.w.w.w.w.w.r.w.e.e.w.w.w.w.w.w.w.e.w.P B 6 s `..X}.}.}.}.}.}.}..X}.}.",
"}.}.}.}.}.}..X XXX X|.|.'.>X#X).).#X#X).P.S.s < B D A 9.w.e.e.e.r.w.e.e.w.w.e.w.e.e.w.w.w.0.L V Z L 4 / [.>X{.}.}.}.}..X}.}.}.}.",
"}.}.}..X|.).^.Y.I.J.J.K.S.m.m.m.b.m.n.n.b.z.U 2 Z S K V V A P 8.0.0.w.0.w.w.q.w.q.9.8.L K H K K n < & @.C.H.[.}.}.}.}.}.}.}.}.}.",
"}.}..X|.L.n.b.b.b.b.b.b.c.c.l.c.b.c.N.N.l.k.o.( r 6 B P P P L Z J C G G G H G G H Z K L P K v > # i [ l.c.H.>X}.}.}.}.}.}.}.}.}.",
"}.}..X6XoXK.H.S.H.H.S.m.m.m.m.m.m.b.b.N.N.l.k.j.#.Q p 7 4 c n V S P 8.8.P P 8.9.8.K V c < 2 i _ k.m.J.U.oX*X1X}.}.}.}.}.}.}.}.}.",
"}.}.XXtX9X7X7X*X7X;X7X*X,X;X7X;X%X$X$X-XOXoX+XoX~.oXY.c.o.' m t r 7 7 5 5 5 4 < , , 0 a { n.U.%X;X0X9X9XiXrX.X}.}.}.}.}.}.}.}.}.",
"}.}..X5XqX3XqX3XeXqXqXtXqXqXqXtXtXtXtXtX9XtXtXtX9X9X0X*X%X$XOXY.H.m.j.#.^ ~ Q ~ ' j.K.oX%X7X8XqXeXeXrX5X<XXX}.}.}.}.}.}.}.}.}.}.",
"}..X.X}..X.X.X}.}..X.X<X.X.X.X<X1X1X1X<X<X<X<X<X1X1X1XqXqX8X,X7X7X*X&X%X$X+X@X+X%X:X,XqX2X<XXX}..X.X.X}.}.}.}.}.}.}.}.}.}.}.}.}.",
"}.}.}.}..X}.}.}.}.}.}.}..X}.}.}.}.}.}.}.}.}.}.}.}.}.}..X.X.X.X<X4X3XtXtX9XiX9XiXtXeX<X.X}.}.}.}.}.}.}.}.}.}.}.}.}.}.}.}.}.}.}.}."
};
