/* XPM */
static char *cuphead12_110[] = {
/* columns rows colors chars-per-pixel */
"63 83 219 2 ",
"   c #010101",
".  c #0A0402",
"X  c #0A0B0B",
"o  c #090807",
"O  c #170504",
"+  c #1A130B",
"@  c #0F1010",
"#  c #131313",
"$  c #1C1614",
"%  c #1B1B1B",
"&  c #171818",
"*  c #2B0101",
"=  c #250505",
"-  c #3A0505",
";  c #2A1D0E",
":  c #23190C",
">  c #221D1A",
",  c #261B14",
"<  c #381C1B",
"1  c #33220E",
"2  c #2C2012",
"3  c #28221B",
"4  c #352411",
"5  c #392916",
"6  c #1F1F20",
"7  c #1F2020",
"8  c #242424",
"9  c #2B2525",
"0  c #2B2B2B",
"q  c #272828",
"w  c #312F2F",
"e  c #322323",
"r  c #34312C",
"t  c #2D3333",
"y  c #333434",
"u  c #353939",
"i  c #3B3C3C",
"p  c #3B3937",
"a  c #302F30",
"s  c #440202",
"d  c #4B0404",
"f  c #520202",
"g  c #590101",
"h  c #590908",
"j  c #531918",
"k  c #6A0101",
"l  c #620202",
"z  c #780303",
"x  c #791919",
"c  c #442E13",
"v  c #4E3415",
"b  c #46321A",
"n  c #543816",
"m  c #553919",
"M  c #5C3E1A",
"N  c #543816",
"B  c #5A2424",
"V  c #493B3A",
"C  c #41372A",
"Z  c #7B2424",
"A  c #5F401B",
"S  c #63431C",
"D  c #69461C",
"F  c #6C491E",
"G  c #734D1E",
"H  c #46413B",
"J  c #6E4E28",
"K  c #734D20",
"L  c #7C5321",
"P  c #745025",
"I  c #705535",
"U  c #3F3F40",
"Y  c #3D4242",
"T  c #444444",
"R  c #454A4A",
"E  c #4C4C4C",
"W  c #4B4746",
"Q  c #544F4D",
"!  c #4C5757",
"~  c #535454",
"^  c #545C5C",
"/  c #5B5B5B",
"(  c #6C534E",
")  c #756757",
"_  c #5F6060",
"`  c #586969",
"'  c #597878",
"]  c #646464",
"[  c #6B6B6B",
"{  c #676767",
"}  c #6E7272",
"|  c #6B797A",
" . c #737474",
".. c #7C7C7C",
"X. c #747A7A",
"o. c #6F6F6E",
"O. c #840101",
"+. c #9A0303",
"@. c #911716",
"#. c #A60202",
"$. c #AB0303",
"%. c #A60E0E",
"&. c #B20101",
"*. c #BD0101",
"=. c #B10908",
"-. c #A31111",
";. c #892625",
":. c #943131",
">. c #90302F",
",. c #C60000",
"<. c #CB0000",
"1. c #D50000",
"2. c #D80000",
"3. c #825622",
"4. c #865923",
"5. c #8B5C23",
"6. c #915F23",
"7. c #966224",
"8. c #996425",
"9. c #854A49",
"0. c #944444",
"q. c #985756",
"w. c #865353",
"e. c #846767",
"r. c #827A7A",
"t. c #947676",
"y. c #7F7F80",
"u. c #658383",
"i. c #7C8383",
"p. c #768585",
"a. c #7B9A9B",
"s. c #749695",
"d. c #838383",
"f. c #8C8C8C",
"g. c #888686",
"h. c #8E9090",
"j. c #879898",
"k. c #939393",
"l. c #979B9B",
"z. c #9B9B9B",
"x. c #979897",
"c. c #908F8F",
"v. c #A09F9F",
"b. c #A49696",
"n. c #A58C8C",
"m. c #A2A09D",
"M. c #89ACAC",
"N. c #9EA2A2",
"B. c #98A9A9",
"V. c #8BB8B8",
"C. c #95BBBB",
"Z. c #A3A3A3",
"A. c #A7A8A8",
"S. c #ABABAB",
"D. c #ABA6A6",
"F. c #B4ACAC",
"G. c #AEB2B2",
"H. c #A7BCBC",
"J. c #B3B4B3",
"K. c #BBB6B6",
"L. c #BCBCBC",
"P. c #B5B9BA",
"I. c #C4BABA",
"U. c #9BCECE",
"Y. c #9DD5D5",
"T. c #A8CACA",
"R. c #B4CECE",
"E. c #B8CACA",
"W. c #ABDCDC",
"Q. c #A5D6D6",
"!. c #B9D3D3",
"~. c #B6D9D9",
"^. c #9DE1E1",
"/. c #A2E4E4",
"(. c #A4E9E9",
"). c #AAEDED",
"_. c #A8E2E2",
"`. c #B3E5E5",
"'. c #BBEDED",
"]. c #B8EAEA",
"[. c #AFFFFF",
"{. c #ACF4F4",
"}. c #B2F3F3",
"|. c #B2FFFF",
" X c #BBFDFD",
".X c #B8F5F5",
"XX c #C3C3C3",
"oX c #C9C7C7",
"OX c #C5CBCB",
"+X c #CBCCCC",
"@X c #C3D9D9",
"#X c #CAD2D2",
"$X c #D3D3D3",
"%X c #DCDCDC",
"&X c #D6DADA",
"*X c #D0CFCF",
"=X c #E1DFDF",
"-X c #DFDFE0",
";X c #C6E6E6",
":X c #DCECEC",
">X c #D8E6E6",
",X c #C4FDFD",
"<X c #CBFDFD",
"1X c #C7F3F3",
"2X c #D5F6F6",
"3X c #DCF5F5",
"4X c #D4FCFC",
"5X c #DAFAFA",
"6X c #E4E4E4",
"7X c #E8E7E7",
"8X c #E5EAEA",
"9X c #EBECEC",
"0X c #E3F3F3",
"qX c #ECF4F4",
"wX c #E6F9F9",
"eX c #F5F5F5",
"rX c #F7F8F8",
"tX c #F9F9F9",
"yX c #F0EFEF",
/* pixels */
"[.[.[.[.[.[.[.|.[.[.[.[.[.[.[.[.[.[.[.[.[.[.[.[.[.[.[.[.[.[.[.[.|.T.[ Q.[.|.[.[.[.[.[.[.[.[.[.[.[.[.[.[.[.[.[.[.[.[.[.[.[.[.[.",
"[.[.[.[.[.[.[.[.[.[.[.[.[.[.[.[.[.[.[.[.[.|.[.[.[.[.[.[.[.[.[.[. XE.E j.(.|.[.[.[.[.[.[.[.[.[.[.[.[.[.[.[.[.[.[.[.[.[.[.[.[.[.",
"[.[.[.[.[.[.[.[.[.[.[.[.[.[.[.[.[.[.[.[.[.[.[.[.[.[.[.[.[.[.[.[.4X7XA.[ h.U.[.|.[.[.[.[.[.[.[.[.[.[.[.[.[.[.[.[.[.[.[.[.[.[.[.",
"[.[.[.[.[.[.[.[.[.[.[.[.[.[.[.[.[.[.[.[.[.[.[.[.[.[.[.[.[.[.[.[. X0X+Xd...B.`.].|.[.[.[.[.[.[.[.[.[.[.[.[.[.[.[.[.[.|.[.[.[.[.",
"[.|.[.[.[.[.[.[.[.[.[.[.[.[.[.[.[.[.[.[.|.|.[.[.|.[.[.[.[.[.[.[.[.<X9XL.z.XXX. .}.[.[.[.[.[.[.[.[.[.[.[.[.[.[.[.[.[.[.[.[.[.[.",
"[.[.[.[.[.[.[.[.[.[.[.[.|.[.[.|.|.[.|.{.{.`.`.T.V.W.|.[.[.[.[.[.[..X0X6X6X9Xk.l..X[.[.[.[.[.[.[.[.[.[.[.[.[.[.[.[.[.[.[.[.[.[.",
"[.[.[.[.[.[.[.[.[.[.[.}.U.U.Q.U.V.a.| ^ Y u y 8 # E _.[.[.[.[. XW.j.E.!.=XqX%X3X|.[.[.[.[.[.[.[.[.[.[.|.[.[.[.[.[.[.[.[.[.[.[.",
"[.[.[.[.[.[.[.[.[.[.[.M.8 0 0 8 $ O * = T  ...y.i % ^ /.[.[.|.T.[ / C.H.R.<X0X5X|.[.[.[.[.[.[.[.[.[.[.[.[.[.[.[.[.[.[.[.[.[.[.",
"[.[.[.[.[.[.[.[.[.[.W.R E r.x.i.j $.*.#.t.rXtX=Xz.f.% i. X[. X$X../ ..7X4X[.[.[.[.[.[.[.[.[.[.[.[.[.[.[.[.[.[.[.|.[.[.[.[.[.[.",
"[.[.[.[.[.[.[.[.|.|.B.T z.J.tX9Xw.,.2.<.:.>XtXOXS.9X[ 8 N.,X|.6X+XOX%X2X X[.[.[.[.[.[.[.[.[.[.[.[.[.[.[.[.[.[.[.[.[.[.[.[.[.[.",
"[.[.[.[.[.[.[.[.[.<Xf.u G.v.eXeXt.&.1.1.;.OXtXF.XXtXOX9 8 B. X5X9X7X0X|.[.[.[.[.[.[.[.[.[.[.[.[.[.[.[.[.[.[.[.[.[.[.[.[.[.[.[.",
"[.[.[.[.[.[.[.[.[.5Xg.u J.x.yXqXt.*.1.<.>.#XqXx.6XtXF.@.- 0 C. X|. X|.|.[.[.[.[.[.[.[.[.[.[.[.[.[.|.[.[.[.[.[.[.[.[.[.[.[.[.[.",
"[.[.[.[.[.[.[.[.[.5Xf.u J.z.eX6X0.,.1.,.q.9XoXS.tX$X:.<.$.* R Q.|.[.[.[.[.[.[.[.[.[.[.[.[.[.[.[.[.[.[.[.[.[.[.[.[.[.[.[.[.[.[.",
"[.[.[.[.[.[.[.[.[.5Xv.7 o.Z.eXF.@.1.<.+.r.h.r.6X%Xq.=.1.1.z @ ~ ~.|.[.|.[.[.[.[.[.|.[.[.[.[.|.|.|.|.[.|.|.[.|.[.|.[.[.[.[.[.[.",
"[.[.[.|.[.[.[.[.[.5XoXU # Q } V g k s O & @ y Z.q.=.2.2.,.0.g.> { _.).^./.).(.^.^.^.^.^.M.s.a.a.s.s.u.' ' ' | s.a.a.(.[.[.[.[.",
"[.[.[.[.[.[.[.[.[.5X6XS.~ y w w 8 0 i T [ g.i < $.2.1.<.:.I.eXr.& i ! t u Y i u y t t u t 0 0 w u V E ~ E E R i 0 8 ` (.|.[.[.",
"[.[.[.[.[.[.[.[.[. X3X=X+XL.L.K.S.J.E.oX$X%XZ.> g &.%.q.oXrXeXn.h O & E ~ {  ...d.g.d.y.y. .[ [ { { [ X..... .z.XXz.T ` {.[.[.",
"[.[.[.[.[.[.[.[.[.[. X5X9X7X6X6X6X6X9X0X0X0X%Xf.% < b.9XtXrXI.>.,.k $ ] ] ] ] _ { ] ] { [  .y.k.x.x.g.g... .R g.=X&X_ 8 C.[.[.",
"[.[.[.[.[.[.[.[.[.[.[.[. X,X,X X,X,X,X|.[.<XyXXXR @ ] $XeXK.>.,.1.,.d   ~ z.z.Z.G.S.S.S.K.G.z.c.g.k.z.N.S.S.J.L.Z...d./ ` {.[.",
"[.[.[.[.[.[.[.[.[.[.[.[.[.[.[.[.[.[.[.[.[.[.2X .% ] U i _ ;.$.=.%.-.@.e ] x.h.f.c.f.f.k.x.z.Z.J.L.XXL.S.z.g...} ~ G.yXS.u Y.[.",
"[.[.[.[.[.[.[.[.[.[.[.[.[.[.[.[.[.[.[.[.[.|.U.8 q x.A.[ ( ( e.e.r.d.f.c.x.x.N.D.D.S.Z.z.k.f.d.X.}  . .d.z.K.*X%Xh.%XtX&XV a.[.",
"[.[.[.[.[.[.[.[.[.[.[.[.[.[.[.[.[.[.[.[.[. XB.& _ y.[ } } [ [ [ [ ] [ [  .}  .X...../ y.z.S.K.K.OX%X7XeXeXtX%Xd./ oXtX$Xt } [.",
"[.[.[.[.[.[.|.[.[.[.[.[.[.[.[.[.[.[.[.|.Y.X.w # ] $XoXXXXXXXXXoXoXoXoX*X*X*X*X$X&X*Xg.%XtXrXeXrXrXeXeXeXrXeX .. @ S.tXN.X R {.",
"[.[.[.[.[.[.[.[.[.[.[.[.[.[.[.[.[.[.[.C.u 6 { v.k.*X-X-X%X%X%X%X%X%X%X%X%X%X%X%X%X$Xg.$XrXrXeXeXeXeXeXeXtX&Xw   o k.tXx.. 0 ~.",
"[.[.[.[.[.[.[.[.[.[.[.|.[.[.[.[.[.[.U.0 u D.%X%X&X&X%X%X&X%X%X%X%X%X%X%X&X%X%X%X%X%Xc.XXeXrXrXeXeXeXeXeXrXXX&   . k.tXz.o q Q.",
"[.[.[.[.[.[.[.[.[.[.[.[.[.[.[.[.[..X` % Z.%X%X%XS.XX%X%X%X%X%X%X%X%X%X%X%X%X$X%X%X%Xx.J.rXeXeXeXeXrXeXeXeXOX8   @ S.tXXX0 p ~.",
"[.[.[.[.[.[.[.[.[.[.[.[.[.[.[.[.[.~.t ~ &X%X$Xd.0 r.%X%X%X&X%X%X%X%X%X%X%X%X%X%X%X%XZ.Z.rXeXrXrXeXrXeXeXrX9Xk.6 & E.tX$XR U ].",
"[.[.[.[.[.[.[.[.[.[.[.[.[.[.[.[. XG.% g.%X%Xg.0 T E *X%X%X%X%X%X%X&X%X%X%X%X%X%X%X%XL.x.yXrXeXeXeXeXrXeXeXeXv.& t &XeXc.o ^ {.",
"[.[.[.[.[.[.[.[.[.[.[.[.[.[.[.[.4XS.% v.>X*XY _ v.y S.%X%X%X%X%X$X%X%X%X%X%X$X%X%X%X$Xf.=XtXeXeXeXtXeXeXeXyX]   / yXtXm.X | [.",
"[.[.[.[.[.[.[.[.[.[.[.[.[.[.[.[.<XZ.8 S.6XI.0 g.+Xu  .%X%X%X%X%X%X%X%X%X%X%X%X%X%X%X%Xz.K.tXeXeXeXeXeXeXrXeXZ.8 f.tX7XZ.6 j.|.",
"[.[.[.[.[.[.[.[.[.[.[.[.[.[.[.[.4XS.% k.%X+XT E oX_ i OX%X%X%X%X%X%X%X$X%X%X%X%X=X%X%XoXc.6XeXeXeXeXeXrXrXrX9Xo.z.J.( j - E Y.",
"[.|.[.[.[.[.[.[.[.[.[.[.[.[.[.[.<XoX0 ] %X%Xx.q U T & x.%X%X%X%X%X%X%X%X%X%X%X$XXX+X%X%XZ.z.yXtXeXeXtXeXeXtXI.d.x.W O.<.,.- / ",
"[.[.[.[.[.[.[.[.[.[.[.[.[.[.[.[.<X%XT u +X%X&XD./ t 0 ] $X%X%X%X%X%X%X%X$X%X*X[ 0 T k.$X%Xz.x.%XtXtXtXtXrX&Xr.L.%XZ.B z z < ..",
"[.[.[.[.[.[.[.[.[.[.[.[.[.[.[.[. X:Xd.# d.%X%X%X$XXXXXK.$X%X%X%X%X%X%X%X%X%Xr.o     X ] XX%XD.d.S.*X&X$XJ...S.%X%X*XW w ..v.=X",
"[.[.[.[.[.[.[.[.[.[.[.[.[.[.[.[.|.0XXXU 6 l.%X%X%X%X%X%X&X*X%X%X%X$X%X%X%X*XT           u h.+XOXZ.k.c.x.x.XX%X%X%Xg.8 f.=X7X5X",
"[.[.|.[.[.[.[.[.[.[.[.[.[.[.[.[.[.,X6XZ.0 6 g.$X%X%X%X&XK. .XX-X%X%X%X%X%X&X/             X i d.L.*X$X%X-X%X%X%XS.q ] >X2X,X|.",
"[.[.[.[.[.[.[.[.[.[.[.[.[.[.[.[.[.|.3X%Xz.U & E d.g..._ u X / +X%X%X%X%X%X%XD.% O f g * .     . 8 E [ ..Z.$X&Xz.y u OX4X[.[.[.",
"[.[.[.[.[.[.[.[.[.[.[.[.[.[.[.[.[.[. XqX%XXXX.% o X o   o   X E K.%X%X%X%X%X%Xf.B &.1.*.k d d O         y XXN.7 E K.2X[.[.[.[.",
"[.[.[.[.[.[.[.[.[.[.[.[.[.[.[.[.[.[.[.,X*Xk.} 6     o           y x.*X>X%X%X%X%XD.9.@.&.*.&.<.k       y f.XXT i oX0X X[.[.[.[.",
"[.[.[.[.[.[.[.[.[.[.[.[.[.[.[.[.[. X XU.R T ^ 0 X o               # Q v.$X%X%X%X=X$XD.t.9.;.@.x > V X.XXoX] % x.2X X[.[.[.[.[.",
"[.[.[.|.[.[.[.[.[.[.[.[.[.[.[.|.{.M.[ a u XX9XD.%                     # E k.J.$X&X%X6X%X$XE.F.D.L.+X&XS.T 8 d.>X[.[.[.[.[.[.[.",
"[.[.[.[.[.[.[.[.[.[.[.[.[.[.[..Xy.6 E ..f.z.Z.~                           X 8 E { c.Z.J.L.L.L.J.z...~ 8 Y z.6X,X[.[.[.[.[.[.[.",
"[.[.[.[.[.[.[.[.[.[.[.[.[.[.}.i.6 ..7XrXeX6XX..                                   X & 7 8 8 8 0 8 0 i ..XX:X<X|.[.[.[.[.[.[.[.",
"[.[.[.[.[.[.[.[.[.[.[.[.[.|.C.8 R J.&XeXrX7XR                                       & / _ / [ h.Z.G.oX6X0X X[.[.[.[.[.[.[.[.[.",
"[.[.[.[.[.[.[.[.[.[.[.[.[.T.Y 9 y.Z.k.L.tXXX%         X                             8 J.&X&X%X6X6X:X0X<X X[.[.[.[.[.[.[.[.[.[.",
"[.[.[.[.[.[.[.[.[.[.[.|./.E y J.eXtX%Xg.$Xf..       8 / X     o = * s d d - +       9 E.eX2X1X,X<X X|.|.[.[.[.[.[.[.[.[.[.[.[.",
"[.[.[.[.[.[.[.[.[.[.|.|.j.8 S.rXrXrXOX} g.T         T ..X O f O.$.,.,.<.$.h < i T % 0 W.,X|.[.[.[.[.[.[.[.[.[.[.[.[.[.[.[.[.[.",
"[.|.[.[.[.[.[.[.[.[.[.'./ / 9XrXrX+Xh.*X6XE         % 9 f #.<.1.1.*.$.z s [ L.%X7XS.i M.W.).{.|.[.[.[.[.[.[.[.[.[.[.[.[.[.[.[.",
"[.[.[.[.[.[.[.[.[.[.|.>Xu g.tXrX%Xk.$XtX%Xu         . k ,.2.1.1.$.z d 8 x.9XrXrXrXJ./ [ ..^ ! p.Q. X[.[.[.[.[.[.[.[.[.[.[.[.[.",
"[.[.[.[.[.[.[.[.[.[.|.&XT k.tX6Xz.+XrXrX%Xi         O +.2.1.1.2.,.+.< Z.eXeXrXeXyXoX6X9X9XJ.y @ ~ Y.[.[.[.[.[.[.[.[.[.[.[.[.[.",
"[.[.[.[.[.[.[.[.[.[.|.>X[ T Z.Z.XXrXeXeXZ.d.%         s *.2.<.*.+.s d.eXrXeXrXeXrXrXeXeXrXtXx.y W ^ ).[.[.[.[.[.[.[.[.[.[.[.[.",
"[.[.[.[.[.[.[.[.[.[.|.qXJ.~ 0 / 7XrXrX$Xz.k.#           f &.,.x V T %XrXrXrXeXeXeXrXeXeXeXeXk.T z.y C.|.[.[.[.[.[.[.[.[.[.[.[.",
"[.[.[.[.[.[.[.[.[.[.|.5X6X+Xg.E %XeXtXF.z.H c o           * g ( XXi.9X%XL.XXeXeXrXeXrXeXtX7X .R XX~ | |.[.[.[.[.[.[.[.[.[.[.[.",
"[.[.[.[.[.[.[.|.[.|.|.|.3X9XK.u ..6XrXS...b 5.v .             T %Xg.=XS.N.$XeXeXeXeXrXeXeXtX%XQ g...R ].[.[.[.[.[.[.[.[.[.[.|.",
"[.[.[.[.[.[.[.[.[.[.[.[.|.<X6X .& E d.] } 5 7.7.v o           u &Xk.$XeX&XI.%XeXyXeXeXeXeXeXeXX.[ X.R }.[.[.[.[.[.[.[.[.[.[.[.",
"[.[.[.[.[.[.[.[.[.[.[.|.[.|.:XoX .u % & Y , G 8.7.M +         % L.F.J.eXJ.J.6XeXeXrXeXeXeXtX9X/ ../ ! {.[.[.[.[.[.[.[.[.[.[.[.",
"[.[.[.[.[.[.[.[.[.[.[.[.[.[.5X6X$XL.Z.[ % o ; 4.8.7.L c + .   . x.%Xx.yXyX$XXX7XeXeXeXeX9X-Xf.~ Z.u p.|.[.[.[.[.[.[.[.[.[.[.[.",
"[.[.[.[.[.[.[.[.[.[.[.[.[.[.|.,XqX6X6XOXx. .8 1 5.8.8.7.L A 5 : [ yXv.+X%XZ.oXqXeXeXrXeXF./ [ K. .T @X|.[.[.[.[.[.[.[.[.[.[.[.",
"[.[.[.[.[.[.[.[.[.[.[.[.[.[.[.[.|. X2X-X*X$Xf.& 1 3.8.8.8.7.7.L C XXOXz.9XrXtXrXrXrXrXrX>X/ Z.x.y Z.<X[.[.[.[.[.[.[.[.[.[.[.[.",
"[.[.[.[.[.[.[.|.[.[.[.[.[.[.|.}.W.a.! W E ..A...7 ; D 5.8.8.7.7.N / g.p o.L.=X&X7XrXrXtX=XE E T f.8X|.[.[.[.[.[.[.[.[.[.[.|.[.",
"[.[.[.[.[.[.[.[.[.[.[.[.[.[.{.p.r , c n v 2 8 T [ % . ; S 4.7.8.6.n c D v > y 0 ~ J.&X*X[ % { S.8X<X[.[.[.[.[.[.[.[.[.[.[.[.[.",
"[.[.[.[.[.[.[.[.[.[.[.[.{.C.| e A 4.7.7.8.D n 2 8 & T ! % : v G 3.3.D c ; 8 8 q Y ~ E y q  .&XqX,X[.[.[.[.[.[.|.[.[.[.[.[.[.[.",
"|.[.[.[.[.[.[.[.[.[.[.|.M.r 5 m 8.8.7.7.L D L c 3 ] XX$Xm.] w # + : > u _ Z.F.J.oXXXN.g.S.>X2X,X[.[.[.[.[.[.[.[.[.[.[.[.[.[.[.",
"[.[.[.[.[.[.[.[.[.[.[.'.~ N S L 8.7.7.7.D L J ) m.$X%X%X%X&XJ.w # [ Z.L.&X6X7X8X:X6X6X6X8X2X[.[.[.[.[.[.[.[.[.[.[.[.[.[.[.[.[.",
"[.[.[.[.[.[.[.[.[.[.|.@Xr S m 5.8.7.7.7.S L I L.-X%X%X%X%X%Xc.+ ~ &X6X0X5X,X X,X|. X2X5X X[.[.[.[.[.[.[.[.[.[.[.[.[.[.[.[.[.[.",
"[.[.[.[.[.[.[.[.[.[. XP.3 m M 7.7.7.7.7.D G P v.-X%X%X=X=XG.q q K.wX,X X[.{.[.[.[.[.[.[.[.[.[.[.[.[.[.[.[.[.[.[.[.[.[.[.[.[.[.",
"[.[.[.[.[.[.[.[.[.[.4XS.3 m F 8.7.7.7.7.G D 5.( v.XX*X$XA.p 8 Z.3X|.[.[.[.[.|.[.[.[.[.[.[.[.[.[.[.[.[.[.[.[.[.[.[.[.[.[.[.[.[.",
"[.[.[.[.[.[.[.[.[.|.4XA.3 N K 7.7.8.7.8.5.A 3.5.J ) ) Q 3 y z.8X<X[.[.[.[.[.[.[.[.[.[.[.[.[.[.[.[.[.[.[.[.[.[.[.[.[.[.[.|.[.[.",
"[.[.[.[.[.[.[.[.[.[.<Xz.2 m K 8.8.7.7.7.8.4.S K 4.5.S $ { L.8X<X[.[.[.[.[.[.[.[.[.[.[.[.[.[.[.[.[.[.[.[.[.[.[.[.[.[.[.[.[.[.|.",
"[.[.[.[.[.[.[.[.[.[.2Xk., M K 8.7.7.7.7.7.8.5.K b ; + Q #X0X<X[.[.[.[.[.[.[.[.[.[.[.[.[.[.[.[.[.[.[.[.[.[.[.[.[.[.[.[.[.[.[.[.",
"[.[.[.[.[.|.[.[.[.[.4Xf.2 S D 8.7.7.7.7.7.7.8.L 1 o O 8 ] R.|.[.[.[.[.[.[.[.[.[.[.[.[.[.[.[.[.[.[.[.[.[.[.[.[.[.[.[.[.[.[.[.[.",
"[.[.[.[.[.[.[.[.[.[.2Xz., S M 7.8.7.7.7.7.7.4.S F L G A 5 H H.|.[.[.[.[.[.[.[.[.[.[.[.[.[.[.[.[.[.[.[.[.[.[.[.[.[.[.[.[.[.[.[.",
"[.[.[.[.[.[.[.[.[.[.2XG.> S M 4.8.7.7.7.7.7.5.7.7.8.8.8.6.v W W.[.[.[.[.[.[.[.[.[.[.[.[.[.[.[.[.[.[.[.[.[.[.[.[.[.[.[.[.[.[.[.",
"[.[.[.[.[.[.[.[.[.[.2X+Xu v L S 7.8.7.7.7.7.7.7.7.7.7.7.8.5.4 u.{.[.[.[.[.[.[.[.[.[.[.[.[.[.[.[.[.[.[.[.[.[.[.[.[.[.[.[.[.[.[.",
"[.[.[.[.|.[.[.[.[.[.<X8X .+ G D D 5.8.8.8.7.7.7.7.7.7.7.7.7.n T (.|.|.|.|.[.[.|.|.[.[.[.[.[.[.[.[.[.[.[.[.[.[.[.[.[.[.[.[.[.[.",
"[.[.[.[.|.|.,X X.X}.}.&XS.y : K G S F 3.5.7.7.7.7.8.8.8.7.5.1 p E.!.E.!.@X!.E.!.@X1X[.[.[.|.[.|.[.[.[.[.[.[.[.[.[.|.[.[.[.[.[.",
"[.[..X;XR.E.OXXXP.S.Z.Z.c.[ 8 ; D 4.L J A D F L L L G L F c X Q z.z.z.z.v.z.z.z.z.G.R.~.~.R.R.~.'.|.[.[.[.[.[.[.[.[.[.[.[.[.[.",
"|.'.G.N.z.z.z.x.x.x.k.x.g.d.[ u + 4 A L 5.4.L F F F S D A 1 3 y.c.c.c.c.k.k.c.c.x.z.v.v.z.x.x.z.D.`.[.[.[.[.[.[.[.[.[.[.[.[.[.",
"|.OXN.x.k.c.c.f.f.k.k.k.f.g.d. ./ y & + 4 v v n N v c c 2 % ^ f.f.f.f.f.g.f.g.f.f.c.c.c.k.x.z.A.XX;X[.[.[.[.[.[.[.[.[.[.[.[.[.",
"rX9X&X+XoXE.I.XXoXOXOX+XoXL.z.g.y...o.~ p y 0 a a y i T _ } g.h.c.c.c.c.c.x.x.x.v.Z.S.J.oX$X%X6XeX X[.[.[.[.[.[.[.[.[.[.[.[.[.",
"4XwXyXeXeX9XyXqXyXyXeXeXyXyX&XK.S.A.Z.m.v.Z.N.A.A.S.J.P.K.L.L.XXOX+X+X+X$X$X&X%X=X6X7X9XeXqXwXwX<X|.[.[.[.[.[.[.[.[.[.[.[.[.[.",
"|. X<X,X,X<X<X,X<X<X,X<X<XwXeX9X9X9X7X6X6X7X7X7X7X9X9X9XyXyXyXeXeXrXeXeXeXeXwXqXqXwXwX4X<X|.[.[.[.[.[.[.[.[.[.[.[.|.[.[.[.[.[.",
"[.[.[.[.[.[.[.[.[.[.[.[.[.|.4XeXtXtXtXtXwX4X4X4X4X4X4X4X4X4X4X4X4X4X4X4X5X,X|.|.|.|.|.|.[.[.|.|.[.[.[.[.[.[.[.[.[.[.[.[.[.[.[."
};
