/* XPM */
static char *cuphead5_110[] = {
/* columns rows colors chars-per-pixel */
"57 83 218 2 ",
"   c #020101",
".  c #0B0B0A",
"X  c #0A0505",
"o  c #130D0B",
"O  c #1A0807",
"+  c #1C150D",
"@  c #15110C",
"#  c #141313",
"$  c #1A1614",
"%  c #1D1C1C",
"&  c #1C1814",
"*  c #280909",
"=  c #3C0202",
"-  c #340706",
";  c #24190C",
":  c #2B1D0C",
">  c #261D13",
",  c #201E1D",
"<  c #271712",
"1  c #331616",
"2  c #301F0C",
"3  c #38240F",
"4  c #2A2218",
"5  c #3D2A14",
"6  c #382817",
"7  c #1E2223",
"8  c #242323",
"9  c #292524",
"0  c #272828",
"q  c #2C2C2C",
"w  c #2E2923",
"e  c #312D2C",
"r  c #332822",
"t  c #2F3130",
"y  c #333333",
"u  c #3A3635",
"i  c #373A3A",
"p  c #3C3B3C",
"a  c #3B3937",
"s  c #3A342C",
"d  c #450302",
"f  c #5A0202",
"g  c #540303",
"h  c #431B1B",
"j  c #6A0303",
"k  c #7C0000",
"l  c #760202",
"z  c #6F1615",
"x  c #442D13",
"c  c #4C2F11",
"v  c #4C3213",
"b  c #473118",
"n  c #573A17",
"m  c #413E3D",
"M  c #473C39",
"N  c #522F2B",
"B  c #7C2525",
"V  c #673B3B",
"C  c #5F411C",
"Z  c #64441D",
"A  c #69471D",
"S  c #6C491E",
"D  c #724C1E",
"F  c #7B511F",
"G  c #6B4921",
"H  c #654825",
"J  c #724D20",
"K  c #7C5321",
"L  c #76552D",
"P  c #725531",
"I  c #3E4241",
"U  c #444343",
"Y  c #4A4645",
"T  c #454B4B",
"R  c #4C4C4C",
"E  c #534C4B",
"W  c #4D5353",
"Q  c #4D5A5A",
"!  c #535454",
"~  c #5C5C5C",
"^  c #565A59",
"/  c #54514F",
"(  c #784544",
")  c #655858",
"_  c #7B5E5E",
"`  c #664444",
"'  c #596666",
"]  c #5C7574",
"[  c #646364",
"{  c #6C6C6C",
"}  c #686969",
"|  c #766F65",
" . c #687474",
".. c #737373",
"X. c #7B7B7B",
"o. c #787777",
"O. c #880202",
"+. c #960404",
"@. c #9A1D1D",
"#. c #831817",
"$. c #A30201",
"%. c #AC0101",
"&. c #B30303",
"*. c #BC0202",
"=. c #A21F1E",
"-. c #883938",
";. c #902B2A",
":. c #C60000",
">. c #CC0000",
",. c #D50000",
"<. c #81551F",
"1. c #825621",
"2. c #865922",
"3. c #8C5C23",
"4. c #825A2A",
"5. c #905F24",
"6. c #966224",
"7. c #996424",
"8. c #954949",
"9. c #895353",
"0. c #8E4F4F",
"q. c #966968",
"w. c #8E7E7D",
"e. c #A27D7D",
"r. c #89837A",
"t. c #698686",
"y. c #768686",
"u. c #6D9292",
"i. c #799899",
"p. c #7CA4A3",
"a. c #848383",
"s. c #858989",
"d. c #8C8C8C",
"f. c #968B8B",
"g. c #899898",
"h. c #949494",
"j. c #989796",
"k. c #9B9B9B",
"l. c #979998",
"z. c #95918B",
"x. c #A58787",
"c. c #9EA09F",
"v. c #A2A19F",
"b. c #9F9FA0",
"n. c #87A8A8",
"m. c #9FA1A1",
"M. c #89B3B3",
"N. c #8EBBBB",
"B. c #86BABA",
"V. c #93B9B9",
"C. c #99B9B9",
"Z. c #8FAFB0",
"A. c #A3A3A3",
"S. c #ABA6A6",
"D. c #A7A8A8",
"F. c #ABACAC",
"G. c #A7A7A8",
"H. c #B0AFAE",
"J. c #B1B0AF",
"K. c #ACB1B1",
"L. c #ADB9B9",
"P. c #B3B4B4",
"I. c #B5BABA",
"U. c #BBBCBC",
"Y. c #B8B7B7",
"T. c #C0BEBD",
"R. c #8CC0C0",
"E. c #94C4C4",
"W. c #96C7C7",
"Q. c #99D3D3",
"!. c #A9C6C6",
"~. c #BEC3C3",
"^. c #B5C6C6",
"/. c #A9D8D8",
"(. c #BCD8D7",
"). c #ACECEC",
"_. c #A9E3E3",
"`. c #B4EDED",
"'. c #B4E5E5",
"]. c #ADF3F3",
"[. c #AFFFFF",
"{. c #BEF5F5",
"}. c #B2FFFF",
"|. c #BBFEFE",
" X c #B1F5F5",
".X c #C4C4C4",
"XX c #C5CACA",
"oX c #CCCCCC",
"OX c #CED1D1",
"+X c #C6D6D6",
"@X c #D3D4D4",
"#X c #D7D8D9",
"$X c #DBDBDB",
"%X c #E0DFDF",
"&X c #C8DFE0",
"*X c #C8E7E7",
"=X c #DCE3E3",
"-X c #D7E9E9",
";X c #C0F7F7",
":X c #C3FCFC",
">X c #CBFCFC",
",X c #D6F5F5",
"<X c #DDF4F4",
"1X c #D3FBFB",
"2X c #DAFAFA",
"3X c #CEEFF0",
"4X c #E3E4E4",
"5X c #E5EBEB",
"6X c #EBEBEB",
"7X c #E9E7E7",
"8X c #E4F4F4",
"9X c #EAF4F4",
"0X c #E2FAFA",
"qX c #EAF9F9",
"wX c #F5F5F5",
"eX c #F7F8F8",
"rX c #F9FAFA",
"tX c #EEEFEF",
/* pixels */
"[.[.[.[.[.[.[.[.[.[.[.[.[.[.[.[.[.[.[.[.[.[.}.}.|.8X7X1X|.[.[.[.[.[.[.[.[.[.[.[.[.[.[.[.[.[.[.[.[.[.[.[.[.[.[.[.[.",
"[.[.[.[.[.[.[.[.[.[.[.[.[.[.[.[.[.[.[.[.[. X;X/.].8X9X|.[.[.[.[.[.[.[.[.[.[.[.[.[.[.[.[.[.[.[.[.[.[.[.[.[.[.[.[.[.",
"[.[.[.[.[.[.[.[.[.[.[.[.[.[.[.[.[.[.[.[.[.'.H..X).|.:X|.[.[.[.[.[.[.[.[.[.[.[.[.[.[.[.[.[.[.[.[.[.[.[.[.[.[.[.[.[.",
"[.[.[.[.[.[.[.[.[.}.[.[.[.[.[.[.[.[.[.[.;X^.oXtX>X[.[.[.[.[.[.[.[.[.[.[.[.[.[.[.[.[.[.}.[.[.[.[.[.[.[.[.[.[.[.[.[.",
"[.[.[.[.[.[.[.[.[.}.[.[.[.[.[.[.[.[.[.[.3XS.+X>X|.[.[.[.[.[.[.[.[.[.[.[.[.[.[.[.[.[.[.[.[.[.[.[.[.[.[.[.[.[.[.[.[.",
"[.}.[.[.[.[.[.[.[.[.[.[.[.[.[.[.[.[.[.|.9X9X1X[.[.[.[.[.[.[.[.[.[.[.[.[.[.[.[.[.[.[.[.[.[.[.[.[.}.[.[.[.[.[.[.[.[.",
"[.[.[.[.[.[.[.[.[.[.[.[.[.[.[.[.[.[.[.[.|.>X[.[.[.[.[.[.[.[.[.[.[.[.[.[.[.[.[.[.[.[.[.[.[.[.[.[.[.[.[.[.[.[.[.[.}.",
"[.[.[.[.[.[.[.[.[.[.[.[.[.[.[.[.[.[.[.).g.' g.[.[.[.[.[.[.[.[.[.[.[.[.[.[.[.[.[.[.[.[.[.[.[.[.[.[.[.[.[.[.[.[.[.[.",
"[.[.[.[.[.[.[.[.[.[.[.[.[.[.[.}.}. XV.W I p q W.}.[.[.[.[.[.[.[.[.[.[.[.[.[.[.[.[.[.[.[.[.[.[.[.[.[.[.[.[.[.[.[.[.",
"[.[.[.[.[.[.[.[.[.[.[.[.[.[.}. XC.' y [ .Xh.Y ]  X[.[.[.[.[.[.[.[.[.[.[.[.[.[.[.[.[.[.[.[.[.[.[.[.[.[.[.[.[.[.[.[.",
"[.[.[.[.[.[.[.[.[.[.}.}.]._.N.] r * d.6XwXk.k.p R.[.[.[.[.[.[.[.[.[.[.[.[.[.[.[.[.[.[.[.[.[.[.[.[.[.[.[.[.[.[.[.[.",
"[.[.[.}.[.[.[.}.[._.N.u.Q y & d O.$.x.eX4Xh.4X} I _.[.[.[.}.[.[.[.[.[.[.[.[.[.[.[.[.[.[.[.[.[.[.[.[.}.[.[.[.[.[.[.",
"[.[.[.[.[.[.[.}.Q.R 8 y ..l._ $.,.>.8.7X@XA.eX.Xq i.|.[.[.[.[.[.[.[.[.[.[.[.[.[.[.[.[.[.[.[.[.[.[.[.[.[.[.[.[.[.[.",
"[.[.[.[.[.[.[. X{ p j.a.4XrX#X-.>.,.;.@XU.U.rXT.r m /.[.[.[.[.[.[.[.[.[.[.[.[.[.[.[.[.[.[.[.}.[.[.[.[.[.[.[.[.[.[.",
"[.[.[.[.[.[.[.3X^ { $XS.T.rXwXq.*.,.=.T.A.=X#X0.+.= } ].}.[.[.[.[.[.[.[.[.[.}.}.}.}.}.].].).].].].].}.}.[.[.[.[.[.",
"[.[.[.[.[.[.[.-XY ..%X.Xk.tXrXf.&.,.=.a.{ f.-.&.,.+.< i.}.[.[.}.[.[.}.[.`.!.M.M.p.u.t.Q W T T T T Q u.Q.[.[.[.[.[.",
"[.[.[.[.[.}.}.-X/ ! @X@Xh.$XeXf.&.,.z y * +.:.,.,.:.h y N.}.[.}.[._.V. .T y 9 q a p m R ! ! ! ~ [ ~ 9 T _.[.[.[.[.",
"[.[.[.[.[.[.}.<Xo.e U.%Xj.@XeXq.%.k * Y Y O.,.>.:.-.S.~ u E./.g.' p q a [ X.a.a.X.{ { { ..o.~ Y A.=Xd.# t.[.[.[.[.",
"[.[.[.[.[.[.}.8XF.8 [ XXs.U.Y.N - e a.XXk.1 B 0.e.oXeX#Xm , t y R { s.h.a.{ ! ^ { o.h.k.h.s.X.[ k.k...~ t W.}.[.[.",
"[.[.[.[.[.[.}.>X$Xo.% p q p t y o.Y.4X9XOXR R @XeXeXeX#X( = % ^ [ [ [ ..X.j.F.H.k.h.d.h.z.s.{ ..X.a.h.$XR Q ).[.[.",
"[.[.[.[.[.[.[.|.<XoXz.[ [ X.l.~.=X8X>X:X5Xl.8 { #X%XT.0.%.&.= $ ^ d.j.l.h.h.h.b.b.b.h.X.w.s.S.oX4XwXP.oXA.q C.[.[.",
"[.[.[.[.[.[.[.[.|.-X$X$X$X4X5X8X>X|.[. Xk.U ! m y p r z #.B P ~ h.b.G.F.A.k.s.a.a.X.j.U.%XtXeXeXwXeXU.A.$Xp y.}.[.",
"[.[.[.[.[.[.[.[.[.|.2X<X<X2X|.|.[.[.}.V.8 U U.I.{ { s.l.b.b.l.l.h.d.s.X.o.) k..X$X6XeXeXrXwXwXwXeXOXY } 6X..! `.[.",
"[.[.[.[.[.[.[.[.[.[.[.[.[.[.[.[.[.[. XQ q a...o.a.s.s.X.o.X.w.f.k.S.U.XXOXj.#XrXrXeXwXwXwXwXwXwXeXs.  U 5XP.y R.}.",
"[.[.[.[.[.[.[.[.[.[.[.[.[.[.[.[.[.).i.0 ~ OXXXJ.G.G.H.P.T.oX#X%X%X$X%X$X%Xb.T.eXeXwXwXwXwXwXwXrXeXX.  y $X#Xp R.[.",
"[.[.[.[.[.[.[.[.[.[.[.[.[.[.[.].M.W ! k.oX$X$X$X$X%X$X$X%X#X%X#X$X$X#X$X$XF.S.wXwXwXwXwXwXwXwXwXeX}   q @X=XY B.}.",
"[.[.[.[.[.[.[.[.[.[.[.[.[.[.].u.q X..X$X$X$X$X$X$X$X$X$X#X%X%X#X$X#X$X$X$X.Xj.tXwXwXwXeXwXwXwXwXwXX.o q @X=XI B.}.",
"[.[.[.[.[.[.[.[.[.[.[.[.[.|.i.8 X.$X$X$X$X#X$X$X#X$X$X$X#X%X#X#X#X$X$X$X$X@Xs.%XwXwXwXwXwXwXwXwXeXY.q t #X$XU W.}.",
"[.[.[.[.[.[.[.[.[.[.[.[.[._.p R OX$X$X$XA.s.@X$X$X$X$X$X$X#X#X%X$X$X$X#X$X$Xb.P.eXeXwXwXwXwXwXwXeXa.  R tX.Xp g.].",
"[.[.[.[.[.[.[.[.[.[.[.[.:XK.% d.$X$X@Xa.8 q U.$X$X$X#X$X$X#X#X%X#X$X#X$X$X$XT.a.4XwXwXwXeXwXwXwXeXs.X ! T.) d 1 y.",
"[.[.[.[.[.[.[.[.[.[.}.[.>Xl.8 F.4X$XD.y } 0 h.%X#X$X#X$X$X$X#X#X%X#X$X$X$X$X$Xl.b.wXwXwXwXwXwXwXeXoXR X.` +.>.f U ",
"[.[.[.[.[.[.[.[.[.[.[.[.1Xa.8 Y.$X$Xs.E .XU { $X$X$X$X#X#X$X#X%X%X#X#X$X$X%X$XoXa.Y.wXeXwXwXwXeXeXoXk.P.B &.O.N H.",
"[.[.[.[.[.[.[.[.[.[.[.[.:Xs., H.4X$Xh.! @XX.p .X%X%X#X%X#X%X%X#X#X$X$X#X.XU.@X%X.Xa.A.%XeXeXeXwXU.z.XXOX) * E P.wX",
"[.[.[.[.[.[.[.[.[.[.[.[.:XF.% a.$X$X.X! h.A.q ..oX#X#X#X#X#X#X#X%X#X@Xd.y 8 ! G.$XOXj.a.S.P.F.j.j..X$X@X! 8 Y.9X2X",
"[.[.[.[.[.[.[.[.[.[.[.[.2X@XW y Y.%X$XA.R y % y v.#X%X#X%X#X#X%X#X%XH.,       , o..X$X.XY.Y.P..X#X%X$Xh.8 h.<X|.[.",
"[.[.[.[.[.[.[.[.[.[.[.[.:X6XA.0 [ @X$X$XT.h.s.F.oX%X%X#X#X%X$X#X#X%Xb.@         . y ..k.P.U..XXX.XXXk.q [ 5X:X[.[.",
"[.[.[.[.[.[.[.[.[.[.[.[.}.2X%Xa.q ..oX$X$X$X4X%X%XoXT.$X$X#X$X$X$X$XoXR               . % 0 t y u p 9 ! XX:X}.[.[.",
"[.[.[.[.[.[.[.[.[.[.[.[.}.|.5X@Xs.u R j.Y.~..XJ.a.m E .X%X#X#X$X$X$X$XD.e g O.l - - *           o } b.OX>X[.[.[.[.",
"[.[.[.[.[.[.[.[.[.[.[.[.[.[.:X-X#XP.[ % 7 0 0 % .   . ~ oX%X#X$X$X$X$X$XK.9.@.&.$.+.$.=   X q 8 ~ #X5X>X[.[.[.[.[.",
"[.[.[.[.[.[.[.[.[.[.[.[.[.[.[.|.<X5XY.q   . X . . X X . ~ T.$X%X$X#X$X$X$X@XF.e.q.0.8.( ^ s.s.I ~.1X:X[.[.[.[.[.[.",
"[.[.[.[.[.[.[.[.[.[.[.[.[.[.[.[.}.1Xh.. X           X     q s.XX$X$X$X$X$X$X$X%X#XOXOXOX#XD.p w.,X[.[.[.[.[.[.[.[.",
"[.[.[.[.[.[.[.[.[.[.[.[.[.[.[.[.}.C.y                       . y o.F.XX#X$X%X$X$X%X%X$XOXa.y ..-X|.[.[.[.[.[.[.[.[.",
"[.[.}.[.[.[.[.[.[.[.[.[.[.[.[.[.!.i                             X # y ! X.h.A.A.D.k...I y X.$X>X[.[.[.[.[.[.[.[.[.",
"[.[.[.[.[.[.[.[.[.[.[.[.[.[.[.).W           . X                       X q y q q q q t } P.5X1X[.[.[.[.[.[.[.[.[.[.",
"[.[.[.[.[.[.[.[.[.[.[.[.[.[.}.n.#         X t 8                       % k.Y.S.A.m.D.~.%X<X;X[.[.[.[.[.[.[.[.[.[.[.",
"[.[.[.[.[.[.[.[.[.[.[.[.[.[.|.{             @ g +.j *                 q oX9X6X6X7X6X5X>X|.[.[.[.[.[.[.[.[.[.[.[.[.",
"}.[.[.[.[.[.[.[.[.[.[.[.[.[.*XR           X O.>.,.%.j O   X X         % n.L.k.(.2X>X|.[.[.[.[.[.[.[.[.[.[.[.[.[.[.",
"[.[.[.[.[.[.[.[.[.[.[.[.[.|.-XR         X l :.%.f 1 U ..y.s...9     X # 8 i U W n.[.[.[.[.[.[.[.[.[.[.[.[.[.[.[.[.",
"[.[.[.[.[.[.[.[.[.[.[.[.[.|.6X{         O z N - / F.5XwXwXwXwXT.y   . m a.I.oXA.W M.}.[.[.[.[.[.[.[.[.[.[.[.[.[.[.",
"[.[.[.[.[.[.[.[.[.[.[.[.[.}.<XS.%       0 A.K...$XrXwXwXwXwXwXrXh.# } .X$X$X$X$Xa.' ].[.[.[.[.[.[.[.[.[.[.[.[.[.[.",
"[.[.[.[.[.[.[.[.[.[.[.[.[.[.2X#X{ .   # h.6Xk.P.P.7XwXwXwXwXtX@XA.q J.%X$X$X$X$XY.p E.[.[.[.[.[.[.[.[.[.[.[.[.[.[.",
"[.[.[.[.[.[.[.[.[.[.[.[.[.[.|.5X.X!   U 4XP.A.5XJ.U.wXwXwXwXwXT.[ 8 P.%X$X$X$X$X.Xp n.}.[.[.[.[.[.[.[.[.[.[.[.[.[.",
"[.[.[.[.[.[.[.}.[.[.[.[.[.[.[.:X4XP.0 { 4Xj.7X.XP.4XwXwXwXwXwXwXoX! [ P.F.@X$X$XoXY i.}.[.[.[.[.[.[.[.[.[.[.[.[.}.",
"[.[.[.[.[.[.[.[.}.[.[.[.[.[.[.}.0X$Xp p h.H.4X$X.X7XwXwXwXwXeXwXrXF., , Y .X$X%XU.a Z.[.[.[.[.[.[.[.[.[.[.[.[.[.[.",
"[.[.[.[.[.[.[.[.[.[.[.[.[.[.[.[.|.-X[   9 oX#XP.6XeXwXwXwXwXwXwXrXD.# . s.$X$X$Xd.p (.}.[.[.[.[.[.[.[.[.[.[.[.[.[.",
"[.[.[.[.[.[.[.[.[.[.[.[.[.[.[.[.}.8Xl.. q $XeX7XtXeXwXwXwXwXrX4XoX[ + M U.%X=XoXR } {.[.[.[.[.[.[.[.[.[.[.[.[.[.[.",
"[.[.[.[.[.[.[.[.[.[.[.[.[.[.[.[.[.*X) - 1 S.rXeXwXwXwXwXwXwXeXoXm & A L r.J.J.| 8 K.}.[.[.[.[.[.[.[.[.[.[.[.[.[.[.",
"[.[.[.[.[.[.[.[.[.[.[.[.[.[.[.[.[. .* +.l M .XeXwXwXeXeXwXwXeXG.4 n A 1.J P P G 6 n.}.[.[.[.[.[.[.[.}.[.[.[.[.[.[.",
"[.[.[.}.[.[.[.[.[.[.[.[.[.[.[.}.3XU j O.&.g q S.eXeXtXoX7XwXXXp 5 5.F Z Z S G n + i.}.[.[.[.[.[.[.[.[.[.[.[.[.[.[.",
"[.[.[.[.[.[.}.}.}.[.}.[.[.[.[.|.=XE j ( ;.%.j u Y.4X#X^ E [ M x <.7.7.6.3.K D & U /.[.[.[.[.[.[.[.[.[.[.[.[.[.[.[.",
"[.[.[.[.[.[.[._.L.u.t.i.u.t.Z.'.g.y } .XG.@.>.j h M u 6 2 : D 6.7.7.6.7.7.7.K 4 D.>X[.[.[.[.[.[.[.[.[.[.[.[.[.[.[.",
"[.[.[.[.[./.i.m r 6 b 6 ; 3 w R i d.@X%X#X_ %.,.%.d : K 5.2.7.7.6.6.6.6.7.5.6 U *X}.[.[.[.[.[.[.[.[.[.[.[.[.[.[.[.",
"[.[.[. Xn.p > c D 3.3.Z K 5.H ~ F.$X$X$X~.V k $.g 3 <.7.7.7.6.6.6.7.7.7.3.v $ m.:X[.[.[.[.[.[.[.[.[.[.[.[.[.[.[.[.",
"[.}.}.i., 5 K 7.7.7.J K 7.4.z.@X$X$X%XY.R < * O 3 2.7.7.6.6.6.6.6.6.7.2.v @ o.3X|.[.[.[.[.[.[.[.[.[.[.[.[.[.[.[.[.",
"[.[.;XR ; 2.7.7.7.5.D 2.7.L Y.%X%X$XI.m p s.h.R x 2.7.7.7.7.6.7.6.2.Z ; + ..=X|.[.[.[.[.[.[.[.[.[.[.[.}.[.[.[.[.[.",
"[.|.^.q x 6.7.7.7.5.D 1.7.1.r.@XoXz.y R Y.4X4XF.a : n D <.F D n 5 ; @ p h.=X>X[.[.[.[.[.[.[.[.[.[.[.[.[.[.[.[.[.[.",
"[.:Xh.> n 2.7.7.7.7.<.A 6.7.L | E , [ OX,X>X2X$XP.~ 0 & ; & + , y ! d.oX5X:X[.[.[.[.[.[.[.[.[.[.[.[.[.[.[.[.[.[.[.",
"[.:X..3 Z K 7.6.7.7.5.S J 6.7.2.c ~ #X2X}.[.|.,X4XOXP.h.s.s.h.A.T.#X5X<X:X[.[.[.[.[.[.[.[.[.[.[.[.[.[.[.[.[.[.[.[.",
"}.:Xs.5 J J 7.7.7.7.5.5.A D 3.5.b s.1X}.[.[.[.[.>X8X4X4X%X4X4X6X<X,X:X}.[.[.[.[.[.[.[.[.[.[.[.[.[.[.[.[.[.[.[.[.[.",
"[.:Xk.6 K G 6.7.7.7.7.7.3.G 5 x + n.}.[.[.[.[.[.[.|.|.>X0X>X|.|.|.[.[.[.[.[.[.[.[.[.[.}.[.[.[.[.[.[.[.[.[.[.[.[.[.",
"[.:XT.s F S 2.7.7.5.7.5.J G v + o R i._.[.[.[.[.[.[.[.[.[.[.}.[.[.[.[.[.[.[.[.[.[.[.[.[.[.[.[.[.[.[.[.[.[.[.[.[.[.",
"[.>X$X/ Z K J 7.7.7.7.5.3.5.5.1.D c > U N.[.[.[.[.[.[.[.[.[.[.[.[.[.[.[.[.[.[.[.[.[.[.[.[.[.[.[.[.[.[.[.[.[.[.[.[.",
"[.|.5XX.x 2.Z 5.7.7.7.7.7.5.7.7.7.6.2.3 y W.}.[.[.[.[.[.[.[.[.[.[.[.[.[.[.[.[.[.[.[.[.[.[.[.[.[.[.[.[.[.[.[.[.[.[.",
"[.[.8XH.w C J J 7.6.6.7.7.6.5.7.6.7.7.3.x ' ].}.[.[.[.[.[.[.[.[.[.[.[.[.[.[.[.[.[.[.[.[.[.[.[.[.[.}.[.[.[.[.[.[.[.",
"}.}.2X$X..> J Z K 7.7.7.6.6.6.6.6.6.6.7.F s /.>X;X{.{.{.{.:X;X;X;X:X;X{.{.{.:X|.}.:X}.}.[.[.[.[.[.[.[.[.}.[.[.[.[.",
"[.'.(.~.h.p > J Z J 5.6.7.7.6.7.6.6.6.7.K 6 A..XU.P.I.P.Y.Y.U.I.P.U.P.P.I.Y.~.I.^.~.^.*X X[.[.[.[.[.[.[.[.[.[.[.[.",
"|.^.j.h.s...q : S J G K 3.6.7.7.6.6.7.6.n e d.j.h.l.h.h.l.h.h.l.h.j.j.j.j.h.z.h.h.h.k.Y.{.[.[.[.[.[.[.[.[.[.[.[.[.",
"0X4X.XA.z.a...y ; n K J G J K 2.6.6.F v @ ! h.d.d.d.d.h.d.d.d.d.d.h.d.d.h.b.J.P.Y.U.OX6X:X[.[.[.[.[.[.[.[.[.[.[.[.",
">XqX6X$XoXY.A.s.R $ 2 G 1.1.J Z x 3 @ o p X.d.d.d.d.d.d.d.d.d.d.d.d.z.l.U.4X6X6X6X9X9X2X[.[.[.[.[.[.[.[.[.[.[.[.[.",
"}.>XqXeXwX6X6X@XXXj.m $ ; x v : . 8 R o.h.c.k.k.k.k.h.h.h.h.h.k.k.A.I.#XtX0X0X0X0X>X|.}.[.[.[.[.[.[.[.[.[.[.[.[.[.",
"[.[.}.:X2X0X0XwXtX$X.Xk.[ p y ! s.P.OX$X=X4X$X4X$X$X@X@X@X@X@X$X=X7XtXqX1X|.[.[.[.[.[.[.[.[.[.[.[.[.[.[.[.[.[.[.[.",
"[.[.[.[.}.[.}.:X>X<X-X=X@XXXU.@X=X5X8X9XqXqX9XqX9X8X8X8X9X8X8X9XqX1X>X|.[.[.[.[.[.[.[.[.[.[.[.[.[.[.[.[.[.[.[.[.[.",
"[.[.[.[.[.[.[.[.[.}.|.>X9X6X9X,X:X}.}.|.}.}.|.}.}.|.}.}.}.}.}.|.}.[.[.[.[.[.[.[.[.[.[.[.[.[.[.[.[.[.[.[.[.[.[.[.[."
};
