/* XPM */
static char *cuphead11_110[] = {
/* columns rows colors chars-per-pixel */
"63 83 219 2 ",
"   c #010101",
".  c #0B0303",
"X  c #0B0B0B",
"o  c #090807",
"O  c #1C0303",
"+  c #120D0B",
"@  c #130804",
"#  c #1C130C",
"$  c #17110A",
"%  c #131413",
"&  c #191512",
"*  c #1E1913",
"=  c #1C1C1C",
"-  c #0F1010",
";  c #250705",
":  c #380707",
">  c #25190B",
",  c #2A1D0D",
"<  c #26140B",
"1  c #251C16",
"2  c #381C14",
"3  c #31210E",
"4  c #3A250E",
"5  c #292117",
"6  c #3A2711",
"7  c #3F2A11",
"8  c #352716",
"9  c #2F200E",
"0  c #1F1F20",
"q  c #242424",
"w  c #2A2624",
"e  c #2C2C2C",
"r  c #2F2821",
"t  c #302D2D",
"y  c #343433",
"u  c #353939",
"i  c #3C3C3C",
"p  c #3B3534",
"a  c #2F3131",
"s  c #480403",
"d  c #580403",
"f  c #4E1414",
"g  c #6B0303",
"h  c #670504",
"j  c #780303",
"k  c #671E1E",
"l  c #452E13",
"z  c #4B3214",
"x  c #4C361C",
"c  c #5C3E1A",
"v  c #553918",
"b  c #472929",
"n  c #453D3B",
"m  c #55342A",
"M  c #662525",
"N  c #7D2E2E",
"B  c #6D3F3F",
"V  c #5E401D",
"C  c #63431C",
"Z  c #69461C",
"A  c #6E491D",
"S  c #734C1E",
"D  c #784F1F",
"F  c #7C521F",
"G  c #5D4120",
"H  c #5A4D3D",
"J  c #644622",
"K  c #6C4A22",
"L  c #744E22",
"P  c #7B5222",
"I  c #775226",
"U  c #674E30",
"Y  c #65523C",
"T  c #3E3F40",
"R  c #3A4241",
"E  c #434343",
"W  c #4B4B4B",
"Q  c #474847",
"!  c #554B4B",
"~  c #51504F",
"^  c #5F574E",
"/  c #4B5252",
"(  c #535353",
")  c #555A5A",
"_  c #5B5C5C",
"`  c #585757",
"'  c #684444",
"]  c #615F5F",
"[  c #6C5B53",
"{  c #5C6262",
"}  c #596666",
"|  c #597878",
" . c #636363",
".. c #6C6C6C",
"X. c #656C6C",
"o. c #667676",
"O. c #737373",
"+. c #747B7C",
"@. c #7B7C7C",
"#. c #787676",
"$. c #706F6F",
"%. c #880404",
"&. c #980808",
"*. c #9B1414",
"=. c #AC0202",
"-. c #A70908",
";. c #B30101",
":. c #BB0202",
">. c #8A1F20",
",. c #8C2321",
"<. c #93302F",
"1. c #CB0100",
"2. c #C30202",
"3. c #D40000",
"4. c #D90000",
"5. c #82541F",
"6. c #825622",
"7. c #855823",
"8. c #8C5C23",
"9. c #915F23",
"0. c #976223",
"q. c #986324",
"w. c #894646",
"e. c #925957",
"r. c #887D7B",
"t. c #8A7470",
"y. c #7E7F80",
"u. c #6C8282",
"i. c #7F8181",
"p. c #718A8A",
"a. c #758686",
"s. c #7C9595",
"d. c #7BA9A9",
"f. c #838384",
"g. c #858A8A",
"h. c #8B8C8C",
"j. c #8A8583",
"k. c #948988",
"l. c #8E9191",
"z. c #829797",
"x. c #939494",
"c. c #979898",
"v. c #9C9C9C",
"b. c #989796",
"n. c #8F8F90",
"m. c #A79A99",
"M. c #A18887",
"N. c #88A7A7",
"B. c #9FA0A0",
"V. c #94A9A9",
"C. c #99B7B7",
"Z. c #8DB7B7",
"A. c #A3A4A4",
"S. c #A5ABAB",
"D. c #ABACAC",
"F. c #AEA4A4",
"G. c #AFB0B0",
"H. c #B3B4B4",
"J. c #BAB7B7",
"K. c #B7B9B9",
"L. c #BBBBBB",
"P. c #B0B0AF",
"I. c #C0BEBE",
"U. c #95BFC0",
"Y. c #BFBFC0",
"T. c #9ACDCD",
"R. c #94CACA",
"E. c #9CD3D3",
"W. c #B5C9C9",
"Q. c #A3D4D4",
"!. c #A3DCDC",
"~. c #ACDEDE",
"^. c #AFD5D5",
"/. c #B9D9D9",
"(. c #A4C7C7",
"). c #ABECEC",
"_. c #A9E4E4",
"`. c #BBE4E4",
"'. c #B4EBEB",
"]. c #BBEDED",
"[. c #B6E7E6",
"{. c #ADF4F4",
"}. c #AFFFFF",
"|. c #B3F3F3",
" X c #BDF4F4",
".X c #B2FFFF",
"XX c #BBFEFE",
"oX c #C3C3C3",
"OX c #CCCCCC",
"+X c #C7C8C8",
"@X c #D0CFCF",
"#X c #C9D8D8",
"$X c #D4D4D4",
"%X c #D8D7D7",
"&X c #D6D8D8",
"*X c #DCDCDC",
"=X c #E0DFDF",
"-X c #C5E6E6",
";X c #DEEEEE",
":X c #D9E7E7",
">X c #C3FDFD",
",X c #CBFDFD",
"<X c #C1F3F3",
"1X c #D6F5F5",
"2X c #DBF5F5",
"3X c #D3FAFA",
"4X c #DAF9F9",
"5X c #E3E3E3",
"6X c #E8E7E7",
"7X c #E4ECEC",
"8X c #ECECEC",
"9X c #E3F4F4",
"0X c #EBF4F4",
"qX c #E5FAFA",
"wX c #EAF9F9",
"eX c #F4F4F4",
"rX c #F7F8F8",
"tX c #F9F9F9",
"yX c #F0EFEF",
/* pixels */
"}.}.}.}.}.}.}.}.}.}.}.}.}.}.}.}.}.}.}.}.}.}.}.}.}.}.}.}.}.}.}.}.}.}..X}.'.+.a.a.x.'.}.}.}.}.}.}.}.}.}.}.}.}.}.}.}.}.}.}.}.}.}.",
"}.}.}.}.}.}.}.}.}.}.}.}.}.}.}..X}.}.}.}.}.}.}.}.}.}.}.}.}.}.}.}.}.}.}..X#X .j.( $.Z..X}.}.}.}.}.}.}.}.}.}.}.}.}.}.}.}.}.}.}.}.",
"}.}.}.}.}.}.}.}.}.}.}.}..X).s.d.E._._.)..X}.}.}.}.}.{.).}.}.}.}.}.}.}.,X6Xg.#.l.x.g.{.}.}.}.}.}.}.}.}.}.}.}.}.}.}.}.}.}.}.}.}.",
"}.}.}.}.}.}.}.}..X}.}.}..XV.= y T i u Q o.p.p.p.p.u.) _ !..X}.}.}.}.}.XX7X$Xc.$.x...).}.}.}.}.}.}.}.}.}.}.}.}.}.}.}.}..X}.}.}.",
"}.}.}.}.}.}.}.}.}.}.}.}.4X#.W @XY.f.f j d : p W W W y + s..X}.}.}.}..X.X>X&XoXG._ ` -X}.}.}.}.}.}.}.}.}.}.}.}.}.}.}.}.}.}.}.}.",
"}..X}.}.}.}.}.}.}.}.}..X;X_ B.tXtXL.*.4.3.>.Y.6X5X$Xh./ E _.}.}.}.}.).R.!.#.$.W.K.S..X}.}.}.}.}.}.}.}.}.}.}.}.}.}.}.}.}.}.}.}.",
"}.}.}.}.}.}.}.}.}.}.}.XX:X .+XtXtXm.-.4.1.<.*XrXeXG.oXH.q z..X}.}.}.V.+.#. ...W.6X0X.X}.}.}.}.}.}.}.}.}.}.}.}.}.}.}.}.}.}.}.}.",
"}.}.}.}.}.}.}.}.}.}.}.3X5X..+XtXtXM.;.4.2.e.6XrX$Xv.8X8X_ u ~.}.}.>XD.f.x. .D.<X3X3X.X}.}.}.}.}.}.}.}.}.}.}.}.}.}.}.}.}.}.}.}.",
"}.}.}.}.}.}.}.}.}.}.}.,XyXj._ v.$Xk.=.3.1.e.8X8Xx.+XrX6X[ @ s..X}.>X$Xc.@._ $XXX}.}.}.}.}.}.}.}.}.}.}.}.}.}.}.}.}.}.}.}.}.}.}.",
"}.}.}.}.}.}.}.}.}.}.}.XX0XoX..y T b g =.;.7.*XY.A.rX5XM.*.d w T.}.>X8X*XL.H.].}.}.}.}.}.}.}.}.}.}.}.}.}.}.}.}.}.}.}.}.}.}.}.}.",
"}.}.}.}.}.}.}.}.}.}.}.}.3X5X$XK.f.W e < : 1 W ` +XI.t.&.4.;.; / _..X,X;X5X0XXX}.}..X}.}.}.}.}.}.}.}..X}.}.}.}.}..X}.}.}.}.}.}.",
"}..X}.}.}.}.}.}.}.}.}.}..X3X;X5X%X+XH.g.O.) T = ' ,.;.3.3.:.m % u.}.}.XX,XXXXX<X~.E.Q.[.].].<X].]. X.X.XXX,X,XXX}..X}.}.}.}.}.",
"}.}.}.}.}.}.}.}.}.}.}.}..X}.XXXX1X;X5X*X%X@XoX_ ; =.4.3.:.,.K...= N.>X'.T.C.o.( T y u W ! ( ` ~ ~ ] } } X.#.O.} X.N.E.)..X}.}.",
"}.}.}.}.}.}.}.}..X}.}.}..X}.}.}..X.X>X2X9X;X5XL.u s ;.*.w.J.eX&XE e  .W w q e y E W ~ ( ~ ~ ~ ) ( Q E E Q W W E y y y X.!..X}.",
"}.}.}.}.}.}.}.}.}.}.}.}.}.}.}.}.}.}.}..X.X.X9X=XB.w b F.*XrXeX%X' ; + ` f.v.H.G.D.b.g.f.h.j.@.O...] _ _ _  ...A.oXH.v.W +..X}.",
"}.}.}.}.}.}.}.}.}.}.}.}.}.}.}.}.}.}.}.}.}..XXX;XOX( = v.eXrX*Xt.-.j $  .@. .W T y e y n ( _ $.#. ...O.@.h.@._ ..%X*X*Xg.y E..X",
"}.}.}.}.}.}.}.}.}.}.}.}.}.}.}.}.}.}.}.}.}.}.}. XO.e ~ u v.m.w.=.1.:.g . = ..g.v.A.D.K.L.K.J.F.A.A.v.v.v.v.v.B.H.W.F.j. .q p..X",
"}.}.}.}.}.}.}.}.}.}.}.}.}.}.}.}.}.}.}.}.}.}..XT.= ~ OXg.u M >.<.<.<.N m W x.A.B.v.c.b.x.c.B.A.D.H.D.A.B.x.h.@.O. .O.P.=X..R ).",
"}.}.}.}.}.}.}.}.}.}.}.}.}.}.}.}..X}.}.}..X.X>Xl.- Q $.h.O.j.b.F.S.S.v.c.x.n.n.x.v.B.b.n.l.l.h.i.i.@.@.@.n.v.H.@XH.J.tXtXB.e T.",
"}.}.}.}.}.}.}.}.}.}.}.}.}.}.}.}.}.}.}.}..X.X~.W q A.v.f.O... . ...#.O.$.....O.@.@.y. .O.B.A.P.Y.OX*X8XyXeXtXtX8XD.S.tXrXY.w g.",
"}.}.}.}.}.}.}.}.}.}.}.}.}.}.}.}.}.}.}.}.{.z.Q X y OX=X*X$X@X+X+XOXOX@X$X$X%X%X%X&X&XA.Y.rXrXrXrXrXrXeXeXeXeX8X..q g.tXOXW X ( ",
"}.}.}.}..X}.}.}.}.}.}.}.}.}.}.}.}.}.}.{.p.q ` X.y oX*X*X*X*X*X*X*X*X*X*X*X*X*X*X*X*XA.oXrXeXeXeXeXeXeXeXeXeX@Xq   $.rXK.-   W ",
"}.}.}.}.}.}.}.}.}.}.}..X}.}.}.}.}.}..XN.e i.&XS.w S.=X&X*X*X*X*X*X*X*X*X*X*X*X*X*X*XA.I.rXeXeXeXeXeXeXeXeXrXH.%    .eXoX=   W ",
"}.}.}.}.}.}.}.}.}.}.}.}.}.}.}.}.}.}.)./ Q OX*XoXa O.*X*X*X*X*X*X*X*X*X*X*X&X*X*X*X*XB.J.rXeXeXeXeXeXeXeXeXrXb..   ] eX%Xy   / ",
"}.}.}.}.}.}.}.}.}.}.}.}.}.}.}.}.}..XC.q j.*X*XG.q W &X*X*X*X*X*X&X*X*X*X*X&X*X*X*X*XD.D.rXeXeXeXeXeXeXeXeXrXA.=   ` yXeXg.% W ",
"}.}.}.}.}.}.}.}.}.}..X}.}.}.}.}.}.,Xv.= c.*XOXW a y Y.*X*X*X&X*X*X*X&X*X*X*X*X*X*X*XJ.l.eXeXeXeXeXeXeXeXeXrX%X~    .eXOX` X W ",
"}.}.}.}.}.}.}.}.}.}.}.}.}.}.}.}.}.,XA.= n.5Xc.w #.e v.=X*X&X*X*X*X*X*X*X*X*X*X*X*X*X+Xh.5XeXeXeXeXeXeXeXeXrXc.-   y.tXD.%   ..",
"}.}.}.}.}.}.}.}.}.}.}.}.}.}.}.}.}.,XS.= f.5Xc.= @.E _ $X*X*X*X*X*X&X*X*X*X*X*X&X*X*X%Xl.Y.rXeXeXeXeXeXeXeXeXx.o % H.tXoX= % D.",
"}.}.}.}.}.}.}.}.}.}.}.}.}.}.}.}.}.>XoXq ` $XI.e T { q B.=X*X*X&X*X%X*X*X&X*X*X*X*X*X*XK.n.8XeXeXyXeXeXeXeXeX*X..i B.A.#.q E -X",
"}.}.}.}.}.}.}.}.}.}.}.}.}.}.}.}.}.>X=X_ 0 D.*Xg.1 q X ~ @X*X*X*X*X*X*X*X*X*X*X*X$X%X*X*Xv.G.eXeXeXeXeXeXeXeXrXJ.a.' %.%.: n /.",
".X}.}.}.}.}.}.}.}.}.}.}.}.}.}.}.}.XX7XD.w Q oX&XB._ Q 0 v.*X*X*X*X*X*X*X*X*X$Xh.~ ..Y.*X@Xn.+XeXrXeXeXeXrXeX@Xi.H.Y :.4.%.q Q.",
"}.}.}.}.}.}.}.}.}.}.}.}.}.}.}..X.X}.3X*Xi.% { $X=X&X+XE E +X*X*X*X*X&X*X*X*Xi.-   o y B.%X+Xx.A.@X=XeXyX6XJ.f.J.%Xj.k &.d ` -X",
"}.}.}.}.}.}.}.}.}.}.}..X}.}.{.R.d.d.W.5XOX_ & O.@X=X:XB.q @.*X*X*X*X*X*X*XOXi         = ..L.$XH.x.h.v.c.h.x.oX*X*X&Xi.1 ] @X3X",
"}.}.}.}.}.}.}.}.}.}..X|.E.E.| w ( .._ i.G.c._ & W h.P.G.i = v.*X*X%X&X*X*X%X_             e  .G.$X@XoXK.K.@X*X*X*XOXW T OX9XXX",
"}.}.}.}.}.}.}.}.}..X).u.u u Q _ *XtX$X` / ( y -   X 0 0 %   e v.*X*X*X*X*X*XS.1 O s : X       0 W $.O.( T Q v.*X&X..= S.9X.X}.",
"}.}.}.}.}.}.}.}.}.).} = #.OX5XB.K.tXrX$Xf.K. .            o o q f.oX*X*X*X*X%Xg.M :.2.h : <                 O.*Xn.=  .7XXX}.}.",
"}.}.}.}.}.}.}.}..Xu.= h.yXtXtXoXB.rXeXeX+Xm.+Xy             o   X u B.*X*X*X*X&XF.w.-.;.;.=.:           o Q K.B.q W @X,X}.}.}.",
"}..X}.}.}.}.}.}.~.y _ 8XtX8XOXg.f.eXeXrXeXS.D.@.o % %               q f.+X*X*X*X*X+Xm.w.<.-.g . o - q E f.oXh.0 i I.4X}.}..X}.",
"}.}.}.}.}.}..X.XS.1 S.eXY.x.v.H.c.H.eXeXtX5Xx.#.W A.c.y               o T x.OX*X*X*X*X$XL.m.r.O.f.c.Y.&XY.] = ~ oXqXXX}.}.}.}.",
"}.}.}.}.}.}.}.>XS.e A.v.x.@XeXtX&X .c.H.*XtXI.y g.8XK.q                   - W x.oX*X*X*X=X=X=X=X=X*XOXc.u 0 O.$X9XXX}.}.}.}.}.",
"}.}.}.}.}.}..X4X%X_ u A.yXrXeXrXA.h.K.x.r.6X8XW l.3Xg.o                       - a ] f.c.S.D.A.h.n.@.E 0 T v.5XwXXX.X}.}.}.}.}.",
"}.}.}.}.}.}..X3X5X$. .yXeXrXeX+X_ ( R t q f.5X..o.`.(                               o - & % q W y.W o e W $.A.].}..X}.}.}.}.}.",
"}.}.}.}.}.}.}..X-XW c.tXrX=Xf.a $ , l z 9 & ( E +.#Xy                                     = c.5XeXG.u ..A.x.u a..X}.}.}.}.}..X",
"}.}.}.}.}.}..X.X#Xi ..8XH.W > z P 8.9.0.8.Z # o b.+Xq                                   % c.eXtXrXL.Y.yXtXrXg.y ^..X}.}.}.}.}.",
"}.}.}.}.}..X}.>X5XO.q  .y > S 0.q.q.0.0.q.q.F > ( h.&           @ .                      .8XeXeXeXeXeXeXeX8XA.0 S..X}.}.}.}.}.",
"}.}.}.}.}.}..X.X7XL.E % 5 A q.q.0.0.0.0.0.0.0.S # # O         . j &.h s ; o           % D.eXeXeXeXeXeXeXeX$Xj.y _ Q.}.}.}.}.}.",
"}.}.}.}.}.}..X}.4X5Xh.- * 6.q.0.0.0.0.0.0.0.0.0.z ; g @         d 1.3.1.:.&.d ;       q @XtXeXeXeXeXeXeXeXeX0XOXQ _ '..X}.}.}.",
"}.}.}.}.}.}.}.}.XX9Xl.X > 8.q.0.0.0.0.0.0.0.0.0.7.3 s ;         . g 1.3.4.3.1.=.g . - ` 8XrX5X8XeXeXeXeXeXeXeXtXc.w C..X}.}.}.",
"}.}.}.}.}.}.}.}.}.4XH.1 > 8.q.0.0.0.0.0.0.0.0.0.q.S # .           . d =.1.4.4.4.%.r n.h.$XA.c.5XeXeXeXeXeXeXeXrXP.= N.XX.X}.}.",
"}.}.}.}.}.}.}.}.}.4X*X@.* C 0.q.0.0.0.0.0.0.0.0.0.0.Z #               ; s g %.j : @.*Xb.@XH.@X*XeXeXeXeXeXeXrXeX@.t (.}.}.}.}.",
"}.}.}.}.}.}.}.}.}.>X7X+XW + c 0.0.0.0.0.0.0.0.0.0.0.0.S #                   .   = K.yXn.:X*Xc.D.eXeXeXeXeXyXoXx.e #.1X}.}.}.}.",
"}.}.}.}.}.}.}.}.}.}.>X:XH.E + 7 F 0.0.0.0.0.0.0.0.0.q.q.V .                     . i.yXv.+X6X$X6X%X8XeXeXeXeXOXQ i &X,X}.}.}.}.",
"}.}.}.}.}.}.}.}.}.}..X2X=XH. .= $ l S 0.0.0.0.0.0.0.0.8.c 3 +                     a %XL.A.tX*Xx.S.8XeXeXeXeXeXO.Q ;X.X}.}.}..X",
"}.}.}.}.}.}.}.}.}.}.}..X2X=X+XA. .q + v 0.0.0.0.0.q.8.c S 9.Z ; j j s ;   o X o o % c.5Xh.=X6X@X8XeXeXeXeXeXeX$.E -X}.}.}.}.}.",
"}.}.}.}.}.}.}.}.}.}.}.}..X9X8X*XOXD.T > 8.q.0.0.0.0.A Z q.8.J < %.;.=.d w f.n.n.n.#.Q v.~ f.rXtXrXrXrXeXeXtX5XE ) <X}.}.}.}.}.",
"}.}.}.}..X}.}.}.}.}.}.}..X.X,XwX8X5Xf.+ z 9.0.0.q.9.C 8.0.U x.#.m b 2 p g.*X=X=X=X*Xc.q = q i.oX*X$XB.$.x.B.] q S..X}.}.}.}.}.",
"}.}.}.}.}.}.}.}.}.}.}.}.}.}.}..X,X0X+X` + l P 9.q.7.C 0.5.#.&X&XOXK.G.oX&X*X*X&X*X@X$.= r._ = q y e = q E E _ c.;X.X}.}.}.}.}.",
"}.}.}.}.}.}.}.}.}.}.}.}.}.}.}..X}.,X5XW. .= # 3 l 6 l 0.F j.=X*X*X*X=X*X*X*X*X=X+XX.% ..$X+Xx. .W ) j.H.I.oX$X7X>X}.}.}.}.}.}.",
"}.}.}.}.}.}.}..X}.}.}.}.}.}.}.}.}..X1X5X+XA.#.] ) q , 8.Z p A.@X*X*X*X*X*X*X&XD.W % _ $X9X5X*X$X$X$X*X8X8X;X1X>X}.}.}.}.}.}.}.",
"}.}.}.}.}.}.}.}.}.}.}.}.}.}.}.}.}.}..X2X8X=X%X$X@Xg.5 3 @ . a W y.G.+X+XL.v._ = = #.*X4X.X,X2X2X;X2X,XXXXX}.}.}.}.}.}.}.}.}.}.",
"}.}.}.}.}.}.}.}.}.}.}.}.}.}.}.}.}.}.}..X>X1X9X7X7X@Xb.E o T v.f.` u u u w 0 q _ S.5XwXXX}.}.}..X.X}.}.}.}.}.}.}.}.}.}.}.}.}.}.",
"}.}.}.}.}.}.}.}.}.}.}.}.}.}.}.}.}.}.}.}.}..X.X.X,X7XD.t n K.*X*X%X#.t ..+.n.H.%X8X3X.X.X}.}.}.}.}.}.}.}.}.}.}.}.}.}.}.}.}.}.}.",
"}.}.}.}.}.}.}.}.}.}.}.}.}.}.}.}..X}..X.X.X!.Z.R.).(.H a P.*X*X*XH.i i.%X*X5X8X0X3X.X}.}.}.}.}.}.}.}.}.}.}.}.}.}.}.}.}.}.}.}.}.",
"}.}.}.}.}.}.}.}.}.}.}.}.}.}.}..X{.T.d.o.+.R 1 r E a R G.*X*X*X@X) ~ *XeX4X4X>X.X}.}.}.}.}.}.}.}.}.}.}.}.}.}.}.}.}.}.}.}.}.}.}.",
"}.}.}.}.}.}.}.}.}.}.}.}.}.}..X^.X.q 1 4 6 , S F v W Y.*X*X*X%X@.e H.3XXX.X}.}.}.}.}.}.}.}.}.}.}.}.}.}.}.}.}.}.}.}.}.}.}.}.}.}.",
"}.}.}.}.}.}.}.}.}.}.}.}.}.}.`.` + z F 0.S V q.A [ L.*X*X*X=Xc.w @.2X.X.X}.}.}.}.}.}.}.}.}.}.}.}.}.}.}.}.}..X}.}.}.}.}.}.}.}.}.",
"}.}.}.}.}.}.}.}.}.}.}.}.}..Xg.- v q.q.q.7.V 8.7.Y A.$X*X=XK.a ~ *X,X}.}.}.}.}.}.}.}.}.}.}.}.}.}.}.}.}.}.}.}.}.}.}.}.}.}.}.}.}.",
"}..X}.}.}.}.}.}.}.}.}.}..X:XE 3 8.q.q.q.0.P c 7.8.U r.K.K.^ $ x.4X}.}.}.}.}.}.}.}.}.}.}.}.}.}.}.}.}.}.}.}.}.}.}.}.}.}.}.}.}.}.",
"}..X}.}.}.}.}.}.}.}.}.}.>XoX= v q.q.0.0.q.0.F v P 9.L Y H I l { ~.Q.Q.'..X.X}.}.}.}.}..X}.}.}.}.}.}.}.}.}.}.}.}.}.}.}.}.}.}.}.",
"}.}.}.}.}.}.}.}.}.}.}.}.>Xi.# v q.q.0.0.0.0.0.7.V V P 9.8.q.V & u 5 q i o.E..X}.}.}.}.}.}.}.}.}.}.}.}.}.}.}.}.}.}.}.}.}.}.}.}.",
"}.}.}.}.}.}.}.}.}.}..X.X4XO.x C P q.0.0.0.0.0.q.0.I V G I C 7 l C C v 4 $ u N.}.}.}.}.}.}.}.}.}.}.}.}.}.}.}.}.}.}.}.}.}..X}.}.",
"}.}.}.}.}.}.}.}.}.}.}..XqXh.x 6.c 7.q.q.0.0.0.0.q.q.8.I V x F 0.q.q.q.q.A > = N..X}.}.}.}.}.}.}.}.}.}.}.}.}.}.}.}.}.}.}.}.}.}.",
"}.}.}.}.}.}.}.}.}.}.}.}.9XoXn V P V 7.q.0.0.q.q.0.q.8.V A 9.q.0.0.0.0.0.q.F # E '.}.}.}.}.}.}.}.}.}.}..X}.}.}.}.}.}.}.}.}.}.}.",
"}.}.}.}.}.}.}.}.}.}.}.}.4X5Xx.r C I G P 0.q.0.q.0.0.9.8.q.q.0.0.0.0.0.0.0.0.z t ~.}.}.}.}.}.}..X}.}.}.}.}.}.}.}.}.}.}.}.}.}.}.",
".X.XXX X X X X].'.'.'.'.`.$XH...5 C 6.J C 8.q.q.0.0.0.0.0.0.0.0.0.0.0.0.0.0.4 ` ].}.}.}..X.X.X.X}.}.}.}.}.}.}.}.}..X}.}.}.}.}.",
".X/.K.P.D.D.D.A.A.A.S.A.B.v.l.i.( * z 7.L V L 8.0.0.0.0.0.0.0.0.0.0.0.0.q.S 1 f.W.W.W.#X-X#X-X'. X.X}.}.}.}.}.}.}.}.}.}.}.}.}.",
"XX#XF.c.x.x.x.x.x.x.l.x.x.x.n.j.@.` q 9 Z P L J K P 8.0.0.q.q.q.q.0.0.7.C 8 W h.c.c.v.v.v.v.A.S.H.^.|..X.X}.}.}.}.}.}.}.}.}.}.",
"qXeX=XW.S.v.c.c.l.x.c.c.x.g.h.g.g.y...R * 4 Z P L J J Z A F I I P L J V 1 / f.k.h.l.x.x.l.n.x.x.c.A./..X}.}.}.}.}.}.}.}.}.}.}.",
",XwXeX8X5X*X$XOXOXOX$X$X+XL.H.H.P.S.B.x.@.~ w 9 z Z L K K K K V K K Z l w h.S.S.A.B.v.A.A.F.S.H.K.@X7X.X}.}.}.}.}.}.}.}.}.}.}.",
"}.XX>XqX9XeXeXeXeXeXeX0XeXyX8X8X8X6X5X*X$XOXS.X.i w 5 5 3 6 7 6 3 , * i h.*X8X5X5X5X5X5X5X6X6X8X0XeX4X.X}.}.}.}.}.}.}.}.}.}.}.",
"}.}.}.}.}.>X>XXX>X>X>X>X,XqXqXqXwXqXqXqX2X7X=X$XoXS.x.#._ ( ( ( _ ..h.oX6X9XqXqX9X9XqXqXqXqXqXqX4X>X.X}.}.}.}.}.}.}.}.}.}.}.}.",
"}.}.}.}.}.}.}.}.}.}.}.}..X.X.X.X.X}..X.X}.XX3X;X5X5X*X*XOXOX@X@XOX*X6XwX4X.X.X}.}..X}.}.}.}..X}.}.}.}.}.}.}.}.}.}.}.}.}.}.}.}.",
"}.}.}.}.}.}.}.}.}.}.}.}.}.}..X}.}.}.}.}.}.}..X.X,X3X1X0X8X8X0XeXeX1X3XXX.X}.}.}.}.}.}.}.}.}.}.}.}.}.}.}.}.}.}.}.}.}.}.}.}.}.}."
};
