/* XPM */
static char *cuphead14_110[] = {
/* columns rows colors chars-per-pixel */
"68 82 230 2 ",
"   c #010101",
".  c #0B0302",
"X  c #0C0C0B",
"o  c #0B0905",
"O  c #130303",
"+  c #130C06",
"@  c #120D09",
"#  c #1B0202",
"$  c #15110C",
"%  c #1A130B",
"&  c #1E1407",
"*  c #0F1010",
"=  c #131414",
"-  c #1B1513",
";  c #171918",
":  c #1B1B1B",
">  c #1B1915",
",  c #280606",
"<  c #370504",
"1  c #22160A",
"2  c #251A0C",
"3  c #2A1D0D",
"4  c #241B18",
"5  c #381716",
"6  c #32220E",
"7  c #3A250E",
"8  c #29221B",
"9  c #3E2911",
"0  c #362511",
"q  c #1F2021",
"w  c #242424",
"e  c #2B2B2B",
"r  c #2A2928",
"t  c #342B2A",
"y  c #36322D",
"u  c #333434",
"i  c #3B3C3C",
"p  c #383737",
"a  c #460303",
"s  c #490606",
"d  c #530202",
"f  c #5A0100",
"g  c #4E1919",
"h  c #680505",
"j  c #7B0101",
"k  c #740202",
"l  c #761D1D",
"z  c #432D14",
"x  c #4B3214",
"c  c #453014",
"v  c #513616",
"b  c #563A19",
"n  c #5C3E1A",
"m  c #553917",
"M  c #412A0F",
"N  c #76201F",
"B  c #403F3F",
"V  c #5D3535",
"C  c #513B3A",
"Z  c #482828",
"A  c #742E2D",
"S  c #5F401C",
"D  c #63431C",
"F  c #69461D",
"G  c #6D491E",
"H  c #734C1E",
"J  c #7A511F",
"K  c #5A4122",
"L  c #654826",
"P  c #754F21",
"I  c #7B5221",
"U  c #745126",
"Y  c #675036",
"T  c #3A4545",
"R  c #434443",
"E  c #454A4A",
"W  c #4B4C4C",
"Q  c #484747",
"!  c #584A48",
"~  c #4C5252",
"^  c #4F5B5B",
"/  c #535454",
"(  c #57595A",
")  c #5B5B5B",
"_  c #575757",
"`  c #705751",
"'  c #5F6060",
"]  c #5A6868",
"[  c #636464",
"{  c #676868",
"}  c #6B6B6B",
"|  c #6D6665",
" . c #6C7373",
".. c #677777",
"X. c #747473",
"o. c #7B7C7C",
"O. c #767A79",
"+. c #796666",
"@. c #6E6358",
"#. c #830202",
"$. c #8B0303",
"%. c #940101",
"&. c #990101",
"*. c #990A0A",
"=. c #8C1918",
"-. c #991515",
";. c #A30202",
":. c #AB0202",
">. c #AD0808",
",. c #BC0101",
"<. c #B40505",
"1. c #A71A1A",
"2. c #972524",
"3. c #9C3838",
"4. c #853333",
"5. c #A32D2C",
"6. c #C40000",
"7. c #CB0000",
"8. c #D40000",
"9. c #D80000",
"0. c #82551F",
"q. c #825621",
"w. c #865923",
"e. c #8B5C23",
"r. c #905F24",
"t. c #966224",
"y. c #996425",
"u. c #954949",
"i. c #8D5555",
"p. c #8E5050",
"a. c #826361",
"s. c #837C79",
"d. c #9A7C7B",
"f. c #9A6867",
"g. c #A37B7A",
"h. c #A54747",
"j. c #88817E",
"k. c #7C8383",
"l. c #758686",
"z. c #7A9999",
"x. c #6E8686",
"c. c #848484",
"v. c #878989",
"b. c #8C8C8C",
"n. c #888682",
"m. c #93918E",
"M. c #8E9191",
"N. c #869797",
"B. c #939393",
"V. c #979898",
"C. c #9B9B9B",
"Z. c #989797",
"A. c #9D8483",
"S. c #A19A99",
"D. c #9FA09F",
"F. c #A0A09F",
"G. c #88A8A8",
"H. c #9AA4A4",
"J. c #8AB6B6",
"K. c #95B7B7",
"L. c #A3A4A3",
"P. c #A8A6A5",
"I. c #A7A9A9",
"U. c #ACACAC",
"Y. c #A9A8A7",
"T. c #B2AEAD",
"R. c #B7B0AF",
"E. c #A9B4B4",
"W. c #B3B3B3",
"Q. c #B6B8B8",
"!. c #BBBBBB",
"~. c #B9B6B6",
"^. c #AEB0AF",
"/. c #BFC0BF",
"(. c #99C6C6",
"). c #9BD7D7",
"_. c #92CFD0",
"`. c #A4CECE",
"'. c #A9C7C7",
"]. c #B9C7C7",
"[. c #A4D4D4",
"{. c #A9DADA",
"}. c #B5DCDC",
"|. c #B6D4D4",
" X c #ACE4E4",
".X c #ABEEEE",
"XX c #B7E8E8",
"oX c #ABF3F3",
"OX c #AFFFFF",
"+X c #B5F4F4",
"@X c #B2FEFE",
"#X c #BBFEFE",
"$X c #BCF5F5",
"%X c #C4C4C4",
"&X c #C6C9C9",
"*X c #CCCCCC",
"=X c #CBC5C5",
"-X c #CDD6D6",
";X c #D4D4D4",
":X c #D6D9D9",
">X c #DBDBDB",
",X c #D8D7D7",
"<X c #CFD0CF",
"1X c #E1DFDF",
"2X c #E0E0DF",
"3X c #C9E4E4",
"4X c #C5E9E9",
"5X c #D1EEEE",
"6X c #D9E9E9",
"7X c #CDF5F5",
"8X c #C3FDFD",
"9X c #CBFCFC",
"0X c #C2F5F5",
"qX c #D5F3F3",
"wX c #DBF4F4",
"eX c #D5FDFD",
"rX c #DBFBFB",
"tX c #E3E3E3",
"yX c #E4EBEB",
"uX c #EBEBEB",
"iX c #E8E7E7",
"pX c #E3F3F3",
"aX c #EBF3F3",
"sX c #EAF9F9",
"dX c #E2FAFA",
"fX c #F5F5F5",
"gX c #F5F9F9",
"hX c #F9F9F9",
"jX c #F8F7F7",
"kX c #F0EFEF",
/* pixels */
"OXOXOXOXOXOXOXOXOXOXOXOXOXOXOX X(.G.b.X. .) R R i { '.+XOXOXOXOXOXOXOXOXOXOXOXOXOXOXOXOXOXOXOXOXOXOXOXOXOXOXOXOXOXOXOXOXOXOXOXOXOXOXOXOX",
"OXOXOXOXOXOXOXOXOXOXOXOXOX#X'.E : : ; o O O # @ ; ; w ( '.@XOXOXOXOXOXOXOXOXOXOXOXOXOXOXOXOXOXOXOXOXOXOXOXOXOXOXOXOXOXOXOXOXOXOXOXOXOXOX",
"OXOXOXOXOXOXOXOXOXOXOXOXOXE.p - _ n.m.! #.;.:.N L.W.[ * r G.@X@XOXOXOXOXOXOXOXOXOXOXOXOXOXOXOXOXOXOXOXOXOXOXOXOXOXOXOXOXOXOXOXOXOXOXOXOX",
"OXOXOXOXOXOXOXOXOXOXOX@X XW ' k.!.hXhX~.1.9.9.<.A.hXiX{ q r G.@XOXOXOXOXOXOXOXOXOXOXOXOXOXOXOXOXOXOXOXOXOXOXOXOXOXOXOXOXOXOXOXOXOXOXOXOX",
"OXOXOXOXOXOXOXOXOXOXOX#XH.u !.*XB.iXjX>X3.8.8.7.p.uXuXD.I.e u '.@XOXOXOXOXOXOXOXOXOXOXOXOXOXOXOXOXOXOXOXOXOXOXOXOXOXOXOXOXOXOXOXOXOXOXOX",
"OXOXOXOXOXOXOXOXOXOXOXeXo.r !.>XB.*XhXtX3.8.8.7.u.yXiXC.uXU.w Q [.OXOX@XOXOXOXOXOXOXOXOXOXOXOX@XOX@XOXOXOXOXOXOXOXOXOXOX@XOXOXOXOXOXOXOX",
"OXOXOXOXOXOXOXOXOXOX@XrXc.w U.2XL.!.hXiXh.7.8.7.i.kX,XL.fXfXZ.; T ).@XOXOXOXOXOXOXOXOXOXOXOXOXOXOXOXOXOXOXOXOXOXOXOXOXOXOXOXOXOXOXOXOXOX",
"OX@XOXOXOXOXOXOXOXOXOX7XZ.= v.tXU.W.jXtXu.8.8.<.g.gXQ.^.jXjXtXC o E _.@XOXOXOXOXOXOXOXOXOXOXOXOXOXOXOXOXOXOXOXOXOXOXOXOXOXOXOXOXOXOXOXOX",
"OXOXOXOXOXOXOXOXOXOX@XwXW.: / ,XU.~.hX=X1.8.8.1.=XiXB.>XgXhX<X2.j # T '.@X@X@XOXOXOXOXOXOXOXOXOXOXOXOXOXOXOXOXOXOXOXOXOXOXOXOXOXOXOXOXOX",
"OXOXOXOXOXOXOXOXOXOX@XrX,XW @ O.c.Y.*X+.j %.#.V B.v.W.jXhX2Xf.,.8.j . i `.@XOXOXOXOXOXOXOXOXOXOXOXOXOXOXOXOXOXOXOXOXOXOXOXOXOXOXOXOXOXOX",
"OXOXOXOXOXOXOXOXOXOXOX9XiXD.e * ; w q @ O O @ X X = m.1XR.p.<.8.9.<.! w ~ ).@XOXOXOXOXOXOXOXOXOXOXOX@XOXOXOXOXOXOXOXOXOXOXOXOXOXOXOXOXOX",
"OXOXOXOXOXOXOXOXOXOXOX@XpX>XL.( i E W ' {  .X.k.s./ : V 1.6.8.8.8.5.=XF.: ^  X@X@X@X@X@XOXoX7XqX5X4XXX}.}.}.}.|.}.}.`.|.XXXXOXOXOXOXOXOX",
"OXOXOXOXOXOXOXOXOXOXOXOX8XyX>X*X=X*X<X;X;X,X,X:X:X!.i # $.8.8.8.>.g.fXkXk.= k.XX`.J.H.N.O.] ) / / Q Q R B B B B R R p B B W O.`.@X@XOXOX",
"OXOXOXOXOXOXOXOXOXOXOXOXOX8XpXuX6X5XqXqXqXqXqXwXwX1XL.i , $.,.-.f.tXgXhX%X4 4 Q p : e u u T Q W ) [ } } { [ { { | [ [ } } W w i H.oXOXOX",
"OXOXOXOXOXOXOXOXOXOXOXOXOXOX@X8X@XOXOXOX@XOXOXOX#XwX>X^.p O V R.uXhXhXfXA.#.< q { c.C.L.L.L.L.L.C.C.C.C.B.b.M.B.B.Z.m.c.B.*XH.q = z.@XOX",
"OXOXOXOXOXOXOXOXOXOXOXOXOXOXOXOXOXOXOXOXOX@XOXOXOX@XqXP.u X w I.hXyX*Xd.1.8.%.4 ( B.C.C.C.F.U.^.^.^.I.U.!.%X%X!.Q.U.C.v.c.;X;XQ   ~ +XOX",
"OXOXOXOXOXOXOXOXOXOXOXOXOXOXOXOXOXOXOXOXOXOXOXOXOXOXJ.r o [ ) r +.i.2.;.6.6.,.d r I.~.^.^.I.D.D.C.B.B.b.B.B.B.B.C.F.F.L.^.F.X.c.T w [.@X",
"OXOXOXOX@XOXOXOXOXOXOXOXOXOX@XOXOXOXOXOXOXOXOXOXOX XR o u Q.*X_ - g A u.p.i.i.a.O.V.C.C.L.^.T.T.Y.^.~.^.L.V.B.v.k.o.X.} X.o.X.tXv.= K.@X",
"OXOXOXOXOXOXOXOXOXOXOXOXOXOXOXOXOXOXOXOXOXOXOX@X#XE.= W } o.&X/.C.U./.&X&X!.^.Y.F.Z.v.s.O.} } } ( X.o.O.X.n.Z.C.^.=X,XtXuX>XB.iXQ.* l.OX",
"OXOXOXOXOXOXOXOXOXOXOXOXOXOXOXOXOXOXOXOXOXOX@X[.M.R o } !.X.) [ | { } } { [ ' ' { o.v.b.B.C.L.Y.o.;XiXuXkXfXfXjXhXjXjXjX^.R i <X>Xe ^ oX",
"OXOXOXOXOXOXOXOXOXOXOXOXOXOXOXOXOXOXOXOXOXOXG.r ; ( o.C.;X,X%X^.^.^.U.W./.=X<X;X,X>X>X2X1X>X>X<Xb.iXjXfXjXfXfXfXfXfXgXiXW   = /.iXB T oX",
"OXOXOXOXOXOXOXOXOXOXOXOXOXOXOXOXOXOXOXOXOXG.: w V.,X1X>X>X>X>X>X2X>X2X2X>X>X>X>X>X>X>X:X>X>X>X<Xb.iXfXfXfXfXjXfXfXfXjX<Xw   * ^.fXW T oX",
"OXOXOXOXOXOXOXOXOXOXOXOXOXOXOXOXOXOXOXOX[.e q H.>X>X>X>X>X>X>X>X>X>X:X:X>X>X>X>X>X>X>X>X>X>X>X<Xc.tXjXfXfXfXfXfXgXfXhX!.;   X ^.fX/ T oX",
"OXOXOXOXOXOXOXOXOXOXOXOXOXOXOXOXOXOX@X#X..o O.>X>X>X,X&X*X,X>X>X>X>X>X>X>X>X>X:X>X>X>X>X>X>X>X;Xk.,XjXfXfXfXfXfXfXfXhXW.q   ; /.fX~ T oX",
"OXOXOXOXOXOXOXOXOXOXOXOXOXOXOXOXOXOX@X3Xi e %X>X>X<Xk.R b.,X>X>X>X>X>X,X>X>X>X>X>X>X>X>X>X>X>X,Xb.%XjXfXfXfXfXfXfXfXjXtX'   e ,XyXB ^ oX",
"OXOXOXOXOXOXOXOXOXOXOXOXOXOXOXOXOXOX#XQ.; [ ,X>X>XB.X * F.2X>X>X>X>X>X>X>X>X>X>X>X>X:X>X>X>X>X>XC.U.jXfXjXfXfXfXfXfXjXC.;   Q iX%X4 l.@X",
"OXOXOXOXOXOXOXOXOXOXOXOXOXOXOXOXOXOX9XI.* c.>X>X,X( : = O.>X>X>X>X>X>X>X>X>X>X>X>X>X>X>X,X>X>X>X!.b.fXfXfXfXfXfXfXfXjXc.    X.fXo.. N.@X",
"OXOXOXOXOXOXOXOXOXOXOXOXOXOXOXOXOXOXeXC.X v.2X>X;XW / u B *X>X>X:X>X>X>X>X>X,X>X>X>X>X:X>X>X>X>X<Xc.>XjXfXfXfXfXfXfXhXL.* X L.U.r   /  X",
"OXOXOXOX@XOXOXOXOXOXOXOXOXOX@XOXOXOXsXU.= k.>X>X,X( Q { : C.>X>X>X>X>X>X>X>X:X>X>X>X>X>X>X>X>X>X>XC.U.jXgXfXfXfXfXfXgX>XQ p | N &.k , ..",
"OXOXOXOXOXOXOXOXOXOXOXOXOXOXOXOXOXOXrX*Xu ' ,X>X>Xc.: [ u W *X>X>X>X,X>X>X>X>X>X>X>X>X>X>X>X>X2X>X&Xc.,XjXfXfXfXfXfXfXkXc.L.+.&.7.&.5 O.",
"OXOXOXOXOXOXOXOXOXOXOXOXOXOXOXOXOXOX9XtX/ r !.>X>X%XR : w X } *X>X>X>X>X>X>X>X>X>X>X>X>XQ.k.o.I.;X>XT.v.,XjXfXfXgXjXfXY.v.,XU.5 s C n.tX",
"OXOXOXOXOXOXOXOXOXOXOXOXOXOXOXOXOXOX#XuXm.X { ,X>X>X/.o./ [ b.*X>X>X>X>X>X,X>X>X:X:X2XW.i . o : ) W.,XL.k.~.iXfXiX,XD.o.&X2X~.w / %XtXdX",
"OXOXOXOXOXOXOXOXOXOXOXOXOXOXOXOXOXOXOXpX&XB = v.,X1X>X>X,X>X>X>X>X>X>X>X>X>X>X>X>X>X,X)           r O.=X%XC.M.B.c.c.C.*X2X;X{ q I.wX9XOX",
"OXOXOXOXOXOXOXOXOXOXOXOXOXOXOXOXOXOXOXeXtXL.i : X.*X6X2X>X>X2X2X;X;X>X>X>X>X>X>X>X>X*Xu             X R B.%X*X!.%X,X>X>X,Xv.: } qX@XOXOX",
"OXOXOXOXOXOXOXOXOXOXOXOXOXOXOXOXOXOXOX@XwX>XW.i @ W B.U.Q.%X!.V.} W.>X>X>X>X>X>X>X>X<XQ . < , # .       X e ) v.I.!.%XI.} : W <X#XOXOXOX",
"OXOXOXOXOXOXOXOXOXOXOXOXOXOXOXOXOXOXOXOX#XpX!.( o   = : w r w * ; B.,X>X>X>X:X>X>X>X>XH.Z &.,.:.#.,           o : w r q p } &X9X@XOXOXOX",
"OXOXOXOXOXOXOXOXOX@XOXOXOXOXOXOXOXOXOXOXoXN.i .                   : } /.>X>X>X>X>X>X>X:XU.p.*.<.8.%.s s O         =   W ~.>XpX@XOXOXOXOX",
"OXOXOXOXOXOXOXOXOXOXOXOXOXOXOXOXOXOXOX+Xl.=                         o p b.<X1X>X>X>X>X>X>X<XC.a.4.-.;.,.h     = / R e R.pX9X@XOXOXOXOXOX",
"OXOXOXOXOXOXOXOXOXOXOXOXOXOXOXOXOXOX@XN.=                               * Q b.%X:X2X2X2X>X>X2X;X].P.d.i.` R [ v.) q v.wX@XOXOXOXOXOXOXOX",
"OXOXOXOXOXOXOXOXOXOXOXOXOXOXOXOXOX@X|.u                                     * e ' b.Z.^.,X2X>X>X>X>X>X,X<X%XC.Q e b.6X@X@XOXOXOXOXOXOXOX",
"OXOXOXOXOXOXOXOXOXOXOXOXOXOXOXOXOX$X ..             * = = *                       o X q [ C.!.%X*X%XW.C.c.W p ) ~.iX9XOXOXOXOXOXOXOXOXOX",
"OX@XOXOXOXOXOXOXOXOXOXOXOXOXOXOX@X'.w           * W M.I.D.[ X                             * q u p e : w R X.U.>X6X8XOXOXOXOXOXOXOXOXOXOX",
"OXOXOXOXOXOXOXOXOXOXOXOXOXOXOXOX9XC.X         : c.=XtX,XC.B               O a f o u Q Q e X     o ; w / U.>XiXwX#XOXOXOXOXOXOXOXOXOXOXOX",
"OXOXOXOXOXOXOXOXOXOXOXOXOXOXOXOXeXc..         { 1XsX:XO.5 s #           f j h A j.%X;X;X%Xo.; u L.%X!. .( &X9X@XOXOXOXOXOXOXOXOXOXOXOXOX",
"OXOXOXOXOXOXOXOXOXOXOXOXOXOXOX@XrXM.o       * L.dX}.~ < &.6.#.< o   . h 7.:.g Y.>X>X>X>X2X:Xv.Q :XhXhXuX) X.#XOXOXOXOXOXOXOXOXOXOXOXOXOX",
"OXOXOXOXOXOXOXOXOXOXOXOXOXOXOX@XrX^.:       X [ x.E 2 k h s s s - O j 7.8.6.` *X>X>X>X>X>X>X<X' v.fXfXgX} [ $X@XOXOXOXOXOXOXOXOXOXOXOXOX",
"OXOXOXOXOXOXOXOXOXOXOX@X@X@X@XOXrX<XR     = [ L.W o y @.B.C.B.{ w , ;.8.8.8.=.U.>X>X>X>X>X>X2XI./ >XhX2XW O.8XOXOXOXOXOXOXOXOXOXOXOXOXOX",
"OXOXOXOXOXOXOXOXOXOXoX(.z. ...z.].,Xc.o X v.iXW.X.o.!.aXhXhXjXkX^.e d 7.8.9.>.+.*X;XZ.Q.>X>X>X&XW B./.B.Q )  XOXOXOXOXOXOXOXOXOXOXOXOXOX",
"OXOXOXOXOXOXOX.XJ.] E w X @ & 4 8 } V.w } uX^.v.1XjXjXgXgXfXfX*XC.~ # k 6.8.8.*.+.c.g X.>X>X>X>X{ / !.,X/.u z.@XOXOXOXOXOXOXOXOXOXOXOXOX",
"OXOX@XOXOX@XK.~ : 1 0 8 c I w.J S 8 8 E 2X%Xo.>XfXkXfXfXfXfXjX1XQ.B.) > a <.8.8.;.h a W ;X>X>X>XO.[ jXhX>Xi ] @XOXOXOXOXOXOXOXOXOXOX@XOX",
"OXOXOXOX.XM.r 1 b D K I y.y.t.y.y.J & ) 2Xc.*XgX2XP.1XfXfXfXfXjXhXhXuXC.: d 7.8.9.:., r %X>X>X>Xk.i 2XhX%Xu N.@XOXOXOXOXOXOXOXOXOXOXOXOX",
"OXOXOX+XN.- 1 P L D e.y.t.t.t.t.t.y.c w v.I.gX2X;X~.P.kXfXfXfXfXfXfXfXaX{ , :.8.&.< . w !.>X>X>Xn.- [ V.~ q M.[.oX@XOXOXOXOXOXOXOXOXOXOX",
"OXOXOXK.w 3 I F S r.t.t.t.t.t.t.w.P 2   r !.fX;XD.!.1XfXfXfXfXfXgXfXfXhXC., ;.:.< c m y !.>X2X>Xs.n 3 - 1 2 4 i G.XX@XOXOXOXOXOXOXOXOXOX",
"OX@X[.i 1 0.J n r.t.t.t.t.t.t.F S S $ e e <X2XQ.>X&XkXfXfXfXfXfXfXfXhXjXo.< ,.k 1 w.t.L @.j.B.n.Y q.v I w.w.H z 4  .{.OXOXOXOXOXOXOXOXOX",
"OX+X .o n r.n w.t.t.t.t.y.y.D F r.r.9 p r %XkXW.%XgXfXfXfXfXgXfXfXtX&XU.Z &.%., 6 F e.t.w.I P I w.n P y.t.t.t.r.D 2 ^ {.@XOXOXOXOXOXOXOX",
"@X|.r % e.n H y.t.t.t.t.y.H D y.y.e.x X X C.gXfXuXfXfXfXfXfXfXfXgX:X) 5 j #., c q.H m D U e.w.J n G t.t.t.t.t.t.y.H 3 )  XOXOXOXOXOXOXOX",
"$XO.o 7 I S r.y.t.t.t.y.e.S e.t.U ` W W p R :XhXjXfXfXfXfXfXfXfXfXfX!.t V B 1 e.y.t.e.H D D S L J t.t.t.t.t.t.y.y.y.H & l.OXOXOXOXOXOXOX",
"6X~   S H H y.t.t.t.t.y.H F y.L m.*X-X<X^.u ) :XjXjXfXfXfXfXfXfXfXhX*Xu v.) 7 r.y.t.y.y.t.r.t.t.y.t.t.t.t.t.t.t.t.y.y.7 u  XOXOXOXOXOXOX",
"tXW o D S w.y.t.t.t.t.y.D H e.` *X2X>X>X:XV.e R ~.gXfXfXfXjXfXjXhXtX .r W.' 1 w.y.t.t.t.t.t.y.t.t.t.t.t.t.y.t.y.y.t.y.n : J.OXOXOXOXOXOX",
"tX( $ G S r.t.t.t.t.t.t.S H r.Y Y.>X>X>X>X>X^.) ) iXhXhXhX%X%X6X!._ = X.tXm.$ c e.y.t.y.t.t.I m x v J t.t.t.t.t.t.t.y.H $ z.OXOXOXOXOXOX",
"tXQ + F S t.t.t.t.t.t.y.F H y.w.` ^.:X>X>X>X,XU.e [ %X*XU.i q u : ; [ -XfX*X( X 6 H I J D 9 8 e r = $ F y.y.t.t.t.t.y.0.% k.@XOXOXOXOXOX",
"2XW o F S t.t.t.t.t.t.t.I S t.y.G y ( { { ' R w : w q w * r ' ( } F.>XeXrXiX/.[ : @ & > r ) V.W.Q.M.r 3 e.y.t.t.t.y.y.0.+ k.@XOXOXOXOXOX",
"tX{ + S S t.t.t.t.t.t.y.t.D D r.n 4 u e r w e / B.I.{ / X.^.;X;X>XyXqX@X@XaX2X*XL.c.c.V.W.,XtXtXtX,XO.% J y.t.t.t.t.y.J $ z.@XOXOXOXOXOX",
"uXD.> v S w.y.t.t.t.t.t.y.r.S 0 1 [ ].!.W.Q./.<XtX>X;X<X>XuXyXyXqX#XOXOX@X8XdXiX>X>X>XtXyXpXeX9XeXuXY.: D y.t.t.t.t.y.D : (.@XOXOXOXOXOX",
"fX%Xr M D F y.t.t.t.t.q.D H m + $ B.tXiXtXiXyXaXeXpXaXuXdX9X@X@X@XOXOXOXOXOX@XeXqXwX9XqX8X@XOXOXOXrX%Xp x t.t.t.t.t.w.3 W XXOXOXOXOXOXOX",
"sX;Xi 2 J m e.y.t.t.t.t.H n m F m y Q.dXrXeX#X#X@X#X#X@X@XOXOXOXOXOXOXOXOXOXOXOXOXOXOXOXOXOXOXOXOX#X:XE & H t.t.r.I 6 > H.9XOXOXOXOXOXOX",
"9XtX} o F F D y.t.t.t.t.y.y.y.y.y.v ^ .XOXOXOXOXOXOXOXOXOXOXOXOXOXOXOXOXOXOXOXOXOXOXOXOXOXOXOXOXOX#XyXv.: + 9 x 9 % 4 v.5X@XOXOXOXOXOXOX",
"@XpXW.u 6 e.D G y.t.t.t.t.y.t.t.y.J r ).OXOXOXOXOXOXOXOXOXOXOXOXOXOXOXOXOXOXOXOXOXOXOXOXOXOXOXOXOX#XyX<XB.W u u E } I.yX8XOXOXOXOXOXOXOX",
"@XdX1Xc.= v e.b F t.y.y.t.t.t.t.y.G 8 _.OXOXOXOXOXOXOXOXOXOXOXOXOXOXOXOXOXOXOXOXOXOXOXOXOXOXOXOXOXOXeXiX>X*X!./.*X>XuX9XOXOXOXOXOXOXOXOX",
"@X#XyX&X/ X n e.D S I e.y.y.t.y.y.x e ).OXOXOXOXOXOXOXOXOXOXOXOXOXOXOXOXOXOXOXOXOXOXOXOXOXOXOXOXOXOX@XrXpXiXuXuXaXaX9X@XOXOXOXOXOXOXOXOX",
"@XOXeXtXQ.R $ v e.I D S H 0.e.w.F % ( +XOXOXOXOXOXOXOXOXOXOXOXOXOX@XOXOXOXOXOXOXOXOXOXOXOXOXOXOXOXOXOX@X@X9XrXeX@X@X@XOXOXOXOXOXOXOXOXOX",
"OXOX#XpX2XQ.) ; 6 F e.q.H F D 6 + p Q.8XOXOXOXOXOXOXOXOXOXOXOX@XOXOXOXOXOXOXOXOXOXOXOXOXOXOXOXOXOXOXOXOX@XOXOXOXOXOXOXOXOXOXOXOXOXOXOXOX",
"OXOXOX#XpXtX*Xb.R > 3 v F H v $ ) !.wX@XOXOXOX@XOXOXOXOXOXOXOXOXOXOXOXOXOXOXOXOXOXOXOX@XOXOXOXOXOXOXOXOXOXOXOXOXOXOXOXOXOXOXOXOXOXOXOXOX",
"OXOXOXOX#XpXtX>X%Xv.[ R t w t { *XaX8XOXOXOXOX@XOXOXOX@XOXOXOXOXOX@XOXOXOXOXOXOXOXOXOX@XOXOXOX@XOXOXOXOXOXOXOXOXOXOXOXOXOXOXOXOXOXOXOXOX",
"OXOXOXOXOX@X9XwXtX>X;X%X^.L.W.*XiXyX3X3X3X3X3X5X5X5X5X5X5X5X5XqXqXwXqXwXwX7X+XoX0XwXqX5XqXqX+X+X#X@XOXOXOXOXOXOXOXOXOXOXOXOXOXOXOXOXOXOX",
"OXOXOXOX@X8X4X-X>X<X%XU.L.L.L.L.I.U.P.P.L.L.L.P.P.U.U.U.P.U.Y.U.U.W.U.T.W.U.I.I.U.W.U.U.U.U.I.Q.*X3X8X@X@XOXOXOXOXOXOXOXOXOXOXOXOXOXOXOX",
"@XOXOX@X|.W.L.L.F.C.V.B.B.B.B.B.B.B.B.B.B.Z.B.B.B.B.B.B.B.B.B.B.B.B.B.B.B.B.B.B.B.B.B.B.B.B.Z.B.Z.P.Q.6X#XOXOXOXOXOXOXOXOXOXOXOXOXOXOXOX",
"OXOXOX0XT.B.B.B.B.m.M.M.b.B.b.b.M.M.b.b.b.v.b.B.b.b.B.m.b.b.b.b.b.b.B.b.B.m.B.B.b.M.b.m.b.M.m.M.B.B.B.U.].+XOXOXOXOXOXOXOXOXOXOXOXOXOXOX",
"OXOX#XfX>X!.L.C.Z.Z.Z.B.B.B.B.B.B.Z.C.Z.C.C.C.C.C.F.C.C.C.C.C.F.L.L.B.b.v.b.b.b.b.v.b.b.m.b.b.b.B.C.F.T.,X#XOXOXOXOXOXOXOXOXOXOXOX@XOXOX",
"OXOX@XdXfXiXiX>X,X;X,X<X*X*X;X;X,X,X,X,X,X>X>X>X2X>X>X>X>X>X1XtXtXtX*XI.U.U.W.!.~.!.%X&X%X%X*X*X*X>X1XuXgX#XOXOXOXOXOXOXOXOXOXOXOXOXOXOX",
"OXOXOX@X9XaXpXfXfXfXfXfXuXfXfXfXfXfXfXfXfXfXfXfXfXfXfXfXfXfXsXsXpXaXkXiXiXiXiXuXuXfXkXuXuXkXkXkXaXfXsXsX9XOXOXOXOXOXOX@XOXOXOXOXOXOXOXOX",
"OXOXOXOXOX@X@XeXeXeXeXeXeXeXeXrXeXeXeXrXrXeXeXeXeXrXrXeXeXeX#X@X@X9XhXfXfXhXhXhXhXsXeXeXeXeXeXeXeXeX@X@XOXOXOXOXOXOXOXOXOXOXOXOXOXOXOXOX"
};
