/* XPM */
static char *cuphead9_110[] = {
/* columns rows colors chars-per-pixel */
"67 82 221 2 ",
"   c #010101",
".  c #0A0302",
"X  c #0C0C0C",
"o  c #0A0805",
"O  c #1B0505",
"+  c #160807",
"@  c #1D150B",
"#  c #16120D",
"$  c #141413",
"%  c #1C1916",
"&  c #1C1B1B",
"*  c #191514",
"=  c #250202",
"-  c #230C0C",
";  c #2C0807",
":  c #390201",
">  c #25190C",
",  c #281A0D",
"<  c #221A12",
"1  c #241C1C",
"2  c #251513",
"3  c #331B1B",
"4  c #301F0D",
"5  c #34230E",
"6  c #25211D",
"7  c #352512",
"8  c #382610",
"9  c #3E2911",
"0  c #34291D",
"q  c #242423",
"w  c #282625",
"e  c #2B2B2B",
"r  c #2B2926",
"t  c #342B2A",
"y  c #2F3030",
"u  c #333333",
"i  c #363A3A",
"p  c #3C3C3C",
"a  c #393030",
"s  c #30302F",
"d  c #490201",
"f  c #440202",
"g  c #520101",
"h  c #5C0404",
"j  c #4C1919",
"k  c #6C0101",
"l  c #630202",
"z  c #780202",
"x  c #6E1919",
"c  c #442D12",
"v  c #4B3317",
"b  c #553816",
"n  c #5B3E1A",
"m  c #553917",
"M  c #403F3E",
"N  c #413A33",
"B  c #462F24",
"V  c #762727",
"C  c #693333",
"Z  c #5F411D",
"A  c #63421B",
"S  c #69461D",
"D  c #6D491E",
"F  c #744D1F",
"G  c #7A511F",
"H  c #5E4221",
"J  c #684822",
"K  c #734E21",
"L  c #7C5321",
"P  c #775021",
"I  c #695339",
"U  c #6E502D",
"Y  c #3F3F40",
"T  c #403F40",
"R  c #3E4343",
"E  c #444444",
"W  c #4B4B4B",
"Q  c #444B4B",
"!  c #4E5151",
"~  c #4B5554",
"^  c #535353",
"/  c #5B5C5C",
"(  c #555A5A",
")  c #50504F",
"_  c #6F5451",
"`  c #5A6767",
"'  c #546A6A",
"]  c #636464",
"[  c #636C6B",
"{  c #6B6C6C",
"}  c #676767",
"|  c #786B69",
" . c #697A7B",
".. c #737474",
"X. c #7C7C7C",
"o. c #747A7A",
"O. c #7A7166",
"+. c #6E6254",
"@. c #830201",
"#. c #8D0303",
"$. c #930101",
"%. c #9C0201",
"&. c #9A0B0B",
"*. c #891818",
"=. c #991817",
"-. c #A30101",
";. c #AD0101",
":. c #B30202",
">. c #BC0101",
",. c #B20A0A",
"<. c #A21212",
"1. c #892C2C",
"2. c #932626",
"3. c #893636",
"4. c #903B3B",
"5. c #A12F2F",
"6. c #C50000",
"7. c #CA0000",
"8. c #D40000",
"9. c #D90000",
"0. c #80541F",
"q. c #825621",
"w. c #865822",
"e. c #8B5C23",
"r. c #905F23",
"t. c #976223",
"y. c #986324",
"u. c #8F5454",
"i. c #817E7D",
"p. c #897777",
"a. c #947171",
"s. c #88847F",
"d. c #8D7F80",
"f. c #6D8989",
"g. c #7D8383",
"h. c #778A8A",
"j. c #799696",
"k. c #7CA2A2",
"l. c #838483",
"z. c #8C8C8C",
"x. c #858B8B",
"c. c #958B8B",
"v. c #8C9292",
"b. c #879797",
"n. c #939393",
"m. c #979999",
"M. c #9C9C9C",
"N. c #989595",
"B. c #A49B9B",
"V. c #85AAAA",
"C. c #8CACAC",
"Z. c #87A3A3",
"A. c #98A5A5",
"S. c #89B5B5",
"D. c #96BABA",
"F. c #A3A3A3",
"G. c #ABACAC",
"H. c #A7A7A7",
"J. c #B7ABAB",
"K. c #A8B3B3",
"L. c #B4B4B4",
"P. c #B6B7B8",
"I. c #BBBCBC",
"U. c #BAB8B8",
"Y. c #AEAFB0",
"T. c #BFBFC0",
"R. c #94C3C4",
"E. c #98D4D4",
"W. c #8EC5C6",
"Q. c #BBC8C8",
"!. c #A3D4D4",
"~. c #A4DADA",
"^. c #AAD7D7",
"/. c #B9D7D7",
"(. c #A5C7C8",
"). c #A1E0DF",
"_. c #AAECEC",
"`. c #AAE5E5",
"'. c #B9E7E7",
"]. c #ACF3F3",
"[. c #AFFFFF",
"{. c #B3F3F3",
"}. c #BBF6F6",
"|. c #B2FEFE",
" X c #BBFDFD",
".X c #C3C3C3",
"XX c #CCCCCC",
"oX c #C7C8C8",
"OX c #CFCFD0",
"+X c #CAD4D4",
"@X c #D4D4D5",
"#X c #D7D8D8",
"$X c #DADBDB",
"%X c #D8D7D7",
"&X c #E0DFDF",
"*X c #CBE6E6",
"=X c #CDEDED",
"-X c #C2E7E7",
";X c #DFE0E0",
":X c #DDEDED",
">X c #D6EBEB",
",X c #C3FDFD",
"<X c #CCFCFC",
"1X c #C7F1F1",
"2X c #DCF4F4",
"3X c #D4F9F9",
"4X c #DBFBFB",
"5X c #D5F5F5",
"6X c #E3E4E4",
"7X c #E5EAEA",
"8X c #EBEBEB",
"9X c #E8E7E7",
"0X c #E4F4F4",
"qX c #EBF4F4",
"wX c #E1FAFA",
"eX c #EDFAFA",
"rX c #F5F6F6",
"tX c #F7F8F8",
"yX c #F9FAFA",
"uX c #F7F7F8",
"iX c #F0EFEF",
/* pixels */
"[.[.[.[.[.[.[.[.[.[.[.[.[.[.[.[.[.[.[.[._.j.E p b._.|.[.[.[.[.[.[.[.[.[.[.[.[.[.[.[.[.[.[.[.[.[.[.[.[.[.[.[.[.[.[.[.[.[.[.[.[.[.[.[.[.",
"[.[.[.[.[.[.[.[.[.[.[.[.[.[.[.[.[.[.[.|.b.p ..) q ( D.{.[.[.[.[.[.[.[.[.[.[.[.[.[.[.[.[.[.[.[.[.[.[.[.[.[.[.[.[.[.[.[.[.[.[.[.[.[.[.[.",
"[.[.[.[.[.[.[.[.[.[.[.[.[.[.[.[.[.[.[.!.M z.rX9XX.; 1  .`.[.[.[.[.[.[.[.[.[.[.[.[.[.[.[.[.[.[.[.[.[.[.[.[.[.[.[.[.[.[.[.[.[.[.[.[.[.[.",
"[.[.[.[.[.[.[.[.[.[.[.[.[.[.[.[.[.|. Xl.M 6XuXJ.5.,.k - W R.|.[.[.[.[.[.[.[.[.[.[.[.[.[.[.[.[.[.[.[.[.[.[.[.[.[.[.[.[.[.[.[.[.[.[.[.[.",
"[.[.[.[.[.[.[.[.[.[.[.[.[.[.[.[.[.|.5X} W 8X#X4.7.9.9.#.= u k.|.|.[.[.[.[.[.[.[.[.[.[.[.[.[.[.[.[.[.[.[.[.[.[.[.[.[.[.[.[.[.[.[.[.[.[.",
"[.[.[.[.[.[.[.[.[.[.[.[.[.[.[.[.[.|.0Xz.q { a.,.9.8.9.,.u.Q q x.{.[.[.[.[.[.[.[.[.[.[.[.[.[.[.[.[.[.[.[.[.[.[.[.[.[.[.[.[.[.[.[.[.[.[.",
"[.[.[.[.[.[.[.[.[.[.|.[.[.[.[.[.[.|.0XOXl.e - %.8.9.>.u.$X;X/ & g.{.[.[.[.[.[.[.[.[.[.[.[.[.[.[.[.[.[.[.[.[.[.|.[.[.[.[.[.[.[.[.[.[.[.",
"[.[.[.|.[.[.[.[.[.[.[.[.[.[.[.[.[.[.<X7X@XH.E ; #.7.1.XXuXuX;X{ & l.|.[.[.[.[.[.[.|.[.[.[.[.[.[.[.[.[.[.[.[.[.[.[.[.[.[.[.[.[.[.[.[.[.",
"[.[.[.[.[.[.[.[.[.[.[.[.[.[.[.[.[.[.|.,X7X$XU.^ - l c.rXuXuXuXG.Q q j.].[.[.[.[.|.[.[.[.[.[.[.[.[.[.[.[.[.[.[.[.[.[.[.[.[.[.[.[.[.[.[.",
"[.[.[.[.[.[.[.[.[.[.[.[.[.[.[.[.[.[.[.[.,X0X6X.X} * } 9XuXrX.XH.@X/ q C.|.|.[.[.[.[.[.[.[.[.[.[.[.[.[.[.[.[.[.[.|.[.[.[.[.[.[.[.[.[.[.",
"[.[.[.[.[.[.[.[.[.[.[.[.[.[.[.[.[.[.[.[.|.|.3X6XXX} $ o.7XI.L.8XyX@XW i E.|.[.|.[.[.[.[.[.[.[.[.[.[.[.[.[.[.[.[.[.[.[.[.[.[.[.[.[.[.[.",
"[.[.[.[.[.[.[.[.[.[.[.[.[.[.[.[.[.[.[.[.|.[.|.3X9X.X} q } L.8XtXuXyXl.+ [ {.[.|.[.[.[.[.[.[.[.[.[.[.[.[.[.[.[.[.[.[.[.[.[.[.[.[.[.[.[.",
"[.[.[.[.[.[.[.[.[.[.[.[.[.[.[.[.[.[.[.[.[.[.[.|.2X6XXX/ & F.tXtXrXJ.2.z 1 C.|.|.[.[.[.[.[.[.[.[.|.[.[.[.[.[.[.[.[.[.[.[.[.[.[.[.[.[.[.",
"[.[.[.[.|.[.[.[.[.[.[.[.[.[.[.[.[.[.[.[.[.[.[.[.|.3X9XI.M s U..Xa.2.7.6.d Q ^.|.[.[.[.[.[.[.[.|.~._.[.[.[.[.[.[.[.[.[.[.[.[.[.[.[.[.[.",
"[.[.[.[.[.[.[.[.[.[.[.[.[.[.[.[.[.[.[.[.[.[.[.[.[.|.2X6XF.q t *.;.8.8.8.$.@ k.|.[.[.[.[.[.[.|.!.o.h._.[.[.[.[.[.[.[.[.[.[.[.[.[.[.[.[.",
"[.[.[.[.[.[.[.[.[.[.[.[.[.[.[.[.[.[.[.[.[.[.[.[.[.[.|.2X$XX.- %.9.8.8.7.2.E W `.[.[.[.[.[.|.'.K.c.M.V.|.[.[.[.[.[.[.[.[.[.[.[.[.[.[.[.",
"[.[.[.[.[.[.[.[.[.[.[.[.[.[.[.[.[.[.[.[.[.[.[.[.[.[.[. X7X.Xi g 7.8.:.3.J.L.e V.|.[.|.|.[.^./ ] ..G.l.].[. X{.{.|.|.|.[.[.[.[.[.[.[.[.",
"[.[.[.[.[.[.[.[.|.[.[.[.[.[.[.[.[.[.[.[.[.[.[.[.[.[.[.[.3X9XX.O V u.a.XXuX8X/ ( _.].'.-X'.A.) z.) / } V.k.j.X.[ { h.k.!.].|.[.[.[.[.[.",
"[.[.[.[.[.[.[.[.[.[.[.[.[.[.[.[.[.[.[.[.[.[.[.[.[.[.[.[.,XqX.Xu ^ 6XrXuXuXuXl.% ~ Q E E E s W $X{ q u H Y Y ) ^ ( W T i ~ j.!.{.[.[.[.",
"[.[.[.[.[.[.[.[.[.[.[.[.[.[.[.[.[.[.[.[.[.[.[.[.[.[.[.[.[.wX6Xl.e .XyXuXrXU.1.: e g.n.m.m.z./ Y.oX` g. .....d.z.n.n.M.B.X.W u j.|.[.[.",
"[.[.[.[.[.[.[.[.[.[.[.[.[.[.[.[.[.[.[.[.[.[.[.[.[.[.[.[.|.,X@X{ $ / U.J.a.2.7.@.a X...] / ] / ..;X{ { d.g.d.v.n.l.{ } OXOXn.e w W.|.|.",
"[.[.[.[.|.[.[.[.[.[.[.[.[.[.[.[.[.[.[.[.[.[.[.[.[.[.[.[.].V.R w Q 2 *.:.6.8.9.>.= q x.G.I..X.X..m.X.N.L.H.A.F.A.F.m.c.l.} ..M.p ' ].[.",
"[.[.[.[.[.[.[.[.[.[.[.[.[.[.[.[.[.[.[.[.[.[.[.[.[.[.[.[.h.& W L.G.s x &.<.<.=.=.j p N.M.M.N.M.m.F.G.Y.G.F.A.n.d.o...o.] I.iXuX..e ~.[.",
"[.[.[.[.[.[.[.[.[.[.[.[.[.[.[.[.[.[.[.[.[.[.[.[.[.|.|.~.y & ...XI.H.G.M.N.c.N.M.m.z.z.z.z.z.z.z.d.g.o.o.o.d.m.F.U.U.F.X.$XtX@XT $ S.|.",
"[.[.[.[.[.[.[.[.[.[.[.[.[.[.[.[.[.[.[.[.[.[.[.[.|.~.Z.{ % X.X.} ] } } } ] / ] ] } ] } ] / x.n.F.H.P.oX$X8XqXrXyX8X] X w oXyXH.X X V.4X",
"[.[.[.[.|.[.[.[.[.[.[.[.[.[.[.[.|.[.[.[.[.[.[.[.R.p e y u I.#XXXT.L.P.U.Q.T.T.T.oXOX#XU.m.rXuXtXtXyXyXuXrXuXuXuXOXq   $ I.yXI.&   h.,X",
"[.[.[.[.[.[.[.[.[.[.[.[.[.[.[.[.[.[.[.[.[.[.[.~.i u G.l.W XX$X$X#X$X&X$X$X$X$X&X$X$X#X.XN.rXrXrXuXuXuXrXrXuXuXuXOXq   X G.yX6XW    .|.",
"[.[.[.[.[.[.[.[.[.[.[.[.[.[.[.|.[.[.[.[.[.[.|.o.& M.6XM.i T.&X$X$X#X#X$X$X$X%X$X$X#X$XXXz.8XrXrXuXuXrXuXuXrXrXuX6X] o X M.uXrXn.$ ` ].",
"[.[.[.[.[.[.[.[.[.[.[.|.{.'.(./.=X'._.|.|.[.'.M ( @X$XP.e m.$X$X$X#X$X$X$X#X$X$X$X#X$X@Xx.@XyXuXuXuXrXuXuXuXrXuXrXc.X X G.yX$XR   ` [.",
"[.[.[.[.[.[.[.[.[.[.|.`.o.p u E E M Q k.]. XQ.r z.$X$Xm.$ ] #X$X$X$X#X#X#X$X#X$X$X#X$X#Xm.I.yXuXuXrXuXrXrXuXuXuX6XQ   * T.yX9XW    .|.",
"[.[.[.[.[.[.[.[.[. X/.^ q { M.N.^ E X.^ ` g.{ % F.$X#X} s u Q.$X$X#X#X$X$X$X$X$X$X$X#X$XG.H.uXuXuXrXrXrXrXuXuXuX8X(   p &XyXyXM.$ b.|.",
"[.[.[.[.[.[.[.[.[.^.W p L.qXyXyX6Xz.9X%X} X.` $ m.$XOX) ] r c.$X$X$X$X$X#X#X$X#X$X#X$X$X.Xz.8XuXrXuXrXuXuXrXuXuXrXl.X l.rXOXH.m.y D.[.",
"[.[.[.[.[.[.[.[.,Xx.u .XtXuXuX8XL.n.rXyX@XF.@X^ } $X#X/ & $ ^ @X$X#X$X$X#X#X$X#X#X$X$X$X#Xn..XyXuXuXuXuXuXrXuXrXuX#X/ T.B.V &.t y ^.[.",
"[.[.[.[.[.[.[.[.,Xl./ &X8XuXuXI.] ...XrXrXG.U.H.i I.&XF.q   * G.$X$X#X$X$X$X$X$X$X&X$X$X$XT.n.9XuXuXrXrXrXuXuXuXuXU.....x 7.%.- ( '.[.",
"[.[.[.[.[.[.[.[. XG.e { U.rXuXiX9X@Xz.#XtX6Xz..XW } #X@XF./ q } $X$X$X$X$X#X#X$XXXH.G.@X$X#XH.M.9XtXuXuXuXuXuXtXQ.l.T.+.k &._ t h. X[.",
"[.[.[.[.[.[.[.[.{.} i .XiXrXuXtXrX@XX.M.rXrXL.P.z.* N.&X$X#Xg.e Y.$X#X$X$X$X#X%X{ $ & / Q.$X%XF.N.%X8XrXrXqX;XG.z.T.$XY.| c.H.p K.|.[.",
"[.[.[.[.[.[.[.[.'.u { uXuXuXuXyX.Xn.P.z.L.uX&Xn.{ X e A.#X$XXXW ^ XX$X$X#X$X$XOXp     o E P.$X$XL.m.H.F.M.v.d...M.OXXXI.T.#Xd.y ~.|.[.",
"[.[.[.[.[.[.[.|.*XE ^ 8XuXrX#XI.l.#XyX6Xn.#XrXX.q { u 1 ] z.M.] $ l.$X#X$X$X$X@X)         e v.oX$X#X@X.XU.n.W M ^ ( Q E W ) w [ }.[.[.",
"[.[.[.[.[.[.[.|.>Xi.6 x.I.m.n.M.l.8XtXtXU.I.yXz.W OXG.) & $ $ q & & z.%X$X$X%X$XF.B h d . . X i { n.F.Y.n.i / P.M.l.G.XXOXH.Q [ ].[.[.",
"[.[.[.[.[.[.[.|.2XXX) % X.XX8XrXM.%XtXtXrXiXuX..] 8X&X.XH.v.z.F.B.u $ X.@X$X$X#X$XF.2.>.z = = .   X $ $ $ ..8X8X.XiXyXyXyXyXP.i E.|.[.",
"[.[.[.[.[.[.[.[.<X$X] p &XtXuXtXP.U.uXuXuXtX&XE j.3X0X7X;X6X;X6X$X..o X o.@X$X$X$X$XF.3.:.@.%.z .       ^ ;XuXrXuXuXuXrXuXuXI.q V.|.|.",
"[.[.[.[.[.[.[.[.[.>X/ E 8XtXtXtX#XM.qXtXuXuXz.u Q.[.|.|.,X3X<X3X7X}     X / I.$X$X$X$XU.a.1.&.,.g .   & P.yXuXrXrXuXrXuXuXiXF.W ^ ^.[.",
"[.[.[.[.[.[.[.[.[.5Xs.6 L.rXoXv...p ..Y.$XM.w ..1X|.[.[.[.[.[.|./.u       o u N.@X$X$X$X%XI.N.a._ { Q W 6XyXuXuXuXuXrXuXuXrX6X&X} ` {.",
"[.[.[.[.[.[.[.[.[.5X.XE u / e , 8 c 7 0 u $ ) +X X[.[.[.[.[.[.]. .X           $ ) z.T.@X%X$X&X#X%X&XX.X.uXuXyXuXrXuXuXrXuXuXuXyXU.a R.",
"[.[.[.[.[.[.[.[.[.5XG.i   - n 0.r.y.r.0.c # ..=X[.[.[.[.[.[.].j.$                 X e W } X.z.n.c...E z.uXrX#XoXrXrXrXrXuXrXuXyXU.q b.",
"[.[.[.[.[.[.[.|.^.o.q o 8 0.y.y.y.y.y.y.y.D 0 g.].|.[.|.[.].j.$                           $ $ $ $ e F.z.9XoXM.XXiXuXuXuXuXuXrX8X{ 1 D.",
"[.[.[.[.[.|.}.C.p < 6 b r.y.t.t.y.y.t.t.y.y.S < k.|.|.W.f.' $                           p n.n.X.Y u #XM.oX&XXXY.$XrXuXrXrXrX8XY.W M '.",
"[.[.[.[.[.}.v.6 9 v F t.y.y.t.t.t.y.y.t.y.y.e., ' |.R.u g z k : .                     X ..M.l.Q X $ L..XM.rXoXT.oX9XuXrXuXrXrX9X{ ^ -X",
"[.[.[.|.{.v.1 c Z D t.y.t.t.t.t.y.y.y.y.t.y.w.>  ._.Q h 7.9.8.>.z : .                 o $ X X       { 8Xm..XrXI..XrXtXtXtXtXtX.Xe o.|.",
"[.[.[.~...% v S S y.y.t.t.t.t.t.y.y.0.D Z S b # j.j.; ;.8.8.8.8.9.6.%.d .                           & G.&XM.G.#XuXtXtXtXtXiXG.u u Q.|.",
"[.[.W.p < b L A r.y.y.t.t.t.t.t.y.G Z G 0.e.S # x.) g 7.8.8.8.8.8.8.8.6.l .                           e M.z.u E n..X#XoXm.^ & e H.3X[.",
"[.).R , P e.A L y.y.y.t.t.t.t.y.G Z r.y.0.r.F @ / r k 8.8.8.8.8.8.8.8.8.6.z =                       & e q u ..l.E u i e 6 u } L.:X X[.",
"].j.X v A Z A t.t.y.t.t.t.t.y.t.Z G r.I O._ > & e + g $.6.8.8.8.8.8.8.8.8.8.;.k =           . X q E m.I.A.P.#X#XT.A.g.d.M..X&X:X X[.[.",
"*XR @ K t.e.e.y.t.t.t.y.t.t.y.0.Z r.U M.#XP.u X ; $.:.:.7.8.8.8.8.8.8.8.8.8.8.8.%.= & u i W ] x.G.XX6X6X6X7X3X0X9X6X$X$X7X2X3X X[.[.[.",
"$XE 9 y.t.y.t.t.t.y.t.t.t.y.y.S m t.I oX$X$XM.q d %.8.8.8.8.8.8.8.8.8.8.8.8.8.8.8.#.t N..XXX@X&X7X5X X X X X[.|. X<X2X3X X|.|.[.[.[.[.",
"8X..> L y.t.t.t.t.t.t.y.y.e.n @ 5 e.I P.$X#X#XF._ j >.8.8.8.8.8.7.8.8.8.8.8.8.8.9.-.O z.7X2X5X X X[.|.[.[.[.[.[.[.[.[.[.|.[.[.[.[.[.[.",
"rXT.M 5 w.y.y.y.y.y.t.0.A 4 % W r 8 7 m.&X#X#X$XOX| -.8.8.8.8.8.8.8.8.8.8.8.8.8.8.k % P. X|.[.[.[.[.[.[.[.[.[.[.[.[.[.[.[.[.[.[.[.[.[.",
"0X&XY.E 5 D 0.r.0.D 9 @ # R N.oXn.i % ) oX&X$X$X$X| -.8.8.8.8.8.8.8.8.8.8.8.8.8.:.= / =X[.[.[.[.[.[.[.[.[.[.[.[.[.[.[.[.[.[.[.[.[.[.[.",
",XqX&XF.i * > , > @ s ] n.oX9X8X@XT.m.s ^ P.#X$X#X_ :.8.8.8.8.8.8.8.8.7.8.8.8.6.g % U.<X[.[.[.[.[.[.[.[.[.[.[.[.[.[.[.[.[.[.[.[.[.[.[.",
"[.,XqX#XU.z.] ) ( l.I.%X6XqX4X3X0X9X%Xm.u e / p.p.V 7.8.8.8.8.8.8.8.8.8.8.8.>.l O % K. X[.[.[.[.[.[.[.[.[.[.[.[.[.[.[.[.[.[.[.[.[.[.[.",
"[.[.,X0X9X$XOXXX@X9X8X2X,X|.|.[.|. X2X$XY./ q - h :.9.8.8.;.-.7.8.8.8.8.7.$.f : $.l t S.[.[.[.[.[.[.[.[.[.|.|.[.[.[.[.[.[.[.[.[.[.[.[.",
"[.[.|. X,X2X2X:X2X<X X[.[.[.[.[.[.[.|.2X&XXXG.E : -.>.-.k ; 2 d z -.-.@.d ; g -.9.-.O ` }.[.[.[.[.[.[.[.{.E.E.`. X|.[.[.[.[.[.[.[.[.[.",
"[.[.[.[.[.[.[.|.|.[.[.[.[.[.[.[.[.[.|.|.2X7X&XG.W - = O 1 { m.] t 2 + = h %.7.7.&.C $ ` {.[.[.[.[.[.].R./ q 6 M ..!.|.|.[.[.[.[.[.[.[.",
"[.[.[.[.[.[.[.[.[.[.[.[.[.[.[.[.[.[.[.|.|.,XqX$XQ.v...i.G.#X#XOXU.m.y g ;.-.*.3.p.I.E q (.|.[.[.|.].f.6 , m A v , R E.[.[.[.[.[.[.[.[.",
"[.[.[.[.[.[.[.[.[.[.[.[.[.[.[.[.[.[.[.[.[.[.,XqX9X$X@X6X8X3X0X8X9X%X..1 3 2 x.XX#X$X..X b. X|.|.].[ % b 0.y.y.y.0., / _.[.[.[.[.[.[.[.",
"[.[.[.[.[.[.[.[.[.[.[.[.[.[.[.[.[.[.[.[.[.[.[.,X4XqXrX3X<X[.|.,X3X:X.XF.N.s X.$X$X$XH.* { ].|.].f.* A y.y.y.y.y.y.A 6 S.[.[.[.[.[.[.[.",
"[.[.[.[.[.[.[.[.[.[.[.[.[.[.[.[.[.[.[.[.[.[.[.[.|. X X[.[.[.[.[.[.<X9X;X#X^ ( %X$X$XI.w r ` S.S.w Z y.t.t.t.y.y.y.F > E `.[.[.[.[.[.[.",
"[.[.[.[.[.[.[.[.[.[.[.[.[.[.[.[.[.[.[.[.[.[.[.[.[.[.[.[.[.[.[.[.[. X,X,X+X! E OX$X;XL.B n , 1 e 4 r.y.t.t.t.t.y.r.D v w ^.|.[.[.[.|.[.",
"[.[.[.[.[.[.[.[.[.[.[.[.[.[.[.[.[.[.[.[.[.[.[.[.[.[.[.[.[.[.[.[.[.[.[._.( @ N .X&XOXO.P y.m m @ c t.t.t.y.t.t.y.F D b r ^.[.[.[.[.[.[.",
"[.[.[.[.[.[.[.[.[.[.[.[.[.[.[.[.[.[.[.[.[.[.[.[.[.[.[.[.[.[.[.[.[.[.|.C.$ A K } s.+.U t.K Z t.A S y.y.t.t.t.y.0.n w.5 ) }.[.[.[.[.[.[.",
"[.[.[.[.[.[.[.[.[.[.[.[.[.[.[.[.[.[.[.[.[.[.[.[.[.[.[.[.[.[.[.[.[.[.'.} > A e.P P L q.J Z w.y.q.0.y.t.y.y.y.0.A w.A < m.,X[.[.[.[.[.[.",
"[.[.[.[.[.[.[.[.[.[.[.[.[.[.[.[.|.[.[.[.[.[.[.[.[.[.[.[.[.[.[.[.[.|.m.t P K A J H Z A K e.y.y.y.y.y.t.y.y.0.A G J > } >X|.[.[.[.[.[.[.",
"[.[.[.[.[.[.[.[.[.[.[.[.[.[.[.[.[.[.[.[.[.[.[.[.[.[.[.[.[.[.[.[.[.'.Q b y.y.e.e.w.e.t.y.y.t.t.t.y.y.y.t.F Z q.S @ / #X3X[.[.[.[.[.[.[.",
"[.[.[.[.[.[.[.[.[.[.[.[.[.[.[.[.[.[.[.[.[.[.[.[.[.[.|. X{.{.{.}. X(.w S y.t.y.y.t.t.t.y.t.t.t.t.y.y.w.A S q.b % ] OXwX|.[.[.[.[.[.[.[.",
"[.[.[.[.[.[.[.[.|.{.].{.].].].1X*X*X-X*X*X-X/.+X/././.P.G.G.G.P.I.n.& n y.y.y.y.t.t.t.t.t.t.t.t.w.A Z P F 7 e l.%XwX|.|.[.[.[.[.[.[.[.",
"[.[.[.[.[.[. X/.Q.K.H.H.G.F.F.G.F.H.F.F.F.B.M.B.M.B.M.N.v.n.N.N.N.X.r @ G y.y.y.t.t.t.y.y.t.e.A n P L b @ u F.6X2X|.[.|.[.[.[.[.[.[.[.",
"[.[.[.[.[.[.1XG.n.n.n.n.n.n.N.n.n.n.z.N.n.z.n.z.n.n.n.z.z.z.z.v.z.l./ # , D t.y.y.t.e.e.P J Z S F b , % M X.F.OX X[.[.[.[.[.[.[.[.[.[.",
"|.[.[.[.[.|.qXI.n.z.z.z.z.z.z.z.z.z.z.z.z.z.z.z.z.l.z.z.z.z.z.z.z.z.i./ & X 5 m m n H A J J A 9 @ & p } l.z.N.Q.|.[.[.[.[.[.[.[.[.[.[.",
"[.[.[.[.[.|.tX7XoXP.G.F.B.m.m.m.m.m.N.n.m.F.H.H.H.H.H.H.H.F.M.n.v.z.l.X.{ M & # X - 9 9 8 , 6 i ` z.M.F.G.I.OX2X|.[.[.[.[.[.[.[.[.[.[.",
"[.[.[.[.[.|.,XwXrX8X9X9X6X$X$X$X#X$X@X#X&X6X9X9X9X9X9X9X9X6X$XOX.XI.P.Y.H.M.m.z.X.( Q ! / X.F..X@X&X9X6X8XrXrX<X[.|.[.[.[.[.[.[.[.[.[.",
"[.[.[.[.[.[.[.|.3XeXeXeXqXqXqX0XeXqXrX0XqXeXeXeXeXeXeXeXeXqXqXrXrX8X8X8X8X9X&X$X$XOX.XXX@X&X7X0X0XtXeXeX4X<X X[.[.[.[.[.[.[.[.[.[.[.[.",
"[.[.[.[.[.[.|.[.[.|.|.|.|.|.|.|.|.,X<X|.|.|.|.|.|.|.|. X|.|. X3X3X3X3X4XyX4X3X3XqXiX9XrXqX5X X|.|.|.|.|.|.[.[.[.[.[.[.[.[.[.[.[.[.[.[."
};
