/* XPM */
static char *cuphead13_110[] = {
/* columns rows colors chars-per-pixel */
"68 83 228 2 ",
"   c #010101",
".  c #0C0303",
"X  c #0B0B0B",
"o  c #080807",
"O  c #1B0404",
"+  c #120E0B",
"@  c #160A07",
"#  c #15110D",
"$  c #1C130A",
"%  c #1A1006",
"&  c #141414",
"*  c #1A1514",
"=  c #1C1B1B",
"-  c #171819",
";  c #0F0F10",
":  c #270706",
">  c #3B0B0A",
",  c #330707",
"<  c #22180D",
"1  c #2B1D0D",
"2  c #23160A",
"3  c #241A16",
"4  c #37180F",
"5  c #25201B",
"6  c #3C2913",
"7  c #362614",
"8  c #37240D",
"9  c #1E2020",
"0  c #242323",
"q  c #2B2B2B",
"w  c #292726",
"e  c #332E2D",
"r  c #362624",
"t  c #2E3132",
"y  c #343434",
"u  c #393634",
"i  c #3B3B3B",
"p  c #363939",
"a  c #31302F",
"s  c #480201",
"d  c #530303",
"f  c #5A0A09",
"g  c #4D1C1B",
"h  c #630302",
"j  c #6B0302",
"k  c #640B0B",
"l  c #740202",
"z  c #7A0101",
"x  c #761817",
"c  c #412B12",
"v  c #4C3315",
"b  c #473117",
"n  c #523615",
"m  c #54391A",
"M  c #5C3E1A",
"N  c #583A16",
"B  c #603F18",
"V  c #472121",
"C  c #553C20",
"Z  c #433939",
"A  c #583232",
"S  c #5F411C",
"D  c #63431C",
"F  c #6D491E",
"G  c #69461C",
"H  c #744D1E",
"J  c #7E531F",
"K  c #734E20",
"L  c #775123",
"P  c #7D5422",
"I  c #694F31",
"U  c #403F40",
"Y  c #3C4142",
"T  c #374040",
"R  c #434444",
"E  c #4B4B4B",
"W  c #444B4B",
"Q  c #554C4B",
"!  c #495454",
"~  c #535454",
"^  c #535B5B",
"/  c #5B5C5C",
"(  c #595655",
")  c #4F4F50",
"_  c #715454",
"`  c #6D6358",
"'  c #5A6868",
"]  c #5C7A7A",
"[  c #636363",
"{  c #6C6C6C",
"}  c #666B6B",
"|  c #756866",
" . c #6D7272",
".. c #677E7E",
"X. c #737373",
"o. c #767A7B",
"O. c #7C7D7D",
"+. c #7D7774",
"@. c #72706C",
"#. c #880404",
"$. c #9D0202",
"%. c #950404",
"&. c #961818",
"*. c #841919",
"=. c #AC0202",
"-. c #A70A09",
";. c #B30202",
":. c #B70303",
">. c #A41313",
",. c #943737",
"<. c #8D2B2A",
"1. c #C40000",
"2. c #CC0000",
"3. c #D40000",
"4. c #D80000",
"5. c #825621",
"6. c #855922",
"7. c #8B5D24",
"8. c #905F24",
"9. c #966324",
"0. c #996424",
"q. c #955959",
"w. c #914B4A",
"e. c #967778",
"r. c #8E7474",
"t. c #A36A6A",
"y. c #7F7F80",
"u. c #5F8181",
"i. c #6B8384",
"p. c #6A8A89",
"a. c #798787",
"s. c #739393",
"d. c #7E9999",
"f. c #7FB3B3",
"g. c #7FA7A7",
"h. c #828383",
"j. c #8C8C8C",
"k. c #888888",
"l. c #958888",
"z. c #8E9292",
"x. c #839999",
"c. c #939393",
"v. c #969899",
"b. c #9B9B9B",
"n. c #989696",
"m. c #8F8F90",
"M. c #A68989",
"N. c #A59A9A",
"B. c #85A8A8",
"V. c #99A4A4",
"C. c #8BBBBB",
"Z. c #89B5B5",
"A. c #98BABA",
"S. c #A4A4A4",
"D. c #A7A7A8",
"F. c #A7A9A9",
"G. c #ABABAB",
"H. c #A8A8A7",
"J. c #AFB1B1",
"K. c #AABBBB",
"L. c #B3B3B3",
"P. c #BCBCBC",
"I. c #BAB5B5",
"U. c #B2ACAC",
"Y. c #BFBFC0",
"T. c #97C5C5",
"R. c #9EDADA",
"E. c #8DC1C1",
"W. c #A2C3C3",
"Q. c #A8C9C9",
"!. c #BEC1C1",
"~. c #B6CACA",
"^. c #ACD5D6",
"/. c #A7D9D9",
"(. c #B3DCDC",
"). c #BCDBDB",
"_. c #B1D4D4",
"`. c #A0D0CF",
"'. c #A4E3E3",
"]. c #ABE4E4",
"[. c #AAEBEB",
"{. c #AAE9E9",
"}. c #BBE3E3",
"|. c #B4ECEC",
" X c #BBEAEA",
".X c #B2E4E4",
"XX c #ACF4F4",
"oX c #AFFFFF",
"OX c #B3F3F3",
"+X c #BCF4F4",
"@X c #B2FEFE",
"#X c #BBFDFD",
"$X c #C3C4C4",
"%X c #C5CACA",
"&X c #CBCBCC",
"*X c #D0CFCF",
"=X c #CED2D2",
"-X c #C4DADA",
";X c #CBDADA",
":X c #D3D4D4",
">X c #D4DCDC",
",X c #DBDCDC",
"<X c #D8D7D7",
"1X c #E0DFDF",
"2X c #C5EBEB",
"3X c #CCEAEA",
"4X c #CAE3E3",
"5X c #D4E4E4",
"6X c #DFE2E2",
"7X c #DBECEC",
"8X c #D3EEEE",
"9X c #C3F3F3",
"0X c #CDF6F6",
"qX c #C4FEFE",
"wX c #CCFBFB",
"eX c #D5F4F4",
"rX c #D4FBFB",
"tX c #DBFAFA",
"yX c #DBF2F2",
"uX c #E3E3E3",
"iX c #EBECEC",
"pX c #E4ECEC",
"aX c #E2F3F4",
"sX c #E9FCFC",
"dX c #E9F1F1",
"fX c #F3F4F4",
"gX c #F9F9F9",
"hX c #F0EEEE",
/* pixels */
"oXoXoXoXoXoXoXoXoXoXoX@XoXoXoXoXoXoXoXoXoXoX@XOXQ.' Z x.OXoXoXoXoXoXoXoXoXoXoXoXoXoXoXoXoXoXoXoXoXoXoXoXoX@XoXoXoXoXoXoXoXoXoXoXoXoXoXoX",
"oXoXoXoXoXoXoXoXoXoXoXoXoXoXoXoXoXoXoXoXoXoXC.^ q 0 q q `.oXoXoXoXoXoXoXoXoXoXoXoXoXoXoXoXoXoXoXoX@XoXoXoXoXoXoXoXoXoXoXoXoXoXoXoXoXoXoX",
"oXoXoXoXoXoXoXoXoXoXoXoXoXoXoXoXoXoX@X{.Z.' 0 9 / S.m.9 ' XXoXoXoXoXoXoXoXoXoXoXoXoXoXoXoXoXoXoXoXoXoXoXoXoXoXoXoXoXoXoXoXoXoXoXoXoXoXoX",
"oXoXoXoXoXoXoXoXoXoXoXoXoX@X@XXX{.E.i.Y $ O ( S.Y.<XL.h.0 s.OXoXoXoXoXoXoXoXoXoXoXoXoXoXoXoXoXoXoXoXoXoXoXoXoXoXoXoXoXoXoXoXoXoXoXoXoXoX",
"oXoXoXoXoXoXoXoXoXoXoXoX{.B.s.' i = : s #.=.e.<Xh.P.S.*X@.9 Z.oXoXoXoXoXoXoXoXoXoXoXoXoXoX@XoXoXoXoXoXoXoXoXoXoXoXoXoXoXoXoXoXoXoXoXoXoX",
"oXoXoXoXoXoXoXoXoXoXoXoX..3 0 E O.h.*.1.4.4.,.&XS.%Xn.Y.&XR T /.oXoXoXoXoXoXoXoXoXoXoXoXoXoXoXoXoXoXoXoXoXoXoXoXoXoXoX@XoXoXoXoXoXoXoXoX",
"oXoXoXoXoXoXoXoXoXoX@X^.y o.h.L.uX:Xq.1.4.4.>.I.$X$XF.Y.b.L.t ! [.oXoXoXoXoXoXoXoXoXoXoXoXoXoXoXoXoXoXoXoXoXoXoXoXoXoXoXoXoXoXoXoXoXoXoX",
"@XoXoXoXoXoXoXoXoXoX#Xv.y $X&Xv.:XY.N.-.4.4.:.M.*XI.%XP.j.*X_ O u.XXoXoXoXoXoXoXoXoXoXoXoXoXoX@XoXoXoXoXoXoXoXoXoXoXoXoXoXoXoXoXoXoXoXoX",
"oXoXoXoXoXoXoXoXoXoXrXO.y $X1XD.G.F.L.&.4.4.1.t.hXU.<Xc.D.N.>.z 3 s.oXoXoXoXoXoXoXoXoXoX@XoX@X@X@X@X@X@X@X@X@X@X@XoX@X@XoXoXoXoXoXoXoXoX",
"oXoXoXoXoXoXoXoXoXoX0XX.w !.,X$XG.=XP.,.2.3.1.q.L.c.iX$Xl.&.3.1.h * s.XXoXoXoXoXoXoXoXoX@XXX/.W.Z.s.s.p.] ] ] p.d.A.Q.^.{.OX@XoXoXoXoXoX",
"oXoXoXoXoXoXoXoXoXoX0Xk.= S.1X&Xv.G.$Xw.3.3.:.A q Y S.e.>.2.4.3.&.Z - p.XXoX@X@XXXR.g.a.} W t w w w u i i i u u a w w w p } A.OXoXoXoXoX",
"oXoXoXoXoXoXoXoXoXoX0XG.= [ <X<Xn.$X$X,.:.z > Y X.0 > =.3.4.4.;.q.:XX.0 y.Z.x. .! t q y E } h.n.b.b.b.v.j.h.X.y.j.z.S.c. .R y d.oXoXoXoX",
"oXoXoXoXoXoXoXoXoXoX}.&X) & O.J.k.$Xo.g > Z o.Y.=X .@ z 3.2.-.q.!.F.$X@.X & y E / o.z.v.c.h.X.[ E y R ' [ } +.j.j.{ b.1X,X&X{ w B.OXoXoX",
"oXoXoXoXoXoXoXoXoXoX0X<XJ.i & 0 0 y y E k.$X<X~.=X$XE . k <.M.*XV.h.&Xl.f @ } y.[ W R R U R ( y.N.D.I.uXiXuX<XY.D.y.n.,X,X<Xo.w R /.oXoX",
"oXoXoXoXoXoXoXoXoXoX@X5X,XP.h.{ O.j.L.*XuXpX}.@XtXuXP.i = b.iX%XS.G.M.&.2.z @ 0  .b.G.:X<X1X<XuX<X&XD.F.n.c.m.n.G.%X:XY.c.[ { c.y x.oXoX",
"oXoXoXoXoXoXoXoXoXoXoXqXdX,X,X<X<XuX=X3X X@XoXoX#X-X:XO.X w O.$XU.w.>.3.4.2.l 3 m.,X:X$XL.V.c.m.j.v.G.U.P.Y.P.G.c.k.X.X.k.a.$XhX( ' oXoX",
"oXoXoXoXoXoXoXoXoXoXoXoX@X(.eX3X}.rXXX@XoXoXoXoXoXXXJ.p   w 0 e x $.=.=.-.%.#.V R h.n.b.D.L.P.&X%XP.J.b.k.{ { h.m.b.$X:X:X$XD.gXa.i .XoX",
"oXoXoXoXoXoXoXoXoXoXoXoXoX@XoXoXoXoXoXoX@XoXoXoXoX@Xc.X & v.b.X.@.r.e.e.l.n.b.D.H.F.V.n.k.O.O.@.{ +.k.n.G.$X,X<X&XL.G.b.b.[ / uXS.a /.oX",
"oXoXoXoXoXoXoXoXoXoXoXoXoXoXoXoXoXoXoXoXoX@XoXoXT.y.p & ) { P.=X&XP.J.b.j.O.{ [ ( [ { o.j.b.D.o.$X:X<XP.D.D.L.b.k.S.D.&Xc.  y :XJ.w E.@X",
"oXoXoXoXoXoXoXoXoXoXoXoXoXoXoXoXoXoXoXoXoX@X'.' 9 w E { L.h.[ { { [ [ @.a.c.G.P.$X&X<X<X,X,X,Xb.P.j.h.j.b.O.h.k.D.G.G.P./   = $XL.0 C.@X",
"oXoXoXoXoXoXoXoXoXoXoXoXoXoXoXoXoXoXoXoXoX{.~ X / L.:X<X,X<X&X$X$X&X*X<X,X,X,X,X,X,X,X,X,X<X,XS.F.b.a.z.b.y.a.k.c.N.H.c.R   X n.$Xw f.@X",
"oXoXoXoXoXoXoXoXoXoX@XoXoXoXoXoXoXoXoXoX@Xs.& X.:X,X<X,X<X,X,X,X,X,X,X,X,X,X,X,X,X,X,X<X,X,X,XG.b.v.r.J.k.y.r.j.c.h.S.H.i   X S.%Xw f.@X",
"oXoXoXoXoXoXoXoXoXoXoXoXoXoXoXoXoXoX@XoX^.q i %X1X,X:XJ.k.=X,X,X,X,X,X,X<X,X,X,X<X,X,X,X,X,X,XP.k.G.y.k.h.r.a.h.D.h.a.b.[ X - P.%X0 Z.@X",
"oXoXoXoXoXoXoXoXoXoXoXoXoXoXoXoXoXoX@X@Xz.& j.,X,X&X{ 0 q Y.,X,X<X,X,X,X,X,X,X,X,X,X,X,X,X,X,X&Xh.L.h.j.F.a.O.a.O.h.O.b.v.- w <XP.q C.@X",
"oXoXoXoXoXoXoXoXoXoXoXoXoXoXoXoXoXoXoX^.~ q $X,X,Xk.0 / 0 b.,X,X,X,X,X,X<X,X,X,X,X,X,X,X<X,X,X<Xj.S.b.h.G.k.y.a.h.O.O.n.E   R iXG.q T.@X",
"oXoXoXoXoXoXoXoXoXoXoXoXoXoXoXoXoXoX@X-Xi / <X,X,X[ R L.q [ <X,X,X,X,X,X,X,X,X,X,X,X,X,X,X,X,X,XL.j.Y.h.h.k.y.r.y.h.O.c.i   { iXk.u .X@X",
"oXoXoXoXoXoXoXoXoXoXoXoXoXoXoXoXoXoXqX=Xq [ ,X,X<X( E &X~ y &X,X,X,X<X,X,X,X,X<X,X<X,X,X,X<X,X,X:Xk.I.V.h.b.a.a.h.r.a.b.o.w h.+.V 3  .(.",
"oXoXoXoXoXoXoXoXoXoXoXoXoXoXoXoXoXoXOX%Xi / ,X,X,X{ 0 F.k.= S.,X,X,X,X,X,X,X,X,X,X,X,X<X,XuX6X,X,XI.j.:Xb.h.r.a.h.O.a.P.b.O.$XA =.$.> ~ ",
"oXoXoXoXoXoXoXoXoXoXoXoXoXoXoXoXoXoX{.$XE i &X,X1XJ.0 y o.9 o.,X,X,X,X,X,X,X,X,X,X,X,X,X%XD.D.$X,X<XS.c.:XJ.F.c.S.S.J.G.y.%X&XQ $.4.z 0 ",
"oXoXoXoXoXoXoXoXoXoXoXoXoXoXoXoXoXoX|.<Xo.& v.1X,X<Xc.w X   E *X,X,X,X,X<X,X,X,X,X,X,X=X/ ; + i n.:X,XS.h.D.I.I.P.Y.n.j.&X,X<Xl., f > ^ ",
"oXoXoXoXoXoXoX@XoXoXoXoX@XoXoXoXoXoX@XyXL.0 R &X,X,X>XL.{ [ b.:X,X>X,X<X,X,X,X,X<X,X6XG.-       & ' P.<X$XD.j.j.m.b.P.<X,X,X,XO.= { c.L.",
"oXoXoXoXoXoXoXoXoXoXoXoXoXoXoXoXoXoX@XtX<X+.& X.<X,X,X,X,X<X,X,X,X,X,X,X,X,X,X<X,X,X1Xb.+           w X.I.<X<X:X<X,X,X,X,X1XL.q ~ &XuXyX",
"oXoXoXoXoXoXoXoXoXoXoXoXoXoXoXoXoXoX@XOX:X$X~ & X.%X,X1X,X,X,X,X<X%X<X,X,X<X,X,X,X,X1XL.=               3 ~ y.c.F.P.Y.$X%XI.~ y P.-XrX@X",
"oXoXoX@XoXoXoXoX@XoXoXoXoXoXoXoXoX@XoX@X(.=XI.R & R z.P.&X&X$XD.X.) P.,X,X,X,X,X,X,X,X<X{ @ d j h : : O       X & 0 R X.Z R ~ G.).@XoXoX",
"oXoXoXoXoXoXoXoXoXoXoXoXoXoXoXoXoXoXoXoX@X5X1XF.w   ; 0 p i q =   o i D.,X,X,X,X,X,X,X,X=Xh.<.-.1.%.#.;.d .       i G.o.t b.:XdX#XoXoXoX",
"oXoXoXoXoXoXoXoXoXoXoXoXoXoXoXoXoXoXoXoXoXqX7X{ o           o         0 k.&X,X,X,X,X,X,X,X<XI.l.w.,.&.-.&.> - p o.Y.D.y k.1X>XqXoXoXoXoX",
"oXoXoXoXoXoXoXoXoXoXoXoXoXoXoXoXoXoXoXoXoX@XA.=   o                     X R k.$X<X,X,X,X<X,X,X,X=X!.U.N.N.b.G.&X<Xm.y { ~.rX@XoXoXoXoXoX",
"oXoXoXoXoXoXoXoXoXoXoXoXoXoXoXoXoXoXoXoXoXOX[   o                           X y { G.&X,X6X1XuX,X6X6X1X,X6XuX,XY.} w O.,X9XoXoXoXoXoXoXoX",
"oXoXoXoXoXoXoXoXoXoXoXoXoXoXoXoXoXoXoXoX@X~.t                                     - U } h.b.D.H.S.D.D.S.b.k.[ y y m.,XtX@XoXoXoXoXoXoX@X",
"oXoXoXoXoXoXoXoXoXoXoXoXoXoXoXoXoXoXoXoX#XS.- o                                         X & = - - = 0 = 0 0 U o.I.>XwX@XoXoXoXoXoXoXoXoX",
"oXoXoXoXoXoXoXoXoXoXoXoXoXoXoXoXoXoXoXoXtXb.&           & y p o                         o ^ j.k.h.j.j.j.n.G.$X1X7X|.oXoXoXoXoXoXoXoXoXoX",
"oXoXoXoXoXoXoXoXoXoXoXoXoXoXoXoXoXoXoXoX}.k.X         y v.$Xr.X                         o k.<X*X:X:X:X:X,XpXaXrXqXoXoXoXoXoXoXoXoXoXoXoX",
"oXoXoXoXoX@XoXoXoXoXoXoXoXoXoXoXoXoXoXoXW.O.X       - b.G.X.w                           X V.(.K.K.T.W.A.).rX@XoXoXoXoXoXoXoXoXoXoXoXoXoX",
"oXoXoXoXoXoXoXoXoXoXoXoXoXoXoXoXoXoXoXoX2X[         & @.Z h j s O                       ; C.@XoX@X@XoXoXoXoXoXoXoXoXoXoXoXoXoXoXoXoXoXoX",
"oXoXoXoXoXoXoXoXoXoXoXoXoXoXoXoXoXoXoX@X3X~           o s 2.3.2.=.l s @               . . E T.@X@XoXoXoXoXoXoXoXoXoXoXoXoXoXoXoXoXoXoXoX",
"oXoXoXoXoXoXoXoXoXoXoXoXoXoXoXoXoXoXoX#X,Xi           . $.4.3.3.4.2.#., o & - X , h f j , > u i.x.'.oXoXoXoXoXoXoXoXoXoXoXoXoXoXoXoXoXoX",
"oXoXoXoXoXoXoXoXoXoXoXoXoXoXoXoXoXoXoX#X,XE           O ;.4.4.3.;.d $ R h.J.I.k.g ;.4.=._ m.m.@.q W R.oXoXoXoXoXoXoXoXoXoXoXoXoXoXoXoXoX",
"oXoXoXoXoXoXoXoXoXoXoXoXoXoXoXoXoXoXoX[.!.[           . #.4.4.:.s 0 c.:X%X&X:Xm.e s %.*.H.1X1X<XD.0 ' [.oXoXoXoXoXoXoXoXoXoXoXoXoXoXoXoX",
"oXoXoXoXoXoXoXoXoXoXoX@XoXoXoXoXoXoXoX#X6Xv.*           : #.h , 0 k.Y.V.c.O.H.&XJ.r.Z r G.uX,X,X,Xj.0 B.oXoXoXoXoXoXoXoXoXoXoXoXoXoXoXoX",
"oXoXoXoXoXoXoXoXoXoXoXoXoXoXoXoXoXoXoX@X3X&XW             @ R R c.6XN.h.j.j.U.L.J.<X&X .k.,X,X,X,X%Xy ^ {.oXoXoXoXoXoXoXoXoXoXoXoXoXoXoX",
"oXoXoXoXoXoXoXoXoXoXoXoXoXoXoXoXoXoXoXoX{.:Xc.-           E %Xk.,XL.v.b.k.n.H.b.a.k.P.G.R S.<X<X,X:X~ y Q.oXoXoXoXoXoXoXoXoXoXoXoXoXoXoX",
"oXoXoXoXoXoXoXoXoXoXoXoXoXoXoXoXoXoXoXoXOX>X:Xk.0       & U.&Xc.pXP.c.S.b.h.c.H.J.&Xb.R   q Y.,X,X:XE q Q.oXoXoXoXoXoXoXoXoXoXoXoXoXoXoX",
"oXoXoXoXoXoXoXoXoXoXoXoXoXoX{.^.^.|.@X@XoXqX6X:Xb.i o   a %Xm.h.H.c.P.<Xk.O.k.G.H.P.L.k.& w $X,X,X&Xy y ^.@XoXoXoXoXoXoXoXoXoXoXoXoXoXoX",
"oXoXoXoXoXoXoXoXoXoXoXoXXXZ.W 3 0 Y i.'.@XoX|.%X<XL. .- E iXc.G.*XL.U.P.k.y.y.S.D.b.c.&Xh.~ &X,X,XP.0 R 2XoXoXoXoXoXoXoXoXoXoXoXoX@XoXoX",
"oXoXoXoXoXoXoXoXoXoXoXoXi.; @ 6 v 8 # ~ {.oXoX|.iXuX:Xr.R &Xk.$X$Xn.Y.b.h.O.c.b.v.h.O.G.G.W $X,X,Xn.X { wXoXoXoXoXoXoXoXoXoXoXoXoXoXoXoX",
"oX@XoXoXoXoXoXoXoXoXR.p.= % L 0.0.9.5.6 ..'.oX@X#XeXP.o.- t R &X<XP.%XI.h.O.h.b.S.U.c.P.S.i $X6X*X( + o.@XoXoXoXoXoXoXoXoXoXoXoXoXoXoXoX",
"oXoXoXoXoXoXoXoXoXE.i 6 6 N 9.9.9.9.0.H < Y T.@XoXOXo.& , j r $XS.J.%Xk.k.a.y.h.n.P.&XL.R u z.n.{ C b R '.oXoXoXoXoXoXoXoXoXoXoXoXoXoXoX",
"oXoXoXoXoXoXoXoXOX^ 8 6.S 6.0.9.9.9.9.M c 1 E /.(.`.~ : j :.f z.:Xj.h.k.n.r.y.y.$Xj.y 9 1 H P L J 8.n 5 A.@XoXoXoXoXoXoXoXoXoXoXoXoXoXoX",
"oXoXoXoXoXoXoX#X-Xu D 6.m 9.0.9.9.9.D F 9.F $ W ) p & , A *.l 5 S.<XJ.b.c.a.O.O.*XD.# $ 6 D H L P S @ R _.oXoXoXoXoXoXoXoXoXoXoXoXoXoXoX",
"oXoXoXoXoXoX@X+XY.r H H D 0.9.0.0.P m 7.I ` E i R ^ } j.$X` , 2 w o.I.L.I.I.S.S.*Xy.c 6.J H G S S % - S.rXoXoXoXoXoXoXoXoXoXoXoXoXoXoXoX",
"oXoXoXoXoXoXoX|.G.5 P S H 0.9.9.9.G K 6.` &X:X&X&X<X<X,X,X[ 1 6.S 2 * * = @.$XJ.[ 3 G 9.0.0.0.9.F + [ %X#XoXoXoXoXoXoXoXoXoXoXoXoXoXoXoX",
"oXoXoXoXoXoXoXOXb.7 P n 6.0.0.9.9.S 6.5.+.,X,X,X,X,X,X1X=XU 6 0.9.5.F N N 5 = * 2 B 9.9.9.9.0.6.1 0 J.2X@XoXoXoXoXoXoXoXoXoXoXoXoXoXoXoX",
"oXoXoXoXoXoXoXrXa.b 6.m 7.0.9.9.9.M 6.5.@.,X,X1X,X,X<XP.X.- 6 0.0.0.0.0.9.5.M D 6.9.9.9.9.0.7.7 + y.;X@XoXoXoXoXoXoXoXoXoXoXoXoXoXoXoXoX",
"oXoXoXoXoXoX@XdX/ n 7.M 9.0.9.0.9.D P 9.I h.n.L.G.c.} a 5 + 2 5.0.9.9.9.9.0.0.0.0.9.9.0.9.H 1 X / %XwX@XoXoXoXoXoXoXoXoXoXoXoXoXoXoXoXoX",
"oXoXoXoXoXoX@X7XE N 7.M 9.0.9.9.9.K S 9.7.G = q y i R } H.[ . v 8.0.9.9.9.0.9.9.0.0.0.5.v + = o.<X8X@X@XoXoXoXoXoXoXoXoXoXoXoXoXoXoXoXoX",
"oXoXoXoXoXoXqX6XR N 7.m 9.0.9.9.9.9.S G 8.H $  .J.P.&X6XuXY.E # c H 8.9.9.9.8.6.5.H N 2 X R S.:X).@XoXoXoXoXoXoXoXoXoXoXoXoXoXoXoX@XoXoX",
"oX@XoXoXoXoXwXpXR c 7.m 7.0.0.9.9.0.7.G m * p L.,X1X<XyXaXuXY.X.y 5 7 c v c 1 1 < # * y h.%X&X4XXXoXoXoXoXoXoXoXoXoXoXoXoXoXoXoXoXoXoXoX",
"oXoXoXoXoXoXwXhX[ 1 6.m 6.0.0.0.9.9.0.0.K 3 b.>X_.}.qX@XqXrX,X=XP.b.@.E i i E / X.h.b.P.:X:X}.@X@XoXoXoXoXoXoXoXoXoXoXoXoXoXoXoXoXoXoXoX",
"oXoXoXoXoXoXqXdXm.# D M 6.0.9.9.9.0.9.9.n X ~ k.T.oXoXoXoXoX.XuX=X,X<X&X$X$X&X:X<X1XuX5X}.@XoXoXoXoXoXoXoXoXoXoXoXoXoXoXoX@XoXoXoXoXoXoX",
"oXoXoXoXoXoXoX-X%Xi 1 M H 0.9.9.9.9.9.F v v m 7 e g.oX@XoXoX@X#X|.2X4XpXiX7XyX4X4XwX#X#XoX@XoXoXoXoXoXoXoXoXoXoXoXoXoXoXoXoXoXoXoXoXoXoX",
"oXoXoXoXoXoXoXwXuXv.= c m 9.0.9.9.9.9.5.7.0.0.9.n 0 C.@XoXoXoXoXoXoXoX#XqX@X@XoX@XoXoXoXoXoXoXoXoXoXoXoXoXoXoXoXoXoXoXoXoXoXoXoXoXoXoXoX",
"oXoXoXoXoXoXoX@X=X*X[ - e K 0.9.9.9.9.0.0.0.0.0.6.2 ^ OXoXoXoXoXoXoXoXoXoXoXoXoX@X@XoXoXoXoXoXoX@XoXoXoXoXoXoXoXoXoXoXoXoXoXoXoXoXoXoXoX",
"oXoXoXoXoXoXoXoX0XuXL.i o 1 6.0.0.9.0.9.0.0.0.0.7.1 Y [.oXoXoXoXoXoXoXoXoXoXoXoXoXoXoXoXoXoXoXoXoXoXoXoXoXoXoXoXoXoXoXoXoXoXoXoXoXoXoXoX",
"oXoXoXoXoX@XoXoX#X~.:XG.i   c 7.9.0.0.0.0.0.9.6.n #  .2X9X9X9X9X9X9X+XoXoXoXoXoXoXoXoXoXoXoXoXoXoXoXoXoXoXoXoXoXoXoXoXoXoXoXoXoXoXoXoXoX",
"oX@X@XoX@X+X|.|.).P.L.D.h.i & < c M F H H M 7 $ + R c.G.J.G.U.G.G.G.G.^.|.oXoX#X+X+X+X+X+X@XoXoXoXoXoXoXoXoXoXoXoXoXoXoXoXoXoXoXoXoXoXoX",
"oXOX.XQ.L.G.S.b.v.v.n.j.h.O./ q - X X # @ X - y / k.m.c.c.c.c.c.c.c.n.b.G.K.W.K.L.G.G.G.G.K.~.}.OXoXoXoXoXoXoXoX@XoXoXoXoXoXoXoXoXoXoXoX",
"@X_.v.n.c.c.n.z.j.m.c.j.k.k.a.o.@./ ) E ~ / X.h.j.j.j.j.j.j.j.j.j.j.j.n.n.c.c.c.c.c.c.c.c.n.v.b.K.}.@XoXoXoXoXoXoXoXoXoXoXoXoXoXoXoXoXoX",
"(.!.b.c.j.j.j.j.j.j.j.j.c.n.j.m.m.z.j.j.k.k.k.k.j.j.j.j.j.j.j.j.j.j.j.j.j.m.j.j.j.j.j.k.j.c.c.b.S.L.OXoXoXoXoXoXoXoXoXoXoXoXoXoXoXoXoXoX",
"Q.:X,X&XP.P.P.L.L.I.Y.&X=X:X:X<X<X<X:X<X*X$XD.j.j.j.j.j.j.k.j.j.j.j.j.j.k.j.j.z.c.v.N.F.L.P.$X:X<XuXwXoXoXoXoXoXoXoXoXoXoXoXoXoXoXoXoX@X",
"[.-XfXhXhX,X:XiXiXiX,XiXhX1X<X,XgXfXgXfX1XpX1XG.b.c.j.c.c.c.n.b.b.b.S.G.L.P.$X&X&X<X6XuX<XiXhXhXfX4XqXoXoXoXoXoXoXoXoXoXoXoXoXoXoXoXoXoX",
"oX@XqXtXsX7X5XsXsXsX2X#XqX|.{.|.qXqXqXqX|.aXfXpX<X&XP.!.%X$X:X<X<X,XuX<X:XuX1XfX,X*X-XsX7XwXqXqXqX@XoXoXoXoXoXoXoXoXoXoXoXoXoXoXoXoXoXoX",
"oXoXoXoXoXoX@X@XoX@XoXoXoXoXoXoXoXoXoXoXoXoXwX%XI.$X<X6XuX1XP.P.P.=XsX5X;XeX|.qXwXqX@X@XoXoXoXoXoXoXoXoXoXoXoXoXoXoXoXoXoXoXoXoXoXoXoXoX",
"oXoXoXoXoXoXoXoXoXoXoXoXoXoXoXoXoXoXoXoXoXoXoXOX2X$X$X).2X2XrX0X0XOX@X@X#X@XoXoXoXoXoXoXoXoXoXoXoXoXoXoXoXoXoXoXoXoXoXoXoXoXoXoXoXoXoXoX"
};
