/* XPM */
static char *cuphead8_110[] = {
/* columns rows colors chars-per-pixel */
"72 83 226 2 ",
"   c #010101",
".  c #0B0B0B",
"X  c #0B0302",
"o  c #160806",
"O  c #13100D",
"+  c #1A130B",
"@  c #141413",
"#  c #1A1513",
"$  c #1D1916",
"%  c #1C1B1B",
"&  c #171718",
"*  c #0F1011",
"=  c #230403",
"-  c #290707",
";  c #340303",
":  c #3C0201",
">  c #251A0C",
",  c #261A0C",
"<  c #221E1D",
"1  c #251C14",
"2  c #351717",
"3  c #35240E",
"4  c #2B2219",
"5  c #3B2812",
"6  c #1F2020",
"7  c #242424",
"8  c #2B2927",
"9  c #2C2C2C",
"0  c #292725",
"q  c #362B29",
"w  c #31302F",
"e  c #3F3120",
"r  c #2E3030",
"t  c #343333",
"y  c #3C3C3C",
"u  c #393937",
"i  c #4A0302",
"p  c #440606",
"a  c #570303",
"s  c #561919",
"d  c #6D0101",
"f  c #670505",
"g  c #750202",
"h  c #7B0101",
"j  c #780D0D",
"k  c #6E1412",
"l  c #442D13",
"z  c #412F18",
"x  c #4A3216",
"c  c #563A19",
"v  c #5B3D1A",
"b  c #543816",
"n  c #603F18",
"m  c #67261E",
"M  c #443A38",
"N  c #522E2C",
"B  c #622B2A",
"V  c #763E3E",
"C  c #732C2B",
"Z  c #5E401C",
"A  c #64431C",
"S  c #69461D",
"D  c #6D491E",
"F  c #734C1E",
"G  c #79501F",
"H  c #504232",
"J  c #654621",
"K  c #6D4A21",
"L  c #694E2E",
"P  c #734E21",
"I  c #7C5322",
"U  c #765123",
"Y  c #68543B",
"T  c #664F34",
"R  c #3B4142",
"E  c #434343",
"W  c #494746",
"Q  c #444A4A",
"!  c #4C4C4C",
"~  c #464748",
"^  c #504F4F",
"/  c #504F50",
"(  c #4A5353",
")  c #545454",
"_  c #565B5B",
"`  c #5C5C5C",
"'  c #585757",
"]  c #655E5C",
"[  c #785655",
"{  c #6C645B",
"}  c #5C5F60",
"|  c #5C6363",
" . c #5E6A6A",
".. c #636363",
"X. c #656C6C",
"o. c #6C6C6C",
"O. c #686565",
"+. c #736D67",
"@. c #6B7878",
"#. c #737474",
"$. c #757B7B",
"%. c #7C7C7C",
"&. c #7B7776",
"*. c #74716D",
"=. c #880202",
"-. c #930202",
";. c #9A0808",
":. c #8A1B1B",
">. c #9A1817",
",. c #A30202",
"<. c #AC0202",
"1. c #A50B0A",
"2. c #B40202",
"3. c #BC0101",
"4. c #B00908",
"5. c #A51919",
"6. c #8A3030",
"7. c #C40100",
"8. c #CA0000",
"9. c #D40000",
"0. c #D90000",
"q. c #81541F",
"w. c #815622",
"e. c #855822",
"r. c #8C5C23",
"t. c #915F23",
"y. c #966223",
"u. c #996424",
"i. c #9D6826",
"p. c #894646",
"a. c #904F4F",
"s. c #80615F",
"d. c #8A6665",
"f. c #827E7E",
"g. c #90706D",
"h. c #6C8281",
"j. c #7E8181",
"k. c #738484",
"l. c #7A9898",
"z. c #848484",
"x. c #8D8C8C",
"c. c #878988",
"v. c #918E8E",
"b. c #988484",
"n. c #8D9191",
"m. c #829696",
"M. c #949493",
"N. c #999696",
"B. c #9B9B9B",
"V. c #959999",
"C. c #918F90",
"Z. c #A29E9D",
"A. c #A69999",
"S. c #AD8E8E",
"D. c #A2A09F",
"F. c #9FA0A0",
"G. c #94ADAD",
"H. c #95BCBC",
"J. c #97B7B7",
"K. c #89B1B1",
"L. c #A4A4A4",
"P. c #A7A9A9",
"I. c #ABACAC",
"U. c #AAA7A7",
"Y. c #ADB1B1",
"T. c #A7BBBB",
"R. c #B4B4B4",
"E. c #B5BABA",
"W. c #BBBCBC",
"Q. c #B8B7B7",
"!. c #B3AFAF",
"~. c #C3BFBD",
"^. c #96C7C7",
"/. c #9CD6D6",
"(. c #8EC7C7",
"). c #A9C6C6",
"_. c #B8C7C7",
"`. c #A4D5D5",
"'. c #A7DDDD",
"]. c #B6D7D7",
"[. c #ACEBEB",
"{. c #A8E5E5",
"}. c #B4E4E4",
"|. c #B8EAEA",
" X c #ADF3F3",
".X c #AFFFFF",
"XX c #B4F4F4",
"oX c #BBF4F4",
"OX c #B2FEFE",
"+X c #BBFDFD",
"@X c #B6F7F8",
"#X c #C3C3C4",
"$X c #CBCCCC",
"%X c #C7C8C8",
"&X c #D1CFCF",
"*X c #CDD1D2",
"=X c #C7D8D8",
"-X c #D4D4D4",
";X c #D6D9D9",
":X c #DBDBDB",
">X c #D8D7D7",
",X c #E0DFDF",
"<X c #C7E6E6",
"1X c #DEE1E1",
"2X c #DCEFEF",
"3X c #D4E0E0",
"4X c #C4FDFD",
"5X c #CBFCFC",
"6X c #C9F5F5",
"7X c #D4F5F5",
"8X c #DCF3F3",
"9X c #D4FBFB",
"0X c #DCFAFA",
"qX c #E3E4E4",
"wX c #E5EBEB",
"eX c #ECEDED",
"rX c #E8E7E7",
"tX c #F0EFEF",
"yX c #E4F4F4",
"uX c #EBF4F4",
"iX c #E3FAFA",
"pX c #EBF9F9",
"aX c #F5F5F5",
"sX c #F7F8F8",
"dX c #F9FAFA",
"fX c #F7F7F8",
/* pixels */
".X.X.X.X.X.X.X.X.X.X.X.X.X.X.X.X.X.X.X.X.X.X.XOX'.@...J.'.OXOX.X.X.X.X.X.X.X.X.X.X.X.X.X.X.X.X.X.X.X.X.X.X.X.X.X.X.X.X.X.X.X.X.X.X.X.X.X.X.X.X.X",
".X.X.X.X.X.X.X.X.X.X.X.X.X.XOX.X.X.X.X.X.X.XOX/.` ) y 9 Q l.'.OX.X.X.X.X.X.X.X.X.X.X.X.X.X.X.X.X.X.X.X.X.X.X.X.X.X.X.X.X.X.X.X.X.X.X.X.X.X.X.X.X",
".X.X.X.X.X.X.X.X.X.X.X.X.X.X.X.X.X.X.X.X.XOX[.' #.qX:XL.q - t k.'..X.X.X.X.X.X.X.X.X.X.X.X.X.X.X.X.X.X.X.X.X.X.X.X.X.X.X.X.X.X.X.X.X.X.X.X.X.X.X",
".X.X.X.X.X.X.X.X.X.X.X.X.X.X.X.X.X.X.X.X.XOXG.t %XdXeXb.;.<.d - R l.{..X.X.X.X.X.X.X.X.X.X.X.X.X.X.X.X.X.X.X.X.X.X.X.X.X.X.X.X.X.X.X.X.X.X.X.X.X",
".X.X.X.X.X.X.X.X.X.X.X.X.X.X.X.X.X.X.X.X.X5X#.y rXsXL.:.9.0.0.-.M y E l.[.OX.X.X.X.X.X.X.X.X.X.X.X.X.X.X.X.X.X.X.X.X.X.X.X.X.X.X.X.X.X.X.X.X.X.X",
".X.X.X.X.X.X.X.X.X.X.X.X.X.X.X.X.X.X.X.XOXpX..t 1XwXa.7.9.0.<.d.>X$XO.7  .`.OX.X.X.X.X.X.X.X.X.X.X.X.X.X.X.X.X.X.X.X.X.X.X.XOX.X.X.X.X.X.X.X.X.X",
".X.X.X.X.X.X.X.X.X.X.X.X.X.X.X.X.X.X.XOXOXuXx.7 ..N.>.0.9.7.6.-XdXdXeXM.& y (.@X.X.X.X.X.X.X.X.X.X.X.X.X.X.X.X.X.X.X.X.X.X.X.X.X.X.X.X.X.X.X.X.X",
"OX.X.X.X.X.X.X.X.X.X.X.X.X.X.X.X.X.X.XOXOXpX-XB.E % i <.0.1.N.aXaXdXwXc.c.E 9 (.OX.X.X.X.X.X.X.X.X.X.X.XOX.X.X.X.X.X.X.X.X.X.X.X.X.X.XOX.X.X.X.X",
".X.X.X.X.X.X.X.X.X.X.X.X.X.X.X.X.X.X.X.XOXiXeX:XW.f.t = h C %XsXaXaXL.M.aX-XE t /.OXOX.X.X.X.X.X.X.X.X.X.X.X.X.X.X.X.X.X.X.X.X.X.X.X.X.X.X.X.X.X",
".X.X.X.XOX.X.X.X.X.X.X.X.X.X.X.X.X.X.X.XOXOX4XyXrX-XY.} # 7 I.aXdXW.*.:XsXsX#X8 ! {.OX.X.X.X.X.X.X.X.X.X.X.X.X.X.X.X.X.X.X.X.X.X.X.X.X.X.X.X.X.X",
".X.X.X.X.X.X.X.X.X.X.X.X.X.X.XOX.X.X.X.X.X.X.X+X9XeX,X$Xv.9 8 n.#Xz.%XaXsXsX-XB = X.[..X.X.X.X.X.X.X.X.X.X.X.X.X.X.X.X.X.X.X.X.X.X.X.X.X.X.X.X.X",
".X.X.X.X.X.X.X.X.X.X.X.X.X.X.X.X.X.X.X.X.X.X.X.XOX+XyXrX>XI.' % r R.dXaXdX:Xa.4.=.> h. X.X.X.X.X.X.X.X.X.X.X.X.X.X.X.X.X.X.X.X.X.X.X.X.X.X.X.X.X",
".X.X.X.X.X.X.X.X.X.X.X.X.X.X.X.X.X.X.X.X.X.X.X.X.X.XOX5XeX,X%X%.% ' -XwX!.p.2.0.9.d 8 ).OXOX.X.X.X.X.X.X.X.X.X.X.X.X.X.X.X.X.X.X.X.X.X.X.X.X.X.X",
".X.X.X.X.X.X.X.X.X.X.X.X.X.X.X.X.X.X.X.X.X.X.X.X.X.X.X.X+X0XrX-Xx.6 u a.5.7.9.9.0.7.p k.+X.X.X.X.X.X.X.X.X.X.X.X.X.X.X.XOX.X.X.X.X.X.X.X.X.X.X.X",
".X.X.X.X.X.X.X.X.X.X.X.X.X.X.X.X.X.X.X.X.X.X.X.X.X.X.X.X.X.X5XwX-Xc.& i 7.0.9.9.9.7.s R {..X.X.X.X.X.X.X.XOXOXOX+XOX@X X X X@X@X+XOX.X.X.X.X.X.X",
".X.X.X.X.X.X.X.X.X.X.X.X.X.X.X.X.X.X.X.X.X.X.X.X.X.X.X.X.X.X.X4XwX-Xf.< h 0.0.9.2.6.U.R l.OX X X[.}.}.).^.K.l.n.c.#...' ( ( | X.j.l.^.@XOX.X.X.X",
".X.X.X.X.X.X.X.X.X.X.X.X.X.X.X.X.X.X.X.X.X.X.X.X.X.X.X.X.X.X.X.X4XwX*Xf.2 ;.7.>.d.$XaX%.t $.X.( t t y 7 7 < < 7 t t u y E R y t 7 & 7 V.@X.X.X.X",
".X.X.X.X.X.X.X.X.X.X.X.X.X.X.X.X.X.X.X.X.X.X.X.X.X.X.X.X.X.X.X.X.X+X;XV.6 2 b.#XeXdXdX!.& 7 E ! ..X.| #.$.z.f.%.%.%.&.#.#.%.z.c.P.L.` 8 l..X.X.X",
".X.X.X.X.XOX.X.X.X.X.X.X.X.X.X.X.X.X.X.X.X.X.X.X.X.X.X.X.X.X.X.X.X/.Q % & 8 P.dXdXdX,Xg.2 ' v.C.#.o...W y y y y E ) } } O.#.` t N.qX:Xo.8 ^.OX.X",
".X.X.X.X.X.X.X.XOX.X.X.X.X.X.X.X.X.X.X.X.X.X.X.X.X.X.X.X.X.X.XOX/.y 8 ..F.` E W.~.S.p.4.g & ~ ` O.#.j.x.x.x.M.M.x.N.c.c.c.M.B.B.R.R.x...% Q {..X",
".X.X.X.X.X.X.X.X.X.X.X.X.X.X.X.X.X.X.X.X.X.X.X.X.X.X.X.X.X.XOX|.| % L.1X*X) * N m j ;.1.j M C.M.V.V.M.n.x.x.M.N.F.L.L.L.N.n.f.#...o.B.%Xc.% K.OX",
".X.X.X.X.X.X.X.X.X.X.X.X.X.X.X.X.X.X.X.X.X.XOX.X.X.X.X.X.X.X+XT.6 Q o.B.#XR.c.f.b.b.A.Z.A.F.L.U.I.U.L.Z.N.M.c.z.#.o.o.o.&.C.L.W.Q.L.aXdX&X8 X..X",
".X.X.X.X.X.X.X.X.X.X.X.X.X.X.X.X.X.X.X.X.X.X.X.X.X.X.X.X.X.X9Xz.% L.U.#...O.*.$.%.%.%.f.%.o.O.....' ` #.&.z.c.L.R.%X:XrXaXaXaX%XM.z.eXdX$Xr y |.",
".X.X.X.X.X.X.X.X.X.X.X.X.X.X.X.X.X.X.X.X.X.X.X.X.X.X.X.XOX'.$.9 < R.qX;X%XE.B.M.N.M.v.c.x.V.L.P.R.x.V.wXeXaXfXdXdXsXdXaXaXdX%Xr . E qXaX#.  6 E.",
".X.X.X.X.X.X.X.X.X.X.X.X.X.X.X.X.X.X.X.X.X.X.X.X.X.X.X.X).! ! z.8 P.,X:X:X:X:X:X:X:X:X:X:X:X:X,X:XU.B.aXaXaXdXaXaXaXaXaXdXdXM.    8 -XaX)   . ..",
".X.X.X.X.X.X.X.X.X.X.X.X.X.X.X.X.X.X.X.X.X.X.X.X.X.X.X{.( u #X_.r M.:X:X:X:X:X:X:X>X:X:X:X:X>X:X:XR.M.aXaXaXaXaXaXaXaXaXaXaXz.    t ;XaXz..   / ",
".X.X.X.X.X.X.X.X.X.X.X.X.X.X.X.X.X.X.X.X.X.X.X.X.X.XOXG.6 c.:X*X! #.,X:X:X:X:X:X:X:X:X:X:X:X:X:X:X#Xz.rXdXaXdXaXaXaXaXaXaXaXF.%   E rXdX%Xw   y ",
".X.X.X.X.X.X.X.X.X.X.X.X.X.X.X.X.X.X.X.X.X.X.X.X.X.X6Xo.t #X,X&X/ / >X:X:X:X:X:X:X>X:X:X:X:X;X:X:X-Xz.$XdXaXaXaXaXaXaXsXsXaX1Xo.  ) uXsXM..   ` ",
".X.X.XOX.X.X.X.X.X.X.X.X.XOX.X.X.X.X.X.X.X.X.X.X.XOX3XE ) ;X>X#.& 9 #X:X>X:X:X:X:X>X:X>X>X:X:X:X:X:XM.!.dXaXsXaXaXaXaXaXaXdXB.%   *.aXdXV.. & I.",
".X.X.X.X.X.X.X.X.X.X.X.X.X.X.X.X.X.X.XOX.X.X.X.X.XOX=Xu } ;X%Xt ~ 0 V.,X:X:X:X:X:X:X:X:X:X:X>X:X:X,XU.V.aXaXaXaXaXdXaXaXaXdXz.    z.sXeXL.@ ~ <X",
".X.X.X.X.X.X.X.X.X.X.X.X.X.X.X.X.XOXOX X X@X X X@X+X*Xr ` >X#Xt o.t o.:X:X:X>X:X:X>X:X:X:X:X:X:X:X:X#X%.rXaXaXdXaXaXaXaXaXsX#Xt & R.$X[ C : ) <X",
".X.X.X.X.X.X.X.X.X.X.X.X.X.X.X.XOX'.m.| | X._ ( @.^.*Xu ~ -X&XE ! ) E $X:X>X:X:X:X:X>X:X>X:X:X:X:X:X-Xc.I.aXaXaXaXaXaXaXaXsXaX#X' b.[ <.9.=.w ].",
".X.X.X.X.X.X.X.X.X.X.X.X.X.XOXOXH.E 0 } o.9 u ../ E ! % % I.,Xc.7 0 & L.:X:X:X:X:X:X:X>X:X:X:X:X-X:X,X_.$.$XdXfXfXaXaXaXaXaXaXL.%.O.=.9.7.p  . X",
".X.X.X.X.X.X.X.X.X.X.X.X.X.X.X`.y ~ #XtXaX#XM.qXeXW./ r 0 ` -X-Xc.t @ O.:X:X:X>X>X:X:X:X:X:XR.o.E ..N.&XY.&.W.wXaXdXaXdXdXeXL.z.$XQ.V f i E =XOX",
".X.X.X.X.XOX.X.X.X.X.X.X.X.X@Xk.! ;XdXaXaXaXV.&XdXdXqXB.y % B.:X:X$Xo.w Q.:X:X:X:X>X:X:X:X#Xy       * ^ I.W.x.x.I.#X-X:X#XC.C.&X:X:X#X$.6 B.pXOX",
".X.X.X.X.X.X.X.X.X.X.X.X.XOX7Xo.M.aXaXaXaXQ.] Y.qXaXaXuXf.u y N.-XqX%XR *.>X:X:X:X:X:X:X:XL.@           7 &._.#X!.N.V.N.v.R.>X:X:X:X:X#.y =X+X.X",
".X.X.X.X.X.X.X.X.X.X.X.X.X+XuX%.` D.>XaXaX$XL.D.C.qXaXdX#Xc.%.0 ` L.R...6 F.:X:X:X:X:X>X:XQ.8   o o       X u j.W.-X:X-X-X-X-X:X:X:X!.t c.4X.X.X",
".X.X.X.X.X.X.X.X.X.X.X.X.X+X*X! E Q.tXaXaXaXdXeXf.M.eXdX:Xc.C.r y r 0 &   r R.,X:X:X:X:X:X:Xz.2 -.<.i X       X 8 ) o.../ E ^ M.:X$X' ! 3X+X.X.X",
".X.X.X.X.X.X.X.X.X.X.X.X.X.Xh.9 W.dXaXaXaXdXtXB.x.x.x.&XtX$.0 z.W.F.z.' 0 . R !.:X:X:X:X:X:X-Xb.:.2.3.i : =                 X X.>Xz.9 R.9XOX.X.X",
".X.X.X.X.X.X.X.X.X.X.X.X.X<XE ) uXaXaXdXaXqXI.z.eXaX#XM.rXE.t I.wXqX:X$XI.O.& 9 x.-X:X:X:X:X:X;XU.d.6.j ,.,.:             . ) !.B.w c.pX+X.X.X.X",
".X.X.X.X.X.X.X.X.X.X.X.X+X1XW E ,XdXdX,XP.N.N.C.uXaXaXrXuXqXE %.9X5X8XwX,X%Xo.. @ _ I.>X:X:X:X:X:X-X~.N.d.p.B & .   % ..~ % 9 W u 6 M.oX.X.X.X.X",
".X.X.X.X.X.X.X.X.X.X.X.X4XeXN.7 &.$XQ.z.L.>XqXC.&XaXaXdXdX:Xt %.+X.XOXOX8XP.R X     % o.R.-X,X:X:X>X>X:X>X$XW.V.7 t R.aX&X! z.%X$Xf.9 k. X.X.X.X",
".X.X.X.X.X.X.X.X.X.X.X.X+XyX-Xc.r % % r / ! ! E ..>XaXdXdXV.< G.OX.XOX[.n.7           X 6 ..U.%X:X,X:X:X,X:X:Xo.u W.dXdX:XW.aXaXdXwX' t {.OX.X.X",
".X.X.X.XOX.X.X.X.X.X.X.X.X4X-X#.6 . & O + , 5 x 5 M Z.qXZ.7 E }.OXOX'.| O                   % E &.L.~.%X&X&XL.7 C.aXaXaXaXaXaXaXaXuXo.% m.OX.X.X",
".X.X.X.X.X.X.X.X.X.X.X.X.XJ.E # 4 M H P w.t.y.i.y.n 4 R 7 y Q.<X/.(.| .                         . 7 r u E R 4 t :XdXaXaXaXaXaXaXaXeXR.*.u K.OX.X",
".X.X.X.X.X.X.X.X.X.X.XOXJ.9 > x J w.t.u.y.y.y.y.y.y.l % c.#XD.R < 2 o                           7 z.z.o.O.' & ..eXaXaXdXaXaXaXaXaXaXdXrX^ Q [..X",
".X.X.X.X.X.X.X.X.X.XOX`.y > v Z r.y.u.y.y.y.y.y.y.y.F 8 #XN.< ; =.<.-.g p o                     y &X:X>X>XW.t c.aXaXdXeXaXaXfXaXaXaXaXdX%.7 /.OX",
".X.X.X.X.X.X.X.X.XOX/.R + c c r.u.y.y.y.e.K K P w.y.F q D.t f 3.0.0.0.9.8.h                     ' 2X7X7XyX%Xt L.dXaX#XB.qXaXdXaXaXaXdXaXo.8 `..X",
".X.X.X.X.X.X.X.X.XXX .+ c v q.i.y.u.y.D Z P I G A D l ! ..a 8.0.9.0.9.9.0.2.o                 X c.+X.X.X|.z.% #.aX-XD.#XQ.wXfXfXaXdXeXU.t %.6X.X",
".X.X.X.X.X.XOXOX@Xl.& b A F u.u.y.r.A S y.y.y.y.e.> 9 n.q ,.0.9.9.0.8.9.0.8.d                 9 _..XOXOXG.E N.o.%XaXqXP.R.tXaXaXaXfXrX%.t _.OX.X",
".X.XOX X`.T.G.K.@.% 5 S v y.u.y.y.A D u.w.L Y L c . ' c.p 8.0.8.9.9.9.9.9.9.3.p               9 V.).).J.} E rXW.M.aXeX-X%X-XaXaXaXaXdX-Xy G.OX.X",
".XOX/.' 7 @ . @ 1 z S c e.u.y.u.D Z y.U { U.%XB.4 . j.] a 8.0.9.9.9.9.0.8.9.9.<.;               . @ & .   % W.tXx.$XsX-XQ.qXaXaXaXdXdX$Xy (.OX.X",
".X{.( o 3 x x x c v v q.u.y.y.q.c r.I { %X:X:X:X$.. < . a 3.3.9.9.9.9.9.9.9.9.9.2.a X                        .uX#Xz.:XaXdXdXfXaXqXeXaXN.t /.OX.X",
"oXl.O v y.u.y.q.G G y.u.u.y.u.G A y.T R.:X:X:X:X#Xw   = p -.4.9.9.9.9.9.0.8.8.0.9.7.=.; o X                 & E.dXI...V.&XeXaXR.~ ..$.t #.oX.X.X",
"7X) , r.y.u.u.u.u.u.u.u.y.u.u.S D y.Y E.,X:X:X:X:Xn.q g f 7.9.9.8.9.9.9.9.9.8.9.9.9.9.7.-.p % @ .         o 3 H x.#.$ l M ` ` t W &.#.c.*X+X.X.X",
"rX` 3 r.u.u.y.u.u.u.u.y.u.u.u.q.v r.D ] $X,X:X:X:X-XR.b.] ;.9.9.9.9.9.9.9.9.0.9.9.9.9.9.8.s x.N.z.#.#.` # A y.G c x S y.c c 3 o.%X:X:XrX9X.X.X.X",
"eXn.3 q.u.y.y.y.u.u.u.y.u.u.y.u.v , > * ) Q.:X:X:X:X:X,XE.:.8.9.9.9.9.9.9.9.9.8.8.9.9.9.-.M #X:X:X>X:XF.1 F u.u.y.y.u.u.F U c *.2X7X6X5XOXOX.X.X",
"yX#XM c y.u.y.y.u.y.y.y.u.u.t.F , 8 ' &.y t x.&X:X:X:X:X*Xp.8.9.9.9.9.9.9.8.9.0.9.9.0.3.: ..8X9X7X7X7XF.$ G u.y.y.y.u.u.G F n ) oX.X.X.X.X.X.X.X",
"9XqXM.0 5 G t.y.u.u.u.y.r.F l + ) R.-X-XR.} 7 E M.#X$X~.V.B 7.0.9.9.9.9.9.9.9.9.9.9.8.g X < $.[.OX.X+XY.4 F i.y.y.y.y.u.w.K A H [..X.X.X.X.X.X.X",
"+XyX-Xz.7 + 3 x b b b 3 , + t z.-XeXyXuX,X%XN.~ % 8 t q k h 7.7.2.9.9.9.9.9.9.9.9.0.<.= a h = k.+X.X+X_.9 S i.y.y.y.y.u.w.J S u '.OX.X.X.X.X.X.X",
".X5XwX-XU.o.E 8 7 7 7 y ` x.#XqXpX5X+X+X7XrX:X#Xn.` y $ ; a h i ; -.7.9.9.9.9.0.9.<.: : 2.7.; X.@X.XOX;X) c y.y.y.u.u.u.q.D v w '..X.X.X.X.XOX.X",
".X.X9XwX:X-X%XR.Y.!.R.#X>XrXuX0XOX.X.X.XOX5XyXrX:X-X%Xx.9 $ t ) y o i =.<.3.3.2.h ; p <.0.;.u u H.OX+XwXx.4 r.y.y.u.u.u.G F b M {.OX.X.X.X.X.X.X",
".X.XOX+X5X2XwXwX1XqXeX8X7X5XOXOX.X.X.X.XOX.XOX4X7X2XrX-XY.L.W.$XW.#.u # o ; ; = = d 3.0.,.[ W...u H.OXiXc.O D y.y.y.y.u.D P l ) oX.X.X.X.X.X.X.X",
".X.X.X.XOXOX+X+XOX+X+XOX.X.X.X.X.X.X.X.X.X.X.X.X.XOX4XeXqXrX2X2XqX-XQ.M.*.) ..) = <.0.<.V W.:X$X..y J.).H l A y.u.y.y.y.S U 3 X.@X.X.X.X.X.X.X.X",
".X.X.X.X.X.X.X.X.X.X.X.X.X.X.X.X.X.X.X.X.X.X.X.X.X.X.X+XoX4XOXOX5X2XqX:X-X-X-XQ.t i g B Y.1X:X:X$Xo.q 9 , F r.y.u.y.u.y.S F > l..X.X.X.X.X.X.X.X",
".X.X.X.X.X.X.X.X.X.X.X.X.X.X.X.X.X.X.X.X.X.X.X.X.X.X.X.XOX.X.XOX.XOX4X7XyXyXeX,X%.% % 7 B.;X:X:X:X*X$.z U v I u.y.u.u.q.A A 1 H..X.X.X.X.X.X.X.X",
".X.X.X.X.X.X.X.X.X.X.X.X.X.X.X.X.X.X.X.X.X.X.X.X.X.X.X.X.X.X.X.X.X.X.XOXOXOX4XuX%XL.F.y 6 P.:X:X:X:X>X+.e.U S y.y.y.y.F F l E <X.X.X.X.X.X.X.X.X",
".X.X.X.X.X.X.X.X.X.X.X.X.X.X.X.X.X.X.X.X.X.X.X.X.X.X.X.X.X.X.X.X.X.X.X.X.X.X.X0XrXqX:XY.H E #X:X:X:X>X&.e.w.S y.y.y.r.v P > x.oX.X.X.X.X.X.X.X.X",
".X.X.X.X.X.X.X.X.X.X.X.X.X.X.X.X.X.X.X.X.X.X.X.X.X.X.X.X.X.X.X.X.X.X.X.X.X.X.X+X0X0XyX,XL.9 ..&X:X:XR.Y y.U D u.y.y.U P b 8 _.OX.X.X.X.X.X.X.X.X",
".X.X.X.X.X.X.X.X.X.X.X.X.X.X.X.X.X.X.X.X.X.X.X.X.X.X.X.X.X.X.X.X.X.X.X.X.X.X.X.X.X.XOX8X:Xj.% c.1X$X+.I y.Z w.u.y.e.n U + ..7X.X.X.X.X.X.X.X.X.X",
".X.X.X.X.X.X.X.X.X.X.XOX.X.X.X.X.X.X.X.X.X.X.X.X.X.X.XOX.X.X.X.X.X.X.X.X.X.X.X.X.X.X.X+XwX#Xt u B.+.U y.K J y.u.t.A P l 4 Y.4X.X.X.X.X.X.X.X.X.X",
".X.X.X.X.X.X.X.X.X.X.X.X.X.X.X.X.X.X.X.X.X.X.X.X.X.X.X.X.X.X.X.X.X.X.X.X.X.X.X.X.X.X.X.X0XQ.q D U I y.K A y.u.y.S F v $ v.7XOX.X.X.X.X.X.X.X.X.X",
".X.X.X.X.X.X.X.X.X.X.X.X.X.X.X.X.X.X.X.X.X.X.X.X.X.X.X.X.X.X.X.X.X.X.X.X.X.X.X.X.X.X.X.X4XI.1 A e.U J J t.u.t.S D Z + X.qX4X.X.X.X.X.X.X.X.X.X.X",
".X.X.X.X.X.X.X.X.X.X.X.X.X.X.X.X.X.X.X.X.X.X.XOX.X.X.X.X.X.X.X.XOXOX.X.X.X.XOXOXOXOX.X.X0X$XE 1 J K I t.y.t.J K c + ` -X0XOX.X.X.X.X.X.X.X.X.X.X",
".X.X.X.X.X.X.X.X.X.X.X.X.X.XOXOX.X.XOX.X.X.XOX.X.X.X.XOX.X.X.X.XOXOX.X@XoXoX[.}.=X=X_._.E.R.} > D y.i.y.I A S l $ ..&XiXOX.X.X.X.X.X.X.X.X.X.X.X",
".X.X.X.X.X.X.X.X.X.X.X.X.X.X.XOX.XOXoX+XoXXX@XXXXXXX[.oXoX@XOX.X|.].).E.R.U.L.Z.B.N.V.N.N.x.#.0 . l Z c Z Z > 6 ..L.#X=X}..X.X.X.X.X.X.X.X.X.X.X",
".X.X.X.X.X.X.X.X.X.X@X@X}.=X].].).).R.W.R.Y.I.I.I.P.L.I.Y.Y.).].I.V.M.N.M.N.M.M.M.M.x.n.M.x.z.o.R # O $ 4 # t *.c.M.M.N.F.]..X.X.X.X.X.X.X.X.X.X",
".X.X.X.X.X.X.X.X.X|.E.P.F.F.V.N.N.N.M.N.M.N.M.M.n.M.N.M.M.N.N.M.M.M.C.v.x.x.x.x.x.C.x.C.x.v.x.z.%.O.} ..^ ..%.x.n.N.B.U.~.6X.X.X.X.X.XOX.X.X.X.X",
".X.X.X.X.X.X.X.XOX8XW.L.L.B.V.N.N.n.x.x.M.x.v.x.C.x.x.x.x.x.x.n.x.x.x.v.n.x.x.C.M.C.v.x.x.x.C.x.x.n.B.B.B.L.!.W.#X$X;XrXaX9X.X.X.X.X.X.X.X.X.X.X",
".X.XOX.X.X.X.X.X4XsXeXqX:X;X-X-X-X%X~.W.W.E.W.W.E.Y.U.L.L.L.B.L.Q.Q.L.B.B.V.M.M.x.x.x.M.M.M.V.U.~.;XqX,X,XrXeXeXtXaXuX0X9X+X.X.X.X.X.X.X.X.X.X.X",
".X.X.X.X.X.X.X.XOX4XiXyXaXaXaXaXaXtXtXtXtXeXtXaXeXeXrXrXqX,X,XqXtXeXrX,X:X-X%X_.Q.R.Q.~.~.%X-XrXtXpXiXyXpXiXpX5X4X4X+X.X.X.X.X.X.X.X.X.X.X.X.X.X",
".X.X.X.X.X.X.X.X.X.X.X.X4X5X5X4X4X4X4X5X7X5X5X5XpXpXpXuXpXyXpXpXpXpXpXuXaXaXaXeXeXeXeXeXeXaXuX0X5XOX.X.X.X.X.X.X.X.X.X.X.X.X.X.X.X.X.X.X.X.X.X.X",
".X.X.X.X.X.X.X.X.X.X.X.X.X.XOX.X.X.X.X.X.X.X.X.XOXOXOXOXOXOXOXOXOXOXOX4X0X9X9XpXdXdXdXdXiX9X5XOX.X.X.X.X.X.X.X.X.X.X.X.X.X.X.X.X.X.X.X.X.X.X.X.X"
};
