/* XPM */
static char *cuphead15_110[] = {
/* columns rows colors chars-per-pixel */
"73 82 222 2 ",
"   c #010101",
".  c #0D0302",
"X  c #0B0B0B",
"o  c #0C0906",
"O  c #1A0403",
"+  c #130D0C",
"@  c #150606",
"#  c #1C140A",
"$  c #15110D",
"%  c #151414",
"&  c #1B1514",
"*  c #1C1C1C",
"=  c #181818",
"-  c #0F0F10",
";  c #240404",
":  c #290606",
">  c #340201",
",  c #3C0504",
"<  c #261A0C",
"1  c #2C1D0C",
"2  c #21160A",
"3  c #231C14",
"4  c #211E1E",
"5  c #2A1712",
"6  c #371616",
"7  c #35230F",
"8  c #39260F",
"9  c #24201E",
"0  c #2E2417",
"q  c #3A2710",
"w  c #3C2912",
"e  c #352717",
"r  c #201F20",
"t  c #1F2020",
"y  c #242424",
"u  c #292524",
"i  c #2B2B2B",
"p  c #292927",
"a  c #372928",
"s  c #2C3030",
"d  c #343333",
"f  c #3C3C3C",
"g  c #373738",
"h  c #3A332A",
"j  c #490303",
"k  c #5E0101",
"l  c #570505",
"z  c #531111",
"x  c #630303",
"c  c #6D0101",
"v  c #730202",
"b  c #7D0000",
"n  c #7A1B1B",
"m  c #452E13",
"M  c #422F1B",
"N  c #4C3314",
"B  c #473015",
"V  c #523716",
"C  c #54391A",
"Z  c #5B3E1A",
"A  c #5A3B17",
"S  c #423E3B",
"D  c #5C3838",
"F  c #6E3231",
"G  c #5E411D",
"H  c #64431C",
"J  c #69461D",
"K  c #6C491E",
"L  c #724C1E",
"P  c #784F1D",
"I  c #7A511F",
"U  c #6B4A23",
"Y  c #744E21",
"T  c #7C5321",
"R  c #775020",
"E  c #735632",
"W  c #3F3F40",
"Q  c #413F40",
"!  c #3D4545",
"~  c #434343",
"^  c #444A4B",
"/  c #4C4D4D",
"(  c #484747",
")  c #544E4D",
"_  c #504F50",
"`  c #4C5151",
"'  c #475A5A",
"]  c #535353",
"[  c #545A5A",
"{  c #5C5C5C",
"}  c #5A5957",
"|  c #635A5A",
" . c #75544B",
".. c #4E6363",
"X. c #586A6A",
"o. c #5E7171",
"O. c #636363",
"+. c #6B6B6B",
"@. c #666968",
"#. c #786E6E",
"$. c #697777",
"%. c #747474",
"&. c #7D7D7E",
"*. c #747778",
"=. c #6B6359",
"-. c #830202",
";. c #8D0202",
":. c #8A0E0E",
">. c #990303",
",. c #9E1616",
"<. c #8C1515",
"1. c #A40101",
"2. c #AC0303",
"3. c #B30101",
"4. c #BA0101",
"5. c #A21717",
"6. c #952626",
"7. c #873937",
"8. c #923232",
"9. c #C40101",
"0. c #CB0000",
"q. c #D40000",
"w. c #D90000",
"e. c #80541F",
"r. c #825622",
"t. c #865922",
"y. c #8B5C23",
"u. c #915F23",
"i. c #976223",
"p. c #996324",
"a. c #864645",
"s. c #944D4D",
"d. c #8A6868",
"f. c #976464",
"g. c #867A77",
"h. c #997777",
"j. c #6E8787",
"k. c #768888",
"l. c #7B9696",
"z. c #828282",
"x. c #868989",
"c. c #8C8C8C",
"v. c #898686",
"b. c #928F8F",
"n. c #8E9091",
"m. c #869A9A",
"M. c #939494",
"N. c #9A9696",
"B. c #96999A",
"V. c #9B9C9C",
"C. c #949798",
"Z. c #A09B9C",
"A. c #8BA9A9",
"S. c #9BA1A1",
"D. c #8CB6B6",
"F. c #96B7B7",
"G. c #A3A3A3",
"H. c #ACACAC",
"J. c #A7A8A8",
"K. c #AEB1B1",
"L. c #AABBBB",
"P. c #B3B4B4",
"I. c #B6B9BA",
"U. c #BBBCBC",
"Y. c #BAB5B5",
"T. c #B2ABAB",
"R. c #C2BCBB",
"E. c #9DCBCB",
"W. c #95CACA",
"Q. c #9CD5D5",
"!. c #ABCDCD",
"~. c #A5CBCB",
"^. c #B4C5C5",
"/. c #A3DADA",
"(. c #A9D4D4",
"). c #B9D9D9",
"_. c #9FE1E1",
"`. c #A6E5E5",
"'. c #ABE4E4",
"]. c #ABEAEB",
"[. c #A7EDED",
"{. c #B5E7E7",
"}. c #ADF2F2",
"|. c #AFFFFF",
" X c #B4F6F6",
".X c #B2FEFE",
"XX c #BCFEFE",
"oX c #C4C4C4",
"OX c #C9C7C7",
"+X c #C5C9C9",
"@X c #CBCCCC",
"#X c #C7C7C8",
"$X c #D0CECE",
"%X c #D1CFD0",
"&X c #CFD0D0",
"*X c #C6D8D9",
"=X c #D3D3D3",
"-X c #DCDCDC",
";X c #D6D9D9",
":X c #E1DFDF",
">X c #E1DFE0",
",X c #CBE5E5",
"<X c #DEE1E1",
"1X c #DCECEC",
"2X c #D1E9E9",
"3X c #C4FDFD",
"4X c #CBFDFD",
"5X c #C7F4F4",
"6X c #D6F7F7",
"7X c #DDF3F3",
"8X c #D4FCFC",
"9X c #DAFAFA",
"0X c #E3E4E4",
"qX c #E5EAEA",
"wX c #ECECEC",
"eX c #E4F3F3",
"rX c #EDF2F2",
"tX c #E4F9F9",
"yX c #ECF9F9",
"uX c #F5F5F5",
"iX c #F7F8F8",
"pX c #F9F9F9",
/* pixels */
"|.|.|.|.|.|.|.|.|.|.|.|.|.|.|.|.|.|.|.|.|./.S.{ { +.k.F.~./..X|.|.|.|.|.|.|.|.|.|.|.|.|.|.|.|.|.|..X|.|.|.|.|.|.|.|.|.|.|.|.|.|.|.|.|.|.|.|.|.|.|.",
"|.|.|.|.|.|.|.|.|.|.|.|.|.|.|..X|.|.|.|./.[ i y % r t t p ^ l.'.|.|.|.|.|.|.|.|.|.|.|.|.|.|.|.|.|.|.|.|.|.|.|.|.|.|.|.|.|.|.|.|.|.|.|.|.|.|.|.|.|.",
"|.|.|.|.|.|.|.|.|.|.|.|.|.|.|.|.|.|.|..Xj.u V.J.*.U.I.O.j > @ ! A.}..X|.|.|.|.|.|.|.|.|.|.|.|.|.|.|.|.|.|.|.|.|..X|.|.|.|.|.|.|.|..X|.|.|.|.|.|.|.",
"|.|.|.|.|.|.|.|.|.|.|.|.|.|.|.|.|.|.|.,X~ ( J.P.V.=XpX@X6.9.>.> % X._..X|.|.|.|.|.|.|.|.|.|.|.|.|.|.|.|.|.|.|.|.|.|.|.|.|.|.|.|.|.|.|.|.|.|.|.|.|.",
"|.|.|.|.|.|.|.|.|.|.|.|.|.|.|.|.|.|.XX=Xi @.V.M.V.U.pX0Xa.9.w.<.] i ! F.|.|.|.|.|.|.|.|.|.|.|.|.|.|.|.|.|.|.|.|.|.|.|.|.|.|.|.|.|.|.|.|.|.|.|.|.|.",
"|.|.|.|.|.|.|.|.|.|.|.|.|.|.|.|.|.|.4X=Xu %.J.z.M.J.pX-Xa.0.w.,.R.I.! t k.].|.|.|.|.|.|.|.|.|.|.|.|.|.|.|.|.|.|.|.|.|.|.|.|.|.|.|.|.|.|.|.|.|.|.|.",
"|.|.|.|.|.|.|.|.|.|.|.|.|.|.|.|.|.|.4X%Xp ] V.N.M.OXiXoX6.q.0.8.-XpXV.i * @.`..X|.|.|.|.|.|.|.|.|.|.|.|.|.|.|.|.|.|.|.|.|.|.|.|.|.|.|.|.|.|.|.|.|.",
".X|.|.|.|.|.|.|.|.|.|.|.|.|.|.|.|.|.4X-X~ d oXU.M.qXuXh.2.w.2.h.uXuXn.I.n.y ../..X|.|.|.|.|.|.|.|.|.|.|.|.|.|.|.|.|.|.|.|.|.|.|.|.|.|.|.|.|.|.|.|.",
"|.|.|.|.|.|.|.|.|.|.|.|.|.|.|.|.|.|.4XqX*.= *.z.x.-XT.6.q.0.7.&XpXU.M.wXuX| @ [ `.|.|.|.|.|.|.|.|.|.|.|.|.|.|.|.|.|.|.|.|.|.|.|.|.|.|.|.|.|.|.|.|.",
"|.|.|.|.|..X|.|.|.|.|.|.|.|..X|.|.|.3XqXoX) + = s W 3 > k z Z.uX@Xc.<XpXOX6.v @ o.]..X|.|.|.|.|.|.|.|.|.|.|.|.|.|.|.|.|.|.|.|.|.|.|.|.|.|.|.|.|.|.",
"|.|.|.|.|.|.|.|.|.|.|.|.|.|.|.|.|.|..X9X0XP.z.c.v.&.+.X./ * d %.M.-XrXP.s.9.0.x % l.|.|.|.|.|.|.|.|.|.|.|.|.|.|.|.|.|.|.|.|.|.|.|.|.|.|.|.|.|.|.|.",
"|.|.|.|.|.|.|.|.|.|.|.|.|.|.|.|.|.|.|.XXeX0X:X:X-XU.H.R.oXV.` % | G.f.5.9.w.w.3.5 y D..X|.|.|.|.|.|.|.|.|.|.|.|..X|.|.|.|.|.|.|.|.|.|.|.|.|.|.|.|.",
"|.|.|.|.|.|.|.|.|.|.|.|.|.|.|.|.|.|.|.|.XX8X6X6X6X2X0XqX;X=XOXg.* , 3.w.q.q.0.8.N.i ! `.|.|.|.|.|.|.|.|.|.|.|.|.|.|.|.|.|.|.|.|.|.|.|.|.|.|.|.|.|.",
"|.|.|.|.|.|.|.|.|.|.|.|.|.|.|.|.|.|.|.|.|.|.|.|.|..XXXXX4XeXqX=X*.% v 0.0.4.8.Y.pXZ.* $.|.|.|.|.|.|.|.|. X{.}.|.|.|.|..X.X.X.X|.|.|.|.|.|.|.|.|.|.",
"|.|.|.|.|.|.|.|.|.|.|.|.|.|.|.|.|.|.|.|.|.|.|.|.|.|..X|.|..X4XqX@X+.2 v 6.h.$XuXpXwX+.% o.$...X.o...' ' ^ ! ! ' ..X.$.m.m.D.Q.`.|..X|.|.|.|.|.|.|.",
"|.|.|.|.|.|.|.|.|.|.|.|.|.|.|.|.|.|.|.|.|.|.|.|.|.|.|.|.|.|.|.3XqX@X{ + N.uXiXuXpXqXg.O X g Q Q S ( ( / { { [ / ~ ~ g i y y i g ..j.E. X|.|.|.|.|.",
"|.|.|.|.|.|.|.|.|.|.|.|.|.|.|.|.|.|.|.|.|.|.|.|.|.|.|.|.|.|.|.|.!.M.W . } qXpXuXoXf.5.v 3 M.K.K.J.U.P.P.K.H.H.G.c.M.b.v.v.g.%.{ _ s g x.}.|.|.|.|.",
"|.|.|.|.|.|.|.|.|.|.|.|.|.|.|.|.|.|.|.|.|.|.|.|.|.|.|.|.|.|..X'...% g +.i g.T.f.6.4.w.4.> p / ] ] ] _ / ( ~ ( ( ) ] ` ] { X.@.+.Y.P.@.g m..X|.|.|.",
"|.|.|.|.|.|.|..X|.|.|.|.|.|.|.|.|.|.|.|.|.|.|.|.|.|.|.|.|.|. X&.+ { P.T.@.5 <.3.9.0.0.0.b @ z.oXoXOXOX@X@XP.^.=X@XU.R.P.J.V.v.+.P.U.@X] g `..X|.|.",
"|.|.|.|.|.|.|.|.|.|.|.|.|.|.|.|.|.|.|.|.|..X|.|.|.|.|.|.|..X).g % z.U.J.J.#.f.s.s.a.7.8.F d +.N.V.S.G.J.G.Z.V.N.M.c.M.B.G.K.R.@X=XY.v.] s W..X|.|.",
"|.|.|.|.|.|.|.|.|..X|.|.|.|.|.|.|.|.|.|.|.|.|.|.|.|.|.|..X.Xm.r %.+.+.c.Z.S.G.P.I.I.I.P.K.H.v.V.S.V.P.G.H.N.G.J.K.P.S.N.J.J.V.x.%.%.@.P./ l..X|.|.",
"|.|.|.|.|.|.|.|.|.|.|.|.|.|.|.|.|.|.|.|.|.|.|.|.|.|.|.|.`.k.u * +.G.B.M.*.O.*.*.%.%.*.%.+.@.O.@.+.+.%.+.+.{ _ #.%.&.&.&.n.C.N.J.OX-XP.V.{ j.|.|.|.",
"|.|.|.|.|.|.|.|.|.|.|.|.|.|.|.|.|.|.|.|.|.|.|.|.|.|.|.E.^ % ( z.P.J.N.Z.c.G.oXP.oXJ.S.U.C.c.b.C.N.x.V.b.J.H.c.qXqXwXwXuXuXiXiXpX;XO.g c.M.X..X|.|.",
"|.|.|.|.|.|.|.|.|.|.|.|.|.|.|.|.|.|.|.|.|.|.|.|.|.|.].` = &.J.b.S.Z.z.M.M.v.v.z.c.P.b.z.&.z.M.z.N.z.x.z.K.R.V.uXuXuXuXuXuXuXuXpXM.o   *.H./ `.|.|.",
"|.|.|.|.|.|.|.|.|.|.|.|.|.|.|.|.|.|.|.|.|.|.|.|.|.XXm.= &.H.z.&.&.M.M.n.z.&.z.&.&.N.b.N.M.&.z.&.z.v.M.&.Z.U.N.uXuXuXuXuXiXuXuXuX@.    +.U.Q Q.|.|.",
"|.|.|.|.|.|.|.|.|.|.|.|.|.|.|.|.|.|.|.|.|.|.|.|.|. X] d P.c.&.z.M.H.M.z.&.z.z.z.z.&.&.I.G.&.&.z.z.z.z.z.G.Y.S.uXuXuXuXuXuXuXuXwX/     @.oX~ W..X|.",
"|.|.|.|.|.|.|.|.|.|.|.|.|.|.|.|.|.|.|.|.|.|.|.|..X).i @.P.&.&.N.P.H.J.z.&.z.M.z.C.b.z.c.z.z.&.&.&.x.G.z.S.U.G.uXuXuXuXuXuXuXuXwX{ X   { U.! E.|.|.",
"|.|.|.|.|.|.|.|.|.|.|.|.|.|.|.|.|.|.|.|.|.|.|.|.3X+Xp g.P.&.M.K.} Z.H.z.z.z.M.z.M.c.&.&.z.&.z.z.&.z.z.n.H.Y.Z.uXuXuXuXuXuXuXuXuXb.y   O.P.f Q..X|.",
"|.|.|.|.|.|.|.|.|.|.|.|.|.|.|.|.|.|.|.|.|.|.|.|.3XH.y &.P.&.b.%.p K.G.v.&.z.B.N.M.n.z.z.z.&.z.&.z.z.&.z.G.U.S.uXiXuXuXuXuXuXiX-Xg     *.H.( '.|.|.",
"|.|.|.|.|.|.|.|.|.|.|.|.|.|.|.|.|.|..X|.|.|.|.|.3XU.d +.P.&.n.O.X z.P.M.c.&.M.c.b.U.c.&.z.z.&.z.&.z.z.&.Z.U.V.uXuXuXuXuXuXuXiX-Xd   - G.M./ '.|.|.",
"|.|.|.|.|.|.|.|.|.|.|.|.|.|.|.|.|.|.|.|.|.|.|.|.3X<X_ ~ V.&.V.v.X Q P.J.b.&.z.&.v.Z.k.g.&.z.&.z.&.z.&.&.M.G.N.uXuXuXuXiXuXuXiX:XO.X i n.D 5 $.}.|.",
"|.|.|..X|.|.|.|.|.|.|..X|.|.|.|.|.|.|.|.|.|.|.|.XX1X%.p J.b.M.P.g + *.H.M.z.&.z.z.H.b.c.z.&.z.&.z.z.z.z.z.T.b.:XiXuXuXuXuXuXuXiX-X%.W F 2.;.a /..X",
"|.|.|.|.|.|.|.|.|.|.|.|.|.|.|.|.|.|.|.|.|.|.|.|..X7XG.* v.P.z.V.V.] s +.Z.z.&.&.n.c.n.N.k.g.z.&.x.J.P.G.c.G.G.J.uXiXuXuXuXuXuXpXwXc.*.<.3.c S {.|.",
"|.|.|.|.|.|.|.|.|.|.|.|.|.|.|.|.|.|.|.|.|.|.|.|..X7XY.d f N.x.H.U.P.G.U.M.z.c.z.g.b.Y.c.&.z.&.b.C._ d _ S.Z.P.c.U.iXuXuXuXuXiXqXC.N.V.4 a | K.3X|.",
"|.|.|.|.|.|.|.|.|.|.|.|.|.|.|.|.|.|.|.|.|.|.|..XE.$.d X o * i ~ { c.P.H.z.z.M.z.M.k.v.c.z.z.z.J.]       i c.G.P.v.P.wXuXiXwXoXz.M.@X+.y v.U.7X.X|.",
"|.|.|.|.|.|.|.|.|.|.|.|.|.|.|.|.|.|.|.|.|.|..XA.i                 - g c.J.V.H.z.v.&.c.G.b.z.z.G.r         r *.&XoXc.v.V.Z.b.c.Z.J.n.i @.-X1XXX.X|.",
"|.|.|.|.|.|.|.|.|.|.|.|.|.|.|.|.|.|.|.|.|..XA.y                       X / c.U.z.&.&.c.c.M.x.z.G.*           = %.c.K.OXP.P.P.@X@Xc.d g +X3XXX|.|.|.",
"|..X|.|.|.|.|.|..X|.|.|.|.|.|.|.|.|.|.|.|.).g                             ( H.P.M.&.c.M.V.v.z.H./ > l > O     o * f ] @.%.O.) ~ * * z.5X|.|.|.|.|.",
"|.|.|.|.|.|.|.|.|.|.|.|.|.|.|.|.|.|..X|.XXm.X         X i g y % X           s b.OXG.v.z.J.c.&.N.S.F 2.3.>.l .             X g O.O.W } /.|.XX.XXXXX",
"|.|.|.|.|.|.|.|.|.|.|.|.|.|.|.|.|.|.|.|.8X+.        4 &.I.I.H.N.*.g o         % { P.U.M.c.z.c.c.Z.I.g.8.,.>.k O     o     O.;XuXuXOXg j..X.X3X8X4X",
"|.|.|.|.|.|.|.|.|.|.|.|.|..X|.|.|.|.|..X7X{ o - u * g K.>X;XqX-X;XK.S             p &.K.P.H.N.c.&.Z.V.H.M.h.f.) ( ] f X f =XpXuXuXrX{ ` ]..X.X.X.X",
"|.|.|.|.|.|.|.|.|.|.|.|.|.|.|.|.|.|.|.XXP.~ { J.@XP./ ] z.J.oX0X1XU.@.              X y ! &.G.P.J.H.M.G.oX:X;XOXJ.@.f +.b.-XuXuXpX@XS p k.}.|.|.|.",
"|.|.|.|.|.|.|.|.|.|.|.|.|.|.|.|.|.|.|.E.{ J.wXrX=XK.*.*.c.{ g ] L.#Xg                     o * f O.M.c.M.V.n.+._ ] %.P.wX&XH.pXuXOX@.b.Z.! l.|.|.|.",
"|.|.|.|.|.|.|.|.|.|.|.|.|.|.|.|.|.|. X$.z.wX#XN.Z.R.@X:XpXwXJ./ p ~ X                           y y u i s * ~ S.OX0XpXiXwXN.Y.G.v.Y.uXiX@./ }..X|.",
"|.|.|..X|.|.|.|.|.|.|.|.|..X|..X|.XX2X) +.V.V.;XqX@X-XJ.0XiXpX-X/                             y J.H.B.G.c.i %.uXV.z.>XpXuXC.&.OXqXiXiXwX{ ' |.|.|.",
"|.|.|.|.|.|.|.|.|.|.|.|.XX X].!.A.l.V.f / P.qX&XqXV.Z.H.P.iXuXpXU.* . O .                     ] -X0X0X;X} / v.qX-XG.S.0XuXB.P.pXuXiXwXJ.i m..X|.|.",
"|.|.|.|.|.|.|.|.|.|.|.].D.@.~ e e h 3 r U.pXwXJ.U.uXH.=X&XuXuX-XH.d x 2.;.l O                 %.,X,X=XB.y C.J.@XpXuXI.&.M.b.0XiXuX$Xz.d ~ *X|.|.XX",
"|.|.|.|.|.|.|.|.|.}.k.! * 8 H L J Z 2 S 0XiXuXqX@XuXuXuXuXuXiX0X%.$ ;.w.q.0.2.v , .           % s s y + o c.OXG.uXiX>Xv.U.qXpXiXqXP.P.V.( {.|.|.XX",
"|.|.|.|.|.|.|.|.(.X.= 8 L u.T U P t.7 O.uXuXuXuXuXuXiXuXuXuXuXpXR.g x 0.q.q.q.q.9.;.>                     { -XB.>XpXiXU.M.z.oXuXuXuXpXH.] ].|.|.|.",
"|.|.|.|.|.|.XXW.~ 2 Z i.t.J J y.p.p.B ] 0XuXuXuXuXuXuXuXuXuXuXuXuXV.6 4.q.q.q.w.w.w.3.k .                 * +./ { &.c.OXK.v.-XuXuXiX0X{ c.XX|.|.|.",
"|.|.|.|.|.|.F.g 1 R i.Y G r.p.p.p.p.H i OXwXuXuXuXiXuXuXuXuXuXuXpXoXa 1.w.q.0.q.w.q.w.0.v . o X X o X     . 2 7 q 1 # u ~ P.pXpXpX0X+.( *X.X|.|.|.",
"|.|.|.|.|.F.i 7 r.y.H H y.p.p.p.p.p.e.3 d n.uXuXuXuXuXuXuXuXuXpXpXI.6 2.q.q.q.q.q.q.q.q.0.j y *.&.*./ X < Z t.u.i.i.t.H 7 ( P.oXJ.} d H.6X|.|.|.|.",
"|.|..X.XE.g 1 T y.Z K i.p.i.i.i.p.p.i.m ) *.%XiXuXuXuXuXuXuXuX:X^.O.x 0.q.q.q.q.q.q.q.q.q.-.y P.;Xn.y q r.p.p.p.p.p.p.p.y.B * y d / J.7XXX|.|..X|.",
"|.|..X[.X.$ K y.Z T p.p.i.i.i.p.p.i.i.m z.;X-XiXuXuXuXuXuXuXpXG.M x 4.q.q.q.q.q.q.4.1.0.q.v d *X+Xd m u.p.p.p.p.i.i.p.p.p.e.3 *.G.OXrX3X|.|.|.|.|.",
"|.|.|.D.* V i.H Y p.p.i.i.i.i.y.i.p.i.q f =XpXiXuXpXrX0XuXpXuX%.x 0.q.q.q.q.q.q.q.0.-.2.0.j +.5Xk.q y.p.p.u.p.p.i.i.i.p.p.t.e K.wX7X3X|.|.|.|.|.|.",
"|..X{.` < t.U H i.i.i.p.i.p.i.H r.i.U Z # ( Y.rXpXpX$X&.qXwXZ.6 2.w.q.q.w.0.q.q.q.w.3.b -.M ^.,XS H p.p.p.p.p.u.i.i.p.p.p.y.3 m.3X.X|.|.|.|.|.|.|.",
"|..XL.* C y.C y.p.p.p.i.i.i.i.H P t.C y.Z % 9 O.H.P.{ * ] _ % j 0.q.q.q.q.w.q.q.q.q.w.;.: *.0XS.e y.p.i.p.i.i.i.p.i.p.p.u.Z & A.|.|.|.|.|.|.|.|.|.",
"|. X%.# T K J p.p.p.p.i.i.p.p.J m H Z i.U g.+.i r y ] _ : j l : -.0.w.q.0.q.q.q.q.q.4.>.: ` @.f B p.p.i.p.p.i.i.i.i.I V 1 $ { ,X|.|.|.|.|.|.|.|.|.",
".X).Q 7 y.Z t.p.p.i.i.p.i.i.i.Z X + 7 y.U M.OX^.G.J.J.U.F 9.0.v ; x 3.q.1.3.q.q.4.<.D z : X # < m p.p.p.i.i.i.p.i.J #   i &.%X9X|.|.|.|.|.|.|.|.|.",
"XX*Xi N R Z i.p.i.p.i.i.p.p.p.Z y @.* 1 7 p z.oX;X=XoX@X#.1.w.0.k . : b -.;.w.2. .c.J.=.O   N R m i.p.i.p.i.i.p.Y 3 o { P.0XtXXX|.|.|.|.|.|.|.|.|.",
"XXJ.* H U K p.p.p.p.p.i.i.i.p.A d Y.c.g i f * p ) O.O./ y l ;.k ; u g + O x 4.x b.K.N.H.f o K y.B t.p.p.i.i.p.y.C 3 f P.wX9XXX|.|.|.|.|.|.|.|.|.|.",
"6Xv.% L J P p.p.i.p.u.i.i.i.p.N g %X-XP.G.P.M.O.~ s d f ~ & 2 s O.V.P.v.! ; x v D J.V.V.G.p I y.w U p.p.p.i.p.K V # z.7X3X|.|.|.|.|.|.|.|.|.|.|.|.",
"rXz.$ L H P p.i.i.i.i.p.p.p.t.< ] 7XeX0X$X-X-X=XoXK.P.OXoXc.N.K.OX-X-X-XP.g X ; @ ~ R.S.U.=.r.r.C T i.p.p.p.u.Z V t ^.XX|.|.|.|.|.|.|.|.|.|.|.|.|.",
"wXb.& H H P p.i.i.i.p.i.i.p.K # C.XXXX8X4X8XeXeX:X@X;XwXwX<X;X<XtX8X4XeX0XK.+.` d $ *.R.U. .i.L U p.p.i.p.i.y.Z N g )..X|.|.|.|.|.|.|.|.|.|..X|.|.",
"rXY.d m H K p.p.p.p.i.i.p.u.8 d =XXX|.|.|.|..XXX4X8X8X8X8X4X3X3X.X|.|.XXeX;X+X&XJ.y d U.g.t.i.G T p.p.i.i.p.t.G m ~ {..X|.|.|.|.|.|.|.|.|.|.|.|.|.",
"4X<X@.< H H p.p.p.p.p.p.i.A o *.8X|.|.|.|.|.|.|.|.|.|.|.|.|.|.|.|.|.|.|.XX5X2XqXoX{ $ @.E i.R U i.p.p.i.i.p.t.H V Q ]..X|.|.|.|.|.|.|.|.|.|.|.|.|.",
".XeXJ.u 8 Z p.p.p.p.p.y.V o W =X3X|.|.|.|.|.|.|.|.|.|.|.|.|.|.|.|.|.|.|.|.|.|.8X0X] # Y i.t.Z t.p.i.i.i.i.i.T U Z g `.|.|.|.|.|.|.|.|.|.|.|.|.|.|.",
"|.5XoX&.0 2 V J P I A < + ~ G.tX|.|.|.|.|.|.|.|.|.|.|.|.|.|.|.|.|.|.|.|.|.|.|..X7X%.7 T R H r.p.p.p.i.i.i.p.P U Z d `.|.|.|.|.|.|.|.|.|.|.|.|.|.|.",
".X XqX$XV.] p 9 & $ % g k.OX1XXX|.|.|.|.|.|.|.|.|.|.|.|.|.|.|.|.|.|.|.|.|.|.|..X7XR.W # G y.p.p.p.i.i.i.i.i.K R N f ].|.|.|.|.|.|.|.|.|.|.|.|.|.|.",
"|.|.4XqXOXoXP.J.b.&.N.P.-XtXXX|.|.|.|.|.|.|.|.|.|.|.|.|.|.|.|.|.|.|.|.|.|.|.|.|.5X0X%.# r.p.p.p.i.i.i.i.i.p.H R 1 [  X|.|.|.|.|.|.|.|.|.|.|.|.|.|.",
"|.|.|.3X7XqX;X;X-X:XqXqX7XXX|.|.|.|.|.|.|.|.|.|.|.|.|.|.|.|.|.|.|.|.|.|.|.|.|.|..XeXJ.0 R p.p.i.i.i.i.i.p.t.Z U # n.XX|.|.|.|.|.|.|.|.|.|.|.|.|.|.",
"|.|.|.|.XXXX4X9X6X6X3XXX|.|.|.|.|.|.|.|.|.|.|.|.|.|.|.|.|.|.|.|.|.|.|.|.|.|.|.|.|.4X=X} C i.p.p.p.i.i.i.p.H H 8 d ).XX|.|.|.|.|.|.|.|.|.|.|.|..X|.",
"|.|.|.|.|.|.|.|.|.|.|.|.|.|.|.|.|.|.|.|.|.|.|.|.|.|.|.|.|.|.|.|.|.|.|.|.|.|.|.|.|.XXqXH.S K i.p.i.p.p.p.I w 8 * N.4X|.|.|.|.|.|.|.|.|.|.|.|.|.|.|.",
"|.|.|.|.|.|.|.|.|.|.|.|.|.|.|.|.|.|.|..X|.|.|.|.|.|.|.|.|.|.|.|.|.|.|.|.|.|.|.|.|.|.6X<XM.h C y.p.p.p.t.8 . p N.1XXX|.|.|.|.|.|.|.|.|.|.|.|.|.|.|.",
"|.|.|.|.|.|.|.|.|.|.|.|.|. X X X.X|..X.X|.|.}.XX X X X XXX X|.XX X|..X.X|.|.|. X X X5X0XOXN.~ w A J V < = ] V.wX9X.X|.|.|.|.|.|.|.|.|.|.|.|.|.|.|.",
"|.|.|.|.|.|.|.|.|.|.}.).!.L.J.K.^.(.(.!.!.~.J.L.H.H.L.P.I.^.~.L.I.!.~.!.!.(.!.P.I.K.P.K.S.N.&.] u 9 9 f &.H.=X-X,X{.{. X|.|.|.|.|.|.|.|.|.|.|.|.|.",
"|.|.|.|.|.|.|.|.|..X^.V.N.M.N.N.V.V.N.N.N.N.C.N.C.N.M.N.N.N.C.C.N.N.M.M.C.N.N.M.C.n.C.N.M.c.v.&.*.#.%.k.b.V.G.S.Z.G.J.). X|.|.|.|.|.|.|.|.|.|.|.|.",
"|.|.|..X|.|.|.|.|.3X;XH.V.M.c.c.b.n.n.c.M.M.c.c.c.c.c.c.n.n.n.c.b.M.b.c.c.n.n.N.C.C.C.n.n.M.x.v.z.x.x.c.M.M.M.C.M.M.M.^..X|.|.|.|.|.|.|.|.|.|.|.|.",
"|.|.|.|.|.|.|.|.|.9XuXqX;XOXV.M.n.c.c.n.c.c.n.n.M.n.M.M.b.M.N.K.OXOX+XOX+X@X@X@X=X=X;X@XH.@XH.n.x.x.x.c.x.c.C.V.G.N.Y.1X.X|.|.|.|.|.|.|.|.|.|.|.|.",
"|.|.|.|.|.|.|.|.|.3XtXrXiXwX-X=X@X+XU.oXK.J.OX=X=X@X;X=X$X;X;XqXuXrXrXrXrXuXuXuXuXiXuXiXuXuXqXOXI.I.K.P.P.P.;X-X0X=XwX4X|.|.|.|.|.|.|.|.|.|.|..X|.",
"|.|.|.|.|.|.|.|.|.|..XXX4XyXuXuXuXrXuXrXrXrXuXuXuXuXiXiXuXuXyX8X4X3X4X4X3X4X3X4X4X4X4X4X3X9XuXuXwXwXwXwXwXuXrXyXtXyX4X|.|.|.|.|.|.|.|.|.|.|.|.|.|.",
"|.|.|.|.|.|.|.|.|.|.|.|.|.XX8X8X8X8X8X6X8X8X6X8X8X8X8X8X9X4X.X|.|.|.|.|.|.|.|.|.|.|.|.|.|.|.4X6XyXpXuXpX9X8X4X.XXXXX|.|.|.|.|.|.|.|.|.|.|.|.|.|.|."
};
