/* XPM */
static char *cuphead16_110[] = {
/* columns rows colors chars-per-pixel */
"75 83 222 2 ",
"   c #010101",
".  c #0C0303",
"X  c #0C0C0B",
"o  c #0D0807",
"O  c #140D09",
"+  c #180705",
"@  c #16110C",
"#  c #1E150D",
"$  c #141313",
"%  c #1A1612",
"&  c #1A1816",
"*  c #1C1C1C",
"=  c #171818",
"-  c #0F1010",
";  c #2C0202",
":  c #250404",
">  c #320303",
",  c #3C0404",
"<  c #390C0C",
"1  c #21160B",
"2  c #291C0C",
"3  c #221C14",
"4  c #211E1C",
"5  c #291E16",
"6  c #321C12",
"7  c #35230F",
"8  c #2D2214",
"9  c #27221C",
"0  c #3D2911",
"q  c #382815",
"w  c #1F2020",
"e  c #252424",
"r  c #292725",
"t  c #262828",
"y  c #2B2B2B",
"u  c #2F2822",
"i  c #372B29",
"p  c #39342D",
"a  c #2E3131",
"s  c #343434",
"d  c #3B3C3C",
"f  c #3A3736",
"g  c #2F2F30",
"h  c #4D0101",
"j  c #420505",
"k  c #5C0201",
"l  c #580707",
"z  c #481313",
"x  c #6A0504",
"c  c #760101",
"v  c #7B0101",
"b  c #7E0808",
"n  c #711716",
"m  c #432D13",
"M  c #4B3315",
"N  c #4C3418",
"B  c #563916",
"V  c #553918",
"C  c #5C3E1A",
"Z  c #563916",
"A  c #603F18",
"S  c #493433",
"D  c #6F2A2A",
"F  c #5F401B",
"G  c #65441D",
"H  c #69461C",
"J  c #6D491E",
"K  c #734C1E",
"L  c #784F1E",
"P  c #7C521F",
"I  c #56403F",
"U  c #694820",
"Y  c #744E20",
"T  c #7B5221",
"R  c #755127",
"E  c #6D5234",
"W  c #3F3F40",
"Q  c #3B4141",
"!  c #434443",
"~  c #4B4C4C",
"^  c #464A49",
"/  c #4B5656",
"(  c #535353",
")  c #5B5C5C",
"_  c #575758",
"`  c #5C4747",
"'  c #695B59",
"]  c #6B6159",
"[  c #5C6767",
"{  c #5A6F70",
"}  c #636464",
"|  c #6B6C6C",
" . c #656A6A",
".. c #726A6A",
"X. c #7B736D",
"o. c #647474",
"O. c #6C7C7C",
"+. c #667878",
"@. c #737474",
"#. c #767B7B",
"$. c #7C7C7C",
"%. c #777778",
"&. c #656F70",
"*. c #840101",
"=. c #8A0404",
"-. c #9B0303",
";. c #940404",
":. c #9B1716",
">. c #A50101",
",. c #AC0303",
"<. c #A40D0C",
"1. c #B30202",
"2. c #BB0202",
"3. c #B00909",
"4. c #A21514",
"5. c #98201F",
"6. c #942A2A",
"7. c #C40101",
"8. c #CB0000",
"9. c #D30000",
"0. c #825621",
"q. c #855823",
"w. c #8B5C23",
"e. c #915F23",
"r. c #966224",
"t. c #996424",
"y. c #8B4747",
"u. c #915959",
"i. c #925454",
"p. c #856766",
"a. c #917A79",
"s. c #936968",
"d. c #A17E7D",
"f. c #727F80",
"g. c #6B8484",
"h. c #698585",
"j. c #798787",
"k. c #7E9D9D",
"l. c #769696",
"z. c #78A8A8",
"x. c #848484",
"c. c #8B8C8C",
"v. c #878888",
"b. c #8F9090",
"n. c #839A9A",
"m. c #939393",
"M. c #999797",
"N. c #9B9B9B",
"B. c #979999",
"V. c #958484",
"C. c #A59B9B",
"Z. c #B39E9E",
"A. c #A38988",
"S. c #9F9FA0",
"D. c #89A3A3",
"F. c #96ABAB",
"G. c #82B5B5",
"H. c #9AB5B5",
"J. c #A3A3A4",
"K. c #A6A9A9",
"L. c #ABACAC",
"P. c #A8A7A6",
"I. c #AFB3B3",
"U. c #B3B4B4",
"Y. c #BCBCBC",
"T. c #B4B9B9",
"R. c #C0BDBC",
"E. c #8DC1C1",
"W. c #92C2C2",
"Q. c #9CCCCC",
"!. c #9DD5D5",
"~. c #9ED9D9",
"^. c #A8C9C9",
"/. c #BDC3C3",
"(. c #B8CCCC",
"). c #A3DEDE",
"_. c #A9D6D6",
"`. c #B7D8D8",
"'. c #A6E4E4",
"]. c #ABEBEB",
"[. c #A8E8E8",
"{. c #B2E5E5",
"}. c #B3EEEE",
"|. c #BCE8E8",
" X c #ABF3F3",
".X c #AFFFFF",
"XX c #B2F5F5",
"oX c #BAF7F7",
"OX c #B2FEFE",
"+X c #BBFEFE",
"@X c #C3C4C4",
"#X c #C7C8C8",
"$X c #CBCBCB",
"%X c #C7C7C7",
"&X c #CED0D1",
"*X c #C6DBDB",
"=X c #D3D4D4",
"-X c #D6D9D9",
";X c #DCDCDC",
":X c #D8D7D7",
">X c #E0DFDF",
",X c #C7EAEA",
"<X c #DBEDED",
"1X c #DCE1E1",
"2X c #C2FEFE",
"3X c #CBFBFB",
"4X c #C8F4F4",
"5X c #DDF5F5",
"6X c #D4FBFB",
"7X c #DAF9F9",
"8X c #D6F5F5",
"9X c #E4E4E4",
"0X c #E6EAEA",
"qX c #EAEBEB",
"wX c #E4F3F3",
"eX c #EBF3F3",
"rX c #E4F9F9",
"tX c #EBF9F9",
"yX c #F4F6F6",
"uX c #F7F8F8",
"iX c #F9FAFA",
"pX c #EFF0EF",
/* pixels */
".X.X.X.X.X.X.X.X.X.X.X.X.X.X.X.X.X.X.X.X.X.X.X.X.X.X.XOX.X.X.X.X.X.X.X.X.X.X.X+XOXOX.X.X.X.X.X.X.X.X.X.X.X.X.X.X.X.X.X.X.X.X.X.X.X.X.X.X.X.X.X.X.X.X.X",
".X.X.X.X.X.X.X.X.X.X.X.X.X.X.X.X.X.X.X.X.X.X.X.X.X.X).G.!.].OXOX.X.X.X.X.X.XOX.X.X.X.X.X.X.X.X.X.X.X.X.X.X.X.X.X.X.X.X.X.X.X.X.X.X.X.XOX.X.X.X.X.X.X.X",
".X.X.X.X.X.X.X.X.X.X.X.X.X.X.X.X.X.X.X.X.X.X.X.X[.O.d s t ^ { D.)..X.X.X.X.X.X.X.X.X.X.X.X.X.X.X.X.X.X.X.X.X.X.X.X.X.X.X.X.X.X.X.X.X.X.X.X.X.X.X.X.X.X",
".X.X.X.X.X.X.X.X.X.X.X.X.X.X.X.X.X.X.X.X.X.X.XXXj.& x.U.| ) ) s s +.Q.XX.X.X.X.X.X.X.X.X.X.X.X.XOX.X.X.X.X.X.X.X.X.X.X.X.X.X.X.X.X.X.X.X.X.X.X.X.X.X.X",
".X.X.X.X.XOX.X.XOX.X.X.X.X.X.X.X.X.X.X.X.X.XOX{.Q d $X>XJ.U.pXC.z j i g._.OX.X.X.X.X.X.X.X.X.X.X.X.X.X.X.X.X.X.X.X.X.X.X.X.X.X.X.X.X.X.X.X.X.X.X.X.X.X",
".X.X.X.X.X.X.X.X.X.X.X.X.X.X.X.X.X.X.X.X.X.XOX^.e %.;X;XP.T.iXR.4.8.*.j S z._..X.X.X.X.X.X.X.X.X.X.X.X.X.X.X.X.X.X.X.X.X.X.X.X.X.X.X.X.X.X.X.X.X.X.X.X",
".X.X.X.X.X.X.X.X.X.X.X.X.X.X.X.X.X.X.X.X.X.X2XL.= c.;X;XN.@XiXZ.3.9.9.1.S d t g.].OX.X.X.X.X.X.X.X.X.X.X.X.X.X.X.X.X.X.X.X.XOX.X.X.X.X.X.X.X.X.X.X.X.X",
".X.X.X.X.X.X.X.X.X.X.X.X.X.X.X.X.X.X.X.X.X.X2XK.= c.>X=Xc.;XyXs.7.9.9.1.R.$X( % #.}.OX.X.X.X.X.X.X.X.X.X.X.X.X.X.X.X.X.X.X.X.X.X.X.X.X.X.X.X.X.X.X.X.X",
".X.X.X.X.X.X.X.X.X.X.X.X.X.X.X.X.X.X.X.X.X.X2X/.t } :XU.N.yX$X6.9.9.8.6.$XiX&Xf $ #.}..X.X.X.X.X.X.X.X.X.X.X.X.X.X.X.X.X.X.X.X.X.X.X.X.X.X.X.X.X.X.X.X",
".X.X.X.X.X.X.X.X.X.X.X.X.X.X.X.X.X.X.X.X.X.X2X;X} * | %.%X&Xi.2.9.9.<.A.yXiX$XJ.} & f.XX.X.X.X.X.X.X.X.X.X.X.X.X.X.X.X.X.X.X.X.X.X.X.X.X.X.X.X.X.X.X.X",
".X.X.X.X.X.X.XOX.X.X.X.X.X.X.X.X.X.X.X.X.X.XOX0XP.t - = g u , c >.:.d.0XiX;XN.>X>X( $ k.OX.X.X.X.X.X.X.X.X.X.X.X.X.X.X.X.X.X.X.X.X.X.X.X.X.X.X.X.X.X.X",
".X.X.X.X.X.X.X.X.X.X.X.X.X.X.X.X.X.X.X.X.X.XOX3X:XL.b.| ^ f e $ . p $XyX&XN.$XyXpXp.; s Q..X.X.X.X.X.X.X.X.X.X.X.X.X.X.X.X.X.X.X.X.X.X.X.X.X.X.X.X.X.X",
".X.X.X.X.X.X.X.X.X.X.X.X.X.X.X.X.X.X.X.X.X.X.X+XpX>X;X:X$XR.U.c.! & d @.J.>XuXyXZ.4.-.+ / ]..X.X.X.X.XH.j.Q.OX.X.X.X.X.X.X.X.X.X.X.X.X.X.X.X.X.X.X.X.X",
".X.X.X.X.X.X.X.X.X.X.X.X.X.X.X.X.X.X.X.X.X.X.XOX2X2X4XwX<X<X9X;X@Xx.t O m.9X$XA.5.8.9.c O n.OXOX.X.XoXg.M.v.].OX.X.X.X.X.X.X.X.X.X.X.X.X.X.X.X.X.X.X.X",
".X.X.X.X.X.X.X.X.X.X.X.X.X.X.X.X.X.X.X.X.X.X.X.X.X.XOXOX.XOX3XwX9X:XJ.d = I 6.2.9.9.9.-.1 W '.OX.X.X|.v.I.C.F.OX.X.XOX.X.X.X.X.X.X.X.X.X.X.X.X.X.X.X.X",
".X.X.X.X.X.X.X.X.X.X.X.X.X.X.X.X.X.X.X.X.X.X.X.X.X.X.X.X.X.X.XOX3X<X;XU.^ o *.9.9.8.4.s.x.* l.OX].n.$.} v.@Xj.'.]. XOXOXOXOXOXOXOX.X.X.X.X.X.X.X.XOX.X",
".X.X.X.X.X.X.X.X.X.X.X.X.X.X.X.X.X.X.X.X.X.X.X.X.X.X.X.X.X.X.X.X.X+X5X>XY.^ + *.:.y.Z.qX>X! t  .[ $.=X~ f $X_ d Q Q  .o.O.l.z.z.W._. X.X.X.X.X.X.X.X.X",
".X.X.X.X.X.X.X.X.X.X.X.X.X.X.X.X.X.X.X.X.X.X.X.X.X.X.X.X.X.X.X.X.X.X+XpXU._ o 4 C.1XuXiX9X'   e d v.yXv._ U.@.~ [ _ ! s t e * e e u ^ h._. X.X.X.X.X.X",
".X.X.X.X.X.X.X.X.X.X.X.X.X.X.X.X.X.X.X.X.X.X.X.X.X.X.X.X.X.X.X.X.X.X[.f.y W | s | 0XqXR.u.:.j ! J.x.9XL.m.L.m.M.T.L.L.J.L.J.J.N.c.| ~ t a O.[..X.X.X.X",
".X.X.X.X.X.X.X.X.X.X.X.X.X.X.X.X.X.X.X.X.X.X.X.X.X.X.X.X.X.X.X.X.XXXf.$ } @X;Xm.r ' i.:.2.9.=.+ d ! L.=Xv.R.v.d ( ~ ( ) | %.@.x.x.b.U.U.| t D.+X.X.X.X",
".X.X.X.X.X.X.X.X.X.X.XOX.X.X.X.X.X.X.X.X.X.X.X.X.X.X.X.X.X.X.X.X.X^.e e T.9X;X:X} x >.,.<.1.>.; ~ P.x.%X;X9Xb.U.;X;X;X;X9X;X=X$XT.| @.;X-X~ ^ {.OX.X.X",
".X.X.X.X.X.X.X.X.X.X.X.X.X.X.X.X.XOX.X.X.X.X.X.X.X.X.X.X.X.X.X.XOXn.* ) @.L.&X:X@XV.a.a.a.s.a.X.%.c.$.x.J.N.| m.L.J.N.J.L.J.J.J.N.N.R.&XS.d * F.OX.X.X",
".X.X.X.X.X.X.X.X.X.X.X.X.X.X.X.X.X.X.X.X.X.X.X.X.X.X.X.X.X.X.X.X_._ f /.J.@.@.%.v.M.N.F.J.I.U.T.Y.@X$X@X@X@X@XT.Y.Y.R.@X%X@X@XY.I.C.c.| $.J.t @.XX.X.X",
".X.X.X.X.XOX.X.X.X.X.X.X.X.X.X.X.X.X.X.X.X.X.X.X.X.X.X.X.X.X.XG.y u ~ %.L.=XY.J.N.M.x.$.%.@.| | | | | | | @.@.@.@.$.v.c.v.$.%.$.$.m.I.$XyX0X~ ! '.OX.X",
".X.X.X.X.X.X.X.X.X.X.X.X.X.X.X.X.X.X.X.X.X.X.X.X.X.X.X.XOXOXG.t _ T.$XY.S.&X>X>X>X;X;X;X;X:X=X$X&XR.U.U.U.U.I.U.@.N.@XY.T.%X=X>XqXyXiXiX;X| t y !..X.X",
".X.X.X.X.X.X.X.X.X.X.XOX.X.X.X.X.X.X.X.X.X.X.X.X.X.X.X.XOXW.y ) &X;X;X;X:X;X;X;X=X;X;X;X;X;X;X;X;X>X>X>X;X>X;X;Xm.%XiXiXiXiXiXyXiXyXuXiXv.    y ~..X.X",
".X.X.X.X.X.X.X.X.X.X.X.X.X.X.X.X.X.X.X.X.X.X.X.X.X.X.X.XOXg.e U.>X;X;X>X;X;X;X;X;X;X;X;X;X;X;X;X;X;X:X;X;X;X;X;Xc.$XuXyXuXyXyXyXyXyXyXyX}     y )..X.X",
".X.X.X.X.X.X.X.X.X.X.X.X.X.X.X.X.X.X.X.X.X.X.X.X.X.X.XOX,X~ ~ =X;X;X=XI.R.;X;X;X;X;X;X;X;X;X;X;X;X;X;X;X;X;X;X;Xm.@XiXyXuXuXyXyXyXyXyXyX)     e ~..X.X",
".X.X.X.X.X.X.X.X.X.X.X.X.X.X.X.X.X.X.X.X.X.X.X.X.X.X.XOX(.s @.;X;X-Xx.) @X;X;X;X;X;X;X:X;X;X;X;X;X;X;X;X;X;X;X;XM.Y.iXyXyXyXyXyXyXuXuXeX .o   s ~..X.X",
".X.X.X.X.X.X.X.X.X.X.X.X.X.X.X.X.X.X.X.X.X.X.X.X.X.X.X2X@Xr %.;X;X$XW _ -X;X;X;X;X;X;X;X;X:X;X;X;X;X:X;X;X;X;X;XP.I.iXyXyXiXyXuXyXuXyXyXJ.w   [ }..X.X",
".X.X.X.X.X.X.X.X.X.X.X.X.X.X.X.X.X.X.X.X.X.X.X.X.X.X.X2X@Xt | ;X;X$Xf s %X;X;X;X;X;X;X;X;X;X:X;X;X;X;X;X;X;X;X>XU.N.yXyXiXyXuXyXyXyXuX9X(   o b.2X.X.X",
".X.X.X.X.X.X.X.X.X.X.X.X.X.X.X.X.X.X.X.X.X.X.X.X.X.X.X2X=Xs ( =X;X:X) = L.>X:X;X;X;X;X;X:X;X;X;X;X:X;X;X;X;X;X;X$Xb.0XuXyXiXyXuXuXuXuX;Xy   X M.2X.X.X",
".X.X.X.X.X.X.X.X.X.X.X.X.X.X.X.X.X.X.X.X.X.X.X.X.X.XOX2X;X! d &X;X>XJ.* f.>X;X;X;X;X;X;X;X;X;X;X;X:X;X;X;X;X;X;X;Xm.@XuXuXuXyXuXuXyXuX>Xd   : S n..X.X",
".X.X.X.X.X.X.X.X.X.X.X.X.X.X.X.X.X.X.X.X.X.X.X.X.X.X.X+X0X| 4 K.&X=X:X$.! C.@X;X:X;X;X;X;X;X:X;X;X;X;X;X;X;X;X;X>XT.v.pXuXuXuXyXyXuXuXyXJ.i -.=.( .X.X",
".X.X.X.X.X.X.X.X.X.X.X.X.X.X.X.X.X.X.X.X.X.X.X.X.X.XOX).B.W   y W ^ } v.v.x.L.;X;X;X;X;X;X:X;X;X;X;X;X=X$X:X;X;X;X:X$.P.uXuXyXyXuXyXuXiXR.D 7.x { .X.X",
".X.X.X.X.X.X.X.X.X.X.X.X.X.X.X.X.X.X.X.X.X.X.X.XOX Xk.a -             X ) %X;X;X;X;X;X;X;X;X;X;X;X;X@X} d } T.;X;X;XR.%.U.qXuXuXuXyXqX@Xf.6 z ` /..X.X",
".X.X.X.X.X.X.X.X.X.X.X.X.X.X.X.X.X.X.X.X.X.X.X.X Xh.$                   o } =X=X/.:X;X;X;X;X;X;X;X:X@..     s B.=X;X;X$XB.b.L.Y.R.L.N.P.f.- ( $X5X.X.X",
".X.X.X.X.X.X.X.X.X.X.X.X.X.X.X.X.X.X.X.X.X.X.XOXH.*                       X %.m.J.;X;X;X;X;X;X;X;X;X|         $ _ N.#X;X;X#XL.N.J.I.&XI.d ! W =X2X.X.X",
".X.X.X.X.X.X.X.X.X.X.X.X.X.X.X.X.X.XOX.X.X.XXXn.d   o o     X e * o         X t N.;X;X;X;X;X;X;X;X;Xm.@ ; > + .   $ d | J.@X:X;X:X@Xb.s _ R.! F.OX.X.X",
".X.X.X.X.XOX.X.X.X.X.X.X.X.X.X.X.X.X.X.X.X+Xn.* ~ c.C.F.x.f W L.L.@.e           r J.;X;X;X;X;X;X;X;X$X..=.2.,.=.>       $ y ~ } ( d W $.;XR.y W Q..X.X",
".X.X.X.X.X.X.X.X.X.X.X.X.X.X.X.X.X.X.X.XOX*XQ s @X;X>X;X9XJ.^ @X9X=XF.i           t m.=X;X;X;X;X;X;X;X&Xa.6.<.2.-.x .   $ =   s } } $XuX&XN.P.~ / ]..X",
".X.X.X.X.X.X.X.X.X.X.X.X.X.X.XOX.X.X.X.XD.( y | S.C.J.U.L.x.f ^.7XeX;X%.            $ } Y.;X;X;X;X;X;X;X-XY.C.a.i.y.' %.m.^ y U.pXU.J.Y.M.:XiX#X! W..X",
".X.X.X.XOX.X.X.X.X.X.X.X.X.X.XOX.XOXoXn.t | @XqX9XqX9X9XqX9XN.+.].+X0XK.=               s %.Y.;X>X>X;X;X;X;X>X;X-X=X&XL._ ! U.yXuXyXc.c.9XyXiXpX} G..X",
".X.X.X.X.X.X.X.X.X.X.X.X.X.X.X X!.l.O.g | qXiXiX%XY.I.L.#XiXpX@.j. X3X/.t                   s } m.I.%X&X;X-X&X#X/.M.( y | =XqXpXuXiXY.L.uXyXiX>X! { ].",
".X.X.X.X.X.X.X.X.X.X.X.X.X+X~.+.y 3 1 w /.iXyXiX#XT.@XT.=XuXuX:X| j.oXT.e                       X = s ! _ _ ! g t t f 4 U.iX%XN.0XiXY.L.uXuX9XB.@.u j.",
".X.X.X.X.X.X.X.X.X.X.XOX Xn.g # 0 C 7 Q >XyXuXyXpXqXyXyXyXyXyXiX/.Q O.Q                             X f y f ~ ) | S.L.g } 0XyXU.c.J.v.:XyX$Xb.R.9Xd f ",
".X.X.X.X.X.X.X.X.X.XOX].O.& 0 G G K 0 ~ 0XiXyXuXuXyXuXuXyXyXuXiX@Xe o h k ; .                       t b.L.@X&X=X;X0XJ.^ b.P.yXyX&Xv.v.K.m.m.&XiX0XQ d ",
".X.X.X.X.X.X.X.XOXOX].o.@ M U K w.t.V S :XiXyXyXyXuXyXyXyXyXyXiXK.+ v 8.9.2.*.>                     o * ^ @.c.M.M.b.~ f &Xm.T.yXiXpXU.@.@XqXuXiX#Xf c.",
".X.X.X.X.X.X.X.X.X].o.% B G Y r.t.t.H i b.I.:XuXyXuXyXuXuXyXuXyX#., 7.9.9.9.9.2.b +                         o o X     X M.;Xv.%XuXiX:XN.yXiXuX:X} } >X",
".X.X.X.X.X.X.X.X.X#.& V A G r.t.r.r.N v.$X@.@XuXuXyXuXyXyXuXyX&Xd k 9.9.9.9.9.9.8.;.,                                   y $X=Xv.#XiXqXJ.J.U.M.W ( $X8X",
".X.X.X.XOX+X].).k.4 V U H e.t.r.r.q.8 J.iX:X>XuXuXuXuXyXyXuX&X~ : ,.9.9.9.9.9.9.9.9.2.x .       $ $                       ~ @XU.) J.pXpXT.$.4 ~ $X4X.X",
".XOX+X).k.&.~ p 8 M H T r.t.t.r.r.w.2 ) 0XiXuXuXuX1XpXyXyXuX@Xe v 8.9.9.9.9.9.9.9.9.9.8.x .   $ $.M.) s $ X o X - $ e ! | ) y y $ & [ %._ y ^ @X6X.X.X",
".X.XH.! 3 m C H T U Y r.t.r.r.r.t.t.G % %.9XiXiX&X| #XuXiXqX| j 7.9.9.9.9.9.9.9.9.9.9.9.8.k o | ;X;X&XY.J.v.$.a.c.N.U.$X=X%Xc.| %.~ y u ! %.@XwX+X.X.X",
"OXW.y 2 L K G G G Y e.t.t.r.r.r.r.t.w.M @ ( J.J._ ! ) M.P.) @ *.9.9.9.9.9.8.9.9.9.9.9.9.9.7.l B.tXwXqX0X-X$X%X=X9X9X0XyXyX0X;X;X;X$XY.T.$X9XwX+X.X.X.X",
"XX&.@ J G G w.e.e.e.r.r.r.r.t.r.r.r.t.U m 2 & d a.%XB.[ d , > ,.9.9.9.9.9.9.9.9.9.9.9.9.9.9.*.) OXOX4XT.| ^ ! ) m.-X4X3X2X3X4X2X5X<X<X<XwX6X+X.X.X.X.X",
"1X^ 2 H H t.t.t.t.t.r.r.r.t.t.r.r.r.r.F w.w.E Y.-X1X1X:XV.-.h =.9.9.9.9.9.9.9.9.9.9.9.9.9.9.-.S {.[.{ 4 7 B K B 9 ! | j.{..X.X.X.X.X.X.X.X.X.X.X.X.X.X",
"0X) # V w.t.t.r.e.t.e.t.e.e.t.t.t.r.r.G P t.E P.;X;X;X;XV.,.v k 8.9.9.9.9.9.9.9.9.9.9.9.9.9.,.S _.O.@ B e.t.t.r.P m M 8 +. X.X.X.X.X.X.X.X.X.X.X.X.X.X",
"qXm.3 M w.t.t.r.t.e.t.e.t.t.t.t.t.w.H 2 7 K H p B.;X;X;Xp.1.1., =.9.9.9.9.9.9.9.9.9.9.9.9.9.>.i F.d B r.t.t.r.r.r.K T F f {..X.X.X.X.X.X.X.X.X.X.X.X.X",
"yX$X( @ Z r.t.t.t.t.e.t.t.e.e.K M 2 % g & X # $ e x.@X;Xp.1.9.v > -.9.9.9.9.9.9.9.9.9.9.9.9.c f @.q e.t.t.r.r.r.r.T J K p `..X.X.X.X.X.X.X.X.X.X.X.X.X",
"8XqXU.! @ M K P 0.0.0.Y A m 2 O * d x.T.M.%.v.b.f $ s } ` >.7.1.j : ;.8.9.9.9.9.9.8.9.9.9.7., | _ H t.t.r.r.r.r.r.w.H L 9 F..X.X.X.X.X.X.X.X.X.X.X.X.X",
"+XwX>XU._ & @ @ O O O O % t ~ %.J.$X9X9X>X;X>X;XT.%.~ t o : ; ; + $ + h -.8.9.9.9.9.9.9.9.7.z x.p 0.t.t.r.r.r.r.r.r.G L 8 l..X.X.X.X.X.X.X.X.X.X.X.X.X",
"OX+XwX>X#XJ.x.%.} ) ) @.m.I.$X>X0XeX7X3X4X3X4X5X9X=X%XL.( ( ) ) @.N.%.t + j -.9.9.9.9.9.8.8.l ~ 8 e.r.r.t.t.r.r.r.t.U T 8 +..X.X.X.X.X.X.X.X.X.X.X.X.X",
".X.X+XwXqX>X;X:X=X=X=X;X9X0XqX8X3XOXOX.XOXOX.XOX6XwX0X;X%X&X=X=X;X;X=XL.@.a h 8.9.9.7.:.n =.< f 8 e.t.r.r.r.r.r.r.r.U Y 3 h..X.X.X.X.X.X.X.X.X.X.X.X.X",
".X.XOXOX3X7X8X5XpXyXeX5X6X+X+X.X.X.X.X.X.X.X.XOXOX+X3XtXpXpXpXwX8XwXqX;X-Xc., 8.9.:.y.C.N.D : ) 8 0.t.t.r.r.r.r.r.r.H T 2 h..X.X.X.X.X.X.X.X.X.X.X.X.X",
".X.X.X.X.X.X.XOX+X2X2XOX.X.X.X.X.X.X.X.X.X.X.X.X.X.X.X+X+X2X2X+X.X.X2X7XwXJ.< 1.;.p.&X1X;XM.9 _ f F t.t.t.t.r.r.r.r.H T 2 l.OX.X.X.X.X.X.X.X.X.X.X.X.X",
".X.X.X.X.X.X.X.X.X.X.X.X.X.X.X.X.X.X.X.X.X.X.X.X.X.X.X.XOX.X.X.X.X.X.X.X3X@Xs k c u.=X;X;X;X@.t ~ 8 0.t.t.t.r.r.r.w.G T 3 h.OX.X.X.X.X.X.X.X.X.X.X.X.X",
".X.X.X.X.X.X.X.X.X.X.X.X.X.X.X.X.X.X.X.X.X.X.X.X.X.X.X.X.X.X.X.X.X.X.X.X2X9X%.o h n J.;X;X;X%X! t @ 7 L r.t.t.r.r.0.J L # h.OX.X.X.X.X.X.X.X.X.X.X.X.X",
".X.X.X.X.X.X.X.X.X.X.X.X.X.X.X.X.X.X.X.X.X.X.X.X.X.X.X.X.X.X.X.X.X.X.X.X+XqX@X_ $ o ! $X;X;X>XC.4 N m 1 C r.r.t.r.T Y H u H.OXOX.X.X.X.X.X.X.X.X.X.X.X",
".X.X.X.X.X.X.X.X.X.X.X.X.X.X.X.X.X.X.X.X.X.X.X.X.X.X.X.X.X.X.X.X.X.X.X.X.X7X9X@XB.[ w J.>X;X;X=X] 0.w.N H w.t.t.r.Y 0.Z I ,X.X.X.X.X.X.X.X.X.X.X.X.X.X",
".X.X.X.X.X.X.X.X.X.X.X.X.X.X.X.X.X.X.X.X.X.X.X.X.X.X.X.X.X.X.X.X.X.X.X.X.X+XrX9X>XU.u ) =X;X;X;Xm.R w.U r.t.r.r.r.H q.q  .oX.X.X.X.X.X.X.X.X.X.X.X.X.X",
".X.X.X.X.X.X.X.X.X.X.X.X.X.X.X.X.X.X.X.X.X.X.X.X.X.X.X.X.X.X.X.X.X.X.X.X.X.XOX+X8X>X| * K.1X1X=Xp.q.0.G r.t.r.t.L K L * F.+X.X.X.X.X.X.X.X.X.X.X.X.X.X",
".X.X.X.X.X.X.X.X.X.X.X.X.X.X.X.X.X.X.X.X.X.X.X.X.X.X.X.X.X.X.X.X.X.X.X.X.X.X.X.X3XqXJ.e ' L.L.X.R t.Y Y t.r.t.w.G q.0 f *X+X.X.X.X.X.X.X.X.X.X.X.X.X.X",
".X.X.X.X.X.X.X.X.X.X.X.X.X.X.X.X.X.X.X.X.X.X.X.X.X.X.X.X.X.X.X.X.X.X.X.X.X.X.X.XOX<X} M T E R 0.t.q.F w.t.t.r.L T K @ x.6X.X.X.X.X.X.X.X.X.X.X.X.X.X.X",
".X.X.X.X.X.X.X.X.X.X.X.X.X.X.X.X.X.X.X.X.X.X.X.X.X.X.X.X.X.X.X.X.X.X.X.X.X.X.X.X+X/.e K t.r.t.r.T F T t.t.t.T J w.8 I :X3X.X.X.X.X.X.X.X.X.X.X.X.X.X.X",
".X.X.X.X.X.X.X.X.X.X.X.X.X.X.XOX.X.X.X.X.X.X.X.X.X.X.X.X.X.X.X.X.X.XOX.X.X.X.X.X3XY.* 7 q.q.T U U T t.t.r.w.G q.M e I.7XOXOX.X.X.X.X.X.X.X.XOX.X.X.X.X",
".X.X.X.X.X.X.X.X.X.X.X.X.X.X.XOX.X.X+X+XoXoXOX.X.X.X.X.X.X.X.X.X.X.X.X+X2XOX.X.X6X>X| - 8 U Y 0.e.t.r.t.e.H T H # x.wXOX.X.X.X.X.X.X.X.X.X.X.X.X.X.X.X",
".X.X.X.X.X.X.X.X.X.X.X.X.XOXOXXX,X`./.Y.T.T.(.}.oXXXXXXX XXX4X,X*X`.^.(.&X(.^.(.(.Y.N.! 0 r.r.t.t.t.r.w.H L J 1 ( *X+X.X.X.X.X.X.X.X.X.X.X.X.X.X.X.X.X",
".X.X.X.X.XOX.X.X.X.X.X.X.X+X$XL.J.N.M.M.m.M.M.J.I.U.L.L.L.K.J.J.N.N.N.M.m.B.m.m.N.m.c.) 8 w.t.t.t.r.q.G J F 1 d v./.`._._.`.`.|.OX.X.X.X.X.X.X.X.X.X.X",
".X.X.X.X.X.X.X.X.X.X.X.X.X7XY.m.b.b.b.c.c.b.b.M.m.m.m.m.m.m.m.m.b.b.b.b.m.b.m.b.b.b.c.| * 7 G P Y B 0 N 0 & ^ $.m.M.M.M.M.M.M.P.`.OX.X.X.X.X.X.X.X.X.X",
".X.X.X.X.X.X.X.X.X.X.X.X.X7X9XU.N.m.c.c.c.c.c.c.c.c.c.c.c.c.c.c.c.c.c.c.c.c.c.m.J.K.J.N.} = O O X X $ & e } v.b.m.M.N.N.J.P.U.@X,XOX.X.X.X.X.X.X.X.X.X",
".X.X.X.X.X.X.X.X.X.X.X.X.X7XyX0X;X&XY.Y.T.U.I.I.P.J.P.L.L.L.I.U.U.U.L.L.I.L.U.=X9X0X9X>X@XN.| ( ) @.m.m.P.@X$X&X=X;X;X>X9X9X9XyX3X.X.X.X.X.X.X.X.X.X.X",
".X.X.X.X.X.X.X.X.X.X.X.X.XOX3XtXtXyXpXyXyXqX9XqXqX9X9X9X9X9XqX9XqX0X0X9X9XqXqXyXtXtXtXeX0X;X=X&X=X;X>X9X0XyXyXyXeXwXeXtXtXtXrX2XOX.X.X.X.X.X.X.X.X.X.X",
".X.X.X.X.X.X.X.X.X.X.X.X.X.X.XOX2X6X6X6X6XuXyXyXiXyXiXiXiXuXiXyXyXiXyXyXiXuX6X2XOXOXOXOX2XwXyXpXyX5X6X6X6X6X7X6XOXOXOXOXOXOXOX.X.X.X.X.X.X.X.X.X.X.X.X"
};
