/* XPM */
static char *bala_inimigo_11A[] = {
/* columns rows colors chars-per-pixel */
"33 33 220 2 ",
"   c #E41D00",
".  c #F01F00",
"X  c #DC3702",
"o  c #D93702",
"O  c #E42400",
"+  c #EA2101",
"@  c #E62900",
"#  c #EC2E01",
"$  c #F62B02",
"%  c #EE3302",
"&  c #E13901",
"*  c #EB3C05",
"=  c #EC380B",
"-  c #F23602",
";  c #F23D02",
":  c #FD3C04",
">  c #F73709",
",  c #EF3F18",
"<  c #E73616",
"1  c #E72717",
"2  c #CE4400",
"3  c #D34000",
"4  c #DE4F02",
"5  c #DD5200",
"6  c #D55A04",
"7  c #DB5E01",
"8  c #D85F09",
"9  c #E44502",
"0  c #EC4205",
"q  c #E24C02",
"w  c #EC450C",
"e  c #E84807",
"r  c #F44205",
"t  c #F44E02",
"y  c #F44A0A",
"u  c #FA4D0C",
"i  c #F74604",
"p  c #E55402",
"a  c #E45B02",
"s  c #E35509",
"d  c #EB5806",
"f  c #F15D04",
"g  c #F5530B",
"h  c #F2580B",
"j  c #F65609",
"k  c #EF4912",
"l  c #E5471E",
"z  c #F44312",
"x  c #F54C16",
"c  c #FA4C12",
"v  c #FB4B1A",
"b  c #F2491B",
"n  c #ED5D15",
"m  c #F35413",
"M  c #F35B14",
"N  c #FA5D12",
"B  c #FB5A19",
"V  c #CF6B04",
"C  c #DF6400",
"Z  c #DE6C09",
"A  c #C87501",
"S  c #D47C04",
"D  c #DC750A",
"F  c #D97706",
"G  c #CF7A16",
"H  c #E46402",
"J  c #EA6203",
"K  c #E46C02",
"L  c #EA6C04",
"P  c #EB6B0D",
"I  c #E6660C",
"U  c #F26401",
"Y  c #F26C04",
"T  c #F1620C",
"R  c #FC660D",
"E  c #FB6D0A",
"W  c #F86E04",
"Q  c #E37607",
"!  c #EC7304",
"~  c #EB730B",
"^  c #EE7C0A",
"/  c #E5790A",
"(  c #F57504",
")  c #F4720A",
"_  c #F47A0E",
"`  c #F87707",
"'  c #FC6B12",
"]  c #F6651A",
"[  c #FB631A",
"{  c #FB6C1C",
"}  c #F96417",
"|  c #EC741A",
" . c #E97A13",
".. c #F47413",
"X. c #F27B12",
"o. c #F77C18",
"O. c #FC7C1A",
"+. c #FE7116",
"@. c #FD5A25",
"#. c #EF692A",
"$. c #FC6D2A",
"%. c #FC6825",
"&. c #FF742B",
"*. c #FE7D2A",
"=. c #CB6B4C",
"-. c #DC6F4E",
";. c #CD755D",
":. c #CA7A66",
">. c #DA890B",
",. c #DF8003",
"<. c #D28810",
"1. c #E38C04",
"2. c #EC850B",
"3. c #E48C0A",
"4. c #E58308",
"5. c #F3820C",
"6. c #FC820C",
"7. c #F48A0A",
"8. c #E49304",
"9. c #E79F07",
"0. c #FC9505",
"q. c #F7940C",
"w. c #E9861D",
"e. c #F68516",
"r. c #FB8412",
"t. c #F38C13",
"y. c #F5831A",
"u. c #FE851A",
"i. c #FC8B1C",
"p. c #FB8D10",
"a. c #ED9414",
"s. c #EC9C15",
"d. c #ED9A1B",
"f. c #FC9C13",
"g. c #FA981A",
"h. c #EFA11F",
"j. c #EFAA15",
"k. c #FDA512",
"l. c #F4A619",
"z. c #FCA51B",
"x. c #F5A514",
"c. c #FDB51C",
"v. c #FEBB1E",
"b. c #F7B014",
"n. c #E6A405",
"m. c #FC8C21",
"M. c #F78926",
"N. c #E99F2A",
"B. c #FE9323",
"V. c #F79B22",
"C. c #F49831",
"Z. c #FAA424",
"A. c #FCAB26",
"S. c #FFA429",
"D. c #FFA82D",
"F. c #FBB420",
"G. c #FDBD29",
"H. c #FBBE25",
"J. c #FDAC34",
"K. c #FCC91C",
"L. c #FDC224",
"P. c #FEC32B",
"I. c #FFCC26",
"U. c #FFD62C",
"Y. c #FFC333",
"T. c #D28B6D",
"R. c #DD9B6C",
"E. c #C78B77",
"W. c #CD8D78",
"Q. c #C7977E",
"!. c #C79C7A",
"~. c #D49577",
"^. c #D4AC6D",
"/. c #DBAB6D",
"(. c #C8B767",
"). c #CFB669",
"_. c #D5B16B",
"`. c #D5A07F",
"'. c #CCA86A",
"]. c #FFC744",
"[. c #D5C976",
"{. c #B1BC9A",
"}. c #BEBBB3",
"|. c #CA8B81",
" X c #CA9E84",
".X c #C99A8A",
"XX c #C8A586",
"oX c #D3A485",
"OX c #D4AD88",
"+X c #CBB68A",
"@X c #D1BB88",
"#X c #C7A198",
"$X c #C7A194",
"%X c #D2AD91",
"&X c #CCBE90",
"*X c #D4B294",
"=X c #D5BE9E",
"-X c #C1B7B3",
";X c #BFD1AB",
":X c #B9D5B9",
">X c #C3C489",
",X c #C3C295",
"<X c #C2C99E",
"1X c #C2CD97",
"2X c #D3C798",
"3X c #C2CBA0",
"4X c #D1D4A3",
"5X c #C2C8B4",
"6X c #C3E6B5",
"7X c #BCCDC5",
"8X c #B5E2DD",
"9X c #BAE8C8",
"0X c #B5E5E1",
"qX c #B5EAE3",
"wX c #B3ECE8",
"eX c #B2F4EF",
"rX c #AFFFFF",
"tX c #AEF8F6",
"yX c #B1F5F1",
"uX c #B2F9F2",
/* pixels */
"rXrXrXrXrXrXrXrXrXrXrXrXrXrXrXrXrXrXrXrXrXrXrXrXrXrXrXrXrXrXrXrXrX",
"rXrXrXrXrXrXrXrXrXrXrXrXrXrXrXrXrXrXrXrXrXrXrXrXrXrXrXrXrXrXrXrXrX",
"rXrXrXrXrXrXrXrXrXrXrXrXrXrXrXrXrXrXrXrXrXrXrXrXrXrXrXrXrXrXrXrXrX",
"rXrXrXrXrXrXrXrXrXrXrXrXrXrXrXrXrXrXrXrXrXrXrXrXrXrXrXrXrXrXrXrXrX",
"rXrXrXrXrXrXrXrXrXrXrXrXrX+X_.'.'._./.R.~.rXrXrXrXrXrXrXrXrXrXrXrX",
"rXrXrXrXrXrXrXrXrXrXrXrX2XC.p.! ( ( U t x  XyX$X0XrXrXrXrXrXrXrXrX",
"rXrXrXrXrXrXrXrXrXeX3X4XC.D.S.t.~ L ~ P j m XX< 7XrXrXrXrXrXrXrXrX",
"rXrXrXrXrXrXrXrXuX1X3.Z.h.d.d.g. .~ u.i.u.] % z *XeXrXrXrXrXrXrXrX",
"rXrXrXrXrXrXrXrX9X9.H.c.>.S S t.m.M.o.) ..4 & b B %XyXrXrXrXrXrXrX",
"rXrXrXrXrXrXuXqX6XU.I.H.l.x.q.K a 5 5 p 4 4 & z x v %XqXwXrXrXrXrX",
"rXrXrXrXrXrX4Xw.<.U.K.n.A >.q.! C H L J M N 9 * = @.@.b W.rXrXrXrX",
"rXrXrXrXrX&X| I F I.K.8.8.H.c.f.g.V.i.) a p h B * z : ~.uXrXrXrXrX",
"rXrXrXrX@XM.| 2 Q L.n.S l.L.v.f.p.g.S.i.J ' %.m w ; : oXrXrXrXrXrX",
"rXrXrXrX/.` I 4 / c.b.1.k.K.c.2.H _ g._ J ' O.p X * : , .XrXrXrXrX",
"rXrXrXrX_.! C Z M.<.G.0.0.c.k.K o s O.' p ' *.] M 0 - . 1 |.rXrXrX",
"rXrXrXrX).7./ Z  .D J.6.U k.k.! 2 4 B } m { &.&.&.} ; -.#X-XrXrXrX",
"rXrXrXrX(.1.D 6 ....u.f p p.z.6.d w * = z @.m B ] [ i oXrXrXrXrXrX",
"rXrXrXrX[.>.S  .B.o.L p f 6.p.` R y @ O = v > - ; g i oXrXrXrXrXrX",
"rXrXrXrX[.x.s.s.Z.5.! a U ` ( W ' y O     > $ . # ; i oXrXrXrXrXrX",
"rXrXrXrX>XN.s.3.A.g._ 7 L ! Y E R u # @ - - : $ % r g R.qXrXrXrXrX",
"rXrXrXrXrX,Xw.2.a.Z.V V i.6.H q T ' t 0 N g i u u g $.#. XrXrXrXrX",
"rXrXrXrXrXrX,XF A.l.8.s.Z.r.Y q n O.O.E O.p q e * r N *XrXrXrXrXrX",
"rXrXrXrXrXrX{.G ].P.L.j.3.^ f h N ' u.i.u.X.' g X o X XXrXrXrXrXrX",
"rXrXrXrXrXrXtX<XV.Y.P.P.A.i.a q q J u.7.e.m.M.%.#.%.%XyXrXrXrXrXrX",
"rXrXrXrXrXrXrXuX<XF 4.z.g.Z 7 P y.X.^ ^ m.O.{ [ $.=XyXrXrXrXrXrXrX",
"rXrXrXrXrXrXrXrXtX:X;Xy.( _ y.e.r.i.m.M.P s h c i 5XrXrXrXrXrXrXrX",
"rXrXrXrXrXrXrXrX8X:.;.e 9 ) i._ p s M M d 9 g ; ~.0XrXrXrXrXrXrXrX",
"rXrXrXrXrXrXrXrX0XE.E.Q.Q.+X2X@XXX=.@ l OX!.w T.wXrXrXrXrXrXrXrXrX",
"rXrXrXrXrXrXrXrXrXrXrXrXrXrXrXrXrX$X< .XrXyXW.wXrXrXrXrXrXrXrXrXrX",
"rXrXrXrXrXrXrXrXrXrXrXrXrXrXrXrXrX}.E.rXrXrXrXrXrXrXrXrXrXrXrXrXrX",
"rXrXrXrXrXrXrXrXrXrXrXrXrXrXrXrXrXrXrXrXrXrXrXrXrXrXrXrXrXrXrXrXrX",
"rXrXrXrXrXrXrXrXrXrXrXrXrXrXrXrXrXrXrXrXrXrXrXrXrXrXrXrXrXrXrXrXrX",
"rXrXrXrXrXrXrXrXrXrXrXrXrXrXrXrXrXrXrXrXrXrXrXrXrXrXrXrXrXrXrXrXrX"
};
