/* XPM */
static char *bala11A[] = {
/* columns rows colors chars-per-pixel */
"28 26 209 2 ",
"   c #080706",
".  c #0E0807",
"X  c #0C0B09",
"o  c #0C0B0A",
"O  c #0C0C0B",
"+  c #0D0D0C",
"@  c #121211",
"#  c #171514",
"$  c #171716",
"%  c #181513",
"&  c #181614",
"*  c #1A1A19",
"=  c #1E1C1B",
"-  c #1E1D1B",
";  c #1E1E1C",
":  c #1F1E1C",
">  c #1F1F1D",
",  c #201E1C",
"<  c #211F1D",
"1  c #232120",
"2  c #232321",
"3  c #242422",
"4  c #252523",
"5  c #242624",
"6  c #262624",
"7  c #272624",
"8  c #272725",
"9  c #252826",
"0  c #282826",
"q  c #292826",
"w  c #292927",
"e  c #2A2927",
"r  c #222F2F",
"t  c #2B2A28",
"y  c #292C2A",
"u  c #2D2C2A",
"i  c #2E2D2B",
"p  c #2E2D2C",
"a  c #2F2E2C",
"s  c #302F2D",
"d  c #31302E",
"f  c #32312F",
"g  c #293331",
"h  c #2B3938",
"j  c #2C3939",
"k  c #2D3B3A",
"l  c #2C3C3C",
"z  c #2D3D3C",
"x  c #333230",
"c  c #343230",
"v  c #343331",
"b  c #353331",
"n  c #363433",
"m  c #373533",
"M  c #373534",
"N  c #373634",
"B  c #383634",
"V  c #3A3836",
"C  c #3B3837",
"Z  c #3C3836",
"A  c #313F3E",
"S  c #3C3A38",
"D  c #3C3A39",
"F  c #3D3B39",
"G  c #3E3C3A",
"H  c #3F3D3B",
"J  c #413F3D",
"K  c #423F3D",
"L  c #443F3D",
"P  c #43403E",
"I  c #354241",
"U  c #364543",
"Y  c #384644",
"T  c #3A4745",
"R  c #3F5150",
"E  c #454240",
"W  c #464241",
"Q  c #464341",
"!  c #474442",
"~  c #484442",
"^  c #494442",
"/  c #494543",
"(  c #494645",
")  c #4A4644",
"_  c #4A4645",
"`  c #4B4745",
"'  c #4B4746",
"]  c #4C4847",
"[  c #4D4948",
"{  c #524746",
"}  c #504C4B",
"|  c #544C4B",
" . c #514D4C",
".. c #524E4C",
"X. c #534E4D",
"o. c #534F4E",
"O. c #55504E",
"+. c #56514F",
"@. c #455250",
"#. c #455251",
"$. c #465351",
"%. c #475452",
"&. c #4D5453",
"*. c #565250",
"=. c #575251",
"-. c #585351",
";. c #585352",
":. c #5B5554",
">. c #5B5655",
",. c #5C5655",
"<. c #5D5756",
"1. c #5D5856",
"2. c #5E5857",
"3. c #605A59",
"4. c #615B5A",
"5. c #625C5B",
"6. c #645E5D",
"7. c #655E5D",
"8. c #66605F",
"9. c #67615F",
"0. c #476160",
"q. c #4F6E6D",
"w. c #596363",
"e. c #5B7272",
"r. c #686160",
"t. c #6A6060",
"y. c #696362",
"u. c #6D6665",
"i. c #6E6766",
"p. c #6C6867",
"a. c #706867",
"s. c #706968",
"d. c #726B6A",
"f. c #746D6C",
"g. c #766E6D",
"h. c #766F6E",
"j. c #776F6F",
"k. c #796F6E",
"l. c #7A6E6E",
"z. c #78706F",
"x. c #797170",
"c. c #797271",
"v. c #7B7372",
"b. c #7D7574",
"n. c #7E7675",
"m. c #7F7776",
"M. c #727B7A",
"N. c #807877",
"B. c #817978",
"V. c #837978",
"C. c #837B7A",
"Z. c #847A7A",
"A. c #877E7D",
"S. c #887F7E",
"D. c #72807F",
"F. c #88807F",
"G. c #89807F",
"H. c #698686",
"J. c #7A8281",
"K. c #679999",
"L. c #6B9C9C",
"P. c #8D8281",
"I. c #8C8382",
"U. c #8F8585",
"Y. c #8F8685",
"T. c #918787",
"R. c #938989",
"E. c #948A8A",
"W. c #968C8B",
"Q. c #988D8D",
"!. c #998F8E",
"~. c #9A8F8F",
"^. c #84908F",
"/. c #9D9291",
"(. c #9C9292",
"). c #9F9393",
"_. c #9F9494",
"`. c #A09494",
"'. c #A19696",
"]. c #A69A9A",
"[. c #A89C9C",
"{. c #A99D9D",
"}. c #AB9F9F",
"|. c #83BABA",
" X c #AFA3A3",
".X c #B3A6A6",
"XX c #84C0C0",
"oX c #85C1C1",
"OX c #87C2C2",
"+X c #8BC6C6",
"@X c #8DC5C5",
"#X c #91D1D1",
"$X c #96D6D5",
"%X c #A3EDED",
"&X c #A8F1F1",
"*X c #A8F4F4",
"=X c #A9F7F7",
"-X c #AAF7F7",
";X c #ABF8F8",
":X c #ADFAFA",
">X c #ADFDFD",
",X c #AEFDFD",
"<X c #AFFFFF",
"1X c #B2FFFF",
"2X c #B3FFFF",
"3X c #B4FFFF",
"4X c #B5FFFF",
"5X c #B6FFFF",
"6X c #B8FFFF",
/* pixels */
"<X<X<X<X<X<X:X=X;X%Xg o + @ # * 2 &.&X;X-X<X<X<X<X<X<X<X",
"<X<X<X<X<X5XOXr U U 5 2 u S ~ o.2.a.J.M.h XX1X<X<X<X<X<X",
"<X<X<X1X5X|.k # = < 2 u S ] ,.y.h.B.C.B.t.w.@X5X1X<X<X<X",
"<X<X1XL.q.R % 3 2 2 2 d J o.5.d.m.Y.!._.).k.^.H.K.1X<X<X",
"<X<X6X0.. < 2 2 2 2 5 x E *.7.j.A.W.]. X{.(.P.{ e.5X<X<X",
"<X1XOXR < 2 2 2 2 2 5 x E *.r.j.P.!.{..X}.(.P.k.M.+X1X<X",
"<X#Xk % 2 2 2 2 2 2 3 x P o.7.f.C.E._.]._.W.A.z.o.$.$X>X",
"=XA = 2 2 2 2 2 2 2 2 s S [ ,.u.x.A.Y.E.T.P.n.a.4.~ $.-X",
"=XI , 2 2 2 2 2 2 2 2 e n E o.7.p.x.n.B.m.x.d.7.-.L $.=X",
"*XT < 2 2 2 2 2 2 2 2 7 s Z ` o.4.y.u.u.p.y.2.*.` Z $.=X",
"k 5 2 2 2 2 2 2 2 2 2 2 7 s S ~ [ ;.:.1.,.-.o.` G d y z ",
"  > 2 2 2 2 2 2 2 2 2 2 2 5 u B G E ` ' ` E J V s e >   ",
"+ > 2 2 2 2 2 2 2 2 2 2 2 2 3 t p b N N B x s t 3 3 > O ",
"O > 2 2 2 2 2 2 2 2 2 2 2 2 2 2 3 3 e e e e 3 2 2 3 > O ",
"  > 2 2 2 2 2 2 2 2 2 2 2 2 2 2 2 2 1 2 2 2 2 2 2 2 >   ",
"z 5 2 2 2 2 2 2 2 2 2 2 2 2 2 2 2 2 2 2 2 2 2 2 2 2 9 l ",
"=XT < 2 2 2 2 2 2 2 2 2 2 2 2 2 2 2 2 2 2 2 2 2 2 > T *X",
"=XI > 2 2 2 2 2 2 2 2 2 2 2 2 2 2 2 2 2 2 2 2 2 2 > I =X",
"=XA = 2 2 2 2 2 2 2 2 2 2 2 2 2 2 2 2 2 2 2 2 2 2 = A =X",
"<X#Xk % 2 2 2 2 2 2 2 2 2 2 2 2 2 2 2 2 2 2 2 2 # l #X>X",
"<X1XOXR < 2 2 2 2 2 2 2 2 2 2 2 2 2 2 2 2 2 2 < R +X<X<X",
"<X<X6X0.. < 2 2 2 2 2 2 2 2 2 2 2 2 2 2 2 3 < . &.5X<X<X",
"<X<X1XL.q.R % 2 2 2 2 2 2 2 2 2 2 2 2 2 2 % R q.L.1X<X<X",
"<X<X<X1X6X|.h % = > 2 2 2 2 2 2 2 2 > > % h |.6X1X<X<X<X",
"<X<X<X<X<X5XOXr I U 5 > > > > > > 3 T U r OX1X<X<X<X<X<X",
"<X<X<X<X<X<X>X=X;X%Xg o O + O O o g %X-X=X<X<X<X<X<X<X<X"
};
