/* XPM */
static char *cuphead5_115[] = {
/* columns rows colors chars-per-pixel */
"71 103 224 2 ",
"   c #020202",
".  c #0A0202",
"X  c #0D0A06",
"o  c #0C0B0B",
"O  c #070708",
"+  c #130202",
"@  c #130D06",
"#  c #120D0A",
"$  c #1B0B09",
"%  c #15100C",
"&  c #1C140B",
"*  c #141313",
"=  c #1A1614",
"-  c #1D1D1C",
";  c #1A1817",
":  c #0F0F10",
">  c #220404",
",  c #2C0404",
"<  c #250C0B",
"1  c #3A0605",
"2  c #22160A",
"3  c #25190C",
"4  c #2C1D0D",
"5  c #211E1E",
"6  c #251713",
"7  c #3D1818",
"8  c #34230E",
"9  c #2D2113",
"0  c #382713",
"q  c #1F1F20",
"w  c #201F20",
"e  c #1F2020",
"r  c #242323",
"t  c #282626",
"y  c #2B2B2B",
"u  c #2B2927",
"i  c #362E2E",
"p  c #34312F",
"a  c #343333",
"s  c #393736",
"d  c #3A3836",
"f  c #363838",
"g  c #3B3B3B",
"h  c #302F30",
"j  c #480403",
"k  c #580202",
"l  c #471919",
"z  c #43110F",
"x  c #650101",
"c  c #6A0706",
"v  c #7C0101",
"b  c #770505",
"n  c #701717",
"m  c #452E13",
"M  c #493217",
"N  c #513617",
"B  c #5A3D1A",
"V  c #553919",
"C  c #43290F",
"Z  c #603F19",
"A  c #4C3029",
"S  c #733231",
"D  c #5E411D",
"F  c #63431C",
"G  c #6C491E",
"H  c #69451B",
"J  c #734D1E",
"K  c #784F1F",
"L  c #7C521F",
"P  c #6A4A22",
"I  c #724E22",
"U  c #7C5321",
"Y  c #6D5537",
"T  c #7D603C",
"R  c #3F3F40",
"E  c #3E4242",
"W  c #384848",
"Q  c #434444",
"!  c #4B4B4B",
"~  c #464848",
"^  c #544D4B",
"/  c #51504F",
"(  c #4A5353",
")  c #4B5B5B",
"_  c #535353",
"`  c #545959",
"'  c #5C5C5C",
"]  c #585656",
"[  c #715451",
"{  c #5B6767",
"}  c #5C7676",
"|  c #636363",
" . c #6C6C6B",
".. c #676969",
"X. c #736E6B",
"o. c #74706D",
"O. c #697575",
"+. c #737373",
"@. c #7B7B7B",
"#. c #777978",
"$. c #6B6152",
"%. c #850504",
"&. c #9C0202",
"*. c #960808",
"=. c #951616",
"-. c #901110",
";. c #A40101",
":. c #AC0101",
">. c #A60C0C",
",. c #B60101",
"<. c #BB0101",
"1. c #A31010",
"2. c #8B2D2D",
"3. c #C30101",
"4. c #CC0000",
"5. c #D40000",
"6. c #D90000",
"7. c #82551F",
"8. c #825722",
"9. c #855823",
"0. c #8C5C23",
"q. c #915F23",
"w. c #966224",
"e. c #996424",
"r. c #855150",
"t. c #896666",
"y. c #837A78",
"u. c #8C7A75",
"i. c #7F807F",
"p. c #89857F",
"a. c #807F80",
"s. c #7D8484",
"d. c #748888",
"f. c #759595",
"g. c #6D8887",
"h. c #848484",
"j. c #878888",
"k. c #8C8D8C",
"l. c #888787",
"z. c #918D8C",
"x. c #9B8A8A",
"c. c #8A9595",
"v. c #939393",
"b. c #999695",
"n. c #979898",
"m. c #9B9B9B",
"M. c #979897",
"N. c #8F8F8F",
"B. c #A19E9C",
"V. c #A19494",
"C. c #9F9FA0",
"Z. c #8CA8A8",
"A. c #98A6A6",
"S. c #95B7B8",
"D. c #8CB0AF",
"F. c #A3A3A3",
"G. c #A6A9A9",
"H. c #ABABAB",
"J. c #A8A7A7",
"K. c #B0ABAB",
"L. c #AAB8B8",
"P. c #B4B4B4",
"I. c #B6BABA",
"U. c #BBBCBC",
"Y. c #B9B7B7",
"T. c #B0B0AF",
"R. c #C0BFBF",
"E. c #BDC0BF",
"W. c #99C6C6",
"Q. c #9EDBDB",
"!. c #A4CBCB",
"~. c #BFC0C1",
"^. c #B0CECE",
"/. c #A5D8D8",
"(. c #B9D4D4",
"). c #A4E4E4",
"_. c #AAE4E4",
"`. c #ABECEC",
"'. c #A5EBEB",
"]. c #B4E5E5",
"[. c #ACF5F5",
"{. c #AFFFFF",
"}. c #B3F3F3",
"|. c #B2FEFE",
" X c #BBFEFE",
".X c #BEF3F3",
"XX c #C4C4C4",
"oX c #C7C9C9",
"OX c #CBCCCC",
"+X c #C8C7C7",
"@X c #CDD2D2",
"#X c #C8D7D7",
"$X c #D3D4D4",
"%X c #D7D7D8",
"&X c #D7D9D9",
"*X c #DBDBDB",
"=X c #D8D7D7",
"-X c #D1CFCF",
";X c #DFDFE0",
":X c #C6E7E7",
">X c #DDE3E3",
",X c #DAECED",
"<X c #C2F5F5",
"1X c #C3FCFC",
"2X c #CBFCFC",
"3X c #CAF7F7",
"4X c #D5F3F3",
"5X c #D4FBFB",
"6X c #DBFAFA",
"7X c #DBF6F6",
"8X c #E3E4E4",
"9X c #E8E7E7",
"0X c #E5EBEB",
"qX c #EBEBEB",
"wX c #F0EFEF",
"eX c #E3F4F4",
"rX c #ECF3F3",
"tX c #E3FBFB",
"yX c #ECFAFA",
"uX c #F5F5F5",
"iX c #F7F8F8",
"pX c #F9FAFA",
"aX c #F8F6F6",
"sX c #EFEFF0",
/* pixels */
"{.{.{.{.{.{.{.{.{.{.{.{.{.{.|.{.{.{.{.{.{.{.{.{.{.{.{.{.{.{.{.5X9X>X6X X{.{.{.{.{.{.{.{.{.{.{.{.{.{.|.{.{.{.{.{.{.{.{.{.{.{.{.{.{.{.{.{.{.{.{.",
"{.{.{.{.{.{.{.{.{.{.{.{.{.{.{.{.{.{.{.{.{.{.{.{.{.{.{. X X[.|.rXwXtX|.{.{.{.{.{.{.{.{.{.{.{.{.{.{.{.{.{.{.{.{.{.{.|.{.{.{.{.{.{.{.{.|.{.{.{.{.",
"{.{.{.{.{.{.{.{.{.{.{.{.{.{.{.{.{.{.{.{.{.{.{.{.{.|.|.(.#XF.).1XtX5X|.{.{.{.{.{.{.{.{.{.{.{.{.{.{.{.{.{.{.{.{.{.{.{.{.{.{.{.{.{.{.{.{.{.{.{.{.",
"{.{.{.{.{.{.{.{.{.{.{.{.{.{.{.{.{.{.{.{.{.{.{.{.{.|.}.J.U.;X.X{.|.|.{.{.{.{.{.{.{.{.{.{.{.{.{.{.{.{.{.{.{.{.{.{.{.{.{.{.{.{.{.{.{.{.{.{.{.{.{.",
"{.{.{.{.{.{.{.{.{.{.{.{.{.{.{.{.{.{.{.{.{.{.{.{.{.3XI.I.9XaX2X{.{.{.{.{.{.{.{.{.{.{.{.{.{.{.|.{.{.{.{.{.{.{.{.{.{.{.{.{.{.{.{.{.{.{.{.{.{.{.{.",
"{.{.{.{.{.{.{.{.{.{.{.{.{.{.{.{.{.{.{.{.{.{.{.{.{.5XF.F.7X5X X{.{.{.{.{.{.{.{.{.{.{.{.{.{.{.{.{.{.{.{.{.{.{.{.{.{.{.{.{.{.{.{.{.{.{.{.{.{.{.{.",
"{.{.{.{.{.{.{.{.{.{.{.{.{.{.{.{.{.{.{.{.{.{.{.{. XrXqXrX X{.{.{.{.{.{.{.{.{.{.{.{.{.{.{.{.{.{.{.{.{.{.{.{.{.{.{.{.{.{.{.{.{.{.{.{.{.{.{.{.{.{.",
"|.{.{.{.{.{.{.{.{.{.{.{.{.{.{.{.{.{.{.{.{.{.{.{. X5XeX2X{.{.{.{.{.{.{.{.{.{.{.{.{.{.{.{.{.{.{.{.{.{.{.{.{.{.{.{.{.{.{.{.{.{.{.{.{.{.{.{.{.{.{.",
"{.{.{.{.{.{.{.{.{.{.{.{.{.{.{.{.{.{.{.{.{.{.{.{.|.|.`.`.{.{.{.{.{.{.{.{.{.{.{.{.{.{.{.{.{.{.{.{.{.{.{.{.{.{.{.{.{.|.{.{.{.{.{.{.{.{.{.{.{.{.{.",
"{.{.{.{.{.{.{.{.{.{.{.{.{.|.{.{.{.{.{.{.{.{.|.|./.h.f ( S.{.{.{.{.{.{.{.{.{.{.{.{.{.|.{.{.{.{.{.{.{.{.{.{.{.{.{.{.{.{.{.{.{.{.{.{.{.{.{.{.{.{.",
"{.{.{.{.{.{.{.{.{.{.{.{.{.{.{.{.{.{.{.{.{.|._.Z.Q p Q * ` [.{.{.{.{.{.{.{.{.{.{.{.{.{.{.{.{.{.{.{.{.{.{.{.{.{.{.{.{.{.{.{.{.{.{.{.|.{.{.{.{.{.",
"{.{.{.{.{.{.{.{.{.{.{.{.{.{.{.{.{.{.{.|._.A.` r Q H.T.~ a Z.{.{.{.{.{.{.{.{.{.{.{.{.{.{.{.{.{.{.{.{.{.{.{.{.{.{.{.{.{.{.{.{.{.{.{.{.{.{.{.{.{.",
"{.{.{.{.{.{.{.|.{.{.{.{.{.{.{.|.|.|.[.W.` ; r y.$XiXT.h.] ( ).|.{.{.{.{.{.{.{.{.{.{.{.{.{.{.{.{.{.{.{.{.{.{.{.{.{.{.{.{.{.{.{.{.{.{.{.{.{.{.{.",
"{.{.{.{.{.{.{.{.{.{.{.{.{.|.[.Q.S.s.( - , j [ 9XaXaXn.P.F.w f.{.{.{.{.{.{.{.{.{.{.{.{.{.{.{.{.{.{.{.{.{.{.{.{.{.{.{.{.{.{.{.{.{.{.{.{.{.{.{.{.",
"{.{.{.{.{.{.{.{.{.{.|.`.D.f.) p - * > x :.3.2.XXpXqXk.@X8X] t W.|.{.{.{.{.{.{.{.{.{.{.{.{.{.{.{.{.|.{.{.{.{.{.{.{.{.{.{.{.{.{.{.{.{.{.{.{.{.{.",
"{.{.{.{.{.{.{.{.{.{.).{ w * s  .N.M.S <.6.5.>.x.iX8Xl.8XpXP.5 { {.{.{.{.{.{.{.{.{.{.{.{.{.{.{.{.{.{.{.{.{.{.{.{.|.{.{.{.{.{.{.{.{.{.{.{.{.{.{.",
"{.{.{.{.{.{.{.{.|.}.d.= ..+.j.0XpXpXV.-.5.5.,.t.sX+Xn.uXpXY.u u S. X{.{.{.{.{.{.{.{.{.{.{.{.{.{.{.{.{.{.{.{.{.{.{.{.{.{.{.{.{.{.{.{.{.{.{.{.{.",
"{.{.|.{.{.{.{.{.|.<XX.s R.OXh.-XpXpX-XS 4.5.3.r.>XF.I.pX>Xr.b , _ ).|.|.{.{.{.{.{.{.{.{.{.{.{.{.{.{.{.{.{.{.{.{.{.|.|.|.|.{.{.{.{.{.{.{.{.{.{.",
"{.{.{.{.{.{.{.{. X>X` Q oX;XH.C.pXpXqXt.,.6.4.r.E.k.;X$Xy.*.5.b 6 #.`.|.{.{.{.{.{.{.{.{.{.{.{.{.{.|.{.{.{.'.W.!.W.W.W.W.W.W.[.{.{.{.{.{.{.{.{.",
"{.{.{.{.{.{.{.{. X*X~ g +X;X+Xj.;XpXsXt.,.6.3.r.#.! y.S *.4.5.3.j - A.}.{.{.{.{.{.{.{. X`.].L.c.d.g.O.) ) W y t r r t t y y W O.).{.{.{.{.{.{.",
"{.{.{.{.{.{.{.{. X>X` r T.;X%Xh.oXpXrXt.,.5.,.A r . v 3.5.5.6.6.%.; f W.{.{.{.|.{.}.W.Z.{ s y 5 * - y a f ~ ] ' ' ' | .. .{ s o ..[.{.{.{.{.{.",
"{.{.{.{.{.{.{.{. X0Xs.= k.*X*Xk.Y.pX8Xr.,.,.k $ g a b 5.5.6.5.>.t.n.r g !.[.].!.d.( a - w R ' +.j.M.M.j.@.+. . . .| / ` P.*XU.g ; D.{.{.{.{.{.",
"{.{.{.{.{.{.{.{. XeXH.- g XX;Xv.P.pXR.n c , w  .P.N.7 %.1.=.2.a.&XuXM.- g O.Q r - s ' @.C.T.J.a.' ! Q Q ' +.l.v.n.l.` Q H.=XH._ - E ).{.{.{.{.",
"{.{.{.{.{.{.{.{. XrX$X| o ] J. .h.M.~ $ 5 ! m.%X;XU.a 7 u.K.OXsXiXiXsX] .   h  .h.v.h.@.| ! / ' +.N.H.H.H.J.b.h.@.@.y.h.h. .( m.N.; g.{.{.{.{.",
"{.{.{.{.{.{.{.{.{.2X9XP.! * 5 * - r h ' m.OXqXeXeX>Xl.r #.0XpXpXiXuXT.2.v $ p ~ Q / / @.v.F.T.I.Y.F.h.y.h.N.m.m.N.+.| +.l.G.m.+X8X! y W.|.|.{.",
"{.{.{.{.{.{.{.{.{. XeX*XY.h. . .h.v.T.@X8XrX5X X XqXR.! ; h.;X0X=Xb.S ,.4.v + - ..M.m.M.N.h.a.j.v.H.H.T.F.h.+. .h.C.XX8XsXpX$XM.qXm.; d.}.{.{.",
"{.{.{.{.{.{.{.{.{.{. X,X>X%X%X%X*X>X9XeX4X X{.{.|.~.` a g t g ! d z %.&.-.n A ! a.k.n.F.T.P.T.G.v.j.#... .k.I.*XqXaXiXiXuXaXqXv.+X%Xf ! _.{.{.",
"{.{.{.{.{.{.{.{.{.{.{. XeXqX0XqXuX6X5X X{.{.{.{.W.A 5 v.OXa.h h R ] X.y.k.C.H.P.Y.Y.H.n.j.+._ ' a.M.Y.$X0XaXiXiXpXuXuXuXuXuXF.! H.aX+.y !. X{.",
"{.{.{.{.{.{.{.{.{.{.{.{.|. X X X X|.{.{.{.{.{.[.{ * f a.H.I.G.H.U.I.P.G.c.@...+. . .#.k.v.F.y.H.uXaXpXiXaXuXuXuXiXuXuXuXaX+Xy O h.pXH.t s.{.{.",
"{.{.{.{.{.{.{.{.{.{.{.{.{.{.{.{.{.{.{.{.{.{.{.!.r a F.k.| | .. . ...'  .@.v.G.Y.XXoX$X=X*X>XF.G.uXuXiXiXuXuXuXuXuXuXuXuXiXC.:    .uX*Xf ( [.{.",
"{.{.{.{.{.{.{.{.{.{.{.{.{.{.{.{.{.{.{.{.{.{.W.` - ` +X*XOXR.Y.P.R.R.oX-X=X*X*X*X*X*X*X*X*X;XT.N.0XiXaXuXuXuXuXuXuXuXaXuXaXM.o   ' qXqX` ( [.{.",
"{.{.{.{.{.{.{.{.{.{.{.{.{.{.{.{.{.{.{.{.W.O.a ( C.OX%X*X*X*X*X;X*X*X*X*X*X*X*X*X*X*X=X*X*X*XU.h.8XiXuXuXuXuXuXuXiXuXuXaXiXj.O   ( 9XuX .W [.{.",
"{.{.{.{.{.{.{.{.{.{.{.{.{.{.{.{.{.{.{.D.s a l.OX*X*X*X*X*X*X*X*X=X*X*X*X%X*X=X*X*X*X*X*X*X*X$Xh.OXiXuXiXuXiXiXuXuXuXuXuXiXs.O   _ 9XuX..E [.{.",
"{.{.{.{.{.{.{.{.{.{.{.{.{.{.{.{.{.[.Z.t s J.*X*X*X*X*X*X*X=X*X*X=X*X*X=X*X*X*X=X*X%X=X*X*X*X*Xk.P.aXuXaXuXuXuXiXuXuXuXuXuXXX! O / 9XsX| ( [.|.",
"{.{.{.{.{.{.{.{.{.{.{.{.{.{.{.{.{.^.a r F.;X*X*X*X*X$X%X*X%X*X*X*X=X*X*X*X*X*X*X*X*X*X*X*X*X*XJ.k.wXuXuXuXuXuXuXuXuXuXaXaXXXQ O | 0XqX] { [.|.",
"{.{.{.{.{.{.{.{.{.{.{.{.{.{.{.{.}.g.o +.%X*X=X*X%Xm...Y.*X*X*X*X*X*X*X*X%X%X*X*X=X*X*X*X=X*X*XOX#.@XiXuXuXuXuXaXiXuXuXuXpXM.o   l.pX*XQ ~ S.[.",
"{.{.{.{.{.{.{.{.{.{.{.{.{.{.{. X,X~ - H.*X*X*X@X#.- * N.*X*X*X*X*X*X*X%X*X*X*X*X%X*X*X%X*X*X*X*Xz.v.aXaXuXuXuXuXuXuXuXuXpXF.o O l.*XX.7 , s Z.",
"{.{.{.|.{.{.{.{.{.{.{.{.{.{.{. X@Xy s +X;X*X=Xk.r ! - _ $X*X*X*X*X%X*X*X*X%X*X*X*X*X*X*X*X*X*X*XXXo.R.pXuXuXuXaXuXuXuXuXaX$Xg g #.' c <.&., ~ ",
"{.{.{.{.{.{.{.{.{.{.{.{.{.{.|.5XR.r ~ @X;X*X@X! ! P.! f XX*X*X*X%X*X&X*X*X*X*X*X*X*X*X*X*X*X*X*X*XA.+.*XaXaXaXuXuXuXuXuXuXuXN.v.M.n 3.5.&.l h.",
"{.{.{.{.{.{.{.{.{.{.{.{.{.{.{.2XY.5 ~ OX*X*XOXQ  .*X@.- F.*X*X*X*X*X%X*X*X%X=X*X=X*X*X*X*X*X*X*X*X%Xl.h.*XpXaXuXuXuXuXaXuXXXk.-XB.n &.c 7 @.8X",
"{.{.{.{.{.{.{.{.{.{.{.{.{.{.{. X~.t R OX*X*X$X' | ;XT.r | $X*X*X*X*X=X*X%X*X*X*X%X*X*X*X%XU.H.+X*X*X-Xk.+.P.0XpXiXiXiX9XJ.i.Y.>X+X^ + s n.8XpX",
"{.{.{.{.{.{.{.{.{.{.{.{.{.{.|. X@XQ - H.;X*X*Xn.g G.+X' e F.*X*X%X*X*X*X*X*X*X%X*X*X=XOX#.a w g h.oX;X%XH.o.k.H.Y.I.J.k.k.XX*X*XoX! # k.9XyX2X",
"{.{.{.{.{.{.{.{.{.{.{.{.{.{.|.2X8Xj.* ] -X;X*X-X+.a ! f O g m.=X*X=X*X*X%X*X=X*X*X*X*Xh.o       : ! G.%X;XOXH.B.n.M.m.Y.%X*X*X*Xh.* { *X6X X{.",
"{.{.{.{.{.{.{.{.{.{.{.{.{.{.{.2XqXXXQ * v.*X*X*XOXk.~ h Q +.I.*X*X*X*X*X*X*X*X&X*X*XOX^             r +.T.OX*X*X*X;X;X;X*X*X*XH.u s XXtX|.{.{.",
"{.{.{.{.{.{.{.{.{.{.{.{.{.{.{.|.eX8XF.r f P.*X*X;X&X@XXX$X*X*X*X*X*X*X*X*X*X%X*X*X*X%X+.O             O r Q ..#.k.n.A.m.F.H.h.s r A.uX3X{.{.{.",
"{.{.{.|.{.{.{.{.{.{.{.{.{.{.{.{.2XsX$Xs.- g F.=X;X>X;X*X*X*X>XOXH.+X*X*X*X*X*X*X&X*X*XY.a     . .             O # = ; * ; r q y k.:X1X{.{.{.{.",
"{.{.{.{.{.{.{.{.{.{.{.{.{.{.{.{.|.7X9XOXN.d r  .H.~.OXOXoXY.v.! r @.*X*X*X%X*X*X*X%X*X*Xk.5 j %.%.c > < , .             o ' n.Y.>X2X{.{.{.{.{.",
"{.{.{.{.{.{.{.{.{.{.{.{.{.{.{.{.{.|.7X9X$XT...r e f A ~ R t #   O y m.*X*X*X*X*X*X*X*X*X@Xv.S -.<.4.&.%.:.x .     O - * / XX;X0X3X{.{.{.{.{.{.",
"{.{.{.{.{.{.{.{.{.{.{.{.{.{.{.{.{.{.|.7X9X*XOXk.*   O O O O O O   O y m.*X*X*X*X*X*X*X*X*X*XU.z.[ 2.=.=.1.-.z * a  .+.a H.eXeX2X{.{.{.{.{.{.{.",
"{.{.{.{.{.{.{.{.{.{.{.{.{.{.{.{.{.{.{.|.2X7X*Xh.* O O O O O O O O O   5 +.+X*X*X*X*X*X*X*X*X*X*XOXY.K.B.x.x.z.m.~.J.f  .,X X{.{.{.{.{.{.{.{.{.",
"{.{.{.{.{.{.{.{.{.{.{.{.{.{.{.{.{.{.{.{.{. X@XQ O                       O Q v.XX%X*X*X*X*X=X*X*X*X;X*X*X;X;X;X*XH.g R +X5X{.{.{.{.{.{.{.{.{.{.",
"{.{.{.{.{.{.|.{.{.{.{.{.{.{.{.{.{.{.{.{.|._...o                             * f #.P.oX%X*X*X;X*X*X;X*X*X*X*XOXh.y R Y.7X|.{.{.{.{.{.|.{.{.{.{.",
"{.{.{.{.{.{.{.{.{.{.{.{.{.{.{.{.{.{.{.{.]. .O                                   O w f ' h.F.I.XX+X+XoX~.T.@.Q - ~ Y.qX X{.{.{.{.{.{.{.{.{.{.{.",
"{.{.{.{.{.{.{.{.{.{.{.{.{.{.{.{.{.{.{.|.s.*                                             O ; y a R A R a e ; g j.oXrX2X{.{.{.{.{.{.{.{.{.{.{.{.",
"{.{.{.{.{.{.{.{.{.{.{.{.{.{.{.{.{.{.|.S.y             o - o                             ; ...._ ~ ~ E ! ' h.U.;XeX2X{.{.{.{.{.{.{.{.{.{.{.{.{.",
"{.{.{.{.{.{.{.{.{.{.|.{.{.{.{.{.{.|.}.d.O             ; Q = + .                         s U.@XOX~.oXXX+X@X;XsX6X X|.{.{.{.{.{.{.{.{.{.{.{.{.{.",
"{.{.{.{.{.{.{.{.{.{.{.{.{.{.{.{.{.|.]./           .   O > x &.v 1 .                     Q *XrX9XqXqX9XqX0X7X3X|.{.{.{.{.{.{.{.{.{.{.{.{.{.{.{.",
"{.{.{.{.{.{.{.{.{.{.{.{.{.{.{.{.{. XOXy               , &.5.6.5.&.j O                   f ^.&XoXoX7XtX6X2X|.{.{.{.{.{.{.{.{.{.{.{.{.{.{.{.{.{.",
"{.{.{.{.{.{.{.{.{.{.{.{.{.{.{.{.{. X~.r             , :.5.4.&.k , 6 s f f g *       O o * W ~ y f d.).{.|.{.{.{.{.{.{.{.{.{.{.{.{.{.{.{.{.{.{.",
"{.|.{.{.{.{.{.{.{.{.{.{.{.{.{.{.|.6XOXs           + b ;.&.k > a @.I.$X%X*X*XT.! O     ; - r ` s.h.! O./.{.{.{.{.{.{.{.{.{.{.{.{.{.{.{.{.{.{.{.",
"{.{.{.{.{.{.{.{.{.{.{.{.{.{.{.{.{.tX*X'           + l ^ i 5 +.OXuXiXiXiXaXaXiX%XQ     e +.P.@X*X*XT.Q g.{.{.{.{.{.{.{.{.{.{.{.{.{.{.{.{.{.{.{.",
"{.{.{.{.{.{.{.{.{.{.{.{.{.{.{.{.{. X9XM.*         r n.9Xc.j.qXpXuXuXaXuXaXuXaXiXn.: A H.*X*X*X%X*X*Xk.E /.|.{.{.{.{.{.{.{.{.{.{.{.{.|.{.{.{.{.",
"{.{.{.{.{.{.{.{.{.{.{.{.{.{.{.{.{. XrXOX| O     O h.uXOXj.Y.Y.wXiXuXuXuXaXiX9X>XY.r +.*X*X*X*X*X*X*XP.a f.|.{.{.{.{.{.{.{.{.{.{.{.{.{.{.{.{.{.",
"{.{.{.{.{.{.{.{.{.{.{.{.|.{.{.{.{.|.5X8XY.!     R *X9Xh.Y.8Xk.H.rXaXuXuXaXiX*Xv. .* @.*X*X*X*X*X*X*X+Xs ' [.{.{.{.{.{.{.{.{.{.{.{.{.{.{.{.{.{.",
"{.{.{.{.{.{.{.{.{.{.{.{.{.{.{.{.{.{. XrX*XH.f O y.pXT.v.qX$X$XR.8XiXaXuXuXuXuX*Xj.e { OX*X*X*X*X*X*X-X! ! `.{.{.{.{.{.{.{.{.{.{.{.{.{.{.{.{.{.",
"{.{.{.{.{.{.{.{.{.{.{.{.{.{.{.{.{.{.|. X0X=X#.o v.0Xl.=XpXH.m.;XuXuXuXuXuXuXuXuXwXv.y #.k.h.oX*X*X*X$X_ ( `.{.{.{.{.{.{.{.|.{.{.{.{.{.{.{.{.{.",
"{.{.{.{.{.{.{.{.{.{.{.{.{.{.{.{.{.{.{.|.6XqXv.: ~ k.b.qX%X9XOX;XiXuXuXuXuXuXiXuXpX*XA * X g E.*X*X;XE.p +.|.{.{.{.{.{.{.{.{.{.{.{.{.{.{.{.{.{.",
"{.{.{.{.{.{.{.{.{.{.{.{.{.{.{.{.{.{.{.{. XtXH.r   w G.sXH.P.sXpXuXuXuXuXiXuXuXaXpX#Xg   : h.*X*X*X;XN.r A. X{.{.{.{.{.{.{.{.{.{.{.{.{.{.{.{.{.",
"{.{.{.{.{.{.{.{.{.{.{.{.{.{.{.{.{.{.{.{.{.7XOX!   w +XpX9X$XsXiXiXuXuXuXuXuXiXqXuXG.5 @ A ~.>X*X;X$X] a (. X{.{.{.{.{.{.{.{.{.{.{.|.{.{.{.{.{.",
"{.{.{.{.{.{.{.{.{.{.{.{.{.{.{.{.{.{.{.{.{.6X%X! . * P.pXpXiXuXuXuXuXuXuXuXaXiXU.s.R 2 G ^ ~.*X*X%Xk.q o.:X{.{.{.{.{.{.{.{.{.{.{.{.{.{.{.{.{.{.",
"{.{.{.{.{.{.{.{.{.{.{.{.{.{.{.{.{.{.{.{.{.:X#.6 x 1 | 9XiXiXuXuXuXiXuXuXuXuXiXT.; & N e.I $.l.N.y.p ; G.1X{.{.{.{.{.{.{.{.{.{.{.{.{.{.{.{.{.{.",
"{.{.{.{.{.|.{.{.{.{.{.{.{.{.{.{.{.{.{.{.{.f.= k 3.%.6 a.8XiXuXuXuXuXaXuXaXiXuX@.& B V I q.U I I L K 5 d.{.{.{.{.{.{.{.{.{.{.{.{.{.{.{.{.{.{.{.",
"{.{.{.{.{.{.{.{.{.{.{.{.{.{.{.{.{.{.|.|.3X.., b &.<.x $ _ @XiXaXpX9X$XuXiXuXJ.r 0 0.9.F V F I I J N @ } {.{.{.{.{.{.{.{.{.{.{.{.{.{.{.{.{.{.{.",
"{.{.{.{.{.{.{.{.{.{.{.|.{.{.{.{.|.{.|.|.rX+.j &.l -.<.v > +.8XiXpXOX] h.F.@.y 8 8.e.e.w.0.U P F N O 9 D.{.{.{.{.{.{.{.{.{.{.{.{.{.{.{.{.{.{.|.",
"{.{.{.{.{.{.{.{.{. X}.).Q.).`.'.).`.|.|.;X' < [ T.y.-.5.%.6 ` v.m.+.= @ % 9 B 0.e.w.w.w.e.e.e.e.F * N.4X{.{.{.{.{.{.{.{.{.{.{.{.{.{.{.{.{.{.{.",
"{.{.{.{.{.{.{.|.].S.h.] g Q ` ~ f ! c.!.{ t | ~.;XOXr.,.4.%.k 1 @ @ N B 0 7.e.e.e.w.w.w.e.e.e.0.0 s oX2X{.{.{.{.{.{.{.{.{.|.{.{.{.{.{.{.{.{.{.",
"{.{.{.{.{.{.`.Z.` - 6 0 M V 0 & 0 4 t a h k.$X*X;X8XM.c 4.6.3.x < D w.w.0.w.w.w.w.w.e.w.w.e.w.V # #.<X{.{.{.{.{.{.{.{.{.{.{.{.{.{.{.{.{.{.{.{.",
"{.{.{.{.|.W.) = 2 M J q.w.8.D U e.9.A ] H.*X*X=X*X$X[ k ;.:.k 2 B w.e.e.e.w.w.w.w.e.e.w.w.w.D @ s OX2X{.{.{.{.{.{.{.{.{.{.{.{.{.{.{.{.{.{.{.{.",
"{.{.{.{.Z.a @ M 7.w.e.e.w.F U e.q.T B.%X*X*X&X;XOX+.6 , , $ 2 F w.e.e.e.w.e.w.w.w.w.e.e.q.D @ r m.4X X{.{.{.{.{.{.{.{.{.{.{.{.{.{.{.{.{.{.{.{.",
"{.{.{.}.E @ D w.e.w.w.w.9.D w.e.L y.&X*X*X&X;XOX' * A _ Q = B e.e.e.e.w.w.w.w.w.w.e.w.U M O 9 v.0X X{.{.{.{.{.{.{.{.{.{.{.{.{.{.{.{.{.{.{.{.{.",
"{.{. X#Xy 3 9.e.e.e.w.w.9.P w.e.7.X.%X*X*X*XE.' ; ' Y.XXI._ 3 F 0.e.e.e.e.e.w.w.0.K N & O y v.9X2X{.{.{.{.{.{.{.{.{.{.{.{.{.{.|.{.{.{.{.{.{.{.",
"{.{.3Xj.= 0 9.e.e.e.w.w.0.F 0.e.w.I B.%X+Xv.f q #.$X9X0X;XT.~ % 4 V H J G H B m 2 @ X r  .Y.0X5X|.{.{.{.{.{.{.{.{.{.{.{.{.{.{.{.{.{.{.{.{.{.{.",
"{.|.>X` 3 V L e.e.e.e.w.w.F G e.e.0.Y o.^ = y k.*X7X2X3X,X*XU. .y : X @ @ X X * r Q +.H.=XqX2X{.|.{.{.{.{.{.{.|.{.{.{.{.{.{.{.{.{.{.{.{.{.{.{.",
"{. X@Xd 0 F P e.w.w.e.w.w.0.B L e.e.q.L M u F.8XtX X{.{.5X0X;XOXH.k.+...|  .a.v.H.+X*XqXeX2X{.{.{.{.{.{.{.{.{.{.{.{.{.{.{.{.{.{.{.{.{.{.{.{.{.",
"{. X#Xs m I F e.w.w.e.e.e.w.8.B L e.e.e.V / *X6X|.{.{.{.|. XeX9X>X=X%X$X$X%X*X>X8X0XeX2X X{.{.{.{.{.{.{.{.{.{.{.{.{.{.{.{.{.{.{.{.{.{.{.{.{.{.",
"{.|.&X_ M 9.D 0.w.e.e.w.w.w.w.L D H L 9.8 { .X|.{.{.{.{.|.{. X2XeX,X0XwX0XeX,XeX6X X X{.{.{.{.{.{.{.{.{.{.{.{.{.{.{.{.{.{.{.{.{.{.{.{.{.{.{.{.",
"{. X,X .9 0.F L e.e.w.w.w.w.w.w.L M - 4 X O.}.{.{.{.{.{.{.{.{.{.{.{.2X5X2X{.{.{.|.{.{.{.{.{.{.{.{.{.{.{.{.{.{.{.{.{.{.{.{.{.{.{.{.{.{.{.{.{.{.",
"{.|.eXv.9 L L H w.w.e.e.e.w.0.G F D 8 X X p O.W.[.{.{.{.{.{.{.{.{.{.{.{.{.{.{.{.|.{.{.{.{.{.{.{.{.{.{.{.{.{.{.{.{.{.{.{.{.{.{.{.{.{.{.{.{.{.{.",
"{.|.eXR.i Z 0.F 0.w.e.e.e.w.q.9.0.w.0.J F C 2 t { Q.{.{.{.{.{.{.{.{.{.{.{.{.{.{.{.{.{.{.{.{.{.{.{.{.{.{.{.{.{.{.{.{.{.{.{.{.{.{.{.{.{.{.{.{.{.",
"{.|.eX%X_ m w.F U w.e.w.w.w.e.e.w.w.w.w.w.q.L m % ( /.{.{.{.{.{.{.{.{.{.{.{.{.{.{.{.{.{.{.{.{.{.{.{.{.{.{.{.{.{.{.{.{.{.{.{.{.{.{.{.{.{.{.{.{.",
"{.{.1X9Xh.3 I U P 0.e.w.w.w.e.e.w.w.w.w.w.w.e.q.B & ..}.{.{.{.{.{.{.{.{.{.{.{.{.{.{.{.{.{.{.{.{.{.{.{.{.{.{.{.{.{.{.{.{.{.{.{.{.{.{.{.{.{.{.{.",
"{.{. XwXP.a 8 9.F P w.e.e.e.e.w.w.w.w.w.w.w.e.e.w.V y S.{.{.{.{.{.{.{.{.{.{.{.{.{.{.{.{.{.{.{.{.{.{.{.{.{.{.{.{.{.{.{.{.{.{.{.{.|.{.{.{.{.{.{.",
"{.{. XrX*Xh.; m 9.B I e.e.e.w.e.w.w.w.w.w.w.e.w.e.9.4 d.2X2X1X.X<X1X.X<X1X2X<X1X.X1X.X X<X1X1X1X2X|.{.2X X{.{.{.{.{.{.{.{.{.{.{.{.{.{.{.{.{.{.",
"{.|.:X#XoXJ.! % V U D I w.e.w.w.w.w.e.w.w.w.w.w.e.0.9 +.@X@XoX~.E.R.U.U.XXoX+XXX~.XXXXR.E.~.R.+X@X^.^.$X(.:X:X|.{.{.{.{.{.{.{.{.{.{.{.{.{.{.{.",
"{.(.H.m.v.k.#.f # N U F Z 8.w.w.w.e.e.w.e.w.w.e.e.U 3 | m.n.n.m.M.M.n.m.M.M.n.M.M.M.M.n.n.m.M.M.n.n.m.n.b.C.XX}.{.{.{.{.{.{.{.{.{.{.{.{.{.{.{.",
" X,XP.n.k.k.h.+.s # m 8.U H F L 0.w.w.w.e.e.e.e.9.0 5 s.M.k.v.v.v.N.v.v.N.N.z.v.N.v.v.v.N.v.k.v.v.v.b.n.F.P.*X X{.{.{.{.{.{.{.{.{.{.{.{.{.{.{.",
"tXuX8X+XG.M.k.s.+.g % 4 H 0.U P F G I 8.0.w.K N 3 O ~ z.k.z.k.z.N.N.k.N.N.k.k.k.k.k.k.k.z.v.H.U.XXXXoX$X*XqXyX X|.{.{.{.{.{.{.{.{.{.{.{.{.{.{.",
" XyXuXqX;X%XXXY.m.k.` w X 0 P 9.0.U J B 0 4 @ O % g @.z.k.k.k.k.k.k.k.k.k.k.N.N.k.N.k.N.F.oX9XwXuXqXwXuXuXrX.X{.{.{.{.{.{.{.{.{.{.{.{.{.{.{.{.",
"{. XtXaXaXuX0XqX;XoXXXm._ ; @ 3 M F B 3 O O r Q  .k.M.v.v.M.v.k.v.N.N.k.N.N.N.z.v.M.F.U.*XrXrXyXyXyXyX6X X X{.{.{.{.{.{.{.{.{.|.{.{.{.{.{.{.{.",
"{.{.{.2X6XyXpXaXuXuX9X%XXXv.| a ; # % r / +.H.XX+XOX@XOXoXOXOX+X~.U.~.Y.Y.U.U.XXOX%X8X0XpXyX X|.|.|.|.|.{.{.{.{.{.{.{.{.{.{.{.{.{.|.{.{.{.{.{.",
"{.{.{.{.{. X X1X2XyXyX0X;X%XOXY.M.#.h.H.oX%X8X9XwXuXuXuXuXqXqXrXqXqX0XqXqXwXrXuXaXrXrXyX2X X{.{.{.{.{.{.{.{.{.{.{.{.{.{.{.{.{.{.{.{.{.{.{.{.{.",
"{.{.{.{.{.{.{.{.{.|. X X7X4X8X*X*X%X*XqXeX6X6X6X6X6X6X7X6X7X6X7X6X6X7X7X7X7X6X7X6X1X|.|.|.{.{.{.{.{.{.{.{.{.{.{.{.{.{.{.{.{.{.{.{.{.{.{.{.{.{.",
"{.{.{.{.{.{.{.{.{.{.{.{.{.|.2XrXuXqX7X3X1X{.{.{.{.{.{.{.{.{.{.{.{.{.{.{.{.{.{.{.{.{.{.{.{.{.{.{.{.{.{.{.{.{.{.{.{.{.{.{.{.{.{.{.{.{.{.{.{.{.{."
};
