/* XPM */
static char *cuphead3_115[] = {
/* columns rows colors chars-per-pixel */
"75 104 229 2 ",
"   c #010101",
".  c #0B0404",
"X  c #0B0B0A",
"o  c #0D0A06",
"O  c #140303",
"+  c #1B0505",
"@  c #120C06",
"#  c #130D0B",
"$  c #1B0B0B",
"%  c #1B130B",
"&  c #171009",
"*  c #141413",
"=  c #191613",
"-  c #1C1B1B",
";  c #171818",
":  c #0F1010",
">  c #240404",
",  c #2A0908",
"<  c #390303",
"1  c #24190C",
"2  c #281B0C",
"3  c #211E1D",
"4  c #251A14",
"5  c #3B1514",
"6  c #30200E",
"7  c #23201E",
"8  c #2F2010",
"9  c #392612",
"0  c #3B2812",
"q  c #1F2020",
"w  c #242323",
"e  c #282626",
"r  c #2C2B2B",
"t  c #292827",
"y  c #322D2D",
"u  c #392B2A",
"i  c #2D3131",
"p  c #343333",
"a  c #3C3C3C",
"s  c #393635",
"d  c #37322C",
"f  c #470302",
"g  c #540101",
"h  c #590606",
"j  c #431E1E",
"k  c #6A0101",
"l  c #680505",
"z  c #7B0202",
"x  c #750606",
"c  c #6F1E1D",
"v  c #432D14",
"b  c #493115",
"n  c #5A3D1B",
"m  c #553817",
"M  c #75201C",
"N  c #413F3D",
"B  c #5A3636",
"V  c #783838",
"C  c #6C2B2A",
"Z  c #5F401C",
"A  c #63431D",
"S  c #6B481E",
"D  c #744D1F",
"F  c #5C4121",
"G  c #644522",
"H  c #6C4B23",
"J  c #674926",
"K  c #724E23",
"L  c #755024",
"P  c #7C5323",
"I  c #6E553B",
"U  c #403F40",
"Y  c #3F4343",
"T  c #444444",
"R  c #464A4A",
"E  c #4C4C4C",
"W  c #494747",
"Q  c #544B4B",
"!  c #4B5454",
"~  c #545454",
"^  c #5A5554",
"/  c #555959",
"(  c #5B5C5B",
")  c #575758",
"_  c #784848",
"`  c #615E5E",
"'  c #685B5A",
"]  c #735150",
"[  c #5F5F60",
"{  c #5C6262",
"}  c #636464",
"|  c #696665",
" . c #6B6C6C",
".. c #666B6A",
"X. c #697777",
"o. c #737474",
"O. c #747A7A",
"+. c #7C7C7C",
"@. c #797776",
"#. c #756C67",
"$. c #796A57",
"%. c #8B0403",
"&. c #840403",
"*. c #940302",
"=. c #9B0807",
"-. c #8A1818",
";. c #9A1515",
":. c #98100F",
">. c #A50202",
",. c #AC0101",
"<. c #A80A0A",
"1. c #B30303",
"2. c #BC0101",
"3. c #B10808",
"4. c #A91515",
"5. c #8A3635",
"6. c #8C2A2A",
"7. c #C40101",
"8. c #CD0000",
"9. c #D30000",
"0. c #DA0000",
"q. c #845924",
"w. c #8B5D25",
"e. c #805522",
"r. c #966326",
"t. c #996526",
"y. c #996528",
"u. c #904D4D",
"i. c #896867",
"p. c #837E7B",
"a. c #957C7C",
"s. c #926A69",
"d. c #6D8888",
"f. c #778787",
"g. c #789494",
"h. c #6C9090",
"j. c #7CA8A9",
"k. c #838383",
"l. c #858989",
"z. c #8C8C8C",
"x. c #898786",
"c. c #948887",
"v. c #93908F",
"b. c #8D9393",
"n. c #839E9E",
"m. c #889C9C",
"M. c #939493",
"N. c #959898",
"B. c #9B9B9B",
"V. c #999797",
"C. c #A59A9A",
"Z. c #AB9494",
"A. c #9FA09F",
"S. c #A0A09F",
"D. c #A09FA0",
"F. c #88A8A8",
"G. c #98A5A5",
"H. c #85B7B7",
"J. c #98BAB9",
"K. c #A3A3A3",
"L. c #AAA5A5",
"P. c #A6A9A9",
"I. c #ABABAB",
"U. c #B0ABAC",
"Y. c #AFB0B0",
"T. c #A6B8B8",
"R. c #B3B4B4",
"E. c #B6B9B9",
"W. c #BBBCBC",
"Q. c #B9B6B6",
"!. c #A7AFB0",
"~. c #93C5C5",
"^. c #9BCCCC",
"/. c #9BC0C0",
"(. c #97CCCC",
"). c #A7C8C8",
"_. c #BEC0C0",
"`. c #B8C7C7",
"'. c #A9D7D7",
"]. c #B7D7D7",
"[. c #AAE5E5",
"{. c #AAEBEB",
"}. c #A5E7E7",
"|. c #BDE5E5",
" X c #B4ECEC",
".X c #BEEDED",
"XX c #ACF4F4",
"oX c #AFFFFF",
"OX c #B3F4F4",
"+X c #BBF4F4",
"@X c #B2FEFE",
"#X c #BBFEFE",
"$X c #C3C4C4",
"%X c #C6C8C8",
"&X c #CBCCCC",
"*X c #C7C7C7",
"=X c #D0CECE",
"-X c #CFD1D1",
";X c #C6DADA",
":X c #D4D4D4",
">X c #D8D7D7",
",X c #D5D9D9",
"<X c #DBDBDB",
"1X c #E0DFDF",
"2X c #DFDFE0",
"3X c #C9E6E6",
"4X c #DEE2E2",
"5X c #DCECEC",
"6X c #C3F3F3",
"7X c #CBF5F5",
"8X c #C4FDFD",
"9X c #CBFCFC",
"0X c #DBF4F4",
"qX c #D4FBFB",
"wX c #DBFBFB",
"eX c #D5F5F5",
"rX c #E3E3E3",
"tX c #E5EBEB",
"yX c #EBECEC",
"uX c #E8E7E7",
"iX c #E4F5F5",
"pX c #ECF3F3",
"aX c #E3FBFB",
"sX c #EAF9F9",
"dX c #F5F5F5",
"fX c #F8F7F7",
"gX c #F7F8F8",
"hX c #F9F9F9",
"jX c #EFEFF0",
/* pixels */
"oXoXoXoXoXoXoXoXoXoXoXoXoXoXoXoXoXoXoXoXoXoXoXoX@XoXoXoXoXoXoXoXoXoXoXoXoXoXoXoXoX Xz.f.[.@XoXoXoXoXoXoXoXoXoXoXoXoXoXoXoXoX@XoXoXoXoXoXoXoXoXoXoXoXoX",
"oXoXoXoXoXoXoXoXoXoXoXoXoXoXoXoXoXoXoXoXoXoXoXoXoXoXoXoXoXoXoXoXoXoXoXoXoXoXoXoXOXJ.( E m.XXoXoXoXoXoXoXoXoXoXoXoXoXoXoXoXoXoXoXoXoXoXoX@XoXoXoXoXoXoX",
"oXoXoXoXoXoXoXoXoXoXoXoXoXoXoXoXoXoXoXoXoXoXoXoXoXoXoXoXoXoXoXoXoXoXoXoXoXoX@X].+. .) T T '.oXoXoXoXoXoXoXoXoXoXoXoXoXoXoXoXoXoXoXoXoXoXoXoXoXoXoXoXoX",
"oXoXoXoXoXoXoXoX@XoXoXoXoXoXoXoXoXoXoXoXoXoXoXoXoXoXoXoXoXoXoXoXoXoXoXoXOX|.qX$X( R. .T ) '.oXoXoXoXoXoXoXoXoXoXoXoXoXoXoXoXoXoXoXoXoXoXoXoXoXoXoXoXoX",
"oXoXoXoXoXoXoXoXoXoXoXoXoXoXoXoXoXoXoXoXoXoXoX@XoXoXoXoXoXoXoXoXoXoXoX|.f.@.V.*Xo.E.:X .L.OXoXoXoXoXoXoXoXoXoXoXoXoXoXoXoXoXoXoXoXoXoXoXoXoXoXoXoXoXoX",
"oX@XoXoXoXoXoXoXoXoXoXoXoXoXoXoX@X@XoXoXoXoXoX@XoXoXoXoXoXoX@X@XoXoX#X;X} B.+.B.C.+.:Xb.o.XXoXoXoXoXoXoXoXoXoXoXoXoXoXoXoXoXoXoXoXoXoXoXoXoXoXoXoXoXoX",
"oXoXoXoXoXoXoXoXoXoXoXoXoXoX@X@X@X@X@X@X@X@X@X@X@XoX{.}.m.X.g.{.oXoX'.B.} } ` @.&Xk.( ) T ].oXoXoXoXoXoXoXoXoXoXoXoXoXoXoXoXoXoXoXoXoXoXoXoXoXoXoXoXoX",
"oXoXoXoXoXoXoXoXoXoXoXoXoXoX}.H.j.j.H.~.~.~.~.H.H.h.E s - w - l.oX+XO.+.k.} o.B.rX$XM.I.K.|.oXoXoXoXoXoXoXoXoXoXoXoXoXoXoXoXoXoXoXoXoXoXoXoXoX@XoXoXoX",
"oXoXoXoXoXoXoXoXoXoXoXoXoXXXX.- : - y r r w 3 4 $ = a ..B.K.q i J.eXk.k.$Xo.K.0XiXrX<XrXyX#XoXoXoXoXoXoXoXoXoXoXoXoXoXoXoXoXoXoXoXoXoXoXoXoXoXoXoXoXoX",
"oXoXoXoXoXoXoXoXoXoXoXoX#XG.7 W +.( z.K.@.j &.>.>.C R.jXfX-X~ -  .4X*Xz.k.` V.eX@X0X0XdXsX#XoXoXoXoXoX@XoXoXoXoXoXoXoXoXoXoXoXoXoXoXoXoXoXoXoXoXoXoX@X",
"oXoXoXoXoXoXoXoXoXoXoXoX7X| t R.1XR.z.uXyXa.<.9.9.;.L.hXfXQ.D.` e L.<X:X%X$X].#XoXoX@X9X#XoXoXoXoXoXoXoXoXoXoXoXoXoXoXoXoXoXoXoXoXoXoXoXoXoXoXoXoXoXoX",
"oXoXoXoXoXoXoXoXoXoXoX@X;XT E :X<X<Xz.W.hXR.-.9.9.:.c.gXjXV.-X*Xi a $XyXrXyX8XoXoXoX@XoXoXoXoXoXoXoXoXoXoXoXoXoXoX@XoXoXoXoXoXoXoXoXoXoXoXoXoXoXoXoXoX",
"oXoXoXoXoXoXoXoXoXoXoX8X&Xs o.,X<XrXB.K.gXW.M 8.9.<.a.dX<Xz.yXfXB.q  .3XqXeX@X@XoXoXoXoXoXoXoXoXoXoXoXoXoXoXoXoXoXoXoXoXoXoXoXoXoXoXoXoXoXoXoXoXoXoXoX",
"oXoXoXoXoXoXoXoXoXoXoX8X_.p b.2X<X2XB.P.hX_.6.8.9.<.a.dXR.K.jXfXrXE q !.@XoXoXoXoXoXoXoXoXoXoXoXoXoXoXoXoXoXoXoXoXoXoXoXoXoXoXoXoXoXoXoXoXoXoXoXoXoXoX",
"oXoXoXoXoXoXoXoXoXoXoX#X-XT @.<X<X<XN.R.hX_.-.9.9.:.c.uXb.*XfXfXQ.C > W '.@X@XoXoXoXoXoXoXoXoXoXoXoXoXoXoXoXoX@XoXoX@XoXoXoXoXoXoXoXoXoXoXoXoXoXoXoXoX",
"oXoXoXoXoXoXoXoXoXoXoX#XrXp.a P.<X<Xz.=XhXL.;.0.9.;.L._.z.yXgXW.5.2.x # k.+XoXoXoXoXoXoXoXoXoXoXoXoXoX@X@X@X@X@X@X@XXX@X@X@X@X@X@XoXoXoXoXoXoXoXoXoXoX",
"oXoXoXoXoXoXoXoXoXoXoX#XyX$X} T M.M.z.uXuXi.1.7.,.c { ! D.2XC.5.2.9.7.g e G.@XoXoXoXoXoX@X@X@X@XoX@X{.^.^.~.H.j.f.o.o.j.H.~.(.^.}.oXoXoXoXoXoXoXoXoXoX",
"oXoXoXoXoXoXoXoXoXoXoX@X0X1X$X .p - T +...5 f < > # : * Q u.;.7.9.9.9.%.& E ].@XoX@X@XXX.X).n.n.n.d./ r r w - - q - - - - w t i ! F.XXoXoXoXoXoXoXoXoX",
"oXoXoXoXoXoXoX@XoXoXoXoX9XpX<X%Xz.W t w e e y T ) @.z.T f 2.9.9.9.9.<.u.O.;  . X X^.F...! p q 3 - e s / O.z.M.K.!.K.K.M.z.+.} W e t g.{.oXoXoXoXoXoXoX",
"oXoXoXoXoXoXoXoXoXoXoXoX@X9XdXrX-X$XY.A.P.I.R.$X%X-X:XO., ,.9.9.9.:.u.=XrX} 3 ` { p - 3 r E  .k.N.P.E.E.P.M.p. . .}  .z.$X<X,X-XI.a = d.XX@XoXoXoXoXoX",
"oXoXoXoXoXoXoXoXoXoXoXoXoXoXqXiXtXrX4X<X4X1XrXrXyXjXyXK.3 h 3.4.5.c.<XfXhX=Xp   w } M.L.R.R.I.D.z.o./ T T W ) } p.x.O.R o.:X<X2X*X) a w F.@XoXoXoXoXoX",
"oXoXoXoXoXoXoXoXoXoXoXoXoXoXoX@X9XeXgXdXdXaXeXqXqXqXiX&XQ # _ Z.&XyXfXfXhX&XB O U P.N. .E U a E ( k.L.R.*X:X>X%XY.V.b.M.E.<X-XY.` } Q.p E {.oX@XoXoXoX",
"oXoXoXoXoXoXoXoXoXoXoXoXoXoXoXoXoXoX#X#X8X@XoXoXoXoXwX&X)   R <XhXfXhXfX=Xu.3.z , 3 r E  .M.E.,XyXdXyX4X$XK.z.x.M.R.&X&XI.+.} }  .O.<X@.w J.@X@XoXoXoX",
"oXoXoXoXoXoXoXoXoXoXoXoXoXoXoXoX@XoXoXoXoXoXoXoXoXoX].( - p -  .uXjX1XL.u.3.9.8.z O a $XjXjX2X-XW.S.z.z.z.B.W.:X:XW.x.` ( k.Y.<XdXM.P.Q.w O.OXoXoXoXoX",
"oXoXoXoXoXoXoXoXoXoXoXoXoXoXoXoXoXoXoXoXoXoXoXoXoX[.! = o.W.` - ' s.u.4.7.9.9.8.7.z $ ( V.z.k.x.z.K.W.&X>X:X_.B. .} p.Y.>XjXfXfX4XP.+.:X~ W [.oXoXoXoX",
"oXoXoXoXoXoXoX@XoXoXoXoXoXoXoXoXoXoXoXoXoXoXoXoX@Xj.X p W.2X*X[ $ l ,.3.3.<.;.6.6._ | p.D.W.&X:X,X:X&XQ.B.o.) } b.:XjXfXhXdXfX*XT w a %Xk.t ].@XoXoXoX",
"oXoXoXoXoXoXoXoXoXoXoXoXoXoXoX@XoXoXoXoXoXoXoXoX.XE - ~  .Q.1X&XO.' i.i.a.Z.Z.Q._.&X:X:X&XE.L.z.+. .` E } N.$XrXjXfXdXdXgXdXfXV.X   - Y.L.w G.oXoXoXoX",
"oXoX@XoXoXoXoXoXoXoXoXoXoXoXoXoXoXoXoXoXoXoXoX#X`.- T W.k.) k.P.E._._._.W.W.Q.Y.D.M.k.#.} ` | o.+.v.I.k.Y.fXhXfXfXfXfXdXdXdXgXz.X   : B.&Xi { oXoXoXoX",
"oXoXoXoXoXoXoXoXoXoXoXoXoXoXoXoXoXoXoXoXoXoX@X^.~ o p k.K.K.o.) ~ ( ^ ) ~ ~ ~ ( `  .+.v.I.W.&X<X<X1X2XV.I.fXfXdXdXfXdXdXdXfXfXB.X   X k.4XQ T [.oXoXoX",
"oXoXoXoXoXoXoXoXoXoXoXoXoXoXoXoXoXoXoXoXoXXXn.i w  .K.D.D.&X>X$XE.I.K.R.R.E.W.*X&X:X,X<X<X<X<X<X<X<X<XM.B.gXgXdXdXdXdXdXdXdXfX_.-     k.yX} s '.oXoXoX",
"oXoXoXoXoXoXoXoXoXoXoXoXoXoXoXoXoXoXoXoX@Xn.- s L.<X2X<X<X<X<X<X<X<X<X2X<X<X<X<X<X<X<X<X<X<X<X<X<X<X<XD.M.dXdXdXdXdXdXdXdXdXfX2Xo.; . o.dXo.p ).oXoXoX",
"oXoXoXoXoXoXoXoXoXoXoXoXoXoXoXoXoXoXoX@X^.i e P.<X<X<X<X>X<X<X<X<X<X<X<X<X<X<X<X<X<X>X<X<X<X<X<X>X<X2XI.k.jXfXdXdXdXdXdXdXdXdXgXR.i   o.jXo.t J.@XoXoX",
"oXoXoXoXoXoXoXoXoXoXoXoXoXoXoXoXoXoXoXOX{ * z.<X<X<X<X<X<X<X>X<X<X<X<X<X<X>X>X<X<X<X<X<X<X<X<X<X<X<X<XW.k.2XfXfXdXdXdXdXgXdXdXdXk.X   +.pXo.e /.@XoXoX",
"oXoXoXoXoXoXoXoXoXoXoXoXoX@XoXoXoXoX#X_.w T %X<X<X<X<X:X*X=X<X<X<X<X<X>X<X<X,X<X<X:X<X<X<X:X<X<X>X<X<X&Xk.-XfXdXdXdXdXdXfXdXdXgXx.  X z.jX .s '.@XoXoX",
"oXoXoXoXoXoXoXoXoXoXoXoXoXoXoXoXoXoX9X+.: k.<X<X<X<X*X .( P.<X<X<X<X<X<X<X<X<X<X<X<X<X<X<X<X<X<X<X<X<X>Xl.E.gXdXfXdXgXdXdXdXdXfX_.r * V.yX/ T 3XoXoXoX",
"oXoXoXoXoXoXoXoXoXoXoXoXoXoXoXoXoX@X4X) - L.1X<X<X>Xo.p K.-X<X<X<X<X<X<X<X<X<X<X>X<X<X<X<X<X<X<X<X<X<X<XL.V.jXgXdXjXfXgXdXdXgXdXjXY.Q ` l.u u g.}.oXoX",
"oXoXoXoX@XoXoXoXoXoXoXoXoXoXoXoXoX8X,XY t R.4X<X<X$Xa r _.2X<X<X<X>X<X<X>X<X,X<X<X>X<X>X<X,X<X<X<X<X<X<X$Xk.<XgXgXdXdXgXdXfXdXdXgX:XO.^ h &.z 5 O.XXoX",
"oXoXoXoXoXoXoXoXoXoXoXoXoXoXoXoXoXaX<XT t W.<X<X1X$Xi X @.:X<X<X<X<X<X<X<X<X<X>X<X<X<X<X<X<X<X<X<X<X<X<X<Xz.C.dXfXdXdXdXdXdXdXdXgXI.o.B 1.0.9.k y ).@X",
"oX@XoXoXoXoXoXoXoXoXoXoXoXoXoXoXoXaX:XY t W.1X<X<X%XQ   e R.1X<X<X>X>X<X,X<X<X<X<X<X>X<X<X>X<X<X>X<X<X>X<X*X@.I.dXdXdXdXdXfXdXdXrX+.P.#.x >.*.< ! {.@X",
"oXoXoXoXoXoXoXoXoXoXoXoXoXoXoXoXoXwXrX( = B.<X<X<X<Xx.*   ) &X<X<X<X<X<X<X<X>X<X<X<X<X>X<X<X<X<X<X,X<X<X<X<XW.o.Q.dXfXdXdXfXfXyXV.@.-XQ.s 3 Q ( T.@XoX",
"oXoXoXoXoXoXoXoXoXoXoXoXoXoXoXoXoXwXyXV.=  .>X<X<X<X&X(   : } z.&X<X<X<X<X<X<X<X<X<X<X>X<X>X<X$X+.} k.$X<X<X<XE.k.L.<XdXdXjX:XM.z.%X2XI.- ! W.:X0X@XoX",
"oXoXoXoXoXoXoXoXoXoXoXoXoXoXoXoXoX9XyX*XT i W.<X<X<X<XW.} y r  .%X<X<X<X<X<X<X>X>X<X>X<X<X<XW.W X   X T K.<X1X<X*XM.k.K.U.B.k.K.:X<X<Xo.# k.uXpX8XoXoX",
"oXoXoXoXoXoXoXoXoXoXoXoXoXoXoXoXoX@XiXrXl.- o.<X<X<X<X<X:XQ.W.&X<X<X<X<X<X<X<X<X<X<X>X<X<X>Xo.X         w o.R.:X2X<X_.Y.I.U.&X<X<XrXR.i p ).8X8X@X@XoX",
"oXoXoXoXoXoXoXoXoXoXoXoXoXoXoXoXoXoX8XyXW.N - M.<X<X<X,X:X,X:X<X<X<X:X>X>X<X<X<X<X<X<X<X<X:X..            X t  .I.-X2X2X2X1X1X<X%XM.a w C.7XoXoXoX@XoX",
"oXoXoXoXoXoXoXoXoXoXoXoXoXoXoXoXoXoX@XaX2Xz.- p z.M.o.} / ) ) @.W.&XN.%X<X<X<X>X<X<X<X<X<X<XM.*   O O .       o q E k.P.R.W.I.O.T t W B.5X#XoXoXoXoXoX",
"oXoXoXoXoXoXoXoXoXoXoXoXoXoXoXoXoX@X@X].K.} -   : X X           p ) W W.2X<X<X<X<X<X<X<X<X<X%X[ , *.>.%.< $ +       X ; - - - q ( B.%XyXwXoXoXoXoXoXoX",
"oXoXoXoXoXoXoXoXoXoXoXoXoXoXoXoXoXXXF.T ;                           X ) R.<X1X<X>X<X<X<X<X<X<XW.] :.8.9.,.x *.g .             ` &XrXpXwX@XoXoXoXoXoXoX",
"oXoXoX@XoXoXoXoXoXoXoXoXoXoXoXoXXXg.-                                   y f.$X>X<X<X<X<X<X>X<X<X$Xx.V :.>.>.7.1.f         X [ =XiX9X#X@XoX@XoXoXoXoXoX",
"oXoXoXoXoXoXoXoXoXoXoXoXoXoX@XoXg.-                 X                     X a z.*X<X<X<X<X<X<X<X<X<XW.v.i._ V V B a ~ p   p M.P.j.F.'.oXoXoXoXoXoXoXoX",
"oXoXoXoXoXoXoXoXoXoXoXoXoXoXoX}.a             X a +.k.} p                     * N o.K.$X<X1X<X<X<X<X<X<X:X&X%X_.$X$XM.t   w s T E W E d.}.oX#X8XoX#X@X",
"oXoXoXoXoXoXoXoXoXoXoXoXoXoX#Xb.X           ; } W.:X:X&XI.~ X                       ; a ..b.R.%X,X<X1X<X1X1X2X<X&X+.q   X ! P.:XyX>Xx.7 g.@X@X@X@XaX9X",
"oXoXoXoXoXoXoXoXoXoXoXoXoXoX6X}           X  .:XyXdXpXuX<XW.T                             * e T } p.z.z.V.V.b.+.E w ) T ) <XgXgXfXfX1XW !  XoXoX@X#X@X",
"oXoXoXoXoXoXoXoXoXoXoXoXoX#XtXT           q B.<X$XW.).&XI.A.' O                             a E p r w - - * w p } K.uX_.v.yXdXfXdXfXrXE s J.oX@XoXoXoX",
"oXoXoXoXoX@XoXoXoXoXoXoXoX+X%Xi       X a ! F T r r p p e 7 5 &.h >                       X k.*XQ.I.B.z.a q B.:XyXfXfXjXI.W.fXfXfXjXB.i r T J.@XoXoXoX",
"oXoXoXoXoXoXoXoXoXoXoXoX).O.a %     q k.-XP.~ ( K.W.M.z.Y.P.Q z 8.>.f .                   ; K.rXrX2X<X*XW ! rXfXfXdXdXfX,XD.yXfXyXV.~ I.&X( T ^.oXoXoX",
"oXoXoXoXoXoXoXoXoXoXoX/.a % n Z X ; B.tXP.b.=XyXgXhXgXdXgX2X} g 8.9.2.x O                 - G.7X0XdXdX-XT o.dXjXrXdXdXfXjXB.I.Q.z.k.*XdXhXD.- m.#XoXoX",
"oXoXoXoXoXoXoXoXoX@X).p 1 D t.w.2 ( <XK.M.uXhX-XE.uXdXdXuXA.a , z 2.9.9.*.,               e J.oX@X#XqX_.p  .jX<Xx.-XgXgXgXP.( B.*XyXfXdXgXM.q F.@XoX@X",
"oXoXoXoXoXoXoXoXoX+X+.@ n t.t.P 4 z.I.P.yXgXjX1XI.B.yXgXdXrX_.x.d z 9.9.9.=.,             p '.oX@XoX'.~ p o.yXjXY.x.-XhXhXQ.z.yXhXgXdXhX<X~ p ).@XoXoX",
"oXoXoXoXoXoXoXoX@X3XT @ P t.t.e.4 ( I.jXdXdX>XQ.<X&XyXdXdXgXgXdXB.5 1.9.9.9.*.,           ) 6X@X#X@Xm.r V.V.&XfXdX$Xz.Y.*Xk.I.dXdXgXyXW.[ - z.eXoXoX@X",
"oXoXoXoXoXoXoXoX8X:Xa @ P t.t.w.2 E <XfXrXW.=X$X:XgXdXdXdXdXgXhX*Xu *.9.9.9.9.*.<         W m.F.M.o.i - R.R.I.jXdXfXY.o.z.I.yXdXdXrXB.p.( t W.qXoXoX9X",
"oXoXoXoXoXoXoXoXaX<X~ o A t.t.P 1 f.fXfXjX$XY.uXdXdXdXdXgXdXdXhXR.3 %.0.9.9.9.9.>.,       X X X X     X B.:Xz.yXfXhX&Xz.*XrXyXjXdX<X%XyX:Xa N.#XoXoXoX",
"oXoXoXoXoXoXoXoXaXyXv.* 2 w.t.A 7 E.fXfXgXdXyXdXdXdXdXdXgXgXrXR.E , ,.9.9.9.9.9.9.=.,                    .tXN.$XfXfXjX_.z. .B.yXdXdXhXhXR.Y T.oXoXoXoX",
"oXoXoXoXoXoXoXoX8XjX&X^ o 9 D b y &XgXdXdXdXdXdXdXdXdXdXdXgX%XU O k 8.9.9.9.9.9.9.9.=.>                 p :X&XB.jXdXfXfXE.@.&XdXdXdXdXyX} } 5XoXoXoXoX",
"oXoXoXoXoXoXoXoX@XiX4XR./ = @ O p &XgXfXfXfXdXdXdXdXdXdXdXdXuX( f 2.9.9.9.9.9.9.9.9.9.x #             X - x.uXV.$XfXdXdXK.W.hXfXhXgXuX+.p R.8XoXoXoXoX",
"oXoXoXoXoXoXoXoXoX8XyX<X$Xz.! * - U.dX2XjXdXdXdXdXdXdXdXdXfXyX) g 8.9.9.9.9.9.9.9.9.9.*.O w E W ~ ^ } +. .p z.k.` &XdXhXI.I.yXyXyX&Xo.3 +.tX#XoXoXoXoX",
"oXoXoXoXoXoXoXoXoX@XwXpX1X>X*X@.* | &X+.N.dXdXdXdXfXfXdXfXfXR.7 k 9.9.9.9.9.9.9.9.9.8.k X o.*X$X*X%X:X>X%Xo.y e e a k.*X_. .~ ) ~ p w o.<XqX@XoXoXoXoX",
"oXoXoXoXoXoXoXoXoXoX@X7XeXtXrXW.a * ) k.@.rXdXdXdXdXyXfXhX,XE > >.9.9.8.9.9.9.9.9.9.>.> t _.uXrXrXuXtX0X1X*XB.z.D.o.s y s r = q U  .B.<XsXoXoXoXoXoXoX",
"oXoXoXoXoXoXoXoXoXoX@XoXoX#XeX<Xf.X T <XrXjXdXfXfX,XB.:X*X( # k 8.9.9.9.8.9.9.9.9.7.g X o.0X8X8X8X8X#X#XpXrX<X<X<X&XI.f.o.p.z.K._.:XrXgX8XoXoXoXoXoXoX",
"oXoXoXoXoXoXoXoXoXoXoXoXoXoX9XyXQ.s - L.dXgXdXfXdXK.w i t $ k 7.9.9.9.8.9.9.9.9.9.%.O Y &X#XoXoXoXoXoXoX#XwX0XeXeXrX<X:X,X:X<XrXyXpXwX8XoXoXoXoXoXoXoX",
"oXoXoXoXoXoXoXoXoXoXoXoXoXoX#XiX<Xz.e e @.W.rXrXE.p X   + z 7.9.9.9.9.9.9.9.9.9.,.< q L.0X@XoXoXoXoXoXoXoXoXoXoX@XqXyXtXyXyXsXeX8X8XoXoXoXoXoXoXoXoXoX",
"oXoXoXoXoXoXoXoXoXoXoXoXoXoXoX#XtX-XG.E * ; T ! w t +.~ # g 1.9.9.9.9.9.9.9.9.1.f * +.uX8XoXoXoXoXoXoXoXoXoXoXoXoXoX#X@X@X#X@X@XoXoXoXoXoXoXoXoXoXoXoX",
"oXoXoXoXoXoXoXoXoXoXoXoXoXoX@X@XgXrX>XQ.U X p T ( K.<XU.w . %.9.9.9.9.9.9.9.2.g . { :X9X@XoXoXoXoXoXoXoXoXoXoXoXoXoXoXoXoXoXoXoXoXoXoXoXoXoXoXoXoXoXoX",
"oXoXoXoXoXoXoXoXoXoXoXoXoXoXoX@X#XqXyX<Xz.3 ( W.<X2X,X+.: < 1.9.9.9.9.9.9.2.g # ( =XsX@XoXoXoXoXoXoXoXoXoXoXoXoXoXoXoXoXoXoXoXoXoXoXoXoXoXoXoXoXoXoX@X",
"@XoXoXoXoXoXoXoXoXoXoXoXoXoXoXoXoX@XwXyX%X~ : E M.R.+.- . %.9.9.9.9.9.9.9.*.O ~ &XiX#XoXoXoXoXoXoXoXoXoXoXoXoXoXoXoXoXoXoXoXoXoXoXoXoXoXoXoXoXoXoXoXoX",
"oXoXoXoXoXoXoXoXoXoXoXoXoXoXoXoX@XoX@XwXrXI.N X * w :   > &.*.:.>.1.2.7.9.=.+ o.tX#XoXoXoXoX@XoXoXoXoXoXoXoXoXoXoXoXoXoXoXoXoXoXoXoXoXoXoXoXoXoXoXoXoX",
"oXoXoXoXoXoX@XoXoXoXoXoXoXoXoXoXoXoX@X8XyX:XR.+.~ W p . < *.M +.x.s._ x >.,.> | +XoXoXoXoXoXoXoXoXoXoXoXoXoXoXoXoXoXoXoXoXoXoXoXoXoXoXoXoXoXoXoXoXoXoX",
"oXoXoXoXoXoXoXoXoXoXoXoXoXoXoXoXoXoXoX@XaXyX<X:X*X$Xx.* g 1.u.&X2X<Xv.x %.%.>  .#X@XoXoXoXoXoXoXoXoXoXoXoXoXoXoXoXoXoXoXoXoXoXoXoXoXoXoXoXoXoXoXoXoXoX",
"oXoXoXoXoXoXoXoXoXoXoXoXoXoXoXoXoXoXoXoX@X8X0XyXrXrX*X/ $ h c.,X<X<XC.=.*.< @ d.@X@XoXoXoXoXoXoXoXoXoXoXoXoXoXoXoXoXoXoXoXoXoXoXoX@XoXoXoXoXoXoXoXoXoX",
"oXoXoXoXoXoXoXoXoXoXoXoXoXoXoXoXoXoXoXoXoXoX@X9X9XpX1XL.3 e R.<X<X<Xz.< < ; Q '.oXoXoXoXoXoXoXoXoXoXoXoXoXoXoXoXoXoXoXoXoXoXoXoXoXoXoXoXoXoXoXoXoXoXoX",
"oXoXoXoXoXoXoXoXoXoXoXoXoX@XoXoXoXoXoXoXoXoXoXoXoX8X5X@.- k.:X<X<X<X .X ! B.=XeXoXoXoXoXoXoXoXoXoXoXoXoXoXoXoXoXoXoXoXoXoXoXoXoXoXoXoXoXoXoXoXoXoXoXoX",
"oXoXoXoXoXoXoXoXoXoXoXoXoXoXoXoXoXoXoXoXoX@X@XXXoXoX~.q / &X<X<X<X-XT - I.rXiX8XoXoXoXoXoXoXoXoXoXoXoXoXoXoXoXoXoXoXoXoXoXoXoXoXoXoXoXoXoXoXoXoXoXoXoX",
"oXoXoXoXoXoXoXoXoXoXoXoXoXoXoXoXoXoXoX@X8XOXF.X...{ i F E.<X<X<X<XB.- / 4XsX8XoXoXoXoXoXoXoXoXoXoXoXoXoXoXoXoXoXoXoXoXoXoXoXoXoXoXoXoXoXoXoXoXoXoXoXoX",
"oXoXoXoXoXoXoXoXoXoXoXoXoXoXoXoXoXoX'.F.!.+.- 2 m m d K.<X<X<X4XW.T * K.qXoXoXoXoXoXoXoXoXoXoXoXoX@XoXoXoXoXoXoXoXoXoXoXoXoXoXoXoXoXoXoXoXoXoXoXoXoXoX",
"oXoXoXoXoXoXoXoXoXoXoXoXoXoX@X XT...Y w 7 4 1 D r.F @.:X,X<X<X,X .X N ,X#XoXoXoXoXoXoXoXoXoXoXoXoXoXoXoXoXoXoXoXoXoXoXoXoXoXoXoXoXoXoXoXoXoXoXoXoXoXoX",
"oXoXoXoXoXoXoXoXoXoXoXoXoXXXF.! q & 6 m D P A H r.L $.Q.,X2X4XE.s . t J.@XoX@X@XoXoXoXoXoXoXoXoXoXoXoXoXoXoXoXoXoXoXoXoXoXoXoXoXoXoXoXoX@XoXoXoXoXoXoX",
"oX@XoXoXoXoXoXoXoXoXoXoX Xl.- o 9 S w.y.y.t.w.Z K r.q.I p.U.Q.#.H m @ T [.@XoXXX@X@X@XoXoXoXoXoXoXoXoXoXoXoXoXoXoXoXoXoXoXoXoXoXoXoXoXoXoXoXoXoXoXoXoX",
"oXoXoXoXoXoXoXoXoXoXoX@Xn.- O n w.y.t.t.t.t.t.w.n H w.t.P I I H r.r.0 t `.^.f./ g.H.(.@XoXoXoXoXoXoXoXoXoXoXoXoXoXoXoXoXoXoXoXoXoXoXoXoXoXoXoXoXoXoXoX",
"oXoXoXoXoXoXoXoX@XoX@X[.! o Z r.y.t.t.t.t.t.t.t.w.S n P w.r.w.r.r.r.0 w @.d % % = * p j.oXoXoXoXoXoXoXoXoXoXoXoXoXoXoX@XoXoXoXoXoX@XoXoXoXoXoXoXoXoXoX",
"oXoXoXoXoXoXoXoXoXoX@X].p % q.t.t.t.t.r.t.r.r.t.t.r.q.J F G L L K J 8 . = b P q.P n % w F.oXoXoXoXoXoXoXoXoXoXoXoXoXoXoXoXoXoXoXoXoXoXoXoXoXoXoXoXoXoX",
"oXoXoXoXoXoXoXoXoXoX9X-Xp 2 w.t.r.t.t.t.t.t.t.t.r.t.y.r.w.L H J H P b # 6 w.t.t.r.r.A @ Y ].@XoXoXoXoXoXoXoXoXoXoXoXoXoXoXoXoXoXoXoXoXoXoXoXoXoXoXoXoX",
"oXoXoXoXoXoXoXoXoXoXwX-Xs & q.t.t.t.t.r.t.t.r.t.t.t.t.r.t.t.t.t.t.w.S A n t.t.r.r.t.r.0 X G.@XoXoXoXoXoXoXoXoXoXoXoXoXoXoXoXoXoXoXoXoXoXoXoXoXoXoXoXoX",
"oXoXoXoXoXoXoXoXoXoXaX$Xr % A w.t.t.t.t.t.t.t.t.t.t.t.t.t.t.r.t.t.r.w.P P r.t.t.t.t.r.A # d.oXoXoXoXoXoXoXoXoXoXoXoXoXoXoXoXoXoXoXoXoXoXoXoXoXoXoXoXoX",
"oXoX@X@X#X@X@XOXOX+XpX_.p m S n q.r.t.t.t.t.t.t.t.t.t.r.t.t.t.t.t.t.t.r.r.t.t.r.t.t.t.S * G.oXoXoXoXoXoXoXoXoXoXoXoXoXoXoXoXoXoXoXoXoXoXoXoXoXoXoXoXoX",
"oXoX6X3X-X%XW.R.Y.R.I.M.T 0 P K n S w.t.t.t.t.t.r.t.t.t.t.t.t.r.t.t.r.t.t.t.t.t.t.t.w.v ; P..X.X+X7X7X9X6X.X6X#XoXoXoXoXoXoXoXoXoXoXoXoXoXoXoXoX@XoXoX",
"oX|.Q.K.B.B.M.M.V.M.M.l. .t 1 m P G F L w.t.t.r.t.t.t.t.t.t.t.t.t.t.t.t.r.t.t.t.r.K A 9 X o.R.R.R.W.Q.R.R.I.R.3XoXoXoXoXoXoXoXoXoXoXoXoXoXoXoXoXoXoXoX",
"9X].V.M.z.M.z.M.M.z.b.x.p. .a 3 2 A L J F H q.r.t.t.t.t.t.t.t.r.t.t.r.t.t.t.t.q.A A P 9 #  .M.M.M.M.B.M.M.M.M.T. X+XoXoXoXoXoXoXoXoXoXoX@XoXoXoXoXoXoX",
"fXuX$XK.B.M.z.M.M.v.z.z.z.k.+.} a - 9 A K H J J H P w.r.r.r.y.y.y.y.y.t.r.q.K G K q.b o N z.z.z.M.z.z.z.M.M.K.R.&X+XoXoXoXoXoXoXoXoXoXoXoXoXoXoXoXoXoX",
"sXdXyX<X:X&X=X=X-X%X%X$X$X$XW.W.R.M.E - 2 b Z H L H J F J K K H K L K H J J K q.P 0 X T z.I.R.Q.I.R.R.$X*X:X<XyXiX@XoXoXoXoXoXoXoXoXoXoXoXoXoXoXoXoXoX",
"#XsXdXdXdXyXyXpXjXjXyXjXjXyXyXuX<X:X_.z.E w % 1 0 A L L K K K K K L K P P e.H v $ # ~ R.1XrXuXyXrXyXuXyXjXdXdXdXsX@XoXoX@XoXoXoXoXoXoXoXoXoXoXoXoXoXoX",
"oX@X9XsXsXsXsXsXsXiXiXsXsXsXsXsXiXtX2X:X$XI.l./ p - % = 1 2 v b b 0 0 0 2 1 = q a k.%XyXdXdXdXdXhXdXgXgXsXsXaX#X#X@XoXoXoXoXoXoXoXoXoXoXoXoXoXoXoXoXoX",
"oXoXoX@X@XoX@X@X@X@XoX@X@X@X@X@XoX8X0XuXrX<X:X&XR.z. .( T s t w w t i a R ` o.B.$X4XpXwXqXqXwXqXqXqXwX#XoX@X@XoXoX@XoXoXoXoXoXoXoXoXoXoXoXoXoXoXoXoXoX",
"oXoXoXoXoXoXoXoXoXoXoXoXoXoXoXoXoXoX@X8X7XiXtXrX1X>X:X%X_.E.I.G.K.P.Y.Q.$X&X>XrXtX0X8XoXoXoXoXoXoXoXoXoXoXoXoXoXoXoXoXoXoXoXoXoXoXoXoXoXoX@XoXoXoXoXoX",
"oXoXoXoXoXoXoXoXoXoXoXoXoXoXoXoXoXoXoXoXoX@X@XwXeX5XyXyXrXrX2X<X2X2XrXrXyXyX0X0X#X@XoXoXoXoXoXoXoXoXoXoXoXoXoXoXoXoXoXoXoXoXoXoXoXoXoXoXoXoXoXoX@XoXoX",
"oXoXoXoXoXoXoXoXoXoXoXoXoXoXoXoXoXoXoXoXoXoXoXoXoX#X9X8X8XpXdXdXgXeX8X9X8X9X@XoXoXoXoXoXoXoXoXoXoXoXoXoXoXoXoXoXoXoXoXoXoXoXoXoXoXoXoXoXoXoXoXoXoXoXoX"
};
