/* XPM */
static char *cuphead4_115[] = {
/* columns rows colors chars-per-pixel */
"70 104 225 2 ",
"   c #010101",
".  c #0C0C0C",
"X  c #0C0705",
"o  c #140D09",
"O  c #1A0B0B",
"+  c #190804",
"@  c #15100C",
"#  c #1B130A",
"$  c #151414",
"%  c #1A1514",
"&  c #1C1B1B",
"*  c #191817",
"=  c #0F1010",
"-  c #250404",
";  c #290807",
":  c #370303",
">  c #2C1D0D",
",  c #24170A",
"<  c #211E1D",
"1  c #271713",
"2  c #341919",
"3  c #37250F",
"4  c #29211A",
"5  c #392712",
"6  c #1F2020",
"7  c #242323",
"8  c #292625",
"9  c #2B2B2B",
"0  c #2A2827",
"q  c #312E2E",
"w  c #3E2D2D",
"e  c #2F3030",
"r  c #343434",
"t  c #393534",
"y  c #3C3B3B",
"u  c #363A39",
"i  c #450202",
"p  c #4C0101",
"a  c #540302",
"s  c #560706",
"d  c #670404",
"f  c #740303",
"g  c #7C0505",
"h  c #711B1B",
"j  c #442E13",
"k  c #493216",
"l  c #543919",
"z  c #5B3E1B",
"x  c #513717",
"c  c #5A2726",
"v  c #423D3B",
"b  c #553333",
"n  c #763838",
"m  c #633332",
"M  c #3F403F",
"N  c #5F401C",
"B  c #64441D",
"V  c #6C491E",
"C  c #69471E",
"Z  c #714B1D",
"A  c #51422F",
"S  c #6C4B22",
"D  c #664824",
"F  c #734E21",
"G  c #775022",
"H  c #7C5322",
"J  c #6F502E",
"K  c #3F3F40",
"L  c #3E4040",
"P  c #434343",
"I  c #4B4B4B",
"U  c #474949",
"Y  c #534845",
"T  c #4A5454",
"R  c #535353",
"E  c #545B5B",
"W  c #5C5C5C",
"Q  c #585656",
"!  c #53504B",
"~  c #6A5E5E",
"^  c #7D4949",
"/  c #6C645C",
"(  c #5D5F60",
")  c #5E6262",
"_  c #586464",
"`  c #556C6C",
"'  c #636363",
"]  c #6C6C6C",
"[  c #696866",
"{  c #726E6B",
"}  c #6E7272",
"|  c #6A7B7B",
" . c #737473",
".. c #7A7776",
"X. c #7C7C7C",
"o. c #787878",
"O. c #6E706F",
"+. c #8C0101",
"@. c #850404",
"#. c #9A0101",
"$. c #980707",
"%. c #8A1A19",
"&. c #941616",
"*. c #9D100F",
"=. c #A20202",
"-. c #AB0303",
";. c #A60909",
":. c #B30202",
">. c #BB0101",
",. c #8A2929",
"<. c #863A39",
"1. c #922423",
"2. c #C40100",
"3. c #CC0101",
"4. c #D50000",
"5. c #D90000",
"6. c #855923",
"7. c #8B5C23",
"8. c #835722",
"9. c #905F24",
"0. c #966325",
"q. c #996425",
"w. c #9E6826",
"e. c #82551F",
"r. c #865654",
"t. c #8B4645",
"y. c #807E7E",
"u. c #887575",
"i. c #937979",
"p. c #8B6B69",
"a. c #88817D",
"s. c #7F7F80",
"d. c #6D8787",
"f. c #7E8282",
"g. c #748989",
"h. c #7B9595",
"j. c #6E9192",
"k. c #848484",
"l. c #868888",
"z. c #8C8C8C",
"x. c #8A8786",
"c. c #918E8E",
"v. c #968181",
"b. c #8E9191",
"n. c #849797",
"m. c #949494",
"M. c #969999",
"N. c #9B9B9B",
"B. c #9C9695",
"V. c #8F908F",
"C. c #A09D9D",
"Z. c #A08E8E",
"A. c #9E9FA0",
"S. c #85A6A6",
"D. c #9BA6A6",
"F. c #8BB3B4",
"G. c #97B8B8",
"H. c #A4A4A4",
"J. c #A8A6A6",
"K. c #A7ACAC",
"L. c #ABABAB",
"P. c #B1ACAC",
"I. c #AEB2B2",
"U. c #A3BBBB",
"Y. c #B3B4B4",
"T. c #BBBCBC",
"R. c #B8B7B7",
"E. c #AFB0AF",
"W. c #C0BFBF",
"Q. c #BFC0BF",
"!. c #C1C1BF",
"~. c #BFBFC0",
"^. c #9AC8C8",
"/. c #97D0D0",
"(. c #BFC1C1",
"). c #B6CACA",
"_. c #A6D7D7",
"`. c #B7D7D7",
"'. c #ADCBCC",
"]. c #A3E0DF",
"[. c #ADECEC",
"{. c #A8E5E5",
"}. c #B5E9E9",
"|. c #ABF5F5",
" X c #AFFFFF",
".X c #A7F2F2",
"XX c #B2FEFE",
"oX c #BBFEFE",
"OX c #BAF5F5",
"+X c #C3C4C4",
"@X c #C7C8C8",
"#X c #CBCCCC",
"$X c #C8C7C7",
"%X c #CED1D1",
"&X c #C6DBDB",
"*X c #D3D4D4",
"=X c #D8D7D7",
"-X c #D7D8D8",
";X c #DBDBDB",
":X c #D7D8D7",
">X c #E0DFDF",
",X c #C9E6E6",
"<X c #DFE1E1",
"1X c #D4EBEB",
"2X c #C4FDFD",
"3X c #CBFCFC",
"4X c #C5F5F5",
"5X c #D5F5F4",
"6X c #DAF4F4",
"7X c #D3FBFB",
"8X c #DCFAFA",
"9X c #E4E4E4",
"0X c #E5ECEC",
"qX c #EBEBEB",
"wX c #E7E7E7",
"eX c #F0EFEF",
"rX c #E4F4F4",
"tX c #ECF3F3",
"yX c #E2FBFB",
"uX c #EDF9F9",
"iX c #F5F5F5",
"pX c #F8F7F7",
"aX c #F2FAFA",
"sX c #F9F9F9",
"dX c #F7F8F7",
/* pixels */
" X X X X X X X X X X X X X X X X X X X X X X X X X X X X X X X X X XXXXX{.^.{.U.] s.}. X X X X X X X X X X X X X X X X X X X X X X X X XXX X",
" X X X X X X X X X X X X X X X X X X X X X X X X X X X X X X X X X X XXXM. .l.X.o.[ _. X X X X X X X X X X X X X X X X X X X X X X X X X X X",
" X X X X X X X X XXX X X X X X X X X X X X X XXX X X X X X XXX|.[.OXXX8XH.k.H.'  .R.OX X X X X X X X X X X X X X X X X X X X X X X X X X X X",
" X X X X X X X X X X X X X X X X X X X X X X X X X X X X X XXX^.o.I.8XrX#Xz.z...N.iX2X X X X X X X X X X X X X X X X X X X X X X X X X X X X",
" X X X X X X X X X X X X X X X X X X X X X XXX X X X X X X X7Xz.I l.5X7X9X@XM.I z.7XXX X X X X X X X X X X X X X X X X X X X X X X X X X X X",
"XX X X X X X X XXX X X X X X X X X X X X X X X X X X X X X X4XL.m.%XXXXX6X9X#Xz.D.XXXXXX X X X X X X X X X X X X X X X X X X X X X X X X X X",
" X X X X X X X X X X X X X X X X X X X X X X X X X X X X X'.l.k.@XuXXX XXX8X9X;XrXXX X X X X X X X X X X X X X X X X X X X X X X X X X X X X",
" X X X X X X X X X X X X X X X X X X X X X XXXXX XOX_.F.{.I.' ] ).oX X XXXXX6XiX8XXX X X X X X X X X X X X X X X X X X X X X X X X X X X X X",
" X X X X X X X X X X X X X X X X X X X X XXX|.|.^.| t * [ +XN.N.,X X X X X XXX2XXX X X X X X X X X X X X X X X X X X X X X X X X XXX X X X X",
" X X X X X X X X X X X X X X X X X X X X|./.g.T 7 < y & & k.*XqX8X X X X XXX X XXXXX X X X X X X X X X X XXX X X X X X X X X X X X X X X X X",
" X X X X X X X X X X X XXX X X|.,X`.F.h.` 9 7 P  .Y.~. .U 7 I.aX2X X X X X X X X X X X X X X X X X X X X X X X X X X X X X X X X X X X X X X",
" X X X X X X X X X X X X`.D. .) R y 8 O ; 2 z.;XiXsX*Xc.L.7 R [. X X X X X X X X X X X X X X X X X X X X X X X X X X X X X X X X X X X X X X",
" X X X X X X X X X XXX`.Q $ $ 9 t % a #.>.*.i.tXpXsXR.M.qX .% S. X X X X X X X X X X X X X X X X X X X X X X X X X X X X X XXX X X X X X X X",
" X X X X X X X X XXXoXM.0 I R I.;XK.n >.5.4.,.@XsXpXH.K.sX=XL U [. X X X X X X X X X X X X X X X X X X X X X X X X X X X X X X X X X X X X X",
" XXX X X X X X X X X5X' Q %XD.z.qXpXB.%.4.4.;.v.dXqXz.@XsXqX~ O h.|.XXXX X X X X X X X X X X X X X X X X X X X X X X X X X X X X X X X X X X",
" X X X X X X X X X X,XM ' ;X*Xk.P.pX%X^ 2.5.>.^ 9X*Xc.wXsXW.h i t '.XXXX X X X X X X X X X X XXX X X X X X X X X X X X X X X X X X X X X X X",
" X X X X X X X X XXX&Xy Q *X;XR.k.wXqXp.-.4.2.n *XY.H.dX$Xt.2.=.; ' {. X X X X X X X X X X X X XXXXXXXXXXXXX XXXXXXXXXXXXX X X X X X X X X X",
" X X X X X X X X X3X;Xy y @X;X*XX.#XdXi.-.4.2.<.T.c.+XR.t.:.5.3.f % n. X X X X X X XXX XXX|..X.X_.^.F.h.d.d.d.j.h.n.S.G.].XXXX X X X X X X X",
" X X X X X X X X X2X9X' $ m.;X*Xk.T.dXu.-.5.:.m I P p.1.2.4.4.4.-.; 7 F. X XXXOX{._./.^.g._ T K 9 7 < < 7 0 7 0 9 0 7 7 L d.^.|. X X X X X X",
" X X X X X X X XXX2XqXN.% U @X;Xy.@XqXr.=.#.a o $ O @.4.4.4.4.4.%...t U '.`.G.h.' y 9 & $ 7 y R O.k.M.C.H.H.A.m.b.m.M.f.T r e h.XX X X X X X",
" X X X X X X X X XXX5X$XR $ ] M.[ T.z.2 : O 7 Q l.y a 3.4.4.4.$.i.wXA.7 u u 7 < 9 y Q k.B.K.E.K.N.c.X.] ' W ' [ o.[ z.*X%XR.I 0 n.}. X X X X",
" X X X X X X X X X X8X9XL.P $ $ 6 q * & L O.K.*X*Xs.1 #.4.2.*.p.>XsXqX] . 9 ] z.K.H.m.k. .' Q I R '  .z.H.+X#X*X+Xx.k.*X<X-X[ 6 0 n.XX X X X",
" X X X X X X X X X XoX6X;XY.k.W U Q X.H.+X=X9XrX0XT.t : &.t.Z.9XdXiXdX+X9 u n.o.Q y U [ y.M.T.#X9XqXqXqX;X$XY.B.z.H.*X-X+Xz.U N.R y _. X X X",
" X XXX X X X X X XXX X2XqX;X*X%X#X%X;X9X0X5X7XXXrX>Xz.% t (.dXsXiXdX9Xi.g : $ A k.I.*XeXsXsXsXeX%XP.N.c.z.m.D.R.@X*XY.o.) ] ] +XN.& n.XX X X",
" X X X X X X X X X X XXX2XrXqXqXwX0X6X2XoX X X X2X;Xz.0 =  .qXsXsX9Xv.&.3.=.: U %XiXqX=X+XE.A.m.M.N.K.R.@X#X~.E.l.' W l.T.qXY.B.*Xy I {.XX X",
" X X X X X X X X X X XXX XXX2XyX3XXXXXXX X X X X}.} t } ' < X.;XW.p.*.2.3.2.+.; ) m.l.k.c.J.R.#X*X#X+XN.X. .[ o.N.R.*XiXsXsX*Xk.<X .y _.XX X",
" X X X X X X X X X X X X X X X X X XXX X X XXXXXd.$ ] ;X*X} 0 R Y h *.1.<.<.r.u.M.J.R.+XT.L.A.z. .[ } ..B.R.*XqXdXdXdXiXdXiXA.R #XH.9 Y.XX X",
" X X X X X X X X X X X X X X X X X X X X X XXXF.7 t Q o.N.N.o.' u.x.c.m.N.M.b.z.V.k.o.O.] ]  .W k.T.;XqXdXsXsXdXiXiXiXdXdX+X9 & R.@Xr g.XX X",
" X X X X X X X X X X X X X X X X X X X X X X.XW & A.L. .' W ' ' ( ' W ' ' ' [  .k.B.H.E.+X*X*XA.T.sXsXdXiXiXiXiXiXiXiXiXsXB.X = N.;XU E  X X",
" X X X X X X X X X X X X X X X X X X X X XXX).e 7 ~.;X-X#X#X+XW.Y.R.Y.~.$X#X%X*X-X;X;X;X;X;X>XH.E.dXdXiXiXiXdXiXiXdXiXdXdXz.  . z.qX' E |. X",
" X X X X X X X X X X X X XXX X X X X X X[.h.R 6 u y.Y.-X;X;X;X;X;X>X;X;X>X;X;X;X;X;X;X;X;X;X>XE.H.iXiXiXiXiXiXdXiXiXiXiXdXz.    X.tXo.T |.XX",
" X X X XXX X X X X X X X X X X X X X X{.E 6 ] M.L.Y.T.=X;X;X;X;X-X;X;X;X;X;X;X;X;X;X;X;X;X-X;XR.m.qXdXiXdXiXiXiXdXiXiXiXdXb.=   ] iXN.T |. X",
" X X X X X X X X X X X X X X X XXXXX|.` % X.*X9X>X>X;X;X;X;X;X;X-X;X=X;X;X;X=X;X;X;X;X;X;X;X;X+Xz.9XdXiXdXiXiXiXiXiXiXiXpX$XQ X ' iXA.U .X X",
" X X X X X X X X X X X X X X X X XXXG.7 R %X;X;X;X;X>X;X;X;X;X*X-X;X;X;X-X;X;X;X=X=X;X=X;X;X;X*Xk.*XpXiXiXiXiXiXiXiXiXpXpX@XP   Q eXA.E .X X",
" X X X X X X X X X X X X X X X X XOX] * N.>X;X;X;X*XR.@X;X;X;X;X;X;X;X;X;X;X;X;X;X;X;X;X;X=X;X*Xz.T.pXdXiXpXiXiXiXiXiXiXdXY.$   W qXN.E |.XX",
" X X X X X X X X X X X X X X X XXX`.y t +X;X;X;X#XX.} +X;X;X;X;X;X;X;X;X;X-X;X-X;X;X;X;X;X=X;X;XH.m.iXiXiXiXiXiXdXiXiXiXdX=XR .  .9X .u G.oX",
" X X X X X X X X X X X X X X X X3X@X9 I #X;X;X>XN.*  .;X;X;X;X;X=X;X;X=X;X;X-X-X-X;X;X;X;X;X;X;X$XX.*XpXiXiXdXiXiXiXiXiXdXiX*Xl.[ ~ 2 - t k.",
" X X X X X X X X X X X X X X X X3XT.& R *X;X;X;X..= t W.>X;X;X;X;X;X;X;X-X;X;X;X;X;X-X;X;X;X;X;X;XN.N.iXpXiXiXiXiXdXiXiXiXiXdXm.1 g -.-.a < ",
" X X X X X X X X X X X X X X X X3XT.< R *X;X;X;X .v q l.;X;X;X;X;X=X;X;X;X;X;X;X-X;X;X=X;X;X;X;X;X$Xy.T.dXiXiXiXiXiXiXiXdXsX*X .b -.4.3.f q ",
" X X X X X X X X X X X X X X X X3X#Xq P #X;X;X;Xl.U ! I @X;X;X;X;X;X;X;X;X;X-X;X=X;X;X;X;X;X9X;X;X;XR.y.W.dXdXiXiXdXdXdXdX9Xz.H.H.m d s j B.",
" X X X X X X X X X X X X X X X X3X*XP 8 R.;X;X;XR.I R r k.;X;X;X;X=X;X;X=X;X;X;X=X;X;X;X*XR.M.N.#X;X;XR.y.T.wXiXdXdXdX9X+Xz.c.*X;X} $ W K.0X",
" X X X X X X X X X X X X X X X X3X9X} = z.;X;X;X;XA.P $ 7 M.*X;X;X;X;X=X;X;X;X;X;X;X;X*Xz.0 . $ U J.;X;XR.l.x.H.R.Y.H.x.k.J.*X;X@Xv P +XeX3X",
" X X X X X X X X X X X X X X X X3XqXH.& U #X;X;X;X=XL.) e I I.;X;X;X;X=X;X=X;X;X;X;X;XC.6         9 c.#X>X=XT.D.N.N.N.R.*X;X;X;Xf.* X.qXyXXX",
" X X X X X X X X X X X X X X X XXX6X#XR . X.-X;X;X;X>X=X+X~.*X;X;X;X;X;X=X;X;X;X=X;X;XC.%           $ R N.#X;X;X;X9X>X9X;X>X;XM.7 P *X3XXX X",
" X X X X X X X X X X X X X X X X X8X9XJ.r < m.;X;X;X;X;X;X>X;X;X;X;X;X;X-X;X;X;X;X;X;X#XR               & U ] z.N.K.T.R.I.J.o.7 e L.yXXX X X",
" X X X X X X X X X X X X X X X X XoXtX;XH.y 7 l.%X;X;X;X;X;X*XT.Y.=X;X;X;X;X;X;X=X;X;X;XL.0 + ; - +           . $ & 7 7 6 7 7 y H.tX3X X X X",
" X X X X X X X X X X X X X X X X XXX8XqX*XM.9 $ Q l.V.b.H.K.] u y.*X;X;X;X-X;X;X;X;X=X;X;Xz.c $.-.#.s s d -             9 o.M.T.wX7X X X X X",
" X X X X X X X X X X X X X X X X X X|.&Xm.U $     . . = $ & X X 9 c.*X>X;X-X;X;X;X;X-X;X;X*XZ.t.%.;.;.$.>.+.-   X $ . * V.;X9XqX7X X X X X X",
" X X X X X X X X X X X X X X X X XXXF.K $                       X * O.!.;X;X;X;X;X;X;X;X;X;X-X@XC.i.p.r.r.r.~ [ k.X.0 ) ;X5X7X3XXX X X X X X",
" X X X X X XXX X X X X X X X X XXX^.y X                             . y z.+X*X;X;X;X;X;X;X;X;X;X;X-X-X*X#X#X*X*X@XW t T.3XXX X X X X X X X X",
" X X X X X X X X X X X X X X XXX{.E                                     . t f.R.#X=X;X>X;X;X;X;X;X;X;X;X;X>X>X+XW 9 N.rXoX X X X X X X X X X",
" X X X X X X X X X X X X X X XXXS.o                                         . 9 I ) y.D.~.%X*X;X;X;X>X;X=X%XH.I 9 c.<XoX X X X X X X X X X X",
" X X X X X X X X X X X X X XXXOX}               $ & & .                             . $ 9 U W ] ' ]  .] ' P 7 y C.qX8XXX X X X X X X X X X X",
" X X X X X X X X X X X X X XXX1XW           X P z.H.N.] 7                                 . $ & 7 9 9 q q U k.T.9XyXXX X X X X X X X X X X X",
" X X X X X X X X X X X X X X7X9XR           & N.T.N.s. .y X                               X & U b.Y.I.Y.I.+X>XtX2XXX X X X X X X X X X X X X",
" X X X X X X X X X X X X X X7XqX]           $ U U t y 9 $ K I 7                         X y W y I m.l.' [ X.L.}.XX X X X X X X X X X X X X X",
" X X X X X X X X X X X X X X3XeXH.&     < W ' 9 ' R.;X%XA.W.wXY.9 : i + X X             . N.qX#XW 8 P ] z.z.W ) '. X X X X X X X X X X X X X",
" X X X X X X X X X X X X X X2XtX*XR   K Y.;Xz.m.qXsXsXsXsXdXdX#XP s 2.-.@.s 1           = L.sXsXY.} *XtXdXdX*XW W [. X X X X X X X X X X XXX",
" X X X X X X X X X X X X X X X8XwXl.K W.iXH.m.eXiXW.+XeXiXsXqXk.t 1 @.3.4.2.-.s 1 X     $ T.sXdX;Xk.9XsXdXdXsXN.t '. X X X X X X X X X X X X",
" X X X X X X X X X X X X X X XoX9X .l.dX$Xf.;XsXsX#Xc.*XsXiXiX9X%XH.v f 2.5.5.2.;.d ; X 7 %XdXdXeXx.#XdXiXiXdXM.r '. X X X X X X X X X X X X",
" X X X X X X X X X X X X X X XoX;X[ @X9Xl.+XpX%XE.>X;X9XdXiXiXdXdXsX~.w +.4.4.4.5.3.-.s 1 L.sXsXiXz.#XsXsXdX>X~ P `. X X X X X X X X X X X X",
" X X X X X X X X X X X X X X XoX*X] ~.b.H.iXiX-XL.L.eXsXiXiXiXiXdXaX9XQ a 3.4.5.4.4.5.2.f v Y.Y.m.I k.L.K.L.M.' r S. X X X X X X X X X X X X",
" X X X X X X X X X X X X X X X7X;X} M W ;XeX;XqXiXwXiXiXiXiXiXiXiXsX9XR : 2.4.4.4.4.4.5.2.s 9 y y e 7 < 7  .%X9XQ P {. X X X X X X X X X X X",
" X X X X X X X X X X X X X X X8XqXH.0 l.iX*XV.m.%XiXiXiXdXiXiXiXdX;XH.7 a 3.4.4.4.4.4.4.4.f 9 L.+X(.Y.m.[ y b.iX .9 /. X X X X X X X X X X X",
" X X X X X X X X X X X X X X XXXiXK.9 H.dXiX9X+XT.iXdXiXiXiXiXdXiXL.P + #.4.4.4.4.4.4.4.4.d t +X>X;X;X>X;Xk.I *X' y {. X X X X X X X X X X X",
" X X X X XXX X X X X X X X X X X7XR.0 k.dXdXdXdXiXiXiXiXiXiXiXiXdXqXO.: 2.4.3.4.4.4.4.4.2.i R %X;X;X;X-X;XW.y [ 9 f.OX X X X X X X X X X X X",
" X X X X X X X X X X X X X X X X3X*Xv P ;XsXdXdXiXiXiXiXiXiXiXiXdXwXW i 2.4.4.4.4.4.4.4.#.1 m.;X;X;X;X;X;X~.8 X I *X2X X X X X X X X X X X X",
" X X X X X X X X X X X X X X X X3X9XX.& o.R.%XqXdXiXiXiXiXiXdXdXiXB.% d 3.4.4.4.4.4.4.>.p P +X-X;X;X;X;X;XB.& 0 k.6XXX X X X X X X X X X X X",
" X X X X X X X X X X X X X X X X3XqXJ.& @ 4 [ +XiXdXiXiX9XL.;X>Xz.< p >.4.4.4.4.4.5.3.d 1 M.;X;X;X;X;X;X*XW r R l.2X X X X X X X X X X X X X",
" X X X X X X X X X X X X X X X XoXrXL.& 5 4 X.wXiXiXiXdXiXz.R I % i -.4.4.4.4.4.4.4.+.+ [ *X;X;X;X;X;X>XM.6 u 9 g.XX X X X X X X X X X X X X",
" X X X X X X X X X X X X X X X X XyXR.7 > 5 9 H.qXaXdXiX=XR + i g 2.4.4.4.4.4.4.4.#.- y T.>X;X;X-X-X;XW.y   . y ).XX X X X X X X X X X X X X",
" X X X X X X X X X X X X X X X X X8X*XI o k 5 4 ' L.R.V.U ; @.2.4.4.4.4.4.4.4.>.@.; r H.;X;X;X;X;X>X#X' X = y J.rXXX X X X X XXX X X X X X X",
" X X X XXX X X X X X X X X X X X X8X9XH.7 # z z 3 < % O - +.3.4.4.4.4.2.#.@.d : O t Y.;X;X;X;X<X-XY.Q $ P k.(.0XoX X X X X X X X X X X X X X",
" X X XXX X X X X X X X X X X X X XXX0X*Xk.& # B 6.x + f >.4.4.5.4.4.4.=.: , , j C ! (.;X;X*X+XH.] 9 = R R.;XiX3X XXX X X X X X X X X X X X X",
" X X X X X X X X X X X X X X X X X X3X9X#Xf.6 o 3 > i #.@.%.%.;.2.4.4.+.O Z C B q.S / M.X.! t 7 < M l.#XqXrX2XXX X X X X X X X X X X X X X X",
" X X X X X X X X X X X X X X X XoXoXoXuX9X#XH.Q 7 % - s A K.L.i.<.:.4.+., Z 8.j G 0.l o & P I O.N.#X>X6X3XXXXX X X X X X X X X X X X X X X X",
" X X X X X X X X X X X X X X X XOXoX XoXuXqX=X+XJ.( . m P.;X>X-XC.c :.f X 3 3 # > j , % o.T.@X=X>XqX6XXX X X X X X X X X X X X X X X X X X X",
" X X X X X X X X X X X X XXX{.h.| b.'._.L.#XqX>XB.8 u K.>X;X;X>XH.h f : & e t R U 0 e X.*XqXeX6X8X2X X X X X X X X X X X X X X X X X X X X X",
" X X X X X X X X X X X XXXG.T $ @ * L y % y K.K.0 q H.;X;X;X;X-X..g i .  .R.W.$X!.L.R.>X5X2X3XXX X X X X X X X X X X X X X X X X X X X X X X",
" X X X X X X X X X XXX XG.9 X 3 N N 5 o 3 j 8 < r J.-X;X;X;X>X+Xt + % ! @X9XwXwX9X<XwX7X X X X X X X X X X X X X X X X X X X X X X XXX X X X",
" X X X X X X X X X X_.| t @ x 7.q.w.6.k 6.9.j T L.;X;X;X;X;X;Xo.* ' m.$XrX3X3X3X5XrX3XXX X X X X X X X X X X X X X X X X X X X X X X X X X X",
" X X X X X X X X X|.| , x k 7.w.q.q.6.N 9.H u.%X;X;X;X;X;X;XK.0 ! @X9XiXoX X X X XXX X X X X X X X X X X X X X X X X X X X X X X X X X X X X",
" X X X X X X X X X'.e j H B q.q.q.q.6.l 7.D N.>X;X-X;X;X;X#XI 6 Y.5X3X7XXX X X X X X X X X X X X X XXX X X X X X X X X X X X X X XXX X X X X",
" X X X X X X X XXXK.6 N G B q.q.q.q.7.N H G { %X>X;X;X>X%XO.@ ] qXoX X XXX X X X X X X X X X X X X X X X X X X X XXX X X X X X X X X X X X X",
" X X X X X X X X2XD.% B C V q.q.0.q.0.G D 7.J a.#X;X-X%X} = y +X3X X X X X X X X X X X X X X X X X X X X X X X X X X X X X X X X X X X X X X",
" X X X X X X X XyXN.% z C H q.q.q.0.0.9.B G 0.J / a.a./ * 6 H.rXXX X X X X X X X X X X X X X X X X X X X X X X X X X X X X X X X X X X X X X",
" X X X X X X XXX8XN.% N B H q.q.q.0.q.q.7.N G 7.7.e.H G > ' qX2X X X X X X X XXX X X X X X X X X X X X X X X X X X X X X X X X X X X X X X X",
" X X X X X XXXXX6XN.% z N 8.q.q.q.0.0.q.q.H N D 6.q.q.V 1 z.8XXX X X X X X X X X X X X X X X X X X X X X X X X X X X X X X X X X X X X X X X",
" X X X X X X X X8XJ.< x z G q.q.0.q.q.0.q.q.0.Z B z j # 8 U.oX XXXXXXX X X X X X X X X X X X X X X X X X X X X X X X X X X X X X X X X X X X",
" X X X X X X X X8XY.7 k B Z q.q.q.0.q.0.q.q.q.q.e.>     * E j.S.{.XX X X X X X X X X X X X X X X X X X X X X XXX X X X X X X X X X X X X X X",
" X XXX X X X X XyX+X9 3 D F q.q.q.0.0.0.q.q.q.8.5 # , j x j 3 < E /.oX X X X X X X X X X X X X X X X X X X X X X X X X X X X X X X X X X X X",
" X X X X X X X XyX#Xt , z V q.q.q.0.q.0.q.7.Z l x V 7.9.q.9.9.Z 5 I '.XX X X X X X X X X X X X X X X X X X X X X X X X X X XXX X X X X X X X",
" X XXXXX X X X X7X*XP # B z q.q.0.q.q.0.0.H C 6.q.q.q.0.q.9.q.w.Z # d.XX X X X X X X X XXXXXXX X X X XXX X X X X X X X X X X XXX X X X X X X",
" X X XXX4X4X4X}.,X*XR @ B z 7.q.q.q.0.0.0.0.q.q.q.q.q.0.q.q.q.w.H # _ [.XX X XXX X X X XXXXX XXX X X XXX X X X X X X X X X X X X X X X X X X",
" XXX[.).(.R.T.Y.P.H.) . k B B 0.q.0.q.0.q.q.q.q.q.0.0.q.q.q.q.q.Z O | 5X1X6X1X,X&X,X1X,X,X&X,X,X1X5X4XXX X X X X X X X X X X X X X XXX X X X",
" X`.H.N.M.N.N.M.M.z. .7 , Z z 7.q.q.q.0.0.0.q.q.q.q.0.q.q.q.7.Z 5 o  .Y.P.L.K.J.J.J.K.J.J.J.J.J.L.L.R.[. X X X X X X X X X X X X X X X X X X",
"XX`.J.B.b.m.z.z.c.z.k.U . j C B 6.0.q.q.q.q.q.q.q.q.0.7.H B B z @ K z.M.M.m.m.m.B.M.B.M.m.M.m.m.N.L.#XOX X X X X X X X X X X X X X X X X X X",
"aXtX;X@XR.L.H.C.N.M.c.X.v X j S B S H 6.7.9.7.6.6.H S N B G G j $ [ m.c.c.z.c.c.z.z.z.c.z.z.z.z.K.9XsX3X X X X X X X X X X X X X X X X X X X",
"yXiXiXtXqX9X>X;X:X*X@XT.N.y . 5 B S C B B B B D D J S F C k # $ I m.N.M.N.M.m.m.m.m.m.m.c.M.N.H.#XtX7XoX X X X X X X X X X X X X X X X X X X",
"XXoXyXuXiXdXiXiXiXeXeXwX*XY.) 4 * 3 k l l x x x k 5 > , @ & y X.+X:X;X=X-X*X#X#X#X#X@X%X%X*X=X9X6XXX X X X X X X X X X X X X X X X X X X X X",
" X XXXXX3X8X7X7X7X7XuXdXqX;X+XN.x.~ 9 < % $ % * & 0 K R } A.+X>XiXiXiXiXtXeXiXeXqXiXqXiXeXiXiXtX2X X X X X X X X X X X X X X X X X X X X X X",
" X X X X X X X X X XoXoX7XtX9X;X=X$XY.N.z.x.z.M.A.L.~.#X=X<X0XtXaXuXuXaXaXaXuXuXuXuXaXuXaXaX7XoX X X X X X X X X X X X X X X X X X X X X X X",
" X X X X X X X X X X X X XoX8X5X6XwX>X;X;X;X;X;X<X9XqX0X5X3XXXXXXXXXXXXXXXXXXXXXXXXXXXXXXXXXXX X X X X X X X X X X X X X X X X X X X X X X X",
" X X X X X X X X X X X X X X X XXX3XiXiXiXiXiXiXtX3X3X2X X X X X X XXX X X X X XXXXX X XXX X X X X X X X X X X X X X X X X X X X X X X X XXX"
};
