/* XPM */
static char *bala_inimigo_110[] = {
/* columns rows colors chars-per-pixel */
"16 16 148 2 ",
"   c #E82C06",
".  c #EB3303",
"X  c #F43405",
"o  c #F03D03",
"O  c #F53B05",
"+  c #F23E07",
"@  c #F73F0F",
"#  c #E54B05",
"$  c #ED470B",
"%  c #E74E09",
"&  c #ED4908",
"*  c #EF4B0E",
"=  c #F04608",
"-  c #F64D09",
";  c #F84A0C",
":  c #EB5805",
">  c #ED5908",
",  c #EE5B0B",
"<  c #E95D08",
"1  c #F6500A",
"2  c #F5520F",
"3  c #F24410",
"4  c #F84410",
"5  c #ED5810",
"6  c #EC5F1C",
"7  c #F55B12",
"8  c #E26005",
"9  c #EC6005",
"0  c #E36D05",
"q  c #EB6309",
"w  c #E16A09",
"e  c #E9680B",
"r  c #F26707",
"t  c #F1630D",
"y  c #F06F0B",
"u  c #EC760A",
"i  c #EA7C09",
"p  c #F27208",
"a  c #F1730C",
"s  c #F3720F",
"d  c #F67809",
"f  c #F1780D",
"g  c #FA790C",
"h  c #F76B13",
"j  c #FA6E14",
"k  c #F9641C",
"l  c #FA651C",
"z  c #F27313",
"x  c #F17014",
"c  c #F97410",
"v  c #FB7513",
"b  c #F47A11",
"n  c #F47D13",
"m  c #F37E14",
"M  c #F05C20",
"N  c #FB6B22",
"B  c #E17F28",
"V  c #E57C2D",
"C  c #E57939",
"Z  c #D8755A",
"A  c #DB755A",
"S  c #D07A5A",
"D  c #D67F5C",
"F  c #E0724F",
"G  c #E5820E",
"H  c #F18E0E",
"J  c #E6910D",
"K  c #ED9C0C",
"L  c #FA940D",
"P  c #EF8011",
"I  c #EA8518",
"U  c #F48110",
"Y  c #F48513",
"T  c #F68215",
"R  c #F78715",
"E  c #F38D14",
"W  c #F88812",
"Q  c #FA801E",
"!  c #EB9414",
"~  c #EA9B14",
"^  c #EE9B16",
"/  c #F69511",
"(  c #F49416",
")  c #F29B1F",
"_  c #E8A30C",
"`  c #EEA214",
"'  c #F0AF1B",
"]  c #F6A91D",
"[  c #F6B215",
"{  c #FDB519",
"}  c #DC9A37",
"|  c #E48D37",
" . c #E2963B",
".. c #DBA93B",
"X. c #F9AF20",
"o. c #EDB23A",
"O. c #D89C42",
"+. c #E49641",
"@. c #E6B148",
"#. c #DC8D65",
"$. c #E28965",
"%. c #D4BE71",
"&. c #DBB877",
"*. c #E5CB4F",
"=. c #BFBA9F",
"-. c #BFB9A9",
";. c #CDA383",
":. c #D2AA87",
">. c #D2A28A",
",. c #CCB89C",
"<. c #C5B6A3",
"1. c #C5BEAB",
"2. c #BFDBB1",
"3. c #BDD8B7",
"4. c #C6C1AA",
"5. c #C4CBAD",
"6. c #C5D2B1",
"7. c #C5D5B6",
"8. c #B9CFC8",
"9. c #BED9CC",
"0. c #BDD9CF",
"q. c #B7DAD6",
"w. c #B8DBD6",
"e. c #B8DAD8",
"r. c #BAEAD5",
"t. c #B3ECE9",
"y. c #B3EEE9",
"u. c #B3ECEB",
"i. c #B2F2EA",
"p. c #B6F0EA",
"a. c #B5F6EE",
"s. c #AFFDFC",
"d. c #AFFDFD",
"f. c #ADFFFF",
"g. c #AFFEFE",
"h. c #AFFFFE",
"j. c #AEFEFF",
"k. c #AEFFFF",
"l. c #AFFFFF",
"z. c #B1F8F4",
"x. c #B2F9F4",
"c. c #B2F8F5",
"v. c #B1FAF4",
"b. c #B2FAF5",
"n. c #B2FBF5",
"m. c #B0FBF8",
"M. c #B0FDFA",
"N. c #B0FDFC",
/* pixels */
"l.l.l.l.l.l.l.l.l.l.l.l.l.l.l.l.",
"l.l.l.l.l.l.s.z.z.z.N.l.l.l.l.l.",
"l.l.l.l.l.a.&. .| C 1.w.l.l.l.l.",
"l.l.l.l.2.@.) E f c 6 F y.l.l.N.",
"l.l.l.r.*.[ J i e e # 3 $.0.N.N.",
"l.l.7.B ' _ ` / R e , ; 4 >.l.N.",
"l.v.+.8 ^ K { H m b h 5 o Z u.l.",
"l.v.} w I W L u % 7 l N 2 Z e.l.",
"l.n...G T < d g =   @ o - 4.l.l.",
"l.M.%.! ( 0 p r 1 . O X ; :.l.l.",
"N.l.i.O.] ~ U : j v t & $ ,.l.l.",
"l.l.l.3.o.] m < s R Q l #.y.l.l.",
"l.l.l.l.=.V u b x h > 6 9.l.l.l.",
"l.l.l.l.8.-.5.6.S D ;.<.l.l.l.l.",
"l.l.l.l.l.f.l.f.q.y.l.s.l.l.l.l.",
"l.l.l.l.l.l.l.l.l.l.l.l.l.l.l.l."
};
