/* XPM */
static char *bala_110[] = {
/* columns rows colors chars-per-pixel */
"14 13 75 1 ",
"  c #151412",
". c #151413",
"X c #161614",
"o c #1E1D1B",
"O c #201F1D",
"+ c #222220",
"@ c #232220",
"# c #232321",
"$ c #252322",
"% c #242422",
"& c #262523",
"* c #242927",
"= c #292826",
"- c #2A2927",
"; c #252A29",
": c #242B29",
"> c #262C2B",
", c #2B2A28",
"< c #2C2B29",
"1 c #2D2C2A",
"2 c #2F2E2C",
"3 c #302F2D",
"4 c #29302E",
"5 c #32312F",
"6 c #373433",
"7 c #393735",
"8 c #3A3836",
"9 c #454240",
"0 c #474341",
"q c #464342",
"w c #484443",
"e c #4B4746",
"r c #4D4948",
"t c #514D4C",
"y c #534E4D",
"u c #56514F",
"i c #565756",
"p c #575958",
"a c #635D5C",
"s c #66605F",
"d c #696261",
"f c #6C6564",
"g c #6F6867",
"h c #746D6C",
"j c #776E6E",
"k c #776F6E",
"l c #7B7271",
"z c #797878",
"x c #817978",
"c c #867D7C",
"v c #5F8483",
"b c #608483",
"n c #628786",
"m c #6B908F",
"M c #6C9998",
"N c #6D9A99",
"B c #79B0AF",
"V c #7FB6B5",
"C c #8D8282",
"Z c #908786",
"A c #948A8A",
"S c #9A8F8F",
"D c #A39897",
"F c #AB9F9F",
"G c #86A8A7",
"H c #80ABAB",
"J c #81B7B7",
"K c #89B4B3",
"L c #87BDBC",
"P c #9FE6E6",
"I c #AFFDFD",
"U c #AFFFFF",
"Y c #B0FDFD",
"T c #B0FFFF",
"R c #B1FFFF",
/* pixels */
"UTTVv*$6iGJUTU",
"TPM>o=waxCzKPT",
"TMo++1rgZFDkHT",
"V4+++<wdcSAliL",
"nO##$&8ufkhawm",
":###+#=8eyt95>",
".%####+&135=%.",
":+#####+#+++$:",
"nO##########On",
"V4+########+>V",
"TMo+#+#+#%+oMT",
"TPM>O+%$#O>MPT",
"TTTBb*.X:vBTTU"
};
