/* XPM */
static char *hearth2_110[] = {
/* columns rows colors chars-per-pixel */
"56 48 112 2 ",
"   c #040202",
".  c #0B0101",
"X  c #060B0B",
"o  c #0A0C0C",
"O  c #120000",
"+  c #1B0000",
"@  c #0D1313",
"#  c #141616",
"$  c #141A1A",
"%  c #181E1E",
"&  c #240000",
"*  c #2C0000",
"=  c #330000",
"-  c #3A0000",
";  c #162020",
":  c #192424",
">  c #1E2A2A",
",  c #222D2D",
"<  c #253434",
"1  c #283535",
"2  c #2C3C3C",
"3  c #440000",
"4  c #4D0000",
"5  c #520000",
"6  c #5B0000",
"7  c #630000",
"8  c #6B0000",
"9  c #720000",
"0  c #7B0000",
"q  c #7D1212",
"w  c #2F4040",
"e  c #344646",
"r  c #354949",
"t  c #394E4E",
"y  c #3C5151",
"u  c #3E5858",
"i  c #405656",
"p  c #435B5B",
"a  c #496666",
"s  c #4D6B6B",
"d  c #506E6E",
"f  c #527373",
"g  c #597575",
"h  c #5B7B7B",
"j  c #830000",
"k  c #8B0000",
"l  c #930000",
"z  c #990000",
"x  c #AC0000",
"c  c #B20000",
"v  c #BB0000",
"b  c #C50000",
"n  c #CB0000",
"m  c #D40000",
"M  c #DB0000",
"N  c #E30000",
"B  c #ED0000",
"V  c #F40000",
"C  c #FB0000",
"Z  c #FA0B0B",
"A  c #FB1616",
"S  c #FA2424",
"D  c #F72E2E",
"F  c #FC2F2F",
"G  c #FD3232",
"H  c #FA3C3C",
"J  c #FE4E4E",
"K  c #EC5555",
"L  c #FA5D5D",
"P  c #FB6565",
"I  c #FC7A7A",
"U  c #5C8080",
"Y  c #638484",
"T  c #658A8A",
"R  c #6A8C8C",
"E  c #6C9494",
"W  c #6D9A9A",
"Q  c #729A9A",
"!  c #73A3A3",
"~  c #7AA4A4",
"^  c #75A8A8",
"/  c #7BADAD",
"(  c #7DB1B1",
")  c #82B3B3",
"_  c #84BABA",
"`  c #FC9494",
"'  c #FBA5A5",
"]  c #FCB3B3",
"[  c #8DC4C4",
"{  c #8EC9C9",
"}  c #91CBCB",
"|  c #94D3D3",
" . c #98D5D5",
".. c #97D9D9",
"X. c #99DBDB",
"o. c #9EE4E4",
"O. c #A1E4E4",
"+. c #A3EAEA",
"@. c #A9EBEB",
"#. c #A7F1F1",
"$. c #AAF4F4",
"%. c #AFFFFF",
"&. c #B1FFFF",
"*. c #FDC6C6",
"=. c #FEC8C8",
"-. c #FDD1D1",
";. c #FBDDDD",
":. c #FDE4E4",
">. c #FDEFEF",
",. c #F6F6F6",
"<. c #FEF5F5",
"1. c #FDF9F9",
/* pixels */
"%.%.%.%.%.%.%.%.%.%.%.%.%.%.%.%.%.%.%.%.%.%.%.%.%.%.%.%.%.%.%.%.%.%.%.%.%.%.%.%.%.%.%.%.%.%.%.%.%.%.%.%.%.%.%.%.",
"%.%.%.%.%.%.%.%.%.%.%.%.%.%.%.%.%.%.%.%.%.%.%.%.%.%.%.%.%.%.%.%.%.%.%.%.%.%.%.%.%.%.%.%.%.%.%.%.%.%.%.%.%.%.%.%.",
"%.%.%.%.%.%.%.%.%.%.%.%.%.%.%.%.%.%.%.%.%.%.%.%.%.%.%.%.%.%.%.%.%.%.%.%.%.%.%.%.%.%.%.%.%.%.%.%.%.%.%.%.%.%.%.%.",
"%.%.%.%.%.%.%.%.%.%.%.%.%.%.%.%.%.%.%.%.%.%.%.%.%.%.%.%.%.%.%.%.%.%.%.%.%.%.%.%.%.%.%.%.%.%.%.%.%.%.%.%.%.%.%.%.",
"%.%.%.%.%.%.%.%.%.%.%.%.%.%.%.%.%.%.%.%.%.%.%.%.%.%.%.%.%.%.%.%.%.%.%.%.%.%.%.%.%.%.%.%.%.%.%.%.%.%.%.%.%.%.%.%.",
"%.%.%.%.%.%.%.%.%.%.%.%.%.%.%.%.%.%.%.%.%.%.%.%.%.%.%.%.%.%.%.%.%.%.%.%.%.%.%.%.%.%.%.%.%.%.%.%.%.%.%.%.%.%.%.%.",
"%.%.%.%.%.%.%.%.%.%.%.%.%.%.%.%.%.%.%.%.%.%.%.%.%.%.%.%.%.%.%.%.%.%.%.%.%.%.&.&.%.%.%.%.%.%.%.%.%.%.%.%.%.%.%.%.",
"%.%.%.%.%.%.%.%.%.%.%.%.%.%.%.%.%.%.%.%.%.%.%.%.%.%.%.%.%.%.%.%.%.%.%.%.%.%.&.&.%.%.%.%.%.%.%.%.%.%.%.%.%.%.%.%.",
"%.%.%.%.%.%.%.%.%.%.%.%.%.%.%.%.&.&.&.&.%.&.%.&.%.%.%.%.%.%.%.%.&.&.&.%.%.%.&.&.%.%.%.%.%.%.%.%.%.%.%.%.%.%.%.%.",
"&.%.%.%.%.%.%.%.%.%.%.%.%.%.%.%.&.&.&.&.&.&.&.&.&.%.%.%.%.%.%.%.&.&.&.&.&.&.&.&.%.%.%.%.%.%.%.%.%.%.%.%.%.%.%.%.",
"%.%.%.%.%.%.%.%.%.%.%.%.%.%.%.%.%.} [ [ [ [ [ [ | %.%.%.%.%.%.&.+.[ [ [ [ [ [ [ O.&.%.%.%.%.%.%.%.%.%.%.%.%.%.%.",
"%.%.%.%.%.%.%.%.%.%.%.%.%.%.%.%.O.e # # # # # # e O.&.%.%.%.%.&.~ : # # # # # # R %.%.%.%.%.%.%.%.%.%.%.%.%.%.%.",
"%.%.%.%.%.%.%.%.%.%.%.%.&.o.h a p @ = l z z k = @ p _ %.%.%.@.Y 2 . 8 z z z 0 . 1 a a / %.%.%.%.%.%.%.%.%.%.%.%.",
"%.%.%.%.%.%.%.%.%.%.%.%.&.X.: O = * q D G S V 0 &   s ..$.+._ > O - b C C C n 3 * *   f &.%.%.%.%.%.%.%.%.%.%.%.",
"%.%.%.%.%.%.%.%.%.%.%.%.&...: 8 N N K ;.:.' Z B x + o 2 X.W $   5 M V C C C C N N b & f &.%.%.%.%.%.%.%.%.%.%.%.",
"%.%.%.%.%.%.%.%.%.%.%.%._ d @ 9 Z P ] ,.' L Z C N k - : X.R . 6 x V C C C C C C C m & 2 R O.&.%.%.%.%.%.%.%.%.%.",
"%.%.%.%.%.%.%.%.%.%.%.%.f   + k A *.<.-.H C C C V N 7 : ..R + b C C C C C C C V C M 3 + $ { &.%.%.%.%.%.%.%.%.%.",
"%.%.%.%.%.%.%.%.%.%.%.%.f + v N A =.] F Z C C C m - . : X.R + b C C C C C C C C C V M 9 # { &.&.%.%.%.%.%.%.%.%.",
"%.%.%.%.%.%.%.%.%.%.%.%.f * M G I :.' C C C C C b + w g T t + b C C C C C C C C C C C k # { &.%.%.%.%.%.%.%.%.%.",
"%.%.%.%.%.%.%.%.%.%.%.%.f & M I ,.<.` Z C C C C b + T ..> . * b C C C C C C C C C C C k # { &.%.%.%.%.%.%.%.%.%.",
"%.%.%.%.%.%.%.%.%.%.%.&.f & m I >.P S C C C C C b + R ..: 5 n B C C C C C C C C C C C k # } &.%.%.%.%.%.%.%.%.%.",
"%.%.%.%.%.%.%.%.%.%.%.%.f & M J ` S C C C C C C b + T ..: 9 C C V C C C C C C C C V C k $ { &.%.%.%.%.%.%.%.%.%.",
"%.%.%.%.%.%.%.%.%.%.%.%.f & n V C C C C C C C V v + T ..: 9 C C C C C C C C C C C C V 0 $ [ %.%.%.%.%.%.%.%.%.%.",
"%.%.%.%.%.%.%.%.%.%.%.%.f . 3 z C C C C V C V k =   T o.: 9 C C C C C C V C C C C N 7 & # [ %.%.%.%.%.%.%.%.%.%.",
"%.%.%.%.%.%.%.%.%.%.%.%.W 2 X 4 v B C C C C V 6 o w Y Q $ 9 C C C C V C C C C C m z + : i  .&.%.%.%.%.%.%.%.%.%.",
"%.%.%.%.%.%.%.%.%.%.%.%.$.{ : . & b C C C C V 6 < ..h @   9 V V C C C C C C C V 0 .   f #.%.%.%.%.%.%.%.%.%.%.%.",
"%.%.%.%.%.%.%.%.%.%.%.%.&.#./ i . 3 z C C C V 6 < +.} T @ * 6 6 z C C C C C M 8 & @ Y } %.%.%.%.%.%.%.%.%.%.%.%.",
"%.%.%.%.%.%.%.%.%.%.%.%.&.&.&.~ 1 X 3 b B C V 6 > ( [ ( y 2 < X 6 V C C C m z + % i o.&.%.%.%.%.%.%.%.%.%.%.%.%.",
"%.%.%.%.%.%.%.%.%.%.%.%.%.%.%.$. .1 . + v C V 6   # @ < } @. .< 6 V C C B 8 O   Y @.%.%.%.%.%.%.%.%.%.%.%.%.%.%.",
"%.%.%.%.%.%.%.%.%.%.%.%.%.%.%.&.$.^ i   4 z B v k l - @ p ) +.< 6 V C m 9 & : h { &.%.%.%.%.%.%.%.%.%.%.%.%.%.%.",
"%.%.%.%.%.%.%.%.%.%.%.%.%.%.%.%.&.&.( , X - n B C M 8   : g _ , 6 B M z . $ u +.&.%.%.%.%.%.%.%.%.%.%.%.%.%.%.%.",
"%.%.%.%.%.%.%.%.%.%.%.%.%.%.%.%.%.&.#.| 2 . * x m - O % _ T : X 6 B 7 +   T O.%.%.%.%.%.%.%.%.%.%.%.%.%.%.%.%.%.",
"%.%.%.%.%.%.%.%.%.%.%.%.%.%.%.%.%.%.%.%.~ i   5 8 . e Y U e . 8 0 0 + : h  .&.%.%.%.%.%.%.%.%.%.%.%.%.%.%.%.%.%.",
"%.%.%.%.%.%.%.%.%.%.%.%.%.%.%.%.%.%.%.%.&._ : X     h [ : . * v l . @ p @.%.&.&.%.%.%.%.%.%.%.%.%.%.%.%.%.%.%.%.",
"%.%.%.%.%.%.%.%.%.%.%.%.%.%.%.%.%.%.%.%.&.#.{ r     $ >   6 b 5 + X E X.%.%.%.%.%.%.%.%.%.%.%.%.%.%.%.%.%.%.%.%.",
"%.%.%.%.%.%.%.%.%.%.%.%.%.%.%.%.%.%.%.%.&.&.%.Q t     . 5 j k + : s  .&.%.%.%.%.%.%.%.%.%.%.%.%.%.%.%.%.%.%.%.%.",
"%.%.%.%.%.%.%.%.%.%.%.%.%.%.%.%.%.%.%.%.%.%.%.&.{ , X & b 0   @ s $.%.%.%.%.%.%.%.&.%.%.%.%.%.%.%.%.%.%.%.%.%.%.",
"%.%.%.%.%.%.%.%.%.%.%.%.%.%.%.%.%.%.%.%.%.%.%.&.#.} i   = & @ Q X.&.&.%.%.%.%.%.%.%.%.%.%.%.%.%.%.%.%.%.%.%.%.%.",
"%.%.%.%.%.%.%.%.%.%.%.%.%.%.%.%.%.%.%.%.%.%.%.%.&.&.! e X : a X.&.%.%.%.%.%.%.%.%.%.%.%.%.%.%.%.%.%.%.%.%.%.%.%.",
"%.%.%.%.%.%.%.%.%.%.%.%.%.%.%.%.%.%.%.%.%.%.%.%.&.%.%.} > f $.%.&.&.%.%.%.%.%.%.%.%.%.%.%.%.%.%.%.%.%.%.%.%.%.%.",
"%.%.%.%.%.%.%.%.%.%.%.%.%.%.&.%.%.%.%.%.%.%.%.%.%.%.&.#._ | &.%.%.%.%.%.%.%.%.%.%.%.%.%.%.%.%.%.%.%.%.%.%.%.%.%.",
"%.%.%.%.%.%.%.%.%.%.%.%.%.%.%.%.%.%.%.%.%.%.%.%.%.%.%.%.%.&.%.%.%.%.%.%.%.%.%.%.%.%.%.%.%.%.%.%.%.%.%.%.%.%.%.%.",
"%.%.%.%.%.%.%.%.%.%.%.%.%.%.%.%.%.%.%.%.%.%.%.%.%.%.%.%.%.%.%.%.%.%.%.%.%.%.%.%.%.%.%.%.%.%.%.%.%.%.%.%.%.%.%.%.",
"%.%.%.%.%.%.%.%.%.%.%.%.%.%.%.%.%.%.%.%.%.%.%.%.%.%.%.%.%.%.%.%.%.%.%.%.%.%.%.%.%.%.%.%.%.%.%.%.%.%.%.%.%.%.%.%.",
"%.%.%.%.%.%.%.%.%.%.%.%.%.%.%.%.%.%.%.%.%.%.%.%.%.%.%.%.%.%.%.%.%.%.%.%.%.%.%.%.%.%.%.%.%.%.%.%.%.%.%.%.%.&.%.%.",
"%.%.%.%.%.%.%.%.%.%.%.%.%.%.%.%.%.%.%.%.%.%.%.%.%.%.%.%.%.%.%.%.%.%.%.%.%.%.%.%.%.%.%.%.%.%.%.%.%.%.%.%.%.%.%.%.",
"%.%.%.%.%.%.%.%.%.%.%.%.%.%.%.%.%.%.%.%.%.%.%.%.%.%.%.%.%.%.%.%.%.%.%.%.%.%.%.%.%.%.%.%.%.%.%.%.%.%.%.%.%.%.%.%.",
"%.%.%.%.%.%.%.%.%.%.%.%.%.%.%.%.%.%.%.%.%.%.%.%.%.%.%.%.%.%.%.%.%.%.%.%.%.%.%.%.%.%.%.%.%.%.%.%.%.%.%.%.%.%.%.%."
};
