/* XPM */
static char *monster1_110[] = {
/* columns rows colors chars-per-pixel */
"47 55 226 2 ",
"   c #0C0D0D",
".  c #2B2427",
"X  c #39152C",
"o  c #423D2B",
"O  c #4D1839",
"+  c #776438",
"@  c #625236",
"#  c #3F2A5D",
"$  c #3D2760",
"%  c #433359",
"&  c #563C7A",
"*  c #4C3270",
"=  c #633F70",
"-  c #3F4157",
";  c #4D504E",
":  c #796A56",
">  c #574877",
",  c #5A5477",
"<  c #514B70",
"1  c #6D536D",
"2  c #566671",
"3  c #67696E",
"4  c #676A78",
"5  c #74716D",
"6  c #9A7936",
"7  c #8F6F2E",
"8  c #A17C35",
"9  c #8D7444",
"0  c #87796B",
"q  c #876D65",
"w  c #9E8036",
"e  c #A28839",
"r  c #B18F38",
"t  c #BCA43D",
"y  c #C28C35",
"u  c #CD9235",
"i  c #93884B",
"p  c #A79759",
"a  c #BAA84F",
"s  c #908C74",
"d  c #A99665",
"f  c #A2A271",
"g  c #C3AB44",
"h  c #C8B346",
"j  c #D3BD4A",
"k  c #C5B150",
"l  c #DBC44A",
"z  c #E6CE4B",
"x  c #EAD24D",
"c  c #532D8C",
"v  c #573887",
"b  c #572F94",
"n  c #5C329D",
"m  c #583193",
"M  c #4E2F80",
"N  c #7A3D98",
"B  c #783486",
"V  c #5E4483",
"C  c #5C4785",
"Z  c #5D5584",
"A  c #62438D",
"S  c #644C88",
"D  c #675789",
"F  c #75568C",
"G  c #664593",
"H  c #694798",
"J  c #6C4A9B",
"K  c #684B95",
"L  c #704F9F",
"P  c #6C5294",
"I  c #6A5898",
"U  c #745A98",
"Y  c #5F7487",
"T  c #5E6285",
"R  c #686687",
"E  c #746989",
"W  c #65788A",
"Q  c #757986",
"!  c #696397",
"~  c #7E689D",
"^  c #78649A",
"/  c #797698",
"(  c #6C759B",
")  c #6F4BA2",
"_  c #714BA5",
"`  c #754DAB",
"'  c #7A46AA",
"]  c #6E52A1",
"[  c #7352A5",
"{  c #7652AB",
"}  c #7852AE",
"|  c #795CA2",
" . c #7B52B5",
".. c #7E53BA",
"X. c #7E59B3",
"o. c #784DB1",
"O. c #6F77A0",
"+. c #7773AA",
"@. c #8C2E91",
"#. c #95319E",
"$. c #8B349A",
"%. c #A72FAB",
"&. c #A931AE",
"*. c #AE2EB1",
"=. c #B231B5",
"-. c #B22EB5",
";. c #924F8D",
":. c #806B9E",
">. c #837798",
",. c #917C94",
"<. c #8C7684",
"1. c #8149AD",
"2. c #8154BD",
"3. c #8156B8",
"4. c #826CA3",
"5. c #8167A8",
"6. c #8974A8",
"7. c #927CAC",
"8. c #8D74B1",
"9. c #967DBA",
"0. c #957BB9",
"q. c #A15EA2",
"w. c #8356C3",
"e. c #8558C5",
"r. c #8757C9",
"t. c #8758C8",
"y. c #8A5ACD",
"u. c #8957CE",
"i. c #8D5CD3",
"p. c #997FC0",
"a. c #B35BC6",
"s. c #78828A",
"d. c #6A8A97",
"f. c #768A99",
"g. c #6E9298",
"h. c #6E8F93",
"j. c #7788A6",
"k. c #739BA4",
"l. c #7796A9",
"z. c #7C99B3",
"x. c #738BA6",
"c. c #7EA8B4",
"v. c #7AA7AC",
"b. c #86899D",
"n. c #86979C",
"m. c #939699",
"M. c #918891",
"N. c #A29E82",
"B. c #8B9AA7",
"V. c #9A9DA4",
"C. c #9A82BD",
"Z. c #9985B5",
"A. c #8D86AD",
"S. c #A18CBC",
"D. c #A494BC",
"F. c #99A3A8",
"G. c #82ACB9",
"H. c #98ABB6",
"J. c #85BABD",
"K. c #85B5B9",
"L. c #85A6A9",
"P. c #A2A5A7",
"I. c #A9ACB0",
"U. c #AAB3B7",
"Y. c #B4BABC",
"T. c #8CAC95",
"R. c #C4BF85",
"E. c #8EC3BC",
"W. c #BFC1B8",
"Q. c #9D84C3",
"!. c #A086C6",
"~. c #A58ACD",
"^. c #A389CB",
"/. c #A995C5",
"(. c #A98ED4",
"). c #A78CD0",
"_. c #AE92DA",
"`. c #AC90D7",
"'. c #B194DE",
"]. c #B09CCE",
"[. c #89BDC4",
"{. c #89BDC5",
"}. c #9EB4C0",
"|. c #A4BAC6",
" X c #B8BCC4",
".X c #B7A3D3",
"XX c #A1BBD8",
"oX c #B395E1",
"OX c #C1ADDD",
"+X c #C1B7C3",
"@X c #C9B2E7",
"#X c #CAB3E8",
"$X c #C4AFE1",
"%X c #8DC9CB",
"&X c #8CC2C8",
"*X c #91CAC8",
"=X c #93CBD4",
"-X c #93D2D5",
";X c #9ADBDD",
":X c #98D6DA",
">X c #A8C1CD",
",X c #BBC1C3",
"<X c #ADC6D4",
"1X c #AEC8D7",
"2X c #B0C9D4",
"3X c #A0E2DE",
"4X c #9BDFE1",
"5X c #BAD7E5",
"6X c #9DE2E4",
"7X c #A3EBEC",
"8X c #A1E7E8",
"9X c #A7F2F2",
"0X c #A9F5F5",
"qX c #AFFFFF",
"wX c #ABF7F7",
"eX c #B1FFFF",
"rX c #B2E5EF",
"tX c #C2C8C9",
"yX c #D4DBDD",
"uX c #CBD2D3",
"iX c #C5E8F9",
"pX c #DFE8EA",
"aX c #E3EBED",
"sX c #E6EFF1",
"dX c #F3FCFD",
"fX c #EAF3F4",
/* pixels */
"qXqXqXqXqXqXqXqXqXqXqXqXqXqXqXqXqXqXqXqXqXqXqXqXqXqXqXqXqXqXqXqXqXqXqXqXqXeXwX;Xg.x.J.wXqXqXqX",
"qXqXqXqXqXqXqXqXqXqXqXeXqXqXqXqXqXqXqXqXqXqXqXqXqXqXqXqXqXqXqXqXqXqXqXeX0XK.R I ` ` ] O.6XqXqX",
"qXqXqXqXqXqXqXqXqXqXqXqXqXqXqXqXqXqXqXqXqXqXqXqXqXqXqXqXqXqXqXqXqXqXqX:Xx.H w.i.i.i.i.w.I &XqX",
"qXqXqXqXqXqXqXqXqXqXqXqXqXqXqXqXqXqXqXeX6X%X6XqXqXqXqXqXqXqXqXqXqXeX&X<  .i.i.i.i.i.i.i...( 0X",
"qXqXqXqXqXqXeXqXqXqXqXqXqXqXqXqXqXqXqX;X< $ < x.6XqXqXqXqXqXqXqX9Xx.> N 3.y.i.i.i.i.e.i.i.I 6X",
"qXqXqXqXqXqXqXqXqXqXqXqXqXqXqXqXqXeX6XZ c n n b > {.eXqXqX9X7X&XO.@.*.*.#.N w.i.e.C _ i.i.I %X",
"qXqXqXqXqXqXqXqXqXqXqXqXqXqXqXqXqXeX=X* n n n n b v k.G.c., = ;.XXa.-.=.-.%.$. .+.Y _ i.y.! 9X",
"qXqXqXqXqXqXqXqXqXqXqXqXqXqXqXqXqXeX=Xm n n n n n c # G o._ ' ' p.q.*.=.=.-.#.% - I ) t.o.c.wX",
"qXqXqXqXqXqXqXqXqXqXqXqXqXqXqXqXqXeX=X* n n n n n b E A.3.i.i.i.t.1.$.&.=.=.@.W Z y.X...+.8XqX",
"qXqXqXqXqXqXqXqXqXqXqXqXqXqXqXqXqXqX-X- v b n n n b < F.>.3.i.i.i.i.3.$.&.*.F 8Xz.[ [ +.7XeXqX",
"qXqXqXqXqXqXqXqXqXqXqXqXqXqXqXqXqXqXwXg.b.Z c b n v 5 N.P.U y.i.i.i.i.3.$.#.E eXwX%X{.wXqXqXqX",
"qXqXqXqXqXqXqXqXqXqXqXqXqXqXqXqXqXqXqX6XL.U.j.D v # ; i s s 5.i.i.i.i.i.o.B =XeXeXeXeXqXqXqXqX",
"qXqXqXeXqXqXqXqXqXqXqXqXqXqXqXqXqXqXqXeX8XL.>X5X2XL.3 - : R.5 2.i.i.i.i.y.& =XeXqXqXqXqXqXqXqX",
"qXqXqXqXqXqXqXqXqXqXqXqXqXqXqXqXqXqXqXqXeX6Xg.n.>X5X5X|.; o . & y.i.i.i.i.A -XeXqXqXqXqXqXqXqX",
"qXqXqXqXqXqXqXqXqXqXqXqXqXqXqXqXqXqXqXqXqXqXwX%XW s.F.L.s.4 Q 4 K i.i.i.i.P -XeXeXqXqXqXqXqXqX",
"qXqXqXqXqXqXqXqXqXqXqXeXqXqXeXeXeXqXeXeXeXeXeXqX:XW.,XF.F.|.H.H./ } i.i.i._ {.6X6XqXeXqXqXqXqX",
"qXqXqXqXqXqXqXqXqXqXqXqXeXeX*XK.[.8XK.L.{.l.x.;Xh.I. XY. XF.m.,XH., ` i.i.3.S K D z.6XqXqXqXqX",
"qXqXqXqXqXqXqXqXqXqXqXwXJ.v.H.1X2 3 5 m.U.4 > | , Y.V.; M.3 m.U.yXF.< } i.y. .i.u...I c.qXqXqX",
"qXqXqXqXqXqXqXqXqXqXwX&Xn.H.}.1XD D | R V.yXtXD. XfX5       ; tXsXaX,Xb.3.y.i.i.i.i.y.C =XeXqX",
"qXqXqXqXqXqXqXqXqXqXJ.s.H.5X/ | t.y.y.1 i f W.dXdXaX3 O X . m.yXtXfXdXaX>.& 3.y.i.i.i.G &XeXqX",
"qXqXqXqXqXqXqXqXqXeXG.>Xb./ X.i.i.i.w.q t r 5 +XaXtXm.;.q.W.sXI.W.uX,XyXn.d.z.! [ ` ] Y 8XqXqX",
"qXqXqXqXqXqXqXqXqXeXk.< , 2.i.y.i.i.3.> : 1 [ | <.P.W.I.Y.sXfXuXtXE P ^ F T -X7X&Xz.&XwXqXqXqX",
"qXqXqXqXqXqXqXqXeX9X2 % A _  .r.i.i._ H r.u.i.3.H D s.B.U.U.Y.m.D  .i.i.y...S l.wXqXqXqXqXqXqX",
"qXqXqXqXqXqXqX3XG.2 * 3.2.o.{ o.[ P F P i.i.i.i.w./ 1X2X2X>XQ S H ` u.i.i.i.i.] k.wXqXqXqXqXqX",
"qXqXqXqXeX6Xc./ :.4.:.F = 5.8.8.p.~._.4. ... .e.` E >X5X5XiXiXB.V A v J  .t.y.y.G c.eXqXqXqXqX",
"qXqXeXeX:X4 8._.oXoXoX~.8.p.'.oXoXoX~.^ S ^ ~ F , H.2X<XiXiX2X! e.2.L _ _ A ) y.t.I -XeXqXqXqX",
"qXqXqXwXf.0.oXoXoXoXoXoX'._.'.oXoX^.:.9.`.'.oX'.Q./ >XiXiXiXA. .i.i.i.i.i... .i.i._ d.eXqXqXqX",
"qXqXeX;X/ oXoXoXoXoXoX'.oXoXoXoX~.4.~.oXoX'.oXoXoXC., H.iXiX/ t.i.i.i.i.i.i.t.i.i.w.l.qXqXqXqX",
"qXeXeXK.p.oXoXoXoXoX(.(.oX(.,.,.6.!.oXoXoXoXoX'.oX'.U D |.5XU t.i.i.i.i.i.i.i.i.i.` l.eXqXqXqX",
"eX8X*Xs.Q.oXoXoX_.oX9.p.oX<.h i 4 ~.oXoXoXoXoXoXoXoX8._ | ( S y.i.i.i.i.i.i.i..._ U l.eXqXqXqX",
"3Xf i ; 7.C.!.(._.0.:.).~.p z g a d M.S.'.'.oX!.(.oX9.] i. .A y.i.i.i.i.i.e.X.P D C.B.qXqXqXqX",
"T.h z i a k a d ,.8.6.oXp.p z l z x l p Z.).C.4.`.oXQ.U { t.G t.i.i.i.i.i.X.0.C.C.6.=XqXqXqXqX",
"T.j z l j l z x h 5 >.oX(.0 e e 8 r l z p 6.S Q.oXoXoX`.4._ )  .i.e...y.e.P 9.^.6.:XqXqXqXqXqX",
"E.p r 8 8 6 e g z + :.'.oX>.7 u u r 6 t j : 8.oXoXoXoXoX'.5.G H y.t.) V A > E B.=XqXqXqXqXqXqX",
"qXE.+ r y u y 7 7 ; E '.oX`.E 6 y u y 7 a : ^.oXoXoXoXoXoX_.~ V H o.J > k.;X;X0XqXqXqXqXqXqXqX",
"qXqXE.: 9 7 7 i 4 d.< Z.9.).`.8.q 9 8 + : 7.oXoX'.oXoXoXoXoX_.^ G ` ) z.qXeXeXqXqXqXqXqXqXqXqX",
"qXqXeXqX-XK.K.7X6XU L D D.D.S.).`.C.7.6.Q.oXoXoXoXoXoXoX'.oXoX(.U ..v v.eXqXqXqXqXqXqXqXqXqXqX",
"qXqXqXqXqXeXeXqXl.3.y.A 7.#X]./.Z.~.^.~.(.(.oXoXoXoXoXoXoX'.oXoX0.G v v.eXqXqXqXqXqXqXqXqXqXqX",
"qXqXqXqXqXqXqXqXO.r.i.w.U .X#X#X.X.X].].S.Z.!.oXoX'.oX'.oXoXoXoX6.& _ x.0XqXqXqXqXqXqXqXqXqXqX",
"qXqXqXqXqXqXeX3X! i.i.i.3.4.].#X#X#X#X#X#X.XZ.`.oXoXoXoXoXoX_.8.J ` H U 7XeXqXqXqXqXqXqXqXqXqX",
"qXqXqXqXqXqXeXJ.& i.i.i.i...| /.$X#X#X#X#X#X].C.oXoXoXoX_.Q.U ] y.y.G { G.eXqXqXqXqXqXqXqXqXqX",
"qXqXqXqXqXqXeX%XS i.i.i.i.i.t.[ ~ Z..X$X@X#X@X/.Q.`.Q.8.U J ..i.i.i._ ) Z 8XqXqXqXqXqXqXqXqXqX",
"qXqXqXqXqXqXqXqX+.i.i.i.i.i.i.i.e.} | ~ 6.A.Z.>.S S K { w.i.i.i.i.i...) C 6XeXqXqXqXqXqXqXqXqX",
"qXqXqXqXeXqXqXqXO.u.i.i.i.i.i.i.i.i.y.e... . .} ..t.i.i.i.i.i.i.i.i.t. .P 6XeXqXqXqXqXqXqXqXqX",
"qXqXqXqXqXqXqXqXY  .i.i.i.i.i.i.i.i.i.i.i.i.i.i.i.i.i.i.i.i.i.i.i.i.i.i.I 6XqXqXqXqXqXqXqXqXqX",
"qXqXqXqXqXqXqXeX{.) i.i.i.i.y.i.i.i.i.i.i.i.i.i.i.i.i.i.i.i.i.i.i.i.i.i.K 4XqXqXqXqXqXqXqXqXqX",
"qXqXqXqXqXqXqXqX4XZ t.i.i.y.i.i.i.i.i.i.i.i.i.i.i.i.i.i.i.i.i.i.i.i.i.u.< ;XeXqXqXqXqXqXqXqXqX",
"qXqXqXqXqXqXqXqXqXx.{ i.i.i.i.i.i.i.i.i.i.i.i.i.i.i.i.i.i.i.i.i.i.i.i.o.W 0XeXqXqXqXqXqXqXqXqX",
"qXqXqXqXqXqXqXqXqX4X> e.i.i.i.i.i.i.i.i.i.i.i.i.i.i.i.i.i.i.i.i.i.i.y.C %XqXqXqXqXqXqXqXqXqXqX",
"qXqXqXqXqXqXqXqXqXqXJ.C e.i.i.i.i.i.i.i.i.i.i.i.i.i.i.i.y.i.i.i.i.i.G Y 0XqXqXqXqXqXqXqXqXqXqX",
"qXqXqXqXqXqXqXqXqXqXqXJ.> ..i.i.i.i.i.i.i.i.i.i.i.i.i.i.i.i.i.i.u.) W 9XqXqXqXqXqXqXqXqXqXqXqX",
"qXqXqXqXqXqXeXqXqXqXqXqX4Xx.H w.i.i.i.i.i.i.i.u.i.i.i.i.i.i.e.` D &X0XqXqXqXqXqXqXqXqXqXqXqXqX",
"qXqXqXqXqXqXqXqXqXqXqXqXeX9XK.! H ..t.i.i.i.i.i.i.i.i.w.` H Z d.:XqXqXqXqXqXqXqXqXqXqXqXqXqXqX",
"qXqXqXqXqXqXqXqXqXqXqXqXqXqXqX9X[.l.Z ! L G J H K | ! , k.{.wXqXqXqXqXqXqXqXqXqXqXqXqXqXqXqXqX",
"qXqXqXqXqXqXqXqXqXqXqXqXqXqXqXqXqXqX9X9Xc.d.g.g.k.9X7X9XqXqXqXqXqXqXqXqXqXqXqXqXqXqXqXqXqXqXqX"
};
