/* XPM */
static char *bala_inimigo_115[] = {
/* columns rows colors chars-per-pixel */
"20 20 212 2 ",
"   c #E72500",
".  c #E52A02",
"X  c #EF2902",
"o  c #EE2D03",
"O  c #E33A03",
"+  c #E23F03",
"@  c #F93003",
"#  c #F33B03",
"$  c #F53E02",
"%  c #F03308",
"&  c #F13B10",
"*  c #DB5805",
"=  c #E24506",
"-  c #EE4205",
";  c #E8430C",
":  c #EF430C",
">  c #E94908",
",  c #EC4E09",
"<  c #ED4F0E",
"1  c #F24207",
"2  c #F14705",
"3  c #F84E07",
"4  c #F6450B",
"5  c #F7410E",
"6  c #F24C09",
"7  c #F94D0E",
"8  c #EC5407",
"9  c #E65804",
"0  c #ED5D02",
"q  c #EB570E",
"w  c #E65C08",
"e  c #E85D08",
"r  c #EC5D08",
"t  c #F35107",
"y  c #F15F02",
"u  c #F7500B",
"i  c #F15509",
"p  c #F4580B",
"a  c #EB4D11",
"s  c #F74915",
"d  c #F94A18",
"f  c #F55414",
"g  c #F75914",
"h  c #F55A15",
"j  c #F85A12",
"k  c #DD670D",
"l  c #DC7D07",
"z  c #E96403",
"x  c #EC6606",
"c  c #EE6907",
"v  c #EB6F05",
"b  c #E16409",
"n  c #E7640B",
"m  c #EB6309",
"M  c #EE6608",
"N  c #EC670C",
"B  c #E76B0B",
"V  c #E96C08",
"C  c #EA6B0E",
"Z  c #EF6D0D",
"A  c #F66F03",
"S  c #F06309",
"D  c #F96D09",
"F  c #E57205",
"G  c #ED7204",
"H  c #EA710B",
"J  c #EB790A",
"K  c #ED7F09",
"L  c #EE7F0C",
"P  c #F47203",
"I  c #F07306",
"U  c #F47304",
"Y  c #F27009",
"T  c #F47209",
"R  c #F9770C",
"E  c #F0780E",
"W  c #F77D0F",
"Q  c #F26711",
"!  c #FB6711",
"~  c #F86716",
"^  c #FA6E14",
"/  c #E27B11",
"(  c #E67B14",
")  c #EF7A12",
"_  c #F97316",
"`  c #F87C13",
"'  c #F87F16",
"]  c #F97F17",
"[  c #FC721D",
"{  c #F47F1D",
"}  c #E55F27",
"|  c #EA5E22",
" . c #D36A3B",
".. c #FC6721",
"X. c #FD6C24",
"o. c #FE6F25",
"O. c #FC7C22",
"+. c #E2663C",
"@. c #EB6B43",
"#. c #E66F49",
"$. c #ED7C41",
"%. c #E47A56",
"&. c #DA8B06",
"*. c #E88209",
"=. c #E08C08",
"-. c #E78D0A",
";. c #F5820F",
":. c #FC8B0F",
">. c #EB9C0F",
",. c #F99C0A",
"<. c #EF8515",
"1. c #E78812",
"2. c #F38E17",
"3. c #F88318",
"4. c #FB8218",
"5. c #FF8419",
"6. c #F8881A",
"7. c #EB9317",
"8. c #EB9915",
"9. c #EF9A15",
"0. c #EB9F15",
"q. c #EF981B",
"w. c #ED9E1C",
"e. c #F29F12",
"r. c #FB9D12",
"t. c #FD961A",
"y. c #FA901C",
"u. c #F9921F",
"i. c #F59D1B",
"p. c #FA991B",
"a. c #E8A30C",
"s. c #F4A715",
"d. c #FDA114",
"f. c #F0A019",
"g. c #FAA21E",
"h. c #F7AC1E",
"j. c #F3B31D",
"k. c #FFB619",
"l. c #D59539",
"z. c #F99625",
"x. c #E18F36",
"c. c #EC8B34",
"v. c #F0A123",
"b. c #EDB524",
"n. c #FFBC22",
"m. c #FDB92B",
"M. c #E7A735",
"N. c #E9AA3B",
"B. c #F7C017",
"V. c #FFC01B",
"C. c #CE855A",
"Z. c #DA8957",
"A. c #DC8B5F",
"S. c #D79B5A",
"D. c #E4825B",
"F. c #E08858",
"G. c #CC8269",
"H. c #D4956F",
"J. c #CE887B",
"K. c #CC8E7B",
"L. c #E49264",
"P. c #D9A666",
"I. c #DEAD6B",
"U. c #DDD064",
"Y. c #BFB2A6",
"T. c #CE9C81",
"R. c #CBBF88",
"E. c #C4B0A4",
"W. c #C5B9A7",
"Q. c #C2B5AE",
"!. c #C0B8AD",
"~. c #BACCB5",
"^. c #BCDEB8",
"/. c #D6C893",
"(. c #C1CDA9",
"). c #C7CFAB",
"_. c #CAC8A8",
"`. c #C6D1A8",
"'. c #C1D5A8",
"]. c #C2DCAC",
"[. c #C4CAB6",
"{. c #C3D3B3",
"}. c #C2E0B5",
"|. c #BDDEC0",
" X c #B9D6CE",
".X c #BAD7CF",
"XX c #B9DBD0",
"oX c #BEE1CA",
"OX c #B9E5DD",
"+X c #B5ECE6",
"@X c #B8EEE6",
"#X c #AFF0E9",
"$X c #B3F5EC",
"%X c #B3F6EE",
"&X c #AFFAF9",
"*X c #AFFDFD",
"=X c #AFFEFD",
"-X c #ADFFFF",
";X c #AEFFFF",
":X c #AFFFFF",
">X c #B1F6F5",
",X c #B1F7F5",
"<X c #B0F7F7",
"1X c #B1F7F7",
"2X c #B1F9F7",
"3X c #B0FAF7",
"4X c #B0FBF8",
"5X c #B0FAF9",
"6X c #B0FAFA",
"7X c #B0FBFA",
"8X c #C0D6C7",
"9X c #C2DBC0",
/* pixels */
":X:X:X:X:X:X:X:X:X:X:X:X:X:X:X:X:X:X:X:X",
":X:X:X:X:X:X:X:X:X:X:X:X:X:X:X:X:X:X:X:X",
":X:X:X:X:X:X:X3X{.(.)._. X:X:X:X:X:X:X:X",
":X:X:X:X:X:X$X/.z.K G y | W.E.:X:X:X:X:X",
":X:X:X:X:X^.M.v.q.2.) 4._ < #.+X:X:X:X:X",
":X:X:X:X%XU.V.0.-.J C N 9 = s D.OX1X:X:X",
":X:X:X9Xx.b.B.&.s.K H c r , 1 d @. X:X:X",
":X:XoXc.* f.a.>.n.,.t.6.m ~ < # %.&X:X:X",
":X:X`.G b 7.s.,.k.F n 4.M [ q - % J.6X:X",
":X7X'.*.k ( u.P r.V = g h X.X.j +.Q.1X:X",
":X:X].&./ 3.N 0 :.R 6 . & 5 1 3 A.:X:X:X",
":X:X].w.9.p.v z U D 7   o @ X $ Z.<X:X:X",
":X:X&X/.1.i.l <.T 9 ! t p 2 4 7 $.XX:X:X",
":X:X&X#Xl.m.j.9.Y 8 ^ 5.] Q > O H.:X:X:X",
":X:X-X-X|.N.h.g.B e Z ;.6.O...L.+X:X:X:X",
":X-X-X-X:X~.S.A E W ` { N i f [.:X:X:X:X",
":X:X:X:X:XY.G.C.I.P. .; Z.} T.&X:X:X:X:X",
":X:X:X:X:X:X:X-X-X-XY.K.*XXX>X:X:X:X:X:X",
":X:X:X:X:X:X:X:X:X:X>X>X:X:X:X:X:X:X:X:X",
":X:X:X:X:X:X:X:X:X:X:X:X:X:X:X:X:X:X:X:X"
};
