/* XPM */
static char *bala_115[] = {
/* columns rows colors chars-per-pixel */
"17 16 97 2 ",
"   c #12110F",
".  c #121210",
"X  c #131312",
"o  c #191816",
"O  c #20201E",
"+  c #21211F",
"@  c #22211F",
"#  c #1E2120",
"$  c #222220",
"%  c #232321",
"&  c #242422",
"*  c #252523",
"=  c #272524",
"-  c #262624",
";  c #272624",
":  c #252826",
">  c #282826",
",  c #292927",
"<  c #262A28",
"1  c #262B29",
"2  c #2D2C2A",
"3  c #2E2D2C",
"4  c #312F2E",
"5  c #322F2E",
"6  c #31302E",
"7  c #293230",
"8  c #353432",
"9  c #373533",
"0  c #383634",
"q  c #393735",
"w  c #313F3E",
"e  c #3C3A38",
"r  c #3C3A39",
"t  c #3D3B39",
"y  c #403D3B",
"u  c #413E3C",
"i  c #42403E",
"p  c #44413F",
"a  c #334140",
"s  c #394C4C",
"d  c #474442",
"f  c #494543",
"g  c #4A4C4B",
"h  c #524E4D",
"j  c #54504F",
"k  c #575150",
"l  c #5A5554",
"z  c #5B5655",
"x  c #5D5756",
"c  c #5E5957",
"v  c #565B5A",
"b  c #5F5958",
"n  c #5B6B6B",
"m  c #636060",
"M  c #6A6261",
"N  c #696362",
"B  c #6C6564",
"V  c #6F6867",
"C  c #6F6B6A",
"Z  c #706968",
"A  c #776F6E",
"S  c #77706F",
"D  c #78706F",
"F  c #797271",
"G  c #7C7473",
"H  c #827878",
"J  c #827A79",
"K  c #867E7D",
"L  c #70A1A0",
"P  c #75A8A7",
"I  c #78A9A8",
"U  c #79ABAA",
"Y  c #7DB4B4",
"T  c #868180",
"R  c #8F8584",
"E  c #918787",
"W  c #938989",
"Q  c #958B8A",
"!  c #958B8B",
"~  c #A19595",
"^  c #A59999",
"/  c #A89C9C",
"(  c #AC9F9F",
")  c #80B1B0",
"_  c #81B4B3",
"`  c #86B5B4",
"'  c #82B9B9",
"]  c #83BCBC",
"[  c #8AC2C2",
"{  c #93C3C2",
"}  c #A6F0F0",
"|  c #A7F0F0",
" . c #A9F7F7",
".. c #ACFAFA",
"X. c #ADFAFA",
"o. c #AEFEFE",
"O. c #AFFFFF",
/* pixels */
"O.O.O...Y P 7 o * 4 v { ' ..O.O.O.",
"O.O. .L # @ * q h N G H m `  .O.O.",
"O.| s < @ % > u x D E ^ ~ T n } O.",
"O.P : @ & % > i b F ! ( / R C _ O.",
"] < @ % % % * t k Z K ! W H N g [ ",
"U @ % % % % & 4 f b B D A B l y Y ",
"w % % % % % % * 9 f h x l h p 4 a ",
"  % % % % % % % * 3 q t t 9 2 *   ",
"  % % % % % % % % * * * ; * % %   ",
"w % % % % % % % % % % % % % % % w ",
"U @ % % % % % % % % % % % % % @ U ",
"] < @ % % % % % % % % % % % @ < ] ",
"O.P : @ % % % % % % % % % @ * P O.",
"O.} s < @ % % % % % % % @ < s | O.",
"O.O. .L # @ % % % % * @ # L  .O.O.",
"O.O.O...Y P 7 . . . 7 P Y ..O.O.O."
};
