/* XPM */
static char *hearth2_115[] = {
/* columns rows colors chars-per-pixel */
"60 52 117 2 ",
"   c #040303",
".  c #0C0202",
"X  c #050909",
"o  c #0B0A0A",
"O  c #130000",
"+  c #1B0000",
"@  c #0D1212",
"#  c #121313",
"$  c #141C1C",
"%  c #240000",
"&  c #2C0000",
"*  c #330000",
"=  c #3C0101",
"-  c #172323",
";  c #182424",
":  c #1D2828",
">  c #212C2C",
",  c #263333",
"<  c #283434",
"1  c #2D3D3D",
"2  c #440000",
"3  c #4B0000",
"4  c #550000",
"5  c #5C0000",
"6  c #650000",
"7  c #6D0000",
"8  c #730000",
"9  c #7B0000",
"0  c #2E4040",
"q  c #324444",
"w  c #364B4B",
"e  c #394B4B",
"r  c #3E5454",
"t  c #3E5858",
"y  c #435D5D",
"u  c #456161",
"i  c #4B6666",
"p  c #4E6B6B",
"a  c #526D6D",
"s  c #577272",
"d  c #597575",
"f  c #5B7D7D",
"g  c #840000",
"h  c #8C0000",
"j  c #920000",
"k  c #9C0000",
"l  c #A40000",
"z  c #AD0000",
"x  c #B40000",
"c  c #BC0000",
"v  c #C60000",
"b  c #CC0000",
"n  c #D60000",
"m  c #DB0000",
"M  c #DB1616",
"N  c #D41E1E",
"B  c #E50000",
"V  c #EB0000",
"C  c #F50101",
"Z  c #FB0000",
"A  c #F70D0D",
"S  c #FD0A0A",
"D  c #FA1515",
"F  c #FB1B1B",
"G  c #FB2727",
"H  c #FD2A2A",
"J  c #FC3030",
"K  c #FA4747",
"L  c #FB4B4B",
"P  c #FC5252",
"I  c #FD6565",
"U  c #FB6D6D",
"Y  c #FC7777",
"T  c #5E8383",
"R  c #628585",
"E  c #658B8B",
"W  c #6D9292",
"Q  c #739E9E",
"!  c #76A1A1",
"~  c #78A3A3",
"^  c #7CACAC",
"/  c #7EB2B2",
"(  c #80ABAB",
")  c #83B3B3",
"_  c #83BEBE",
"`  c #8ABEBE",
"'  c #FD8C8C",
"]  c #FC9292",
"[  c #FD9B9B",
"{  c #FBA3A3",
"}  c #F6AEAE",
"|  c #FBB7B7",
" . c #87C1C1",
".. c #8AC6C6",
"X. c #8FCACA",
"o. c #90C4C4",
"O. c #91CCCC",
"+. c #96D1D1",
"@. c #97D9D9",
"#. c #9ADCDC",
"$. c #A0DEDE",
"%. c #9EE2E2",
"&. c #A1E3E3",
"*. c #A3EBEB",
"=. c #A7F2F2",
"-. c #AAF4F4",
";. c #AFFFFF",
":. c #B1FFFF",
">. c #FAC4C4",
",. c #FDCBCB",
"<. c #FED1D1",
"1. c #FDDADA",
"2. c #F6E5E5",
"3. c #F6E8E8",
"4. c #FEECEC",
"5. c #FDF3F3",
"6. c #FDFBFB",
/* pixels */
";.;.;.;.;.;.;.;.;.;.;.;.;.;.;.;.;.;.;.;.;.;.;.;.;.;.;.;.;.;.;.;.;.;.;.;.;.;.;.;.;.;.;.;.;.;.;.;.;.;.;.;.;.;.;.;.;.;.;.;.",
";.;.;.;.;.;.;.;.;.;.;.;.;.;.;.;.;.;.;.;.;.;.;.;.;.;.;.;.;.;.;.;.;.;.;.;.;.;.;.;.;.;.;.;.;.;.;.;.;.;.;.;.;.;.;.;.;.;.;.;.",
";.;.;.;.;.;.;.;.;.;.;.;.;.;.;.;.;.;.;.;.;.;.;.;.;.;.;.;.;.;.;.;.;.;.;.;.;.;.;.;.;.;.;.;.;.;.;.;.;.;.;.;.;.;.;.;.;.;.;.;.",
";.;.;.;.;.;.;.;.;.;.;.;.;.;.;.;.;.;.;.;.;.;.;.;.;.;.;.;.;.;.;.;.;.;.;.;.;.;.;.;.;.;.;.;.;.;.;.;.;.;.;.;.;.;.;.;.;.;.;.;.",
";.;.;.;.;.;.;.;.;.;.;.;.;.;.;.;.;.;.;.;.;.;.;.;.;.;.;.;.;.;.;.;.;.;.;.;.;.;.;.;.;.:.;.;.;.;.;.;.;.;.;.;.;.;.;.;.;.;.;.;.",
";.;.;.;.;.;.;.;.;.;.;.;.;.;.;.;.;.;.;.;.;.;.:.;.;.;.;.;.;.;.;.;.;.;.;.;.;.;.;.;.;.;.;.;.;.;.;.;.;.;.;.;.;.;.;.;.;.;.;.;.",
";.;.;.;.;.;.;.;.;.;.;.;.;.;.;.;.;.;.;.;.;.;.;.;.;.;.;.;.;.;.;.;.;.;.;.;.;.;.;.;.;.;.;.;.;.;.;.;.;.;.;.;.;.;.;.;.;.;.;.;.",
";.;.;.;.;.;.;.;.;.;.;.;.;.;.;.;.;.;.;.;.;.;.;.;.;.;.;.;.;.;.;.;.;.;.;.;.;.;.;.;.;.;.;.;.;.;.;.;.;.;.;.;.;.;.;.;.;.;.;.;.",
";.;.;.;.;.;.;.;.;.;.;.;.;.;.;.;.;.;.:.:.;.;.;.:.;.;.;.;.;.;.;.;.;.;.;.;.;.;.;.;.;.;.;.:.;.;.;.;.;.;.;.;.;.;.;.;.;.;.;.;.",
":.;.;.;.;.;.;.;.;.;.;.;.;.;.;.;.;.;.:.:.;.;.;.:.;.;.;.;.;.;.;.;.;.;.;.;.;.;.;.:.;.;.;.:.;.;.;.;.;.;.;.;.;.;.;.;.;.;.;.;.",
";.;.;.;.;.;.;.;.;.;.;.;.;.;.;.;.;.;.:.:.:.:.:.:.:.:.:.;.;.;.;.;.;.;.:.:.:.:.:.:.:.:.:.:.;.;.;.;.;.;.;.;.;.;.;.;.;.;.;.;.",
";.;.;.;.;.:.;.;.;.;.;.;.;.;.;.;.;.;.O.( ) ) ) ) ) ( +.;.;.;.;.;.;.;.-._ ) ) ) ) ) ) ) %.:.;.;.;.;.;.;.;.;.;.;.;.;.;.;.;.",
";.;.;.;.;.;.;.;.;.;.;.;.;.;.;.:.;.-.i @ @ o # @ # o i -.:.:.;.;.;.:.@.< o # # # o @ # ~ ;.;.-.;.;.;.;.;.;.;.;.;.;.;.;.;.",
";.;.;.;.;.;.;.;.;.;.;.;.;.:.%.T i i : O 9 j j j 9 O : a ..:.;.;.-.! y o * h j j j 5   q s i ! ;.:.;.;.;.;.;.;.;.;.;.;.;.",
";.;.;.;.;.;.;.;.;.;.;.;.;.:.@.; . + + = M F F S m = .   E *.-.-.#.t   + 8 C Z Z Z l % + O   y :.;.;.;.;.;.;.;.;.;.;.;.;.",
";.;.;.;.;.;.;.;.;.;.;.;.;.:.@.; 3 b b N } <.,.P C n 9   - w %.) , @ + z m Z Z Z Z B b b x + u -.:.;.;.;.;.;.;.;.;.;.;.;.",
";.;.;.;.;.;.;.;.;.;.;.;.:.+.Q $ 5 C H I 2.3.| L Z Z c 3 + ; #.Q . & 6 m Z Z Z Z Z Z Z Z m % q ) &.:.;.;.;.;.;.;.;.;.;.;.",
";.;.;.;.;.;.;.;.;.;.;.;.-.i X   6 A ] 5.6.{ D Z Z Z C B 4 ; #.! o j C C Z Z Z Z Z Z Z Z m %   $ ! :.;.;.;.;.;.;.;.;.;.;.",
";.;.;.;.;.;.;.;.;.;.;.;.;.y O 8 x A [ 4.' L C Z Z Z b 8 & ; #.! . k Z Z Z Z Z Z Z Z Z Z V l 4 o Q :.;.;.;.;.;.;.;.;.;.;.",
";.;.;.;.;.;.;.;.;.;.:.:.-.y % m S F { 1.H Z Z Z Z Z k . o , O.W . l Z Z Z Z Z Z Z Z Z Z Z Z k o Q :.;.;.;.;.;.:.;.;.;.;.",
";.;.;.;.;.;.;.;.;.;.;.;.;.y % n L >.4.1.G C Z Z Z Z k O f ) e ;   k Z Z Z Z Z Z Z Z Z Z Z Z l o Q :.:.;.;.;.;.;.;.;.;.;.",
";.;.;.;.;.;.;.;.;.;.;.:.-.u % n I 6.1.{ F Z Z Z Z Z k o ! #.; + 3 x Z Z Z Z C Z Z Z Z Z Z Z k . Q :.;.;.;.;.;.;.;.;.;.;.",
";.;.;.;.;.;.;.;.;.;.;.;.;.y % n I 5.U A C Z Z Z Z Z k . ! #.; 4 B C Z Z Z Z Z Z Z Z Z Z Z Z k o Q :.;.;.;.;.;.;.;.;.;.;.",
";.;.;.;.;.;.;.;.;.;.;.;.-.y % m H Y J Z Z Z Z Z Z Z k . ! #.; 5 C Z C Z Z Z Z Z Z Z Z Z C Z l o Q :.;.;.;.;.;.;.;.;.;.;.",
";.;.;.;.;.;.;.;.;.;.;.;.-.u % v C Z Z Z Z Z Z Z Z V h . ! #.; 5 C Z Z Z Z Z Z Z Z Z C Z Z B h . Q :.;.;.;.;.;.;.;.;.;.;.",
";.;.;.;.;.;.;.;.;.;.;.;.-.y   * g Z Z Z Z Z Z Z m 5 %   Q #.; 6 C Z Z Z Z Z C Z Z Z Z Z B 5 % X Q :.;.;.;.;.;.;.;.;.;.;.",
";.;.;.;.;.;.;.:.;.;.;.;.;.R ,   2 c B Z Z Z Z Z m % $ 1 W ~ $ 5 C Z Z Z Z Z Z Z Z Z Z n l + @ q ) :.;.;.;.;.;.;.;.;.;.;.",
";.;.;.;.;.;.;.;.;.;.;.;.;.=...-   % l Z Z Z Z Z n % t #.i @   5 Z Z Z Z Z Z C Z Z Z C 7 O   y %.-.;.;.;.;.;.;.;.;.;.;.;.",
";.;.;.;.;.;.;.;.;.;.;.;.;.:.*.E e . 3 k B Z Z Z n % u -.^ i @ * g g j B Z Z Z Z Z n g * o i ^ ;.:.;.;.;.;.;.;.;.;.;.;.;.",
";.;.;.;.;.;.;.;.;.;.;.;.;.;.;.:.! # X % v C Z Z n % y &.*.O., @ # X & n Z Z Z C V j . o < @.;.;.;.;.;.;.;.;.;.;.;.;.;.;.",
";.;.;.;.;.;.;.;.;.;.;.;.;.;.;.:.&.) q . * g Z Z n % @ 0 1 r ^ ` ) w % n Z Z Z B 5 %   s O.-.;.;.;.;.;.;.;.;.;.;.;.;.;.;.",
";.;.;.;.;.;.;.;.;.;.;.;.;.;.:.:.:.:.T > X 3 c B B 4 = * O $ ^ $.-.u % m Z Z m l + $ 1 ) :.;.;.;.;.;.;.;.;.;.;.;.;.;.;.;.",
";.;.;.;.;.;.;.;.;.;.;.;.;.;.;.;.;.;.=...-   + l Z B B B 5   @ a =.u % n Z C 7 .   t %.-.:.;.;.;.;.;.:.;.;.;.;.;.;.;.;.;.",
";.;.;.;.;.;.;.;.;.;.;.;.;.;.;.;.;.;.:.*.E q   5 l V n j * o u f E < % n n h * @ u ~ -.;.;.;.;.;.;.;.;.;.;.;.;.;.;.;.;.;.",
";.;.;.;.;.;.;.;.;.;.;.;.;.:.;.;.;.;.;.;.:.! # X & b j . o > O.W .   & b k . X , @.:.;.;.;.;.;.;.;.;.;.;.;.;.;.;.;.;.;.;.",
";.;.;.;.;.;.;.;.;.;.;.;.;.;.;.;.;.;.;.;.;.&.) q . = & . d ^ y >   8 z 5 & X s o.-.;.;.;.;.;.:.;.;.;.;.;.;.;.;.;.;.;.;.;.",
";.;.;.;.;.;.;.;.;.;.;.;.;.;.;.;.;.;.;.;.;.:.-.T ; X     T / $ . * j x + @ < ) :.;.;.;.;.;.;.;.;.;.;.;.;.;.;.;.;.;.;.;.;.",
";.;.;.;.;.;.;.;.;.;.;.;.;.;.;.;.;.;.;.;.;.:.;.*._ ;     @ @   5 m 7 O   t #.-.;.;.;.;.;.;.;.;.;.;.;.;.;.;.;.;.;.;.;.;.;.",
";.;.;.;.;.;.;.;.;.;.;.;.;.;.;.;.;.;.;.;.;.;.:.:.&.T q X   . 5 9 h * o y ! -.:.;.;.;.;.;.;.;.;.;.;.;.;.;.;.;.;.;.;.;.;.;.",
";.;.;.;.;.;.;.;.;.;.;.;.;.;.;.;.;.;.;.;.;.;.;.;.:.:.! #   % b j   X < @.;.;.;.;.;.;.;.;.;.;.;.;.;.;.;.;.;.;.;.;.;.;.;.;.",
";.;.;.;.;.;.;.;.;.;.;.;.;.;.;.;.;.;.;.;.;.;.;.;.;.:.&.) q . = & . a  .=.;.;.;.;.;.;.;.;.;.;.;.;.;.;.;.;.;.;.;.;.;.;.;.;.",
";.;.;.;.;.;.;.;.;.;.;.;.;.;.;.;.;.;.;.;.;.;.;.;.;.;.:.-.d ; X @ < ) :.;.;.;.;.;.;.;.;.;.;.;.;.;.;.;.;.;.;.;.;.;.;.;.;.;.",
";.;.;.;.;.;.;.;.;.;.;.;.;.;.;.;.;.;.;.;.;.;.;.;.;.;.;.;.*._ - r #.=.;.;.;.;.;.;.;.;.;.;.;.;.;.;.;.;.;.;.;.;.;.;.;.;.;.;.",
";.;.;.;.;.;.;.;.;.;.;.;.;.;.;.;.;.;.;.;.;.;.;.;.;.;.;.;.:.*.f ! ;.;.;.;.;.;.;.;.;.;.;.;.;.;.;.;.;.;.;.;.;.;.;.;.;.;.;.;.",
";.;.;.;.;.;.;.;.;.;.;.;.;.;.;.:.;.;.;.;.;.;.;.;.;.;.;.;.:.;.-.-.;.;.;.;.;.;.;.:.;.;.;.;.;.;.;.;.;.;.;.;.;.;.;.;.;.;.;.;.",
";.;.;.;.;.;.;.;.;.;.;.;.;.;.;.;.;.;.;.;.;.;.;.;.;.;.;.;.;.;.:.;.;.;.;.;.;.;.;.;.;.;.;.;.;.;.;.;.;.;.;.;.;.;.;.;.;.;.;.;.",
";.;.;.;.;.;.;.;.;.;.;.;.;.;.;.;.;.;.;.;.;.;.;.;.;.;.;.;.;.;.;.;.;.;.;.;.;.;.;.;.;.;.;.;.;.;.;.;.;.;.;.;.;.;.;.;.;.;.;.;.",
";.;.;.;.;.;.;.;.;.;.;.;.;.;.;.;.;.;.;.;.;.;.;.;.;.;.;.;.;.;.;.;.;.;.;.;.;.;.;.;.;.;.;.;.;.;.;.;.;.;.;.;.;.;.;.;.;.;.;.;.",
";.;.;.;.;.;.;.;.;.;.;.;.;.;.;.;.;.;.;.;.;.;.;.;.;.;.;.;.;.;.;.;.;.;.;.;.;.;.;.;.;.;.;.;.;.;.;.:.;.;.;.;.;.;.;.;.;.:.;.;.",
";.;.;.;.;.;.;.;.;.;.;.;.;.;.;.;.;.;.;.;.;.;.;.;.;.;.;.;.;.;.;.;.;.;.;.;.;.;.;.;.;.;.;.;.;.;.;.;.;.;.;.;.;.;.;.;.;.;.;.;.",
";.;.;.;.;.;.;.;.;.;.;.;.;.;.;.;.;.;.;.;.;.;.;.;.;.;.;.;.;.;.;.;.;.;.;.;.;.;.;.;.;.;.;.;.;.;.;.;.;.;.;.;.;.;.;.;.;.;.;.;.",
";.;.;.;.;.;.;.:.;.;.;.;.;.;.;.;.;.;.;.;.;.;.;.;.;.;.;.;.;.;.;.;.;.;.;.;.;.;.;.;.;.;.;.;.;.;.;.;.;.;.;.;.;.;.;.;.;.;.;.;."
};
