/* XPM */
static char *monster1_115[] = {
/* columns rows colors chars-per-pixel */
"59 69 233 2 ",
"   c #010101",
".  c #38363A",
"X  c #2B2A2F",
"o  c #261B26",
"O  c #412B38",
"+  c #59533A",
"@  c #745B30",
"#  c #78662D",
"$  c #36284D",
"%  c #44345A",
"&  c #453151",
"*  c #483766",
"=  c #523B6B",
"-  c #523B73",
";  c #553B7B",
":  c #543879",
">  c #482D73",
",  c #6C3176",
"<  c #5A1D42",
"1  c #3E4347",
"2  c #484758",
"3  c #525250",
"4  c #685751",
"5  c #69664D",
"6  c #4C476B",
"7  c #514669",
"8  c #565769",
"9  c #564676",
"0  c #565779",
"q  c #4E5269",
"w  c #66577C",
"e  c #654878",
"r  c #596576",
"t  c #5A7074",
"y  c #666B79",
"u  c #766C7B",
"i  c #69747C",
"p  c #716E6F",
"a  c #886A37",
"s  c #957732",
"d  c #906F31",
"f  c #A97D32",
"g  c #88764B",
"h  c #974276",
"j  c #897772",
"k  c #6E8570",
"l  c #99863A",
"z  c #BB8834",
"x  c #A7903B",
"c  c #CC9235",
"v  c #CB9236",
"b  c #998A4F",
"n  c #B29F44",
"m  c #A8974F",
"M  c #B9A64B",
"N  c #938D6E",
"B  c #AAA47A",
"V  c #C4AD46",
"C  c #CAB549",
"Z  c #D1BD49",
"A  c #D9C34A",
"S  c #E4CD4C",
"D  c #ECD44D",
"F  c #E7D04D",
"G  c #F0D84F",
"H  c #522B88",
"J  c #5C3E84",
"K  c #553584",
"L  c #5C329D",
"P  c #583095",
"I  c #542D8D",
"U  c #783B94",
"Y  c #733489",
"T  c #5E33A0",
"R  c #5E4285",
"E  c #5E4886",
"W  c #5D5685",
"Q  c #62448D",
"!  c #644A89",
"~  c #695787",
"^  c #654492",
"/  c #694B94",
"(  c #6A469A",
")  c #6C4A9D",
"_  c #674693",
"`  c #6B5595",
"'  c #735899",
"]  c #71558E",
"[  c #5D7685",
"{  c #5D6484",
"}  c #676988",
"|  c #746589",
" . c #647589",
".. c #77778A",
"X. c #676793",
"o. c #7A6798",
"O. c #6A7595",
"+. c #767795",
"@. c #6E4AA1",
"#. c #6F46AA",
"$. c #714BA4",
"%. c #754DAC",
"&. c #7548A5",
"*. c #7750AC",
"=. c #7855A9",
"-. c #794EB3",
";. c #7647B1",
":. c #7B52B3",
">. c #7E53B9",
",. c #7D65A1",
"<. c #6F7CA0",
"1. c #7A7FB2",
"2. c #962C9B",
"3. c #8B3095",
"4. c #A52FA9",
"5. c #B131B5",
"6. c #AC30B0",
"7. c #9F31A6",
"8. c #816C9E",
"9. c #8B7592",
"0. c #8154BD",
"q. c #836CA3",
"w. c #8165AA",
"e. c #8B74AC",
"r. c #8974A6",
"t. c #927DAD",
"y. c #937CB4",
"u. c #967EBB",
"i. c #8F77B1",
"p. c #A466BC",
"a. c #8356C3",
"s. c #8558C5",
"d. c #8759C8",
"f. c #8A5ACD",
"g. c #8D5CD3",
"h. c #8E5CD9",
"j. c #905ED7",
"k. c #67878A",
"l. c #6A8997",
"z. c #768A94",
"x. c #6D939A",
"c. c #758E90",
"v. c #7286A4",
"b. c #7396A6",
"n. c #7B9AB1",
"m. c #79A5AA",
"M. c #7CA9B3",
"N. c #7EB2B4",
"B. c #7EA99F",
"V. c #858C98",
"C. c #899399",
"Z. c #95999B",
"A. c #8C8C85",
"S. c #8B9CA4",
"D. c #8B99A9",
"F. c #969AA2",
"G. c #9984B4",
"H. c #9A81BD",
"J. c #9987B5",
"K. c #9283A4",
"L. c #A296B5",
"P. c #96A5AB",
"I. c #82A7B9",
"U. c #97AAB5",
"Y. c #86BABA",
"T. c #9DB1BB",
"R. c #83A3AC",
"E. c #A4A8AA",
"W. c #A7ADB2",
"Q. c #A7B4B7",
"!. c #B3B8BA",
"~. c #B2A3B6",
"^. c #8AAA93",
"/. c #C2BF8C",
"(. c #8EC0B8",
"). c #CECA8E",
"_. c #9D84C4",
"`. c #9E82C8",
"'. c #A086C6",
"]. c #A48ACC",
"[. c #A188C6",
"{. c #B19DCC",
"}. c #AA8ED4",
"|. c #A98ED5",
" X c #AE92DA",
".X c #AC90D7",
"XX c #B194DE",
"oX c #A895C3",
"OX c #88BBC3",
"+X c #8FADC2",
"@X c #A5BCC7",
"#X c #B9A9D2",
"$X c #B395E1",
"%X c #B698E3",
"&X c #ACBDE3",
"*X c #C1ACDE",
"=X c #C6B0E3",
"-X c #C9B2E7",
";X c #CAB3E8",
":X c #C5AFE3",
">X c #8CC8CA",
",X c #91C9CD",
"<X c #92CCD1",
"1X c #99DCDE",
"2X c #94D4D6",
"3X c #ACC5D3",
"4X c #B5C6CD",
"5X c #9CDEE2",
"6X c #BBDAE8",
"7X c #9EE3E4",
"8X c #9FE6E8",
"9X c #A3EBEB",
"0X c #A0E6E8",
"qX c #A6F1F2",
"wX c #A9F5F5",
"eX c #AFFFFF",
"rX c #AAF7F8",
"tX c #B1FFFF",
"yX c #A5F0EF",
"uX c #C3C9CC",
"iX c #CBD1D2",
"pX c #D4DBDC",
"aX c #CACCD7",
"sX c #CCDEE6",
"dX c #C1E0EF",
"fX c #DDE4E6",
"gX c #C7E9FC",
"hX c #C5E7F7",
"jX c #E1E9EA",
"kX c #EAF3F4",
"lX c #EEF7F9",
"zX c #F3FCFE",
"xX c #E6EFF1",
/* pixels */
"eXeXeXeXeXeXeXeXeXeXeXeXtXeXeXeXeXeXeXeXeXeXeXeXeXeXeXeXeXeXeXeXeXeXeXeXeXeXeXeXeXeXeXeXeXeXeXeXeXrXN.N.M.1XeXeXeXeXeX",
"eXeXeXeXeXeXeXeXeXeXeXeXeXeXeXeXeXeXeXeXeXeXeXeXeXeXeXeXeXeXeXeXeXeXeXeXeXeXeXeXeXeXeXeXeXtXrX5X .v.J R J X.b.rXtXeXeX",
"eXeXeXeXeXeXeXeXeXeXeXeXeXeXeXeXeXeXeXeXeXeXeXtXeXeXeXeXeXeXeXeXeXeXeXeXeXeXeXeXeXeXtXtXtXwXk.9 @.0.g.g.g.d.#.v.,XeXeX",
"eXeXeXeXeXeXeXeXeXeXeXeXeXeXeXeXeXeXeXeXeXeXeXeXeXtXtXtXeXeXeXeXeXeXeXeXeXeXeXeXeXeXeXtXN.O.( d.h.g.g.g.g.g.j.*.6 qXeX",
"eXeXeXeXeXeXeXeXeXeXeXeXeXeXeXeXeXeXeXeXeXeXeXeXtXqXOX<X8XeXeXeXeXeXeXeXeXeXeXeXeXeXtXM.% %.g.g.g.g.g.g.g.g.g.g.) v.eX",
"eXeXeXeXeXeXeXeXeXeXeXeXeXeXeXeXeXeXeXeXeXeXeXeXqX[ $ $ W M.rXeXeXeXeXeXeXeXeXeXeX2Xz.% U 0.f.f.g.g.g.g.g.f.g.g.0.l.eX",
"eXeXeXeXeXeXeXeXeXeXeXeXeXeXeXeXeXeXeXeXeXeXeXyX .> P L H > 0 OXtXeXeXeXtXtXeXyX,Xe 3.4.7.3.U 0.g.h.g.a.^ *.g.j.s.0 <X",
"eXeXeXtXeXeXeXeXeXeXeXeXeXeXeXeXeXeXeXeXeXeXeXM.> P L L L L I > OXtXeXtX0Xb.R.O.| p.6.5.5.5.2.3.%.g.:.X.* >.g.g.0.<.rX",
"eXeXeXeXeXeXeXeXeXeXeXeXeXeXeXeXeXeXeXeXeXeXeXM.H T L L L L L P - r  .O.0 & , 2.&X&X5.5.5.5.5.4.U >.X.>X6 >.g.g.$.l.tX",
"eXeXeXeXeXeXeXeXeXeXeXeXeXeXeXeXeXeXeXeXeXeXeX+XH L L L L L L L H $ ) 0.>.>.#.U *.u.6.5.6.5.5.5.2.$ o 9 _ ( d.f.! 9XeX",
"eXeXeXeXeXeXeXeXeXeXeXeXeXeXeXeXeXeXeXeXeXeXtXI.H L L L L L L L : V.+.-.g.g.g.g.f.0.U 2.6.5.5.5.3.{ % >.g.@.a.@.n.rXeX",
"eXeXeXeXeXeXeXeXeXtXeXeXeXeXeXeXeXeXeXeXeXeXtXb.$ K L L L L L L : u !.o.>.g.g.g.g.g.a.&.2.6.5.6., 2XOX@.f.:.( +XeXeXeX",
"eXeXeXeXeXeXeXeXeXeXeXeXeXeXeXeXeXeXeXeXeXeXtX2Xq } ; P L L L L H 3 Z.P.] s.g.g.g.g.g.f.&.2.5.2.k.tX0XI.9 <.OXeXeXeXeX",
"tXeXeXeXeXeXeXeXeXeXeXeXeXeXeXeXeXeXeXeXeXeXeXtXx.c.D.9 H I L L - B B E.A./ g.g.g.g.g.g.f.U 2.Y x.tXtXtX1XqXtXtXeXeXeX",
"eXeXeXeXeXeXeXeXtXeXeXeXeXeXeXeXeXeXeXeXeXeXeXeXyXR.@X@X+.W 9 > X + N N Z.j =.g.g.g.g.g.g.0.3.] qXtXtXtXtXeXeXeXeXeXeX",
"eXeXeXeXeXeXeXeXeXeXeXeXeXeXeXeXeXeXeXeXeXeXtXtXtXqXm.U.6X6X3XU.y & X 5 )./.u a.g.g.g.g.g.g.@.7 qXeXeXeXeXeXeXeXeXeXeX",
"eXeXeXeXeXeXeXeXeXeXtXeXeXeXeXeXeXeXeXeXeXeXeXeXeXtXwXl.z.3X6XgX6X6XU.3 + 5 X J g.g.g.g.g.h.a.6 wXtXeXeXeXeXeXeXeXeXeX",
"eXeXeXeXeXeXeXeXeXeXeXeXeXeXeXeXeXeXeXeXeXeXeXeXeXeXeXqXY.t i S.3X3XQ.i X . X & -.g.g.g.g.g.a.0 rXtXeXeXeXeXeXeXeXeXeX",
"eXeXeXeXeXeXeXeXeXeXeXeXeXeXeXeXeXeXeXeXeXeXeXeXeXeXeXtXtXqXY.8 C.Z.V.V.A.S.S.c.9 0.g.g.g.g.d.0 wXtXeXeXeXeXeXeXeXeXeX",
"eXeXeXeXeXeXeXeXeXeXeXeXeXeXeXeXeXeXtXtXtXeXtXtXtXtXtXtXtXtXwXQ.pX4XP.S.T.@X@XQ.V.~ d.g.g.g.d.~ 8X9X0XrXeXeXeXeXeXeXeX",
"eXeXeXeXeXeXeXeXeXeXeXeXeXeXtXtXtXtX,X>X,XtXwX(.Y.2X2XY.Y.rXR.C.uX!.uXuX!.Z.E.W.Q. .J f.g.j.g.Q 9 E 6 v.2XtXeXeXeXeXeX",
"eXeXeXeXeXeXtXeXeXeXeXeXeXtXtXrXqXY.S.U.t t m.p A.Z.0 $ - 1.r p iXA.i W.Z.V.E.4X4XE.8 Q d.j.g.-.$.g.d.*./ l.7XtXeXeXeX",
"eXeXeXeXeXeXeXeXeXeXeXeXeXtXtXk.i k.dXhXy 2 9.y V.iXuXK.o.' ] E.xX8 o 3 . 3 A.E.pXkXE.y ] f.g.f.d.g.g.g.g.#.0 1XeXeXeX",
"eXeXeXeXeXeXeXeXeXeXeXeXeX0Xk.b.sXU.T.@X] ) $.>.e y uXjXpXuXaXlXjX3         3 pXjXxXkXpXW.' s.j.j.g.g.g.h.g.( l.tXeXeX",
"eXeXeXeXeXeXeXeXeXeXeXeXrXk.z.S.6X@X~ =.a.g.g.s.4 g N N iXzXzXlX4X+ < O o . !.jX!.fXlXzXlXE.% Q a.g.g.g.g.h.( l.tXtXeX",
"eXeXeXeXeXeXeXeXeXeXeXeXeXc.dXP...+.>.g.g.g.j.>.g C Z b A.iXkXjXE.9.h h 9.*XlX!.Z.jXiXpXkXiXr l.X.R *.>.s.%.* Y.tXeXeX",
"eXeXeXeXeXeXeXeXeXeXeXeXrXt V.y Q s.j.g.g.g.h.*.3 a d 4 ~ 8.E.!.E.!.~.~.fXzXjXE.pXuXi | ....2 >XqX<Xm.9 0 v.2XtXeXeXeX",
"eXeXeXeXeXeXeXeXeXeXeXeXeXq * = >.s.s.d.g.g.j.*.Q ' ' :.f.-.9 w W.!.Z.Z.!.kXkXpX!.w / 0.a.0.%.W m.8XeXqXqXeXtXeXeXeXeX",
"eXeXeXeXeXeXeXeXeXeXtXtXm.$ - J @.=.>.s.g.f.0.R _ j.g.g.g.a.&.%.8 i D.4XE.E.Z.u 9 %.g.g.g.g.g.d.Q { 8XeXeXeXeXeXeXeXeX",
"eXeXtXeXeXeXeXeXeX8XM.l.$ _ a.f.>.*.:.*.@./ ! ~ / f.g.g.g.g.g.] T.dX3X@X6XP.y ~ ) %.:.f.g.g.g.h.h.$.{ 7XtXeXeXeXeXeXeX",
"eXeXeXeXeXeXeXqXm.O.w | w ~ ! Q ` o.,.,.e.u.]. X8.0.f.d.f.f.f.! D.6XdXdXdXhX6XR.7 J ; ( >.a.f.g.g.g.@.0 qXeXeXeXeXeXeX",
"eXeXeXeXeXtXOX8 q.].XX$XXX}.i.w q.}. X$X%X%X%X X8.: / ! ! / J ..T.P.T.hXgXgX6X+.@.d.) - J R ( @.:.f.g.E OXtXeXeXeXeXeX",
"eXeXeXeXeX>X8 u.XX$X$X$X$X$X$X.Xu.].$X$X$X$X Xq.| o.y.[.H.i.~ ..3XhX6XgXgXgXD.) g.f.a.d.f.d.*.J %.f.g.a.6 OXtXeXeXeXeX",
"eXeXeXeXqXz.i.%X$X$X$X$X$X$X$X%X$X$X$X$X$X|.8.q.].$X%X%X%XXXXXi...3XhXgXgX6X} a.g.g.g.g.g.g.g.0.>.f.g.g.J b.tXtXeXeXeX",
"eXeXeXtX1X~ XX$X$X$X$X$X$X$X$X$X$X$X%X%XXXr.e.XX$X$X$XXX%XXX$X$Xo.7 T.gXgX3X' f.g.g.g.g.g.g.g.g.f.g.g.g.;.M.tXeXeXeXeX",
"eXeXeXeX,Xi.%X$XXX$X$X$X$X|. X$X$X].9.u.u.q.XX$X$X$X$XXX$X$X$X$X_.9 ~ @XgX@X` g.g.g.g.g.g.g.g.g.g.g.g.g.( +XtXeXtXeXeX",
"eXtXeXrXr u.$X$X$X$X$X$X$Xy.'.%X].j n g ~ ].$X$X$X$X$X$X$X$X$X$XXX' ) ~ U.b./ g.g.g.g.g.g.g.g.g.g.f.s.:.e m.tXeXeXeXeX",
"tX9Xk B.r [.$X$X$X$XXX|.|.q._.$X9.M S n 4 t.H..X$X$X$X$X$X$XXX$XXXq.:.a.' 9 ^ g.g.g.g.g.g.g.g.g.f.*.! ' i.I.tXtXeXeXeX",
"8XN V l O 9.K.t.t.[.XX_.| o. X Xj Z S C Z C m N y. X$X$X%Xu.u.$X%Xe._ f.h.%.Q g.g.g.f.g.g.g.f.=.=.` ~ H.e.m.tXtXeXeXeX",
"(.x G V b M C C M N 9._.o._.$X Xj Z D S F G G Z m t.XX'.u.o.|.$X%XH.~ ) f.0.J f.g.g.g.g.g.g.f.,.'.H.y.H.+.5XtXtXeXeXeX",
"(.n G S D S D G G D V p | J.$XXX9.n x s s m C D S b t.8.w t.$X$XXXXX}.8./ a.Q 0.g.g.a.f.g.g.:.' `. X_.K.0XtXeXeXeXeXeX",
"(.l D V l l l x C D G n 3 H.%X$XK.4 d v v f s x S A j | r.XX$X$X%X$X%X Xo./ ) @.g.f.*.) *.0.) ~ y.r.O.5XtXeXeXeXeXeXeX",
"yX^.l s z z z f s l A l O _.XX$XXX| d v c c v s l S b 8 ].XX$X$XXX$X$X$XXXq.R R *.j.f.( - % { r [ OX9XtXeXeXeXeXeXeXeX",
"rXrXc.# z c c c v s # + q r.%XXXXX}.u a z c c v d V g ,.XXXX$X$X$X$X$X$XXXXX,.; R ) ( _ ; x.rXeXeXeXtXeXeXeXeXeXeXeXeX",
"eXeXwXc.5 a d d d g 3 m.2 w ].y.[.XX Xi.p a f f @ @ u  XXX$X$X$X$X$X$X$X$X$X Xo.Q *.%.$.b.rXeXeXeXeXeXeXeXtXeXeXeXeXeX",
"eXeXeXeXwX(.k.k c.9XwXb.) ! o.J.L.G.].XX}.t.8.u ~ q. X$X$X$X$XXX$X$X$XXX$X$X$X|.` *.s.: n.tXeXeXeXeXeXeXeXeXeXeXeXeXeX",
"eXeXeXeXeXtXeXtXeXeX7X` f.-.7 J.:X{.J.u.[.}..XXX X%X$X$X$X$X$X$X$X$X$XXX$X$X$X$XH.! >.% x.tXtXeXeXeXeXeXeXeXeXeXeXeXeX",
"eXeXeXeXeXeXeXeXeXeXl.&.j.g.^ | :X;X;X{.L.G.G.G.H.H._.].$X$X$X$X$XXX$X$X$XXX$X$X X~ _ ( m.tXtXeXeXeXeXeXeXeXeXeXeXeXeX",
"eXeXeXeXeXeXeXeXeXtXv.>.g.g.d._ G.=X-X-X-X=X*X#X{.oXL.y.].$X$X$X$X$XXX$X$XXX$X%Xu.9 ; :.{ 7XtXeXeXeXeXeXeXeXeXeXeXeXtX",
"eXeXeXeXeXeXeXeXtX0XO.a.g.g.g.s.' J.=X;X-X;X;X;X;X;X;X{.y. XXX$X$X$X$X$X$X%XXXy.! :.^ %._ 5XtXeXeXeXeXeXeXeXeXeXeXeXeX",
"eXeXeXeXeXeXeXeXtXY.* f.g.g.g.g.d.` e.#X;X;X;X-X-X-X;X:XG.`.%XXX$X$X%X$X$X].o.! :.h.:.J :.b.tXeXeXeXeXeXeXeXeXeXeXeXeX",
"eXeXeXeXeXeXeXeXtXY.% f.j.g.g.g.g.d.%.o.J.#X-X;X;X-X-X;X#XG.].%X$X$X X`.,.! @.d.g.g.f.^ :.! 1XtXeXeXeXeXeXeXeXeXeXeXeX",
"eXeXeXeXeXeXeXeXtX5XX.a.g.g.g.g.g.g.g.0.' ' r.[.#X:X=X-X-X{.e.H.u.q.` / ) a.g.g.g.g.g.#.$.J l.tXeXeXeXeXeXeXeXeXeXeXeX",
"eXeXeXeXeXeXeXeXrXtXn.a.g.g.g.g.g.g.g.g.g.a.*.' ` ] o.r.9...e ; ! @.>.d.g.g.g.g.g.g.g.:.) ( l.tXeXeXeXeXeXeXeXeXeXeXeX",
"eXeXeXeXeXeXeXeXtXtXv.-.g.g.g.g.g.g.g.f.g.g.g.g.d.0.>.=.-.*.>.d.g.g.g.g.g.g.g.g.g.g.g.s.%.$.b.tXeXeXeXeXeXeXeXeXeXeXeX",
"eXeXeXeXeXeXeXeXtXtX .( h.g.g.g.g.g.g.g.g.g.g.g.g.g.j.j.h.g.g.g.g.g.g.g.g.g.g.g.g.g.g.g.f.;.b.tXeXeXeXeXeXeXeXeXeXeXeX",
"eXeXeXeXeXeXeXeXeXtXN.E h.g.g.g.g.g.g.g.g.g.g.f.g.g.g.g.g.g.f.g.g.g.g.g.g.g.g.g.g.g.g.g.g.%.b.eXeXeXeXeXeXeXeXeXeXeXeX",
"eXeXeXeXeXeXeXeXeXeXrX9 a.g.g.g.g.f.g.g.g.g.g.g.g.g.g.g.g.g.g.g.f.g.g.g.g.g.g.g.g.g.g.g.g.( x.eXeXeXeXeXeXeXeXeXeXeXeX",
"eXeXeXeXeXeXeXeXeXeXrX[ ) g.g.g.g.g.g.g.g.g.g.f.g.g.g.g.g.g.g.g.g.f.g.g.g.g.g.g.g.g.g.g.g.; k.eXeXeXeXeXeXeXeXeXeXeXeX",
"eXeXeXeXeXeXeXeXeXeXtX<X9 d.g.g.g.g.g.g.g.g.g.g.g.g.g.g.g.g.g.g.g.g.g.g.g.g.g.g.g.g.g.g.a.9 2XeXeXeXeXeXeXeXtXeXeXeXeX",
"eXeXeXeXeXeXeXeXeXeXeXrX .^ g.g.g.g.g.g.g.g.g.g.g.g.g.g.g.g.g.g.g.g.g.f.g.g.g.g.g.g.g.g.^ [ eXeXeXeXeXeXeXeXeXeXeXeXeX",
"eXeXeXeXeXeXeXeXeXeXeXeX<X6 *.g.g.g.g.g.g.g.g.g.g.g.g.f.g.g.g.g.g.g.g.g.g.g.g.g.g.g.g.:.$ 1XtXeXeXeXeXeXeXeXeXeXeXeXeX",
"eXeXeXeXeXeXeXeXeXeXeXeXeX<Xq %.g.g.g.g.g.g.g.g.g.g.g.g.g.g.g.g.g.g.g.g.g.g.g.g.g.g.0.* m.rXtXeXeXeXeXeXeXeXeXeXeXeXeX",
"eXeXeXeXeXeXeXeXeXeXeXeXeXeX<X6 ( f.g.g.g.g.g.g.g.g.g.g.g.g.f.g.g.g.g.f.g.g.g.g.j.:.= m.eXeXeXeXeXeXeXeXeXeXeXeXeXeXeX",
"eXeXeXeXeXeXeXeXeXeXeXeXeXeXtX1XM.R -.g.h.g.g.g.g.g.g.g.g.g.g.g.g.g.g.g.g.g.g.>.J v.2XeXtXeXeXeXeXeXeXeXeXeXeXeXeXeXeX",
"eXeXeXeXeXeXeXeXeXeXeXeXeXeXeXtXtXM. .J ;.d.g.g.g.g.g.h.g.g.g.g.g.g.g.g.a.#.; 0 b.qXtXeXeXeXeXeXeXeXeXeXeXeXeXeXeXeXtX",
"eXeXeXeXeXeXeXeXeXeXeXeXeXeXeXeXeXtX9XOX0 W ( %.>.a.g.h.g.f.f.a.>.-.^ W 6 O.>X1XtXeXeXeXeXeXeXeXeXeXeXeXeXeXeXeXeXeXeX",
"eXeXeXeXeXeXeXeXeXeXeXeXeXeXeXeXeXeXeXtXwXqXx. .v.X.% * - = > O.v.O.t Y.qXeXtXeXtXeXeXeXeXeXeXeXeXeXeXeXeXeXeXeXeXeXeX",
"eXeXeXeXeXeXeXeXeXeXeXeXeXeXeXeXeXeXeXeXeXeXtXtXeX8Xm.m.N.N.m.9XtXtXtXeXeXeXeXeXeXeXeXeXeXeXeXeXeXeXeXeXeXeXeXeXeXeXeX"
};
